%TF.GenerationSoftware,KiCad,Pcbnew,9.0.8-9.0.8~ubuntu24.04.1*%
%TF.CreationDate,2026-05-01T14:37:12+07:00*%
%TF.ProjectId,majigotcha,6d616a69-676f-4746-9368-612e6b696361,rev?*%
%TF.SameCoordinates,Original*%
%TF.FileFunction,Copper,L2,Bot*%
%TF.FilePolarity,Positive*%
%FSLAX46Y46*%
G04 Gerber Fmt 4.6, Leading zero omitted, Abs format (unit mm)*
G04 Created by KiCad (PCBNEW 9.0.8-9.0.8~ubuntu24.04.1) date 2026-05-01 14:37:12*
%MOMM*%
%LPD*%
G01*
G04 APERTURE LIST*
G04 Aperture macros list*
%AMRoundRect*
0 Rectangle with rounded corners*
0 $1 Rounding radius*
0 $2 $3 $4 $5 $6 $7 $8 $9 X,Y pos of 4 corners*
0 Add a 4 corners polygon primitive as box body*
4,1,4,$2,$3,$4,$5,$6,$7,$8,$9,$2,$3,0*
0 Add four circle primitives for the rounded corners*
1,1,$1+$1,$2,$3*
1,1,$1+$1,$4,$5*
1,1,$1+$1,$6,$7*
1,1,$1+$1,$8,$9*
0 Add four rect primitives between the rounded corners*
20,1,$1+$1,$2,$3,$4,$5,0*
20,1,$1+$1,$4,$5,$6,$7,0*
20,1,$1+$1,$6,$7,$8,$9,0*
20,1,$1+$1,$8,$9,$2,$3,0*%
G04 Aperture macros list end*
%TA.AperFunction,ComponentPad*%
%ADD10R,2.000000X2.000000*%
%TD*%
%TA.AperFunction,ComponentPad*%
%ADD11C,2.000000*%
%TD*%
%TA.AperFunction,ComponentPad*%
%ADD12R,1.508000X1.508000*%
%TD*%
%TA.AperFunction,ComponentPad*%
%ADD13C,1.508000*%
%TD*%
%TA.AperFunction,ComponentPad*%
%ADD14C,3.000000*%
%TD*%
%TA.AperFunction,ComponentPad*%
%ADD15R,1.700000X1.700000*%
%TD*%
%TA.AperFunction,ComponentPad*%
%ADD16C,1.700000*%
%TD*%
%TA.AperFunction,ComponentPad*%
%ADD17O,3.240000X2.720000*%
%TD*%
%TA.AperFunction,ComponentPad*%
%ADD18R,1.800000X1.800000*%
%TD*%
%TA.AperFunction,ComponentPad*%
%ADD19C,1.800000*%
%TD*%
%TA.AperFunction,SMDPad,CuDef*%
%ADD20RoundRect,0.500000X-0.875000X-0.500000X0.875000X-0.500000X0.875000X0.500000X-0.875000X0.500000X0*%
%TD*%
%TA.AperFunction,SMDPad,CuDef*%
%ADD21RoundRect,0.275000X0.275000X-0.975000X0.275000X0.975000X-0.275000X0.975000X-0.275000X-0.975000X0*%
%TD*%
%TA.AperFunction,SMDPad,CuDef*%
%ADD22C,1.700000*%
%TD*%
%TA.AperFunction,ComponentPad*%
%ADD23R,1.308000X1.308000*%
%TD*%
%TA.AperFunction,ComponentPad*%
%ADD24C,1.308000*%
%TD*%
%TA.AperFunction,ViaPad*%
%ADD25C,0.600000*%
%TD*%
%TA.AperFunction,Conductor*%
%ADD26C,0.200000*%
%TD*%
G04 APERTURE END LIST*
D10*
%TO.P,BUZZER1,1,+*%
%TO.N,BUZ*%
X191699361Y-130099583D03*
D11*
%TO.P,BUZZER1,2,-*%
%TO.N,GND*%
X191699361Y-125099583D03*
%TD*%
D12*
%TO.P,U2,1,GND*%
%TO.N,GND*%
X186089367Y-114499580D03*
D13*
%TO.P,U2,2,VCC_IN*%
%TO.N,+3V3*%
X188629367Y-114499580D03*
%TO.P,U2,3,SCL*%
%TO.N,SCL*%
X191169367Y-114499580D03*
%TO.P,U2,4,SDA*%
%TO.N,SDA*%
X193709367Y-114499580D03*
D14*
%TO.P,U2,S1*%
%TO.N,N/C*%
X178899367Y-114999580D03*
%TO.P,U2,S2*%
X200899367Y-114999580D03*
%TO.P,U2,S3*%
X200899367Y-136999580D03*
%TO.P,U2,S4*%
X178899367Y-136999580D03*
%TD*%
D11*
%TO.P,SW2,1,1*%
%TO.N,GND*%
X186299379Y-142799524D03*
X192799379Y-142799524D03*
%TO.P,SW2,2,2*%
%TO.N,BTN2*%
X186299379Y-147299524D03*
X192799379Y-147299524D03*
%TD*%
%TO.P,SW1,1,1*%
%TO.N,GND*%
X176699411Y-142799524D03*
X183199411Y-142799524D03*
%TO.P,SW1,2,2*%
%TO.N,BTN1*%
X176699411Y-147299524D03*
X183199411Y-147299524D03*
%TD*%
%TO.P,SW3,1,1*%
%TO.N,GND*%
X195899347Y-142799524D03*
X202399347Y-142799524D03*
%TO.P,SW3,2,2*%
%TO.N,BTN3*%
X195899347Y-147299524D03*
X202399347Y-147299524D03*
%TD*%
D15*
%TO.P,U4,1,V_TOUCH*%
%TO.N,+3V3*%
X171599428Y-132039526D03*
D16*
%TO.P,U4,2,TOUCH_OUT*%
%TO.N,TOUCH_OUT*%
X171599428Y-134579526D03*
%TO.P,U4,3,VCC*%
%TO.N,+3V3*%
X171599428Y-137119526D03*
%TO.P,U4,4,TX*%
%TO.N,TX*%
X171599428Y-139659526D03*
%TO.P,U4,5,RX*%
%TO.N,RX*%
X171599428Y-142199526D03*
%TO.P,U4,6,GND*%
%TO.N,GND*%
X171599428Y-144739526D03*
%TD*%
D17*
%TO.P,RV1,*%
%TO.N,*%
X167124437Y-127799590D03*
X167124437Y-118199590D03*
D18*
%TO.P,RV1,1,1*%
%TO.N,GND*%
X174624437Y-125499590D03*
D19*
%TO.P,RV1,2,2*%
%TO.N,POTENTIO*%
X174624437Y-122999590D03*
%TO.P,RV1,3,3*%
%TO.N,+3V3*%
X174624437Y-120499590D03*
%TD*%
D20*
%TO.P,U5,1,GPIO0_A0_D0*%
%TO.N,BTN2*%
X149699501Y-148139557D03*
%TO.P,U5,2,GPIO1_A1_D1*%
%TO.N,BTN1*%
X149699501Y-145599557D03*
%TO.P,U5,3,GPIO2_A2_D2*%
%TO.N,POTENTIO*%
X149699501Y-143059557D03*
%TO.P,U5,4,GPIO21_D3*%
%TO.N,TOUCH*%
X149699501Y-140519557D03*
%TO.P,U5,5,GPIO22_D4_SDA*%
%TO.N,SDA*%
X149699501Y-137979557D03*
%TO.P,U5,6,GPIO23_D5_SCL*%
%TO.N,SCL*%
X149699501Y-135439557D03*
%TO.P,U5,7,GPIO16_D6_TX*%
%TO.N,TX*%
X149699501Y-132899557D03*
%TO.P,U5,8,GPIO17_D7_RX*%
%TO.N,RX*%
X165864501Y-132899557D03*
%TO.P,U5,9,GPIO19_D8_SCK*%
%TO.N,TOUCH_OUT*%
X165864501Y-135439557D03*
%TO.P,U5,10,GPIO20_D9_MISO*%
%TO.N,BTN3*%
X165864501Y-137979557D03*
%TO.P,U5,11,GPIO18_D10_MOSI*%
%TO.N,BUZ*%
X165864501Y-140519557D03*
%TO.P,U5,12,3V3*%
%TO.N,+3V3*%
X165864501Y-143059557D03*
%TO.P,U5,13,GND*%
%TO.N,GND*%
X165864501Y-145599557D03*
%TO.P,U5,14,5V*%
%TO.N,+5V*%
X165864501Y-148139557D03*
D21*
%TO.P,U5,15,BAT*%
%TO.N,+BATT*%
X155973101Y-134987857D03*
%TO.P,U5,16,GND*%
%TO.N,GND*%
X158513101Y-134987857D03*
D22*
%TO.P,U5,17,MTDI*%
%TO.N,unconnected-(U5-MTDI-Pad17)*%
X156481101Y-149161057D03*
%TO.P,U5,18,MTDO*%
%TO.N,unconnected-(U5-MTDO-Pad18)*%
X159021101Y-149161057D03*
%TO.P,U5,19,CHIP_EN*%
%TO.N,unconnected-(U5-CHIP_EN-Pad19)*%
X156481101Y-146621057D03*
%TO.P,U5,20,GND*%
%TO.N,unconnected-(U5-GND-Pad20)*%
X159021101Y-146621057D03*
%TO.P,U5,21,MTMS*%
%TO.N,unconnected-(U5-MTMS-Pad21)*%
X156481101Y-144081057D03*
%TO.P,U5,22,MTCK*%
%TO.N,unconnected-(U5-MTCK-Pad22)*%
X159021101Y-144081057D03*
%TO.P,U5,23,BOOT*%
%TO.N,unconnected-(U5-BOOT-Pad23)*%
X156481101Y-141541057D03*
%TO.P,U5,24,3V3_1*%
%TO.N,unconnected-(U5-3V3_1-Pad24)*%
X158928501Y-141597857D03*
%TD*%
D15*
%TO.P,BT1,1,+*%
%TO.N,+BATT*%
X167624437Y-113699621D03*
D16*
%TO.P,BT1,2,-*%
%TO.N,GND*%
X170164437Y-113699621D03*
%TD*%
D23*
%TO.P,U3,1,VCC*%
%TO.N,+3V3*%
X149104481Y-123944596D03*
D24*
%TO.P,U3,2,SIG/LOW*%
%TO.N,TOUCH*%
X149104481Y-121404596D03*
%TO.P,U3,3,GND*%
%TO.N,GND*%
X149104481Y-118864596D03*
%TD*%
D25*
%TO.N,BUZ*%
X168599438Y-143099523D03*
%TO.N,+3V3*%
X173699421Y-140699531D03*
X168899437Y-146399512D03*
%TO.N,POTENTIO*%
X162899457Y-137699541D03*
%TO.N,BTN1*%
X175199416Y-149699501D03*
%TO.N,BTN2*%
X183899387Y-150299499D03*
%TO.N,BTN3*%
X194399352Y-141299529D03*
%TO.N,TOUCH_OUT*%
X167999440Y-135299549D03*
%TO.N,TX*%
X153299489Y-136199546D03*
%TO.N,TOUCH*%
X147299509Y-127199576D03*
%TO.N,SDA*%
X164099453Y-115499615D03*
%TO.N,RX*%
X168899437Y-140399532D03*
%TO.N,SCL*%
X162325194Y-116425345D03*
%TD*%
D26*
%TO.N,BUZ*%
X168599438Y-143099523D02*
X168599438Y-141599528D01*
X168599438Y-141599528D02*
X167519467Y-140519557D01*
X167519467Y-140519557D02*
X165864501Y-140519557D01*
%TO.N,+3V3*%
X173699421Y-145799514D02*
X173699421Y-140699531D01*
X172799424Y-146699511D02*
X173699421Y-145799514D01*
X165842870Y-142826039D02*
X168899437Y-145882606D01*
X170999430Y-146699511D02*
X172799424Y-146699511D01*
X168899437Y-145882606D02*
X168899437Y-146399512D01*
X167125958Y-142826039D02*
X170999430Y-146699511D01*
X165842870Y-142826039D02*
X167125958Y-142826039D01*
%TO.N,POTENTIO*%
X162899457Y-137699541D02*
X156299479Y-137699541D01*
X156299479Y-137699541D02*
X151172981Y-142826039D01*
X151172981Y-142826039D02*
X149677870Y-142826039D01*
%TO.N,BTN1*%
X174699421Y-150199496D02*
X175199416Y-149699501D01*
X149699501Y-145599557D02*
X156699520Y-138599538D01*
X156699520Y-138599538D02*
X159599468Y-138599538D01*
X165199446Y-150199496D02*
X174699421Y-150199496D01*
X163199456Y-148199506D02*
X165199446Y-150199496D01*
X163199456Y-142199526D02*
X163199456Y-148199506D01*
X159599468Y-138599538D02*
X163199456Y-142199526D01*
%TO.N,BTN2*%
X152371327Y-150599496D02*
X183599390Y-150599496D01*
X149677870Y-147906039D02*
X152371327Y-150599496D01*
X183599390Y-150599496D02*
X183899387Y-150299499D01*
%TO.N,BTN3*%
X167759467Y-131099563D02*
X169799434Y-133139530D01*
X193499355Y-140399532D02*
X194399352Y-141299529D01*
X173099423Y-133199556D02*
X174899417Y-134999550D01*
X176099413Y-140399532D02*
X193499355Y-140399532D01*
X164745949Y-137746039D02*
X162599458Y-135599548D01*
X165842870Y-137746039D02*
X164745949Y-137746039D01*
X169799434Y-133199556D02*
X173099423Y-133199556D01*
X163799454Y-131099563D02*
X167759467Y-131099563D01*
X162599458Y-135599548D02*
X162599458Y-132299559D01*
X174899417Y-139199536D02*
X176099413Y-140399532D01*
X169799434Y-133139530D02*
X169799434Y-133199556D01*
X174899417Y-134999550D02*
X174899417Y-139199536D01*
X162599458Y-132299559D02*
X163799454Y-131099563D01*
%TO.N,TOUCH_OUT*%
X167905930Y-135206039D02*
X165842870Y-135206039D01*
X167999440Y-135299549D02*
X167905930Y-135206039D01*
%TO.N,TX*%
X153299489Y-134699551D02*
X151499495Y-132899557D01*
X153299489Y-136199546D02*
X153299489Y-134699551D01*
X151499495Y-132899557D02*
X149301301Y-132899557D01*
%TO.N,TOUCH*%
X147299509Y-127199576D02*
X146999510Y-127499575D01*
X146999510Y-127499575D02*
X146999510Y-137819566D01*
X146999510Y-137819566D02*
X149699501Y-140519557D01*
%TO.N,SDA*%
X147946005Y-137746039D02*
X149677870Y-137746039D01*
X147399510Y-130999562D02*
X147399510Y-137199544D01*
X151075230Y-128523838D02*
X149699501Y-129899567D01*
X150899495Y-128348102D02*
X151075230Y-128523838D01*
X150899495Y-127851044D02*
X150899495Y-128348102D01*
X147399510Y-137199544D02*
X147946005Y-137746039D01*
X151250966Y-127499573D02*
X150899495Y-127851044D01*
X151923759Y-127675309D02*
X151748024Y-127499573D01*
X149699501Y-129899567D02*
X148499505Y-129899567D01*
X164099453Y-115499615D02*
X151923759Y-127675309D01*
X151748024Y-127499573D02*
X151250966Y-127499573D01*
X148499505Y-129899567D02*
X147399510Y-130999562D01*
%TO.N,RX*%
X168899437Y-133799554D02*
X167765922Y-132666039D01*
X167765922Y-132666039D02*
X165842870Y-132666039D01*
X168899437Y-140399532D02*
X168899437Y-133799554D01*
%TO.N,SCL*%
X152999490Y-137399542D02*
X151039505Y-135439557D01*
X162325194Y-116425345D02*
X163850924Y-114899615D01*
X164699453Y-115799612D02*
X154199486Y-126299579D01*
X154199486Y-136799544D02*
X153599488Y-137399542D01*
X164699453Y-115251086D02*
X164699453Y-115799612D01*
X163850924Y-114899615D02*
X164347982Y-114899615D01*
X151039505Y-135439557D02*
X149699501Y-135439557D01*
X164347982Y-114899615D02*
X164699453Y-115251086D01*
X154199486Y-126299579D02*
X154199486Y-136799544D01*
X153599488Y-137399542D02*
X152999490Y-137399542D01*
%TO.N,+BATT*%
X167624437Y-114074624D02*
X155973101Y-125725960D01*
X167624437Y-113699621D02*
X167624437Y-114074624D01*
X155973101Y-125725960D02*
X155973101Y-134987857D01*
%TD*%
%TA.AperFunction,Conductor*%
%TO.N,GND*%
G36*
X205241851Y-111219817D02*
G01*
X205287606Y-111272621D01*
X205298812Y-111324132D01*
X205298812Y-150574996D01*
X205279127Y-150642035D01*
X205226323Y-150687790D01*
X205174812Y-150698996D01*
X184785944Y-150698996D01*
X184718905Y-150679311D01*
X184673150Y-150626507D01*
X184663206Y-150557349D01*
X184668195Y-150539077D01*
X184667356Y-150538823D01*
X184669118Y-150533008D01*
X184669124Y-150532996D01*
X184699887Y-150378341D01*
X184699887Y-150220657D01*
X184699887Y-150220654D01*
X184699886Y-150220652D01*
X184669125Y-150066009D01*
X184669124Y-150066002D01*
X184669122Y-150065997D01*
X184608784Y-149920326D01*
X184608777Y-149920313D01*
X184521176Y-149789210D01*
X184521173Y-149789206D01*
X184409679Y-149677712D01*
X184409675Y-149677709D01*
X184278572Y-149590108D01*
X184278559Y-149590101D01*
X184132888Y-149529763D01*
X184132876Y-149529760D01*
X183978232Y-149498999D01*
X183978229Y-149498999D01*
X183820545Y-149498999D01*
X183820542Y-149498999D01*
X183665897Y-149529760D01*
X183665885Y-149529763D01*
X183520214Y-149590101D01*
X183520201Y-149590108D01*
X183389098Y-149677709D01*
X183389094Y-149677712D01*
X183277597Y-149789209D01*
X183189996Y-149920314D01*
X183189988Y-149920328D01*
X183189109Y-149922453D01*
X183188350Y-149923393D01*
X183187123Y-149925691D01*
X183186687Y-149925458D01*
X183145266Y-149976855D01*
X183078971Y-149998917D01*
X183074550Y-149998996D01*
X176107120Y-149998996D01*
X176040081Y-149979311D01*
X175994326Y-149926507D01*
X175984382Y-149857349D01*
X175985503Y-149850805D01*
X175999915Y-149778347D01*
X175999916Y-149778345D01*
X175999916Y-149620656D01*
X175999915Y-149620654D01*
X175990529Y-149573466D01*
X175969153Y-149466004D01*
X175965568Y-149457349D01*
X175908813Y-149320328D01*
X175908806Y-149320315D01*
X175821205Y-149189212D01*
X175821202Y-149189208D01*
X175709708Y-149077714D01*
X175709704Y-149077711D01*
X175578601Y-148990110D01*
X175578588Y-148990103D01*
X175432917Y-148929765D01*
X175432905Y-148929762D01*
X175278261Y-148899001D01*
X175278258Y-148899001D01*
X175120574Y-148899001D01*
X175120571Y-148899001D01*
X174965926Y-148929762D01*
X174965914Y-148929765D01*
X174820243Y-148990103D01*
X174820230Y-148990110D01*
X174689127Y-149077711D01*
X174689123Y-149077714D01*
X174577629Y-149189208D01*
X174577626Y-149189212D01*
X174490025Y-149320315D01*
X174490018Y-149320328D01*
X174429680Y-149465999D01*
X174429677Y-149466011D01*
X174423078Y-149499187D01*
X174390693Y-149561098D01*
X174329978Y-149595672D01*
X174301461Y-149598996D01*
X167494352Y-149598996D01*
X167427313Y-149579311D01*
X167381558Y-149526507D01*
X167371614Y-149457349D01*
X167400639Y-149393793D01*
X167415992Y-149378894D01*
X167450608Y-149350668D01*
X167475352Y-149320322D01*
X167579199Y-149192964D01*
X167673410Y-149012606D01*
X167729387Y-148816975D01*
X167740001Y-148697594D01*
X167740000Y-147581521D01*
X167729387Y-147462139D01*
X167675856Y-147275056D01*
X167673411Y-147266511D01*
X167673410Y-147266510D01*
X167673410Y-147266508D01*
X167579199Y-147086150D01*
X167466680Y-146948156D01*
X167450610Y-146928447D01*
X167311099Y-146814692D01*
X167292908Y-146799859D01*
X167112550Y-146705648D01*
X167112549Y-146705647D01*
X167112546Y-146705646D01*
X166995330Y-146672107D01*
X166916919Y-146649671D01*
X166916916Y-146649670D01*
X166916914Y-146649670D01*
X166850603Y-146643774D01*
X166797538Y-146639057D01*
X166797533Y-146639057D01*
X164931472Y-146639057D01*
X164931466Y-146639057D01*
X164931465Y-146639058D01*
X164919817Y-146640093D01*
X164812085Y-146649670D01*
X164616455Y-146705646D01*
X164574919Y-146727343D01*
X164436094Y-146799859D01*
X164436092Y-146799860D01*
X164436091Y-146799861D01*
X164278391Y-146928447D01*
X164164417Y-147068227D01*
X164149803Y-147086150D01*
X164100765Y-147180029D01*
X164055591Y-147266510D01*
X164043172Y-147309914D01*
X164005804Y-147368952D01*
X163942451Y-147398415D01*
X163873225Y-147388950D01*
X163820106Y-147343561D01*
X163799959Y-147276659D01*
X163799956Y-147275802D01*
X163799956Y-143923311D01*
X163819641Y-143856272D01*
X163872445Y-143810517D01*
X163941603Y-143800573D01*
X164005159Y-143829598D01*
X164042933Y-143888376D01*
X164043172Y-143889200D01*
X164055590Y-143932602D01*
X164055591Y-143932605D01*
X164055592Y-143932606D01*
X164149803Y-144112964D01*
X164149805Y-144112966D01*
X164278391Y-144270666D01*
X164350616Y-144329557D01*
X164436094Y-144399255D01*
X164616452Y-144493466D01*
X164812083Y-144549443D01*
X164931464Y-144560057D01*
X166676289Y-144560056D01*
X166743328Y-144579741D01*
X166763970Y-144596375D01*
X168130836Y-145963241D01*
X168164321Y-146024564D01*
X168159337Y-146094256D01*
X168157717Y-146098372D01*
X168129700Y-146166014D01*
X168129697Y-146166023D01*
X168098937Y-146320665D01*
X168098937Y-146478358D01*
X168129698Y-146633001D01*
X168129701Y-146633013D01*
X168190039Y-146778684D01*
X168190046Y-146778697D01*
X168277647Y-146909800D01*
X168277650Y-146909804D01*
X168389144Y-147021298D01*
X168389148Y-147021301D01*
X168520251Y-147108902D01*
X168520264Y-147108909D01*
X168665935Y-147169247D01*
X168665940Y-147169249D01*
X168820590Y-147200011D01*
X168820593Y-147200012D01*
X168820595Y-147200012D01*
X168978281Y-147200012D01*
X168978282Y-147200011D01*
X169132934Y-147169249D01*
X169278616Y-147108906D01*
X169409726Y-147021301D01*
X169521226Y-146909801D01*
X169608831Y-146778691D01*
X169669174Y-146633009D01*
X169692689Y-146514794D01*
X169725074Y-146452883D01*
X169785789Y-146418309D01*
X169855559Y-146422048D01*
X169901987Y-146451304D01*
X170630714Y-147180031D01*
X170630716Y-147180032D01*
X170630720Y-147180035D01*
X170756270Y-147252520D01*
X170767646Y-147259088D01*
X170920373Y-147300012D01*
X170920375Y-147300012D01*
X171086084Y-147300012D01*
X171086100Y-147300011D01*
X172712755Y-147300011D01*
X172712771Y-147300012D01*
X172720367Y-147300012D01*
X172878478Y-147300012D01*
X172878481Y-147300012D01*
X173031209Y-147259088D01*
X173081328Y-147230150D01*
X173165724Y-147181426D01*
X175198911Y-147181426D01*
X175198911Y-147417621D01*
X175235857Y-147650892D01*
X175308844Y-147875520D01*
X175373056Y-148001541D01*
X175416068Y-148085957D01*
X175554894Y-148277034D01*
X175721901Y-148444041D01*
X175912978Y-148582867D01*
X176012402Y-148633526D01*
X176123414Y-148690090D01*
X176123416Y-148690090D01*
X176123419Y-148690092D01*
X176243823Y-148729213D01*
X176348042Y-148763077D01*
X176581314Y-148800024D01*
X176581319Y-148800024D01*
X176817508Y-148800024D01*
X177050779Y-148763077D01*
X177275403Y-148690092D01*
X177485844Y-148582867D01*
X177676921Y-148444041D01*
X177843928Y-148277034D01*
X177982754Y-148085957D01*
X178089979Y-147875516D01*
X178162964Y-147650892D01*
X178173951Y-147581521D01*
X178199911Y-147417621D01*
X178199911Y-147181426D01*
X181698911Y-147181426D01*
X181698911Y-147417621D01*
X181735857Y-147650892D01*
X181808844Y-147875520D01*
X181873056Y-148001541D01*
X181916068Y-148085957D01*
X182054894Y-148277034D01*
X182221901Y-148444041D01*
X182412978Y-148582867D01*
X182512402Y-148633526D01*
X182623414Y-148690090D01*
X182623416Y-148690090D01*
X182623419Y-148690092D01*
X182743823Y-148729213D01*
X182848042Y-148763077D01*
X183081314Y-148800024D01*
X183081319Y-148800024D01*
X183317508Y-148800024D01*
X183550779Y-148763077D01*
X183775403Y-148690092D01*
X183985844Y-148582867D01*
X184176921Y-148444041D01*
X184343928Y-148277034D01*
X184482754Y-148085957D01*
X184589979Y-147875516D01*
X184631464Y-147747837D01*
X184670902Y-147690163D01*
X184735261Y-147662965D01*
X184804107Y-147674880D01*
X184855583Y-147722124D01*
X184867326Y-147747838D01*
X184908812Y-147875520D01*
X184973024Y-148001541D01*
X185016036Y-148085957D01*
X185154862Y-148277034D01*
X185321869Y-148444041D01*
X185512946Y-148582867D01*
X185612370Y-148633526D01*
X185723382Y-148690090D01*
X185723384Y-148690090D01*
X185723387Y-148690092D01*
X185843791Y-148729213D01*
X185948010Y-148763077D01*
X186181282Y-148800024D01*
X186181287Y-148800024D01*
X186417476Y-148800024D01*
X186650747Y-148763077D01*
X186875371Y-148690092D01*
X187085812Y-148582867D01*
X187276889Y-148444041D01*
X187443896Y-148277034D01*
X187582722Y-148085957D01*
X187689947Y-147875516D01*
X187762932Y-147650892D01*
X187773919Y-147581521D01*
X187799879Y-147417621D01*
X187799879Y-147181426D01*
X191298879Y-147181426D01*
X191298879Y-147417621D01*
X191335825Y-147650892D01*
X191408812Y-147875520D01*
X191473024Y-148001541D01*
X191516036Y-148085957D01*
X191654862Y-148277034D01*
X191821869Y-148444041D01*
X192012946Y-148582867D01*
X192112370Y-148633526D01*
X192223382Y-148690090D01*
X192223384Y-148690090D01*
X192223387Y-148690092D01*
X192343791Y-148729213D01*
X192448010Y-148763077D01*
X192681282Y-148800024D01*
X192681287Y-148800024D01*
X192917476Y-148800024D01*
X193150747Y-148763077D01*
X193375371Y-148690092D01*
X193585812Y-148582867D01*
X193776889Y-148444041D01*
X193943896Y-148277034D01*
X194082722Y-148085957D01*
X194189947Y-147875516D01*
X194231432Y-147747837D01*
X194270870Y-147690163D01*
X194335229Y-147662965D01*
X194404075Y-147674880D01*
X194455551Y-147722124D01*
X194467294Y-147747838D01*
X194508780Y-147875520D01*
X194572992Y-148001541D01*
X194616004Y-148085957D01*
X194754830Y-148277034D01*
X194921837Y-148444041D01*
X195112914Y-148582867D01*
X195212338Y-148633526D01*
X195323350Y-148690090D01*
X195323352Y-148690090D01*
X195323355Y-148690092D01*
X195443759Y-148729213D01*
X195547978Y-148763077D01*
X195781250Y-148800024D01*
X195781255Y-148800024D01*
X196017444Y-148800024D01*
X196250715Y-148763077D01*
X196475339Y-148690092D01*
X196685780Y-148582867D01*
X196876857Y-148444041D01*
X197043864Y-148277034D01*
X197182690Y-148085957D01*
X197289915Y-147875516D01*
X197362900Y-147650892D01*
X197373887Y-147581521D01*
X197399847Y-147417621D01*
X197399847Y-147181426D01*
X200898847Y-147181426D01*
X200898847Y-147417621D01*
X200935793Y-147650892D01*
X201008780Y-147875520D01*
X201072992Y-148001541D01*
X201116004Y-148085957D01*
X201254830Y-148277034D01*
X201421837Y-148444041D01*
X201612914Y-148582867D01*
X201712338Y-148633526D01*
X201823350Y-148690090D01*
X201823352Y-148690090D01*
X201823355Y-148690092D01*
X201943759Y-148729213D01*
X202047978Y-148763077D01*
X202281250Y-148800024D01*
X202281255Y-148800024D01*
X202517444Y-148800024D01*
X202750715Y-148763077D01*
X202975339Y-148690092D01*
X203185780Y-148582867D01*
X203376857Y-148444041D01*
X203543864Y-148277034D01*
X203682690Y-148085957D01*
X203789915Y-147875516D01*
X203862900Y-147650892D01*
X203873887Y-147581521D01*
X203899847Y-147417621D01*
X203899847Y-147181426D01*
X203862900Y-146948155D01*
X203807835Y-146778684D01*
X203789915Y-146723532D01*
X203789913Y-146723529D01*
X203789913Y-146723527D01*
X203733349Y-146612515D01*
X203682690Y-146513091D01*
X203543864Y-146322014D01*
X203376857Y-146155007D01*
X203185780Y-146016181D01*
X202975343Y-145908957D01*
X202750715Y-145835970D01*
X202517444Y-145799024D01*
X202517439Y-145799024D01*
X202281255Y-145799024D01*
X202281250Y-145799024D01*
X202047978Y-145835970D01*
X201823350Y-145908957D01*
X201612913Y-146016181D01*
X201524970Y-146080076D01*
X201421837Y-146155007D01*
X201421835Y-146155009D01*
X201421834Y-146155009D01*
X201254832Y-146322011D01*
X201254832Y-146322012D01*
X201254830Y-146322014D01*
X201195209Y-146404074D01*
X201116004Y-146513090D01*
X201008780Y-146723527D01*
X200935793Y-146948155D01*
X200898847Y-147181426D01*
X197399847Y-147181426D01*
X197362900Y-146948155D01*
X197307835Y-146778684D01*
X197289915Y-146723532D01*
X197289913Y-146723529D01*
X197289913Y-146723527D01*
X197233349Y-146612515D01*
X197182690Y-146513091D01*
X197043864Y-146322014D01*
X196876857Y-146155007D01*
X196685780Y-146016181D01*
X196475343Y-145908957D01*
X196250715Y-145835970D01*
X196017444Y-145799024D01*
X196017439Y-145799024D01*
X195781255Y-145799024D01*
X195781250Y-145799024D01*
X195547978Y-145835970D01*
X195323350Y-145908957D01*
X195112913Y-146016181D01*
X195024970Y-146080076D01*
X194921837Y-146155007D01*
X194921835Y-146155009D01*
X194921834Y-146155009D01*
X194754832Y-146322011D01*
X194754832Y-146322012D01*
X194754830Y-146322014D01*
X194695209Y-146404074D01*
X194616004Y-146513090D01*
X194508780Y-146723527D01*
X194467294Y-146851209D01*
X194427856Y-146908884D01*
X194363497Y-146936082D01*
X194294651Y-146924167D01*
X194243175Y-146876923D01*
X194231432Y-146851209D01*
X194207867Y-146778684D01*
X194189947Y-146723532D01*
X194189945Y-146723529D01*
X194189945Y-146723527D01*
X194133381Y-146612515D01*
X194082722Y-146513091D01*
X193943896Y-146322014D01*
X193776889Y-146155007D01*
X193585812Y-146016181D01*
X193375375Y-145908957D01*
X193150747Y-145835970D01*
X192917476Y-145799024D01*
X192917471Y-145799024D01*
X192681287Y-145799024D01*
X192681282Y-145799024D01*
X192448010Y-145835970D01*
X192223382Y-145908957D01*
X192012945Y-146016181D01*
X191925002Y-146080076D01*
X191821869Y-146155007D01*
X191821867Y-146155009D01*
X191821866Y-146155009D01*
X191654864Y-146322011D01*
X191654864Y-146322012D01*
X191654862Y-146322014D01*
X191595241Y-146404074D01*
X191516036Y-146513090D01*
X191408812Y-146723527D01*
X191335825Y-146948155D01*
X191298879Y-147181426D01*
X187799879Y-147181426D01*
X187762932Y-146948155D01*
X187707867Y-146778684D01*
X187689947Y-146723532D01*
X187689945Y-146723529D01*
X187689945Y-146723527D01*
X187633381Y-146612515D01*
X187582722Y-146513091D01*
X187443896Y-146322014D01*
X187276889Y-146155007D01*
X187085812Y-146016181D01*
X186875375Y-145908957D01*
X186650747Y-145835970D01*
X186417476Y-145799024D01*
X186417471Y-145799024D01*
X186181287Y-145799024D01*
X186181282Y-145799024D01*
X185948010Y-145835970D01*
X185723382Y-145908957D01*
X185512945Y-146016181D01*
X185425002Y-146080076D01*
X185321869Y-146155007D01*
X185321867Y-146155009D01*
X185321866Y-146155009D01*
X185154864Y-146322011D01*
X185154864Y-146322012D01*
X185154862Y-146322014D01*
X185095241Y-146404074D01*
X185016036Y-146513090D01*
X184908812Y-146723527D01*
X184867326Y-146851209D01*
X184827888Y-146908884D01*
X184763529Y-146936082D01*
X184694683Y-146924167D01*
X184643207Y-146876923D01*
X184631464Y-146851209D01*
X184607899Y-146778684D01*
X184589979Y-146723532D01*
X184589977Y-146723529D01*
X184589977Y-146723527D01*
X184533413Y-146612515D01*
X184482754Y-146513091D01*
X184343928Y-146322014D01*
X184176921Y-146155007D01*
X183985844Y-146016181D01*
X183775407Y-145908957D01*
X183550779Y-145835970D01*
X183317508Y-145799024D01*
X183317503Y-145799024D01*
X183081319Y-145799024D01*
X183081314Y-145799024D01*
X182848042Y-145835970D01*
X182623414Y-145908957D01*
X182412977Y-146016181D01*
X182325034Y-146080076D01*
X182221901Y-146155007D01*
X182221899Y-146155009D01*
X182221898Y-146155009D01*
X182054896Y-146322011D01*
X182054896Y-146322012D01*
X182054894Y-146322014D01*
X181995273Y-146404074D01*
X181916068Y-146513090D01*
X181808844Y-146723527D01*
X181735857Y-146948155D01*
X181698911Y-147181426D01*
X178199911Y-147181426D01*
X178162964Y-146948155D01*
X178107899Y-146778684D01*
X178089979Y-146723532D01*
X178089977Y-146723529D01*
X178089977Y-146723527D01*
X178033413Y-146612515D01*
X177982754Y-146513091D01*
X177843928Y-146322014D01*
X177676921Y-146155007D01*
X177485844Y-146016181D01*
X177275407Y-145908957D01*
X177050779Y-145835970D01*
X176817508Y-145799024D01*
X176817503Y-145799024D01*
X176581319Y-145799024D01*
X176581314Y-145799024D01*
X176348042Y-145835970D01*
X176123414Y-145908957D01*
X175912977Y-146016181D01*
X175825034Y-146080076D01*
X175721901Y-146155007D01*
X175721899Y-146155009D01*
X175721898Y-146155009D01*
X175554896Y-146322011D01*
X175554896Y-146322012D01*
X175554894Y-146322014D01*
X175495273Y-146404074D01*
X175416068Y-146513090D01*
X175308844Y-146723527D01*
X175235857Y-146948155D01*
X175198911Y-147181426D01*
X173165724Y-147181426D01*
X173168140Y-147180031D01*
X173279944Y-147068227D01*
X173279945Y-147068224D01*
X174057927Y-146290242D01*
X174057932Y-146290238D01*
X174068135Y-146280034D01*
X174068137Y-146280034D01*
X174179941Y-146168230D01*
X174220273Y-146098372D01*
X174230836Y-146080077D01*
X174258996Y-146031302D01*
X174258995Y-146031302D01*
X174258998Y-146031299D01*
X174299922Y-145878571D01*
X174299922Y-145720457D01*
X174299922Y-145712862D01*
X174299921Y-145712844D01*
X174299921Y-141279296D01*
X174319606Y-141212257D01*
X174320819Y-141210405D01*
X174408811Y-141078716D01*
X174408811Y-141078715D01*
X174408815Y-141078710D01*
X174414064Y-141066039D01*
X174432587Y-141021318D01*
X174469158Y-140933028D01*
X174499921Y-140778373D01*
X174499921Y-140620689D01*
X174499921Y-140620686D01*
X174499920Y-140620684D01*
X174483734Y-140539312D01*
X174469158Y-140466034D01*
X174452921Y-140426833D01*
X174408818Y-140320358D01*
X174408811Y-140320345D01*
X174321210Y-140189242D01*
X174321207Y-140189238D01*
X174209713Y-140077744D01*
X174209709Y-140077741D01*
X174078606Y-139990140D01*
X174078593Y-139990133D01*
X173932922Y-139929795D01*
X173932910Y-139929792D01*
X173778266Y-139899031D01*
X173778263Y-139899031D01*
X173620579Y-139899031D01*
X173620576Y-139899031D01*
X173465931Y-139929792D01*
X173465919Y-139929795D01*
X173320248Y-139990133D01*
X173320235Y-139990140D01*
X173189132Y-140077741D01*
X173101676Y-140165197D01*
X173040352Y-140198681D01*
X172970661Y-140193697D01*
X172914727Y-140151825D01*
X172890311Y-140086360D01*
X172896063Y-140039202D01*
X172916674Y-139975769D01*
X172949928Y-139765813D01*
X172949928Y-139553239D01*
X172916674Y-139343283D01*
X172850985Y-139141114D01*
X172754479Y-138951710D01*
X172754477Y-138951707D01*
X172754476Y-138951705D01*
X172629537Y-138779739D01*
X172479214Y-138629416D01*
X172307248Y-138504477D01*
X172301654Y-138501627D01*
X172298482Y-138500011D01*
X172247687Y-138452038D01*
X172230891Y-138384218D01*
X172253427Y-138318082D01*
X172298482Y-138279041D01*
X172307244Y-138274577D01*
X172396357Y-138209833D01*
X172479214Y-138149635D01*
X172479216Y-138149632D01*
X172479220Y-138149630D01*
X172629532Y-137999318D01*
X172629534Y-137999314D01*
X172629537Y-137999312D01*
X172754476Y-137827346D01*
X172754475Y-137827346D01*
X172754479Y-137827342D01*
X172850985Y-137637938D01*
X172916674Y-137435769D01*
X172949928Y-137225813D01*
X172949928Y-137013239D01*
X172916674Y-136803283D01*
X172850985Y-136601114D01*
X172754479Y-136411710D01*
X172754477Y-136411707D01*
X172754476Y-136411705D01*
X172629537Y-136239739D01*
X172479214Y-136089416D01*
X172307248Y-135964477D01*
X172304804Y-135963232D01*
X172298482Y-135960011D01*
X172247687Y-135912038D01*
X172230891Y-135844218D01*
X172253427Y-135778082D01*
X172298482Y-135739041D01*
X172307244Y-135734577D01*
X172378836Y-135682563D01*
X172479214Y-135609635D01*
X172479216Y-135609632D01*
X172479220Y-135609630D01*
X172629532Y-135459318D01*
X172629534Y-135459314D01*
X172629537Y-135459312D01*
X172754476Y-135287346D01*
X172754475Y-135287346D01*
X172754479Y-135287342D01*
X172850985Y-135097938D01*
X172916674Y-134895769D01*
X172949928Y-134685813D01*
X172949928Y-134473239D01*
X172916674Y-134263283D01*
X172885084Y-134166062D01*
X172883090Y-134096223D01*
X172919170Y-134036390D01*
X172981871Y-134005562D01*
X173051285Y-134013527D01*
X173090697Y-134040065D01*
X174262598Y-135211966D01*
X174296083Y-135273289D01*
X174298917Y-135299647D01*
X174298917Y-139112866D01*
X174298916Y-139112884D01*
X174298916Y-139278590D01*
X174298915Y-139278590D01*
X174316250Y-139343286D01*
X174339840Y-139431321D01*
X174359949Y-139466150D01*
X174418896Y-139568250D01*
X174418898Y-139568253D01*
X174537766Y-139687121D01*
X174537771Y-139687125D01*
X175730697Y-140880052D01*
X175730699Y-140880053D01*
X175730703Y-140880056D01*
X175800506Y-140920356D01*
X175867629Y-140959109D01*
X176020356Y-141000033D01*
X176020358Y-141000033D01*
X176186067Y-141000033D01*
X176186083Y-141000032D01*
X193199258Y-141000032D01*
X193266297Y-141019717D01*
X193286939Y-141036351D01*
X193564777Y-141314189D01*
X193598262Y-141375512D01*
X193598713Y-141377678D01*
X193629613Y-141533020D01*
X193629616Y-141533030D01*
X193689954Y-141678701D01*
X193689961Y-141678714D01*
X193777562Y-141809817D01*
X193777565Y-141809821D01*
X193889059Y-141921315D01*
X193889063Y-141921318D01*
X194020166Y-142008919D01*
X194020179Y-142008926D01*
X194165850Y-142069264D01*
X194165855Y-142069266D01*
X194286375Y-142093239D01*
X194320505Y-142100028D01*
X194320508Y-142100029D01*
X194320510Y-142100029D01*
X194478196Y-142100029D01*
X194478197Y-142100028D01*
X194632849Y-142069266D01*
X194778531Y-142008923D01*
X194909641Y-141921318D01*
X195021141Y-141809818D01*
X195108746Y-141678708D01*
X195169089Y-141533026D01*
X195199852Y-141378371D01*
X195199852Y-141220687D01*
X195199852Y-141220684D01*
X195199851Y-141220682D01*
X195193404Y-141188269D01*
X195169089Y-141066032D01*
X195158311Y-141040012D01*
X195108749Y-140920356D01*
X195108742Y-140920343D01*
X195021141Y-140789240D01*
X195021138Y-140789236D01*
X194909644Y-140677742D01*
X194909640Y-140677739D01*
X194778537Y-140590138D01*
X194778524Y-140590131D01*
X194632853Y-140529793D01*
X194632843Y-140529790D01*
X194477501Y-140498890D01*
X194415590Y-140466505D01*
X194414012Y-140464954D01*
X193986945Y-140037887D01*
X193986943Y-140037884D01*
X193868072Y-139919013D01*
X193868071Y-139919012D01*
X193781259Y-139868892D01*
X193781259Y-139868891D01*
X193781255Y-139868890D01*
X193731140Y-139839955D01*
X193578412Y-139799031D01*
X193420298Y-139799031D01*
X193412702Y-139799031D01*
X193412686Y-139799032D01*
X176399511Y-139799032D01*
X176332472Y-139779347D01*
X176311830Y-139762713D01*
X175536236Y-138987119D01*
X175502751Y-138925796D01*
X175499917Y-138899438D01*
X175499917Y-136868452D01*
X176898867Y-136868452D01*
X176898867Y-137130707D01*
X176918532Y-137280065D01*
X176933097Y-137390696D01*
X176994726Y-137620699D01*
X177000969Y-137643998D01*
X177000972Y-137644008D01*
X177101320Y-137886270D01*
X177101325Y-137886280D01*
X177232442Y-138113383D01*
X177392085Y-138321431D01*
X177392093Y-138321440D01*
X177577507Y-138506854D01*
X177577515Y-138506861D01*
X177785563Y-138666504D01*
X178012666Y-138797621D01*
X178012676Y-138797626D01*
X178145410Y-138852606D01*
X178254948Y-138897978D01*
X178508251Y-138965850D01*
X178768247Y-139000080D01*
X178768254Y-139000080D01*
X179030480Y-139000080D01*
X179030487Y-139000080D01*
X179290483Y-138965850D01*
X179543786Y-138897978D01*
X179786064Y-138797623D01*
X180013170Y-138666504D01*
X180221218Y-138506862D01*
X180221222Y-138506857D01*
X180221227Y-138506854D01*
X180406641Y-138321440D01*
X180406644Y-138321435D01*
X180406649Y-138321431D01*
X180566291Y-138113383D01*
X180697410Y-137886277D01*
X180797765Y-137643999D01*
X180865637Y-137390696D01*
X180899867Y-137130700D01*
X180899867Y-136868460D01*
X180899866Y-136868452D01*
X198898867Y-136868452D01*
X198898867Y-137130707D01*
X198918532Y-137280065D01*
X198933097Y-137390696D01*
X198994726Y-137620699D01*
X199000969Y-137643998D01*
X199000972Y-137644008D01*
X199101320Y-137886270D01*
X199101325Y-137886280D01*
X199232442Y-138113383D01*
X199392085Y-138321431D01*
X199392093Y-138321440D01*
X199577507Y-138506854D01*
X199577515Y-138506861D01*
X199785563Y-138666504D01*
X200012666Y-138797621D01*
X200012676Y-138797626D01*
X200145410Y-138852606D01*
X200254948Y-138897978D01*
X200508251Y-138965850D01*
X200768247Y-139000080D01*
X200768254Y-139000080D01*
X201030480Y-139000080D01*
X201030487Y-139000080D01*
X201290483Y-138965850D01*
X201543786Y-138897978D01*
X201786064Y-138797623D01*
X202013170Y-138666504D01*
X202221218Y-138506862D01*
X202221222Y-138506857D01*
X202221227Y-138506854D01*
X202406641Y-138321440D01*
X202406644Y-138321435D01*
X202406649Y-138321431D01*
X202566291Y-138113383D01*
X202697410Y-137886277D01*
X202797765Y-137643999D01*
X202865637Y-137390696D01*
X202899867Y-137130700D01*
X202899867Y-136868460D01*
X202865637Y-136608464D01*
X202797765Y-136355161D01*
X202749956Y-136239739D01*
X202697413Y-136112889D01*
X202697408Y-136112879D01*
X202566291Y-135885776D01*
X202406648Y-135677728D01*
X202406641Y-135677720D01*
X202221227Y-135492306D01*
X202221218Y-135492298D01*
X202013170Y-135332655D01*
X201786067Y-135201538D01*
X201786057Y-135201533D01*
X201543795Y-135101185D01*
X201543788Y-135101183D01*
X201543786Y-135101182D01*
X201290483Y-135033310D01*
X201232706Y-135025703D01*
X201030494Y-134999080D01*
X201030487Y-134999080D01*
X200768247Y-134999080D01*
X200768239Y-134999080D01*
X200537139Y-135029506D01*
X200508251Y-135033310D01*
X200301920Y-135088596D01*
X200254948Y-135101182D01*
X200254938Y-135101185D01*
X200012676Y-135201533D01*
X200012666Y-135201538D01*
X199785563Y-135332655D01*
X199577515Y-135492298D01*
X199392085Y-135677728D01*
X199232442Y-135885776D01*
X199101325Y-136112879D01*
X199101320Y-136112889D01*
X199000972Y-136355151D01*
X199000969Y-136355161D01*
X198935067Y-136601114D01*
X198933097Y-136608465D01*
X198898867Y-136868452D01*
X180899866Y-136868452D01*
X180865637Y-136608464D01*
X180797765Y-136355161D01*
X180749956Y-136239739D01*
X180697413Y-136112889D01*
X180697408Y-136112879D01*
X180566291Y-135885776D01*
X180406648Y-135677728D01*
X180406641Y-135677720D01*
X180221227Y-135492306D01*
X180221218Y-135492298D01*
X180013170Y-135332655D01*
X179786067Y-135201538D01*
X179786057Y-135201533D01*
X179543795Y-135101185D01*
X179543788Y-135101183D01*
X179543786Y-135101182D01*
X179290483Y-135033310D01*
X179232706Y-135025703D01*
X179030494Y-134999080D01*
X179030487Y-134999080D01*
X178768247Y-134999080D01*
X178768239Y-134999080D01*
X178537139Y-135029506D01*
X178508251Y-135033310D01*
X178301920Y-135088596D01*
X178254948Y-135101182D01*
X178254938Y-135101185D01*
X178012676Y-135201533D01*
X178012666Y-135201538D01*
X177785563Y-135332655D01*
X177577515Y-135492298D01*
X177392085Y-135677728D01*
X177232442Y-135885776D01*
X177101325Y-136112879D01*
X177101320Y-136112889D01*
X177000972Y-136355151D01*
X177000969Y-136355161D01*
X176935067Y-136601114D01*
X176933097Y-136608465D01*
X176898867Y-136868452D01*
X175499917Y-136868452D01*
X175499917Y-135088609D01*
X175499918Y-135088596D01*
X175499918Y-134920495D01*
X175499918Y-134920493D01*
X175458994Y-134767765D01*
X175430056Y-134717645D01*
X175379937Y-134630834D01*
X175268133Y-134519030D01*
X175268132Y-134519029D01*
X175263802Y-134514699D01*
X175263791Y-134514689D01*
X173587013Y-132837911D01*
X173587011Y-132837908D01*
X173468140Y-132719037D01*
X173468139Y-132719036D01*
X173364170Y-132659010D01*
X173364169Y-132659009D01*
X173331206Y-132639978D01*
X173275304Y-132624999D01*
X173178480Y-132599055D01*
X173073928Y-132599055D01*
X173006889Y-132579370D01*
X172961134Y-132526566D01*
X172949928Y-132475055D01*
X172949927Y-131141655D01*
X172949926Y-131141649D01*
X172949925Y-131141642D01*
X172943519Y-131082043D01*
X172893224Y-130947195D01*
X172893223Y-130947194D01*
X172893221Y-130947190D01*
X172806975Y-130831981D01*
X172806972Y-130831978D01*
X172691763Y-130745732D01*
X172691756Y-130745728D01*
X172556910Y-130695434D01*
X172556911Y-130695434D01*
X172497311Y-130689027D01*
X172497309Y-130689026D01*
X172497301Y-130689026D01*
X172497292Y-130689026D01*
X170701557Y-130689026D01*
X170701551Y-130689027D01*
X170641944Y-130695434D01*
X170507099Y-130745728D01*
X170507092Y-130745732D01*
X170391883Y-130831978D01*
X170391880Y-130831981D01*
X170305634Y-130947190D01*
X170305630Y-130947197D01*
X170255336Y-131082043D01*
X170248929Y-131141642D01*
X170248929Y-131141649D01*
X170248928Y-131141661D01*
X170248928Y-132440427D01*
X170229243Y-132507466D01*
X170176439Y-132553221D01*
X170107281Y-132563165D01*
X170043725Y-132534140D01*
X170037247Y-132528108D01*
X168247057Y-130737918D01*
X168247055Y-130737915D01*
X168128184Y-130619044D01*
X168128183Y-130619043D01*
X168041371Y-130568923D01*
X168041371Y-130568922D01*
X168041367Y-130568921D01*
X167991252Y-130539986D01*
X167838524Y-130499062D01*
X167680410Y-130499062D01*
X167672814Y-130499062D01*
X167672798Y-130499063D01*
X163886124Y-130499063D01*
X163886108Y-130499062D01*
X163878512Y-130499062D01*
X163720397Y-130499062D01*
X163644033Y-130519524D01*
X163567668Y-130539986D01*
X163567663Y-130539989D01*
X163430744Y-130619038D01*
X163430736Y-130619044D01*
X162232328Y-131817452D01*
X162232314Y-131817466D01*
X162230744Y-131819037D01*
X162230742Y-131819039D01*
X162118938Y-131930843D01*
X162113083Y-131940985D01*
X162106054Y-131953157D01*
X162106053Y-131953160D01*
X162067492Y-132019950D01*
X162039881Y-132067774D01*
X161998957Y-132220502D01*
X161998957Y-132220504D01*
X161998957Y-132388605D01*
X161998958Y-132388618D01*
X161998958Y-135512878D01*
X161998957Y-135512896D01*
X161998957Y-135678602D01*
X161998956Y-135678602D01*
X162039882Y-135831337D01*
X162039883Y-135831338D01*
X162061032Y-135867968D01*
X162061033Y-135867970D01*
X162118933Y-135968257D01*
X162118939Y-135968265D01*
X162237807Y-136087133D01*
X162237812Y-136087137D01*
X162847665Y-136696991D01*
X162881150Y-136758313D01*
X162876166Y-136828005D01*
X162834294Y-136883938D01*
X162784176Y-136906288D01*
X162665965Y-136929802D01*
X162665955Y-136929805D01*
X162520284Y-136990143D01*
X162520271Y-136990150D01*
X162388582Y-137078143D01*
X162321904Y-137099021D01*
X162319691Y-137099041D01*
X156386148Y-137099041D01*
X156386132Y-137099040D01*
X156378536Y-137099040D01*
X156220422Y-137099040D01*
X156140489Y-137120458D01*
X156067695Y-137139963D01*
X156019554Y-137167758D01*
X156019553Y-137167757D01*
X155930766Y-137219018D01*
X155930761Y-137219022D01*
X155818957Y-137330827D01*
X151747341Y-141402442D01*
X151686018Y-141435927D01*
X151616326Y-141430943D01*
X151560393Y-141389071D01*
X151535976Y-141323607D01*
X151540443Y-141280653D01*
X151564387Y-141196975D01*
X151575001Y-141077594D01*
X151575000Y-139961521D01*
X151564387Y-139842139D01*
X151508410Y-139646508D01*
X151414199Y-139466150D01*
X151301484Y-139327916D01*
X151274376Y-139263522D01*
X151286385Y-139194692D01*
X151301482Y-139171199D01*
X151414199Y-139032964D01*
X151508410Y-138852606D01*
X151564387Y-138656975D01*
X151575001Y-138537594D01*
X151575000Y-137421521D01*
X151564387Y-137302139D01*
X151508410Y-137106508D01*
X151501706Y-137093674D01*
X151488116Y-137025142D01*
X151513735Y-136960138D01*
X151570430Y-136919305D01*
X151640202Y-136915605D01*
X151699297Y-136948584D01*
X152514629Y-137763916D01*
X152514639Y-137763927D01*
X152518969Y-137768257D01*
X152518970Y-137768258D01*
X152630774Y-137880062D01*
X152630776Y-137880063D01*
X152630780Y-137880066D01*
X152722518Y-137933030D01*
X152767706Y-137959119D01*
X152879509Y-137989076D01*
X152920432Y-138000042D01*
X152920433Y-138000042D01*
X153512819Y-138000042D01*
X153512835Y-138000043D01*
X153520431Y-138000043D01*
X153678542Y-138000043D01*
X153678545Y-138000043D01*
X153831273Y-137959119D01*
X153881392Y-137930181D01*
X153968204Y-137880062D01*
X154080008Y-137768258D01*
X154080008Y-137768256D01*
X154090216Y-137758049D01*
X154090218Y-137758046D01*
X154557992Y-137290272D01*
X154557997Y-137290268D01*
X154568200Y-137280064D01*
X154568202Y-137280064D01*
X154680006Y-137168260D01*
X154732260Y-137077752D01*
X154759063Y-137031329D01*
X154799986Y-136878602D01*
X154799986Y-136720487D01*
X154799986Y-136421547D01*
X154819671Y-136354508D01*
X154872475Y-136308753D01*
X154941633Y-136298809D01*
X155005189Y-136327834D01*
X155028978Y-136355573D01*
X155087954Y-136449433D01*
X155211525Y-136573004D01*
X155359495Y-136665979D01*
X155524444Y-136723698D01*
X155524450Y-136723698D01*
X155524452Y-136723699D01*
X155565851Y-136728363D01*
X155654543Y-136738356D01*
X155654546Y-136738357D01*
X155654549Y-136738357D01*
X156291656Y-136738357D01*
X156291657Y-136738356D01*
X156421758Y-136723698D01*
X156586707Y-136665979D01*
X156734677Y-136573004D01*
X156858248Y-136449433D01*
X156951223Y-136301463D01*
X157008942Y-136136514D01*
X157023601Y-136006409D01*
X157023601Y-133969305D01*
X157008942Y-133839200D01*
X156951223Y-133674251D01*
X156858248Y-133526281D01*
X156734677Y-133402710D01*
X156631629Y-133337961D01*
X156585338Y-133285626D01*
X156573601Y-133232967D01*
X156573601Y-127677638D01*
X165003937Y-127677638D01*
X165003937Y-127921541D01*
X165030450Y-128122923D01*
X165035771Y-128163334D01*
X165065909Y-128275810D01*
X165098893Y-128398910D01*
X165098896Y-128398920D01*
X165192223Y-128624230D01*
X165192228Y-128624241D01*
X165314164Y-128835438D01*
X165314175Y-128835454D01*
X165462636Y-129028933D01*
X165462642Y-129028940D01*
X165635086Y-129201384D01*
X165635092Y-129201389D01*
X165828581Y-129349858D01*
X165828588Y-129349862D01*
X166039785Y-129471798D01*
X166039790Y-129471800D01*
X166039793Y-129471802D01*
X166265116Y-129565134D01*
X166500693Y-129628256D01*
X166742493Y-129660090D01*
X166742500Y-129660090D01*
X167506374Y-129660090D01*
X167506381Y-129660090D01*
X167748181Y-129628256D01*
X167983758Y-129565134D01*
X168209081Y-129471802D01*
X168420293Y-129349858D01*
X168613782Y-129201389D01*
X168763453Y-129051718D01*
X190198861Y-129051718D01*
X190198861Y-131147453D01*
X190198862Y-131147459D01*
X190205269Y-131207066D01*
X190255563Y-131341911D01*
X190255567Y-131341918D01*
X190341813Y-131457127D01*
X190341816Y-131457130D01*
X190457025Y-131543376D01*
X190457032Y-131543380D01*
X190591878Y-131593674D01*
X190591877Y-131593674D01*
X190598805Y-131594418D01*
X190651488Y-131600083D01*
X192747233Y-131600082D01*
X192806844Y-131593674D01*
X192941692Y-131543379D01*
X193056907Y-131457129D01*
X193143157Y-131341914D01*
X193193452Y-131207066D01*
X193199861Y-131147456D01*
X193199860Y-129051711D01*
X193193452Y-128992100D01*
X193177228Y-128948602D01*
X193143158Y-128857254D01*
X193143154Y-128857247D01*
X193056908Y-128742038D01*
X193056905Y-128742035D01*
X192941696Y-128655789D01*
X192941689Y-128655785D01*
X192806843Y-128605491D01*
X192806844Y-128605491D01*
X192747244Y-128599084D01*
X192747242Y-128599083D01*
X192747234Y-128599083D01*
X192747225Y-128599083D01*
X190651490Y-128599083D01*
X190651484Y-128599084D01*
X190591877Y-128605491D01*
X190457032Y-128655785D01*
X190457025Y-128655789D01*
X190341816Y-128742035D01*
X190341813Y-128742038D01*
X190255567Y-128857247D01*
X190255563Y-128857254D01*
X190205269Y-128992100D01*
X190201309Y-129028940D01*
X190198862Y-129051706D01*
X190198861Y-129051718D01*
X168763453Y-129051718D01*
X168786236Y-129028935D01*
X168934705Y-128835446D01*
X169056649Y-128624234D01*
X169149981Y-128398911D01*
X169213103Y-128163334D01*
X169244937Y-127921534D01*
X169244937Y-127677646D01*
X169213103Y-127435846D01*
X169149981Y-127200269D01*
X169056649Y-126974946D01*
X169056647Y-126974943D01*
X169056645Y-126974938D01*
X168934709Y-126763741D01*
X168934705Y-126763734D01*
X168792023Y-126577787D01*
X168786237Y-126570246D01*
X168786231Y-126570239D01*
X168613787Y-126397795D01*
X168613780Y-126397789D01*
X168420301Y-126249328D01*
X168420299Y-126249326D01*
X168420293Y-126249322D01*
X168420288Y-126249319D01*
X168420285Y-126249317D01*
X168209088Y-126127381D01*
X168209077Y-126127376D01*
X167983767Y-126034049D01*
X167983760Y-126034047D01*
X167983758Y-126034046D01*
X167748181Y-125970924D01*
X167707770Y-125965603D01*
X167506388Y-125939090D01*
X167506381Y-125939090D01*
X166742493Y-125939090D01*
X166742485Y-125939090D01*
X166512333Y-125969391D01*
X166500693Y-125970924D01*
X166294935Y-126026056D01*
X166265116Y-126034046D01*
X166265106Y-126034049D01*
X166039796Y-126127376D01*
X166039785Y-126127381D01*
X165828588Y-126249317D01*
X165828572Y-126249328D01*
X165635093Y-126397789D01*
X165635086Y-126397795D01*
X165462642Y-126570239D01*
X165462636Y-126570246D01*
X165314175Y-126763725D01*
X165314164Y-126763741D01*
X165192228Y-126974938D01*
X165192223Y-126974949D01*
X165098896Y-127200259D01*
X165098893Y-127200269D01*
X165035772Y-127435843D01*
X165035770Y-127435854D01*
X165003937Y-127677638D01*
X156573601Y-127677638D01*
X156573601Y-126026056D01*
X156593286Y-125959017D01*
X156609915Y-125938380D01*
X162158926Y-120389368D01*
X173223937Y-120389368D01*
X173223937Y-120609811D01*
X173258422Y-120827542D01*
X173326540Y-121037193D01*
X173326541Y-121037196D01*
X173426624Y-121233615D01*
X173556189Y-121411948D01*
X173556193Y-121411953D01*
X173712073Y-121567833D01*
X173712078Y-121567837D01*
X173824164Y-121649272D01*
X173866830Y-121704601D01*
X173872809Y-121774215D01*
X173840204Y-121836010D01*
X173824164Y-121849908D01*
X173712078Y-121931342D01*
X173712073Y-121931346D01*
X173556193Y-122087226D01*
X173556189Y-122087231D01*
X173426624Y-122265564D01*
X173326541Y-122461983D01*
X173326540Y-122461986D01*
X173258422Y-122671637D01*
X173223937Y-122889368D01*
X173223937Y-123109811D01*
X173258422Y-123327542D01*
X173326540Y-123537193D01*
X173326541Y-123537196D01*
X173426624Y-123733615D01*
X173556189Y-123911948D01*
X173556193Y-123911953D01*
X173712073Y-124067833D01*
X173712078Y-124067837D01*
X173867629Y-124180850D01*
X173890415Y-124197405D01*
X174018812Y-124262827D01*
X174086830Y-124297485D01*
X174086833Y-124297486D01*
X174191658Y-124331545D01*
X174296486Y-124365605D01*
X174514215Y-124400090D01*
X174514216Y-124400090D01*
X174734658Y-124400090D01*
X174734659Y-124400090D01*
X174952388Y-124365605D01*
X175162043Y-124297485D01*
X175358459Y-124197405D01*
X175536802Y-124067832D01*
X175692679Y-123911955D01*
X175822252Y-123733612D01*
X175922332Y-123537196D01*
X175990452Y-123327541D01*
X176024937Y-123109812D01*
X176024937Y-122889368D01*
X175990452Y-122671639D01*
X175948858Y-122543623D01*
X175922333Y-122461986D01*
X175922332Y-122461983D01*
X175886679Y-122392012D01*
X175822252Y-122265568D01*
X175805697Y-122242782D01*
X175692684Y-122087231D01*
X175692680Y-122087226D01*
X175536802Y-121931348D01*
X175536794Y-121931342D01*
X175424707Y-121849907D01*
X175382043Y-121794579D01*
X175376064Y-121724966D01*
X175408669Y-121663170D01*
X175424702Y-121649276D01*
X175536802Y-121567832D01*
X175692679Y-121411955D01*
X175822252Y-121233612D01*
X175922332Y-121037196D01*
X175990452Y-120827541D01*
X176024937Y-120609812D01*
X176024937Y-120389368D01*
X175990452Y-120171639D01*
X175943864Y-120028254D01*
X175922333Y-119961986D01*
X175922332Y-119961983D01*
X175876379Y-119871798D01*
X175822252Y-119765568D01*
X175805697Y-119742782D01*
X175692684Y-119587231D01*
X175692680Y-119587226D01*
X175536800Y-119431346D01*
X175536795Y-119431342D01*
X175358462Y-119301777D01*
X175358461Y-119301776D01*
X175358459Y-119301775D01*
X175295533Y-119269712D01*
X175162043Y-119201694D01*
X175162040Y-119201693D01*
X174952389Y-119133575D01*
X174843523Y-119116332D01*
X174734659Y-119099090D01*
X174514215Y-119099090D01*
X174441638Y-119110585D01*
X174296484Y-119133575D01*
X174086833Y-119201693D01*
X174086830Y-119201694D01*
X173890411Y-119301777D01*
X173712078Y-119431342D01*
X173712073Y-119431346D01*
X173556193Y-119587226D01*
X173556189Y-119587231D01*
X173426624Y-119765564D01*
X173326541Y-119961983D01*
X173326540Y-119961986D01*
X173258422Y-120171637D01*
X173223937Y-120389368D01*
X162158926Y-120389368D01*
X164827009Y-117721285D01*
X164888330Y-117687802D01*
X164958022Y-117692786D01*
X165013955Y-117734658D01*
X165038372Y-117800122D01*
X165036307Y-117833153D01*
X165035770Y-117835849D01*
X165003937Y-118077638D01*
X165003937Y-118321541D01*
X165030450Y-118522923D01*
X165035771Y-118563334D01*
X165035772Y-118563336D01*
X165098893Y-118798910D01*
X165098896Y-118798920D01*
X165192223Y-119024230D01*
X165192228Y-119024241D01*
X165314164Y-119235438D01*
X165314175Y-119235454D01*
X165462636Y-119428933D01*
X165462642Y-119428940D01*
X165635086Y-119601384D01*
X165635092Y-119601389D01*
X165828581Y-119749858D01*
X165828588Y-119749862D01*
X166039785Y-119871798D01*
X166039790Y-119871800D01*
X166039793Y-119871802D01*
X166265116Y-119965134D01*
X166500693Y-120028256D01*
X166742493Y-120060090D01*
X166742500Y-120060090D01*
X167506374Y-120060090D01*
X167506381Y-120060090D01*
X167748181Y-120028256D01*
X167983758Y-119965134D01*
X168209081Y-119871802D01*
X168420293Y-119749858D01*
X168613782Y-119601389D01*
X168786236Y-119428935D01*
X168934705Y-119235446D01*
X169056649Y-119024234D01*
X169149981Y-118798911D01*
X169213103Y-118563334D01*
X169244937Y-118321534D01*
X169244937Y-118077646D01*
X169213103Y-117835846D01*
X169149981Y-117600269D01*
X169056649Y-117374946D01*
X169056647Y-117374943D01*
X169056645Y-117374938D01*
X168934709Y-117163741D01*
X168934705Y-117163734D01*
X168809129Y-117000080D01*
X168786237Y-116970246D01*
X168786231Y-116970239D01*
X168613787Y-116797795D01*
X168613780Y-116797789D01*
X168420301Y-116649328D01*
X168420299Y-116649326D01*
X168420293Y-116649322D01*
X168420288Y-116649319D01*
X168420285Y-116649317D01*
X168209088Y-116527381D01*
X168209077Y-116527376D01*
X167983767Y-116434049D01*
X167983760Y-116434047D01*
X167983758Y-116434046D01*
X167748181Y-116370924D01*
X167704924Y-116365229D01*
X167506388Y-116339090D01*
X167506381Y-116339090D01*
X166742493Y-116339090D01*
X166742485Y-116339090D01*
X166500696Y-116370923D01*
X166498000Y-116371460D01*
X166497180Y-116371386D01*
X166496669Y-116371454D01*
X166496653Y-116371339D01*
X166428409Y-116365229D01*
X166373234Y-116322363D01*
X166349992Y-116256472D01*
X166366064Y-116188476D01*
X166386130Y-116162164D01*
X167461856Y-115086439D01*
X167523179Y-115052954D01*
X167549537Y-115050120D01*
X168522308Y-115050120D01*
X168522309Y-115050120D01*
X168581920Y-115043712D01*
X168716768Y-114993417D01*
X168831983Y-114907167D01*
X168860965Y-114868452D01*
X176898867Y-114868452D01*
X176898867Y-115130707D01*
X176915805Y-115259356D01*
X176933097Y-115390696D01*
X176995837Y-115624845D01*
X177000969Y-115643998D01*
X177000972Y-115644008D01*
X177101320Y-115886270D01*
X177101325Y-115886280D01*
X177232442Y-116113383D01*
X177392085Y-116321431D01*
X177392093Y-116321440D01*
X177577507Y-116506854D01*
X177577515Y-116506861D01*
X177785563Y-116666504D01*
X178012666Y-116797621D01*
X178012676Y-116797626D01*
X178254938Y-116897974D01*
X178254948Y-116897978D01*
X178508251Y-116965850D01*
X178768247Y-117000080D01*
X178768254Y-117000080D01*
X179030480Y-117000080D01*
X179030487Y-117000080D01*
X179290483Y-116965850D01*
X179543786Y-116897978D01*
X179769404Y-116804524D01*
X179786057Y-116797626D01*
X179786058Y-116797625D01*
X179786064Y-116797623D01*
X180013170Y-116666504D01*
X180221218Y-116506862D01*
X180221222Y-116506857D01*
X180221227Y-116506854D01*
X180406641Y-116321440D01*
X180406644Y-116321435D01*
X180406649Y-116321431D01*
X180566291Y-116113383D01*
X180697410Y-115886277D01*
X180797765Y-115643999D01*
X180865637Y-115390696D01*
X180899867Y-115130700D01*
X180899867Y-114868460D01*
X180865637Y-114608464D01*
X180810005Y-114400843D01*
X187374867Y-114400843D01*
X187374867Y-114598316D01*
X187405756Y-114793343D01*
X187446775Y-114919585D01*
X187466776Y-114981141D01*
X187542985Y-115130707D01*
X187556425Y-115157084D01*
X187672482Y-115316826D01*
X187812120Y-115456464D01*
X187940689Y-115549873D01*
X187971866Y-115572524D01*
X188147806Y-115662171D01*
X188273004Y-115702850D01*
X188335603Y-115723190D01*
X188530631Y-115754080D01*
X188530636Y-115754080D01*
X188728103Y-115754080D01*
X188923130Y-115723190D01*
X188945409Y-115715951D01*
X189110928Y-115662171D01*
X189286868Y-115572524D01*
X189376559Y-115507359D01*
X189446613Y-115456464D01*
X189446615Y-115456461D01*
X189446619Y-115456459D01*
X189586246Y-115316832D01*
X189586248Y-115316828D01*
X189586251Y-115316826D01*
X189702308Y-115157085D01*
X189702309Y-115157084D01*
X189702311Y-115157081D01*
X189788884Y-114987173D01*
X189836857Y-114936380D01*
X189904678Y-114919585D01*
X189970813Y-114942122D01*
X190009849Y-114987173D01*
X190082981Y-115130700D01*
X190096425Y-115157085D01*
X190212482Y-115316826D01*
X190352120Y-115456464D01*
X190480689Y-115549873D01*
X190511866Y-115572524D01*
X190687806Y-115662171D01*
X190813004Y-115702850D01*
X190875603Y-115723190D01*
X191070631Y-115754080D01*
X191070636Y-115754080D01*
X191268103Y-115754080D01*
X191463130Y-115723190D01*
X191485409Y-115715951D01*
X191650928Y-115662171D01*
X191826868Y-115572524D01*
X191916559Y-115507359D01*
X191986613Y-115456464D01*
X191986615Y-115456461D01*
X191986619Y-115456459D01*
X192126246Y-115316832D01*
X192126248Y-115316828D01*
X192126251Y-115316826D01*
X192242308Y-115157085D01*
X192242309Y-115157084D01*
X192242311Y-115157081D01*
X192328884Y-114987173D01*
X192376857Y-114936380D01*
X192444678Y-114919585D01*
X192510813Y-114942122D01*
X192549849Y-114987173D01*
X192622981Y-115130700D01*
X192636425Y-115157085D01*
X192752482Y-115316826D01*
X192892120Y-115456464D01*
X193020689Y-115549873D01*
X193051866Y-115572524D01*
X193227806Y-115662171D01*
X193353004Y-115702850D01*
X193415603Y-115723190D01*
X193610631Y-115754080D01*
X193610636Y-115754080D01*
X193808103Y-115754080D01*
X194003130Y-115723190D01*
X194025409Y-115715951D01*
X194190928Y-115662171D01*
X194366868Y-115572524D01*
X194456559Y-115507359D01*
X194526613Y-115456464D01*
X194526615Y-115456461D01*
X194526619Y-115456459D01*
X194666246Y-115316832D01*
X194666248Y-115316828D01*
X194666251Y-115316826D01*
X194771449Y-115172031D01*
X194782311Y-115157081D01*
X194871958Y-114981141D01*
X194908573Y-114868452D01*
X198898867Y-114868452D01*
X198898867Y-115130707D01*
X198915805Y-115259356D01*
X198933097Y-115390696D01*
X198995837Y-115624845D01*
X199000969Y-115643998D01*
X199000972Y-115644008D01*
X199101320Y-115886270D01*
X199101325Y-115886280D01*
X199232442Y-116113383D01*
X199392085Y-116321431D01*
X199392093Y-116321440D01*
X199577507Y-116506854D01*
X199577515Y-116506861D01*
X199785563Y-116666504D01*
X200012666Y-116797621D01*
X200012676Y-116797626D01*
X200254938Y-116897974D01*
X200254948Y-116897978D01*
X200508251Y-116965850D01*
X200768247Y-117000080D01*
X200768254Y-117000080D01*
X201030480Y-117000080D01*
X201030487Y-117000080D01*
X201290483Y-116965850D01*
X201543786Y-116897978D01*
X201769404Y-116804524D01*
X201786057Y-116797626D01*
X201786058Y-116797625D01*
X201786064Y-116797623D01*
X202013170Y-116666504D01*
X202221218Y-116506862D01*
X202221222Y-116506857D01*
X202221227Y-116506854D01*
X202406641Y-116321440D01*
X202406644Y-116321435D01*
X202406649Y-116321431D01*
X202566291Y-116113383D01*
X202697410Y-115886277D01*
X202797765Y-115643999D01*
X202865637Y-115390696D01*
X202899867Y-115130700D01*
X202899867Y-114868460D01*
X202865637Y-114608464D01*
X202797765Y-114355161D01*
X202735905Y-114205817D01*
X202697413Y-114112889D01*
X202697408Y-114112879D01*
X202566291Y-113885776D01*
X202406648Y-113677728D01*
X202406641Y-113677720D01*
X202221227Y-113492306D01*
X202221218Y-113492298D01*
X202013170Y-113332655D01*
X201786067Y-113201538D01*
X201786057Y-113201533D01*
X201543795Y-113101185D01*
X201543788Y-113101183D01*
X201543786Y-113101182D01*
X201290483Y-113033310D01*
X201232706Y-113025703D01*
X201030494Y-112999080D01*
X201030487Y-112999080D01*
X200768247Y-112999080D01*
X200768239Y-112999080D01*
X200537139Y-113029506D01*
X200508251Y-113033310D01*
X200254948Y-113101182D01*
X200254938Y-113101185D01*
X200012676Y-113201533D01*
X200012666Y-113201538D01*
X199785563Y-113332655D01*
X199577515Y-113492298D01*
X199392085Y-113677728D01*
X199232442Y-113885776D01*
X199101325Y-114112879D01*
X199101320Y-114112889D01*
X199000972Y-114355151D01*
X199000969Y-114355161D01*
X198935818Y-114598311D01*
X198933097Y-114608465D01*
X198898867Y-114868452D01*
X194908573Y-114868452D01*
X194932977Y-114793343D01*
X194941802Y-114737619D01*
X194963867Y-114598316D01*
X194963867Y-114400843D01*
X194932977Y-114205816D01*
X194884635Y-114057036D01*
X194871958Y-114018019D01*
X194782311Y-113842079D01*
X194774853Y-113831814D01*
X194666251Y-113682333D01*
X194526613Y-113542695D01*
X194366871Y-113426638D01*
X194366870Y-113426637D01*
X194366868Y-113426636D01*
X194190928Y-113336989D01*
X194190925Y-113336988D01*
X194003130Y-113275969D01*
X193808103Y-113245080D01*
X193808098Y-113245080D01*
X193610636Y-113245080D01*
X193610631Y-113245080D01*
X193415603Y-113275969D01*
X193227808Y-113336988D01*
X193051862Y-113426638D01*
X192892120Y-113542695D01*
X192752482Y-113682333D01*
X192636425Y-113842075D01*
X192636423Y-113842079D01*
X192614158Y-113885777D01*
X192549852Y-114011983D01*
X192501877Y-114062779D01*
X192434056Y-114079574D01*
X192367921Y-114057036D01*
X192328882Y-114011983D01*
X192242311Y-113842079D01*
X192234853Y-113831814D01*
X192126251Y-113682333D01*
X191986613Y-113542695D01*
X191826871Y-113426638D01*
X191826870Y-113426637D01*
X191826868Y-113426636D01*
X191650928Y-113336989D01*
X191650925Y-113336988D01*
X191463130Y-113275969D01*
X191268103Y-113245080D01*
X191268098Y-113245080D01*
X191070636Y-113245080D01*
X191070631Y-113245080D01*
X190875603Y-113275969D01*
X190687808Y-113336988D01*
X190511862Y-113426638D01*
X190352120Y-113542695D01*
X190212482Y-113682333D01*
X190096425Y-113842075D01*
X190096423Y-113842079D01*
X190074158Y-113885777D01*
X190009852Y-114011983D01*
X189961877Y-114062779D01*
X189894056Y-114079574D01*
X189827921Y-114057036D01*
X189788882Y-114011983D01*
X189702311Y-113842079D01*
X189694853Y-113831814D01*
X189586251Y-113682333D01*
X189446613Y-113542695D01*
X189286871Y-113426638D01*
X189286870Y-113426637D01*
X189286868Y-113426636D01*
X189110928Y-113336989D01*
X189110925Y-113336988D01*
X188923130Y-113275969D01*
X188728103Y-113245080D01*
X188728098Y-113245080D01*
X188530636Y-113245080D01*
X188530631Y-113245080D01*
X188335603Y-113275969D01*
X188147808Y-113336988D01*
X187971862Y-113426638D01*
X187812120Y-113542695D01*
X187672482Y-113682333D01*
X187556425Y-113842075D01*
X187466775Y-114018021D01*
X187405756Y-114205816D01*
X187374867Y-114400843D01*
X180810005Y-114400843D01*
X180797765Y-114355161D01*
X180735905Y-114205817D01*
X180697413Y-114112889D01*
X180697408Y-114112879D01*
X180566291Y-113885776D01*
X180406648Y-113677728D01*
X180406641Y-113677720D01*
X180221227Y-113492306D01*
X180221218Y-113492298D01*
X180013170Y-113332655D01*
X179786067Y-113201538D01*
X179786057Y-113201533D01*
X179543795Y-113101185D01*
X179543788Y-113101183D01*
X179543786Y-113101182D01*
X179290483Y-113033310D01*
X179232706Y-113025703D01*
X179030494Y-112999080D01*
X179030487Y-112999080D01*
X178768247Y-112999080D01*
X178768239Y-112999080D01*
X178537139Y-113029506D01*
X178508251Y-113033310D01*
X178254948Y-113101182D01*
X178254938Y-113101185D01*
X178012676Y-113201533D01*
X178012666Y-113201538D01*
X177785563Y-113332655D01*
X177577515Y-113492298D01*
X177392085Y-113677728D01*
X177232442Y-113885776D01*
X177101325Y-114112879D01*
X177101320Y-114112889D01*
X177000972Y-114355151D01*
X177000969Y-114355161D01*
X176935818Y-114598311D01*
X176933097Y-114608465D01*
X176898867Y-114868452D01*
X168860965Y-114868452D01*
X168918233Y-114791952D01*
X168968528Y-114657104D01*
X168974937Y-114597494D01*
X168974936Y-112801749D01*
X168968528Y-112742138D01*
X168918233Y-112607290D01*
X168918232Y-112607289D01*
X168918230Y-112607285D01*
X168831984Y-112492076D01*
X168831981Y-112492073D01*
X168716772Y-112405827D01*
X168716765Y-112405823D01*
X168581919Y-112355529D01*
X168581920Y-112355529D01*
X168522320Y-112349122D01*
X168522318Y-112349121D01*
X168522310Y-112349121D01*
X168522301Y-112349121D01*
X166726566Y-112349121D01*
X166726560Y-112349122D01*
X166666953Y-112355529D01*
X166532108Y-112405823D01*
X166532101Y-112405827D01*
X166416892Y-112492073D01*
X166416889Y-112492076D01*
X166330643Y-112607285D01*
X166330639Y-112607292D01*
X166280345Y-112742138D01*
X166273938Y-112801737D01*
X166273938Y-112801744D01*
X166273937Y-112801756D01*
X166273937Y-114524526D01*
X166254252Y-114591565D01*
X166237618Y-114612207D01*
X165511634Y-115338191D01*
X165450311Y-115371676D01*
X165380619Y-115366692D01*
X165324686Y-115324820D01*
X165300269Y-115259356D01*
X165299953Y-115250510D01*
X165299953Y-115172031D01*
X165299953Y-115172029D01*
X165267288Y-115050120D01*
X165262829Y-115033479D01*
X165262828Y-115033477D01*
X165259030Y-115019302D01*
X165259030Y-115019301D01*
X165194289Y-114907167D01*
X165179973Y-114882370D01*
X165179971Y-114882368D01*
X165179970Y-114882366D01*
X165063850Y-114766246D01*
X165063827Y-114766225D01*
X164835572Y-114537970D01*
X164835570Y-114537967D01*
X164716699Y-114419096D01*
X164716698Y-114419095D01*
X164629886Y-114368975D01*
X164629886Y-114368974D01*
X164629882Y-114368973D01*
X164579767Y-114340038D01*
X164427039Y-114299114D01*
X164268925Y-114299114D01*
X164261329Y-114299114D01*
X164261313Y-114299115D01*
X163929981Y-114299115D01*
X163771867Y-114299115D01*
X163619139Y-114340038D01*
X163619138Y-114340038D01*
X163619136Y-114340039D01*
X163619133Y-114340040D01*
X163569020Y-114368974D01*
X163569019Y-114368975D01*
X163525613Y-114394035D01*
X163482209Y-114419094D01*
X163482206Y-114419096D01*
X162310533Y-115590770D01*
X162249210Y-115624255D01*
X162247044Y-115624706D01*
X162091702Y-115655606D01*
X162091692Y-115655609D01*
X161946021Y-115715947D01*
X161946008Y-115715954D01*
X161814905Y-115803555D01*
X161814901Y-115803558D01*
X161703407Y-115915052D01*
X161703404Y-115915056D01*
X161615803Y-116046159D01*
X161615796Y-116046172D01*
X161555458Y-116191843D01*
X161555455Y-116191855D01*
X161524694Y-116346498D01*
X161524694Y-116504191D01*
X161555455Y-116658834D01*
X161555458Y-116658846D01*
X161615796Y-116804517D01*
X161615803Y-116804530D01*
X161691244Y-116917435D01*
X161712122Y-116984113D01*
X161693637Y-117051493D01*
X161675823Y-117074007D01*
X151887078Y-126862753D01*
X151860152Y-126877455D01*
X151834333Y-126894049D01*
X151828130Y-126894940D01*
X151825755Y-126896238D01*
X151799398Y-126899072D01*
X151738603Y-126899072D01*
X151668968Y-126899072D01*
X151668964Y-126899072D01*
X151661358Y-126899073D01*
X151661357Y-126899072D01*
X151661357Y-126899073D01*
X151330023Y-126899073D01*
X151171909Y-126899073D01*
X151019181Y-126939996D01*
X151019180Y-126939996D01*
X151019178Y-126939997D01*
X151019175Y-126939998D01*
X150971040Y-126967790D01*
X150971039Y-126967791D01*
X150958641Y-126974949D01*
X150882251Y-127019052D01*
X150882248Y-127019054D01*
X150418976Y-127482326D01*
X150418975Y-127482328D01*
X150369344Y-127568292D01*
X150339918Y-127619259D01*
X150298994Y-127771987D01*
X150298994Y-127771989D01*
X150298994Y-127940090D01*
X150298995Y-127940103D01*
X150298995Y-128269044D01*
X150298994Y-128399475D01*
X150279309Y-128466514D01*
X150262675Y-128487155D01*
X149487085Y-129262748D01*
X149425762Y-129296233D01*
X149399404Y-129299067D01*
X148586174Y-129299067D01*
X148586158Y-129299066D01*
X148578562Y-129299066D01*
X148420448Y-129299066D01*
X148313092Y-129327832D01*
X148267715Y-129339991D01*
X148267714Y-129339992D01*
X148217601Y-129368926D01*
X148217600Y-129368927D01*
X148174194Y-129393987D01*
X148130790Y-129419046D01*
X148130787Y-129419048D01*
X147811691Y-129738145D01*
X147750368Y-129771630D01*
X147680676Y-129766646D01*
X147624743Y-129724774D01*
X147600326Y-129659310D01*
X147600010Y-129650464D01*
X147600010Y-128024413D01*
X147619695Y-127957374D01*
X147672499Y-127911619D01*
X147676507Y-127909873D01*
X147678688Y-127908970D01*
X147809798Y-127821365D01*
X147921298Y-127709865D01*
X148008903Y-127578755D01*
X148013237Y-127568293D01*
X148022576Y-127545742D01*
X148069246Y-127433073D01*
X148100009Y-127278418D01*
X148100009Y-127120734D01*
X148100009Y-127120731D01*
X148100008Y-127120729D01*
X148071010Y-126974949D01*
X148069246Y-126966079D01*
X148043564Y-126904076D01*
X148008906Y-126820403D01*
X148008899Y-126820390D01*
X147921298Y-126689287D01*
X147921295Y-126689283D01*
X147809801Y-126577789D01*
X147809797Y-126577786D01*
X147678694Y-126490185D01*
X147678681Y-126490178D01*
X147533010Y-126429840D01*
X147532998Y-126429837D01*
X147378354Y-126399076D01*
X147378351Y-126399076D01*
X147220667Y-126399076D01*
X147220664Y-126399076D01*
X147066019Y-126429837D01*
X147066007Y-126429840D01*
X146920336Y-126490178D01*
X146920323Y-126490185D01*
X146792904Y-126575325D01*
X146726226Y-126596203D01*
X146658846Y-126577719D01*
X146612156Y-126525740D01*
X146600013Y-126472223D01*
X146600013Y-121313735D01*
X147949981Y-121313735D01*
X147949981Y-121495456D01*
X147978409Y-121674943D01*
X147978409Y-121674946D01*
X148034562Y-121847767D01*
X148034564Y-121847770D01*
X148117064Y-122009686D01*
X148223878Y-122156702D01*
X148352375Y-122285199D01*
X148499391Y-122392013D01*
X148661307Y-122474513D01*
X148661309Y-122474514D01*
X148834130Y-122530667D01*
X148834134Y-122530668D01*
X148858121Y-122534467D01*
X148915932Y-122543623D01*
X148979066Y-122573552D01*
X149015998Y-122632863D01*
X149015000Y-122702726D01*
X148976391Y-122760958D01*
X148912427Y-122789073D01*
X148896534Y-122790096D01*
X148402610Y-122790096D01*
X148402604Y-122790097D01*
X148342997Y-122796504D01*
X148208152Y-122846798D01*
X148208145Y-122846802D01*
X148092936Y-122933048D01*
X148092933Y-122933051D01*
X148006687Y-123048260D01*
X148006683Y-123048267D01*
X147956389Y-123183113D01*
X147949982Y-123242712D01*
X147949982Y-123242719D01*
X147949981Y-123242731D01*
X147949981Y-124646466D01*
X147949982Y-124646472D01*
X147956389Y-124706079D01*
X148006683Y-124840924D01*
X148006687Y-124840931D01*
X148092933Y-124956140D01*
X148092936Y-124956143D01*
X148208145Y-125042389D01*
X148208152Y-125042393D01*
X148342998Y-125092687D01*
X148342997Y-125092687D01*
X148349925Y-125093431D01*
X148402608Y-125099096D01*
X149806353Y-125099095D01*
X149865964Y-125092687D01*
X150000812Y-125042392D01*
X150116027Y-124956142D01*
X150202277Y-124840927D01*
X150252572Y-124706079D01*
X150258981Y-124646469D01*
X150258980Y-123242724D01*
X150252572Y-123183113D01*
X150202277Y-123048265D01*
X150202276Y-123048264D01*
X150202274Y-123048260D01*
X150116028Y-122933051D01*
X150116025Y-122933048D01*
X150000816Y-122846802D01*
X150000809Y-122846798D01*
X149865963Y-122796504D01*
X149865964Y-122796504D01*
X149806364Y-122790097D01*
X149806362Y-122790096D01*
X149806354Y-122790096D01*
X149806346Y-122790096D01*
X149312429Y-122790096D01*
X149245390Y-122770411D01*
X149199635Y-122717607D01*
X149189691Y-122648449D01*
X149218716Y-122584893D01*
X149277494Y-122547119D01*
X149293028Y-122543623D01*
X149374827Y-122530668D01*
X149374828Y-122530667D01*
X149374831Y-122530667D01*
X149547652Y-122474514D01*
X149547652Y-122474513D01*
X149547655Y-122474513D01*
X149709571Y-122392013D01*
X149856587Y-122285199D01*
X149985084Y-122156702D01*
X150091898Y-122009686D01*
X150174398Y-121847770D01*
X150191681Y-121794579D01*
X150230552Y-121674946D01*
X150230552Y-121674945D01*
X150230553Y-121674942D01*
X150258981Y-121495457D01*
X150258981Y-121313735D01*
X150230553Y-121134250D01*
X150230552Y-121134246D01*
X150230552Y-121134245D01*
X150174399Y-120961424D01*
X150174397Y-120961421D01*
X150091897Y-120799505D01*
X149985084Y-120652490D01*
X149856587Y-120523993D01*
X149709571Y-120417179D01*
X149547655Y-120334679D01*
X149547652Y-120334677D01*
X149374829Y-120278524D01*
X149255170Y-120259572D01*
X149195342Y-120250096D01*
X149013620Y-120250096D01*
X148953791Y-120259572D01*
X148834133Y-120278524D01*
X148834130Y-120278524D01*
X148661309Y-120334677D01*
X148661306Y-120334679D01*
X148499390Y-120417179D01*
X148415511Y-120478121D01*
X148352375Y-120523993D01*
X148352373Y-120523995D01*
X148352372Y-120523995D01*
X148223880Y-120652487D01*
X148223880Y-120652488D01*
X148223878Y-120652490D01*
X148178006Y-120715626D01*
X148117064Y-120799505D01*
X148034564Y-120961421D01*
X148034562Y-120961424D01*
X147978409Y-121134245D01*
X147978409Y-121134248D01*
X147949981Y-121313735D01*
X146600013Y-121313735D01*
X146600013Y-111324132D01*
X146619698Y-111257093D01*
X146672502Y-111211338D01*
X146724013Y-111200132D01*
X205174812Y-111200132D01*
X205241851Y-111219817D01*
G37*
%TD.AperFunction*%
%TA.AperFunction,Conductor*%
G36*
X169636890Y-133780524D02*
G01*
X169641584Y-133779850D01*
X169656018Y-133782811D01*
X169720377Y-133800056D01*
X169878491Y-133800056D01*
X170278537Y-133800056D01*
X170345576Y-133819741D01*
X170391331Y-133872545D01*
X170401275Y-133941703D01*
X170389022Y-133980351D01*
X170347872Y-134061111D01*
X170282181Y-134263286D01*
X170248928Y-134473239D01*
X170248928Y-134685812D01*
X170279925Y-134881523D01*
X170282182Y-134895769D01*
X170315934Y-134999648D01*
X170347872Y-135097940D01*
X170444379Y-135287346D01*
X170569318Y-135459312D01*
X170719641Y-135609635D01*
X170891610Y-135734576D01*
X170900374Y-135739042D01*
X170951170Y-135787017D01*
X170967964Y-135854838D01*
X170945426Y-135920973D01*
X170900374Y-135960010D01*
X170891610Y-135964475D01*
X170719641Y-136089416D01*
X170569318Y-136239739D01*
X170444379Y-136411705D01*
X170347872Y-136601111D01*
X170282181Y-136803286D01*
X170248928Y-137013239D01*
X170248928Y-137225812D01*
X170282181Y-137435765D01*
X170347872Y-137637940D01*
X170444379Y-137827346D01*
X170569318Y-137999312D01*
X170719641Y-138149635D01*
X170891610Y-138274576D01*
X170900374Y-138279042D01*
X170951170Y-138327017D01*
X170967964Y-138394838D01*
X170945426Y-138460973D01*
X170900374Y-138500010D01*
X170891610Y-138504475D01*
X170719641Y-138629416D01*
X170569318Y-138779739D01*
X170444379Y-138951705D01*
X170347872Y-139141111D01*
X170282181Y-139343286D01*
X170248928Y-139553239D01*
X170248928Y-139765812D01*
X170279925Y-139961523D01*
X170282182Y-139975769D01*
X170344003Y-140166035D01*
X170347872Y-140177940D01*
X170444379Y-140367346D01*
X170569318Y-140539312D01*
X170719641Y-140689635D01*
X170891610Y-140814576D01*
X170900374Y-140819042D01*
X170951170Y-140867017D01*
X170967964Y-140934838D01*
X170945426Y-141000973D01*
X170900374Y-141040010D01*
X170891610Y-141044475D01*
X170719641Y-141169416D01*
X170569318Y-141319739D01*
X170444379Y-141491705D01*
X170347872Y-141681111D01*
X170347871Y-141681113D01*
X170347871Y-141681114D01*
X170282182Y-141883283D01*
X170248928Y-142093239D01*
X170248928Y-142305813D01*
X170251312Y-142320862D01*
X170279925Y-142501523D01*
X170282182Y-142515769D01*
X170344635Y-142707980D01*
X170347872Y-142717940D01*
X170444379Y-142907346D01*
X170569318Y-143079312D01*
X170719641Y-143229635D01*
X170891607Y-143354574D01*
X170891609Y-143354575D01*
X170891612Y-143354577D01*
X171081016Y-143451083D01*
X171283185Y-143516772D01*
X171493141Y-143550026D01*
X171493142Y-143550026D01*
X171705714Y-143550026D01*
X171705715Y-143550026D01*
X171915671Y-143516772D01*
X172117840Y-143451083D01*
X172307244Y-143354577D01*
X172336926Y-143333012D01*
X172479214Y-143229635D01*
X172479216Y-143229632D01*
X172479220Y-143229630D01*
X172629532Y-143079318D01*
X172629534Y-143079314D01*
X172629537Y-143079312D01*
X172754476Y-142907346D01*
X172754475Y-142907346D01*
X172754479Y-142907342D01*
X172850985Y-142717938D01*
X172856990Y-142699455D01*
X172896427Y-142641780D01*
X172960785Y-142614581D01*
X173029632Y-142626495D01*
X173081108Y-142673739D01*
X173098921Y-142737773D01*
X173098921Y-145499417D01*
X173079236Y-145566456D01*
X173062602Y-145587098D01*
X172587008Y-146062692D01*
X172525685Y-146096177D01*
X172499327Y-146099011D01*
X171299528Y-146099011D01*
X171232489Y-146079326D01*
X171211847Y-146062692D01*
X169073141Y-143923986D01*
X169039656Y-143862663D01*
X169044640Y-143792971D01*
X169086512Y-143737038D01*
X169091932Y-143733202D01*
X169109727Y-143721312D01*
X169221227Y-143609812D01*
X169308832Y-143478702D01*
X169369175Y-143333020D01*
X169399938Y-143178365D01*
X169399938Y-143020681D01*
X169399938Y-143020678D01*
X169399937Y-143020676D01*
X169380218Y-142921543D01*
X169369175Y-142866026D01*
X169354046Y-142829500D01*
X169308835Y-142720350D01*
X169308828Y-142720337D01*
X169220836Y-142588648D01*
X169199958Y-142521970D01*
X169199938Y-142519757D01*
X169199938Y-141688588D01*
X169199939Y-141688575D01*
X169199939Y-141520472D01*
X169176975Y-141434770D01*
X169159015Y-141367744D01*
X169132203Y-141321305D01*
X169115731Y-141253406D01*
X169138584Y-141187379D01*
X169192136Y-141144746D01*
X169278616Y-141108926D01*
X169409726Y-141021321D01*
X169521226Y-140909821D01*
X169608831Y-140778711D01*
X169669174Y-140633029D01*
X169699937Y-140478374D01*
X169699937Y-140320690D01*
X169699937Y-140320687D01*
X169699936Y-140320685D01*
X169691965Y-140280611D01*
X169669174Y-140166035D01*
X169662881Y-140150843D01*
X169608834Y-140020359D01*
X169608827Y-140020346D01*
X169520835Y-139888657D01*
X169499957Y-139821979D01*
X169499937Y-139819766D01*
X169499937Y-133902588D01*
X169506980Y-133878600D01*
X169509949Y-133853774D01*
X169516655Y-133845651D01*
X169519622Y-133835549D01*
X169538513Y-133819179D01*
X169554435Y-133799897D01*
X169564467Y-133796689D01*
X169572426Y-133789794D01*
X169597171Y-133786235D01*
X169620987Y-133778623D01*
X169636890Y-133780524D01*
G37*
%TD.AperFunction*%
%TD*%
M02*
