%TF.GenerationSoftware,KiCad,Pcbnew,9.0.8-9.0.8~ubuntu24.04.1*%
%TF.CreationDate,2026-05-01T14:37:12+07:00*%
%TF.ProjectId,majigotcha,6d616a69-676f-4746-9368-612e6b696361,rev?*%
%TF.SameCoordinates,Original*%
%TF.FileFunction,Soldermask,Top*%
%TF.FilePolarity,Negative*%
%FSLAX46Y46*%
G04 Gerber Fmt 4.6, Leading zero omitted, Abs format (unit mm)*
G04 Created by KiCad (PCBNEW 9.0.8-9.0.8~ubuntu24.04.1) date 2026-05-01 14:37:12*
%MOMM*%
%LPD*%
G01*
G04 APERTURE LIST*
G04 Aperture macros list*
%AMRoundRect*
0 Rectangle with rounded corners*
0 $1 Rounding radius*
0 $2 $3 $4 $5 $6 $7 $8 $9 X,Y pos of 4 corners*
0 Add a 4 corners polygon primitive as box body*
4,1,4,$2,$3,$4,$5,$6,$7,$8,$9,$2,$3,0*
0 Add four circle primitives for the rounded corners*
1,1,$1+$1,$2,$3*
1,1,$1+$1,$4,$5*
1,1,$1+$1,$6,$7*
1,1,$1+$1,$8,$9*
0 Add four rect primitives between the rounded corners*
20,1,$1+$1,$2,$3,$4,$5,0*
20,1,$1+$1,$4,$5,$6,$7,0*
20,1,$1+$1,$6,$7,$8,$9,0*
20,1,$1+$1,$8,$9,$2,$3,0*%
G04 Aperture macros list end*
%ADD10R,2.000000X2.000000*%
%ADD11C,2.000000*%
%ADD12RoundRect,0.102000X-0.754000X-0.754000X0.754000X-0.754000X0.754000X0.754000X-0.754000X0.754000X0*%
%ADD13C,1.712000*%
%ADD14C,3.204000*%
%ADD15RoundRect,0.100000X-0.217500X-0.100000X0.217500X-0.100000X0.217500X0.100000X-0.217500X0.100000X0*%
%ADD16R,1.700000X1.700000*%
%ADD17C,1.700000*%
%ADD18O,3.240000X2.720000*%
%ADD19R,1.800000X1.800000*%
%ADD20C,1.800000*%
%ADD21RoundRect,0.102000X-0.654000X-0.654000X0.654000X-0.654000X0.654000X0.654000X-0.654000X0.654000X0*%
%ADD22C,1.512000*%
G04 APERTURE END LIST*
D10*
%TO.C,BUZZER1*%
X191699361Y-130099583D03*
D11*
X191699361Y-125099583D03*
%TD*%
D12*
%TO.C,U2*%
X186089367Y-114499580D03*
D13*
X188629367Y-114499580D03*
X191169367Y-114499580D03*
X193709367Y-114499580D03*
D14*
X178899367Y-114999580D03*
X200899367Y-114999580D03*
X200899367Y-136999580D03*
X178899367Y-136999580D03*
%TD*%
D15*
%TO.C,C1*%
X171059427Y-148499505D03*
X171966927Y-148499505D03*
%TD*%
D11*
%TO.C,SW2*%
X186299379Y-142799524D03*
X192799379Y-142799524D03*
X186299379Y-147299524D03*
X192799379Y-147299524D03*
%TD*%
%TO.C,SW1*%
X176699411Y-142799524D03*
X183199411Y-142799524D03*
X176699411Y-147299524D03*
X183199411Y-147299524D03*
%TD*%
%TO.C,SW3*%
X195899347Y-142799524D03*
X202399347Y-142799524D03*
X195899347Y-147299524D03*
X202399347Y-147299524D03*
%TD*%
D16*
%TO.C,U4*%
X171599428Y-132039526D03*
D17*
X171599428Y-134579526D03*
X171599428Y-137119526D03*
X171599428Y-139659526D03*
X171599428Y-142199526D03*
X171599428Y-144739526D03*
%TD*%
D18*
%TO.C,RV1*%
X167124437Y-127799590D03*
X167124437Y-118199590D03*
D19*
X174624437Y-125499590D03*
D20*
X174624437Y-122999590D03*
X174624437Y-120499590D03*
%TD*%
D16*
%TO.C,BT1*%
X167624437Y-113699621D03*
D17*
X170164437Y-113699621D03*
%TD*%
D21*
%TO.C,U3*%
X149104481Y-123944596D03*
D22*
X149104481Y-121404596D03*
X149104481Y-118864596D03*
%TD*%
M02*
