%TF.GenerationSoftware,KiCad,Pcbnew,9.0.8-9.0.8~ubuntu24.04.1*%
%TF.CreationDate,2026-05-01T14:37:12+07:00*%
%TF.ProjectId,majigotcha,6d616a69-676f-4746-9368-612e6b696361,rev?*%
%TF.SameCoordinates,Original*%
%TF.FileFunction,Legend,Bot*%
%TF.FilePolarity,Positive*%
%FSLAX46Y46*%
G04 Gerber Fmt 4.6, Leading zero omitted, Abs format (unit mm)*
G04 Created by KiCad (PCBNEW 9.0.8-9.0.8~ubuntu24.04.1) date 2026-05-01 14:37:12*
%MOMM*%
%LPD*%
G01*
G04 APERTURE LIST*
%ADD10C,0.150000*%
%ADD11C,0.106680*%
%ADD12C,0.120000*%
%ADD13C,0.100000*%
%ADD14C,0.127000*%
%ADD15C,0.504000*%
G04 APERTURE END LIST*
D10*
X198800370Y-124766249D02*
X198847989Y-124909106D01*
X198847989Y-124909106D02*
X198895608Y-124956725D01*
X198895608Y-124956725D02*
X198990846Y-125004344D01*
X198990846Y-125004344D02*
X199133703Y-125004344D01*
X199133703Y-125004344D02*
X199228941Y-124956725D01*
X199228941Y-124956725D02*
X199276561Y-124909106D01*
X199276561Y-124909106D02*
X199324180Y-124813868D01*
X199324180Y-124813868D02*
X199324180Y-124432916D01*
X199324180Y-124432916D02*
X198324180Y-124432916D01*
X198324180Y-124432916D02*
X198324180Y-124766249D01*
X198324180Y-124766249D02*
X198371799Y-124861487D01*
X198371799Y-124861487D02*
X198419418Y-124909106D01*
X198419418Y-124909106D02*
X198514656Y-124956725D01*
X198514656Y-124956725D02*
X198609894Y-124956725D01*
X198609894Y-124956725D02*
X198705132Y-124909106D01*
X198705132Y-124909106D02*
X198752751Y-124861487D01*
X198752751Y-124861487D02*
X198800370Y-124766249D01*
X198800370Y-124766249D02*
X198800370Y-124432916D01*
X198324180Y-125432916D02*
X199133703Y-125432916D01*
X199133703Y-125432916D02*
X199228941Y-125480535D01*
X199228941Y-125480535D02*
X199276561Y-125528154D01*
X199276561Y-125528154D02*
X199324180Y-125623392D01*
X199324180Y-125623392D02*
X199324180Y-125813868D01*
X199324180Y-125813868D02*
X199276561Y-125909106D01*
X199276561Y-125909106D02*
X199228941Y-125956725D01*
X199228941Y-125956725D02*
X199133703Y-126004344D01*
X199133703Y-126004344D02*
X198324180Y-126004344D01*
X198324180Y-126385297D02*
X198324180Y-127051963D01*
X198324180Y-127051963D02*
X199324180Y-126385297D01*
X199324180Y-126385297D02*
X199324180Y-127051963D01*
X198324180Y-127337678D02*
X198324180Y-128004344D01*
X198324180Y-128004344D02*
X199324180Y-127337678D01*
X199324180Y-127337678D02*
X199324180Y-128004344D01*
X198800370Y-128385297D02*
X198800370Y-128718630D01*
X199324180Y-128861487D02*
X199324180Y-128385297D01*
X199324180Y-128385297D02*
X198324180Y-128385297D01*
X198324180Y-128385297D02*
X198324180Y-128861487D01*
X199324180Y-129861487D02*
X198847989Y-129528154D01*
X199324180Y-129290059D02*
X198324180Y-129290059D01*
X198324180Y-129290059D02*
X198324180Y-129671011D01*
X198324180Y-129671011D02*
X198371799Y-129766249D01*
X198371799Y-129766249D02*
X198419418Y-129813868D01*
X198419418Y-129813868D02*
X198514656Y-129861487D01*
X198514656Y-129861487D02*
X198657513Y-129861487D01*
X198657513Y-129861487D02*
X198752751Y-129813868D01*
X198752751Y-129813868D02*
X198800370Y-129766249D01*
X198800370Y-129766249D02*
X198847989Y-129671011D01*
X198847989Y-129671011D02*
X198847989Y-129290059D01*
X199324180Y-130813868D02*
X199324180Y-130242440D01*
X199324180Y-130528154D02*
X198324180Y-130528154D01*
X198324180Y-130528154D02*
X198467037Y-130432916D01*
X198467037Y-130432916D02*
X198562275Y-130337678D01*
X198562275Y-130337678D02*
X198609894Y-130242440D01*
D11*
X149929658Y-152072762D02*
X149929658Y-152706069D01*
X149929658Y-152706069D02*
X149892405Y-152780575D01*
X149892405Y-152780575D02*
X149855151Y-152817829D01*
X149855151Y-152817829D02*
X149780645Y-152855082D01*
X149780645Y-152855082D02*
X149631631Y-152855082D01*
X149631631Y-152855082D02*
X149557125Y-152817829D01*
X149557125Y-152817829D02*
X149519871Y-152780575D01*
X149519871Y-152780575D02*
X149482618Y-152706069D01*
X149482618Y-152706069D02*
X149482618Y-152072762D01*
X148737552Y-152072762D02*
X149110085Y-152072762D01*
X149110085Y-152072762D02*
X149147338Y-152445295D01*
X149147338Y-152445295D02*
X149110085Y-152408042D01*
X149110085Y-152408042D02*
X149035578Y-152370789D01*
X149035578Y-152370789D02*
X148849312Y-152370789D01*
X148849312Y-152370789D02*
X148774805Y-152408042D01*
X148774805Y-152408042D02*
X148737552Y-152445295D01*
X148737552Y-152445295D02*
X148700298Y-152519802D01*
X148700298Y-152519802D02*
X148700298Y-152706069D01*
X148700298Y-152706069D02*
X148737552Y-152780575D01*
X148737552Y-152780575D02*
X148774805Y-152817829D01*
X148774805Y-152817829D02*
X148849312Y-152855082D01*
X148849312Y-152855082D02*
X149035578Y-152855082D01*
X149035578Y-152855082D02*
X149110085Y-152817829D01*
X149110085Y-152817829D02*
X149147338Y-152780575D01*
D10*
X165175446Y-112913906D02*
X165223065Y-113056763D01*
X165223065Y-113056763D02*
X165270684Y-113104382D01*
X165270684Y-113104382D02*
X165365922Y-113152001D01*
X165365922Y-113152001D02*
X165508779Y-113152001D01*
X165508779Y-113152001D02*
X165604017Y-113104382D01*
X165604017Y-113104382D02*
X165651637Y-113056763D01*
X165651637Y-113056763D02*
X165699256Y-112961525D01*
X165699256Y-112961525D02*
X165699256Y-112580573D01*
X165699256Y-112580573D02*
X164699256Y-112580573D01*
X164699256Y-112580573D02*
X164699256Y-112913906D01*
X164699256Y-112913906D02*
X164746875Y-113009144D01*
X164746875Y-113009144D02*
X164794494Y-113056763D01*
X164794494Y-113056763D02*
X164889732Y-113104382D01*
X164889732Y-113104382D02*
X164984970Y-113104382D01*
X164984970Y-113104382D02*
X165080208Y-113056763D01*
X165080208Y-113056763D02*
X165127827Y-113009144D01*
X165127827Y-113009144D02*
X165175446Y-112913906D01*
X165175446Y-112913906D02*
X165175446Y-112580573D01*
X164699256Y-113437716D02*
X164699256Y-114009144D01*
X165699256Y-113723430D02*
X164699256Y-113723430D01*
X165699256Y-114866287D02*
X165699256Y-114294859D01*
X165699256Y-114580573D02*
X164699256Y-114580573D01*
X164699256Y-114580573D02*
X164842113Y-114485335D01*
X164842113Y-114485335D02*
X164937351Y-114390097D01*
X164937351Y-114390097D02*
X164984970Y-114294859D01*
X151741385Y-127334415D02*
X151741385Y-128143938D01*
X151741385Y-128143938D02*
X151693766Y-128239176D01*
X151693766Y-128239176D02*
X151646147Y-128286796D01*
X151646147Y-128286796D02*
X151550909Y-128334415D01*
X151550909Y-128334415D02*
X151360433Y-128334415D01*
X151360433Y-128334415D02*
X151265195Y-128286796D01*
X151265195Y-128286796D02*
X151217576Y-128239176D01*
X151217576Y-128239176D02*
X151169957Y-128143938D01*
X151169957Y-128143938D02*
X151169957Y-127334415D01*
X150789004Y-127334415D02*
X150169957Y-127334415D01*
X150169957Y-127334415D02*
X150503290Y-127715367D01*
X150503290Y-127715367D02*
X150360433Y-127715367D01*
X150360433Y-127715367D02*
X150265195Y-127762986D01*
X150265195Y-127762986D02*
X150217576Y-127810605D01*
X150217576Y-127810605D02*
X150169957Y-127905843D01*
X150169957Y-127905843D02*
X150169957Y-128143938D01*
X150169957Y-128143938D02*
X150217576Y-128239176D01*
X150217576Y-128239176D02*
X150265195Y-128286796D01*
X150265195Y-128286796D02*
X150360433Y-128334415D01*
X150360433Y-128334415D02*
X150646147Y-128334415D01*
X150646147Y-128334415D02*
X150741385Y-128286796D01*
X150741385Y-128286796D02*
X150789004Y-128239176D01*
D12*
%TO.C,BUZZER1*%
X193199361Y-133999583D02*
G75*
G02*
X190199362Y-133999583I-1500000J6400000D01*
G01*
X197929361Y-127599583D02*
G75*
G02*
X185469361Y-127599583I-6230000J0D01*
G01*
X185469361Y-127599583D02*
G75*
G02*
X197929361Y-127599583I6230000J0D01*
G01*
D13*
%TO.C,U5*%
X148864501Y-132006557D02*
X148864501Y-149151557D01*
X150769501Y-130101557D02*
X164739501Y-130101557D01*
D14*
X153259501Y-151056557D02*
X153263229Y-152066829D01*
X153763229Y-152566557D02*
X161758501Y-152566557D01*
X162258501Y-152066557D02*
X162258501Y-151056557D01*
D13*
X164739501Y-151056557D02*
X150769501Y-151056557D01*
X166644501Y-132006557D02*
X166644501Y-149151557D01*
X148864501Y-132006557D02*
G75*
G02*
X150769501Y-130101557I1905001J-1D01*
G01*
X150769501Y-151060557D02*
G75*
G02*
X148864501Y-149155557I1J1905001D01*
G01*
D14*
X153763229Y-152566557D02*
G75*
G02*
X153263228Y-152066829I18J500019D01*
G01*
X162258501Y-152066557D02*
G75*
G02*
X161758501Y-152566557I-500000J0D01*
G01*
D13*
X164739501Y-130101557D02*
G75*
G02*
X166644501Y-132006557I0J-1905000D01*
G01*
X166644501Y-149151557D02*
G75*
G02*
X164739501Y-151056557I-1905000J0D01*
G01*
D15*
X148906501Y-150640557D02*
G75*
G02*
X148402501Y-150640557I-252000J0D01*
G01*
X148402501Y-150640557D02*
G75*
G02*
X148906501Y-150640557I252000J0D01*
G01*
X150180501Y-149923557D02*
G75*
G02*
X149676501Y-149923557I-252000J0D01*
G01*
X149676501Y-149923557D02*
G75*
G02*
X150180501Y-149923557I252000J0D01*
G01*
D12*
%TO.C,BT1*%
X166244437Y-112319621D02*
X166244437Y-113699621D01*
X167624437Y-112319621D02*
X166244437Y-112319621D01*
X168894437Y-112319621D02*
X168894437Y-115079621D01*
X168894437Y-112319621D02*
X171544437Y-112319621D01*
X168894437Y-115079621D02*
X171544437Y-115079621D01*
X171544437Y-112319621D02*
X171544437Y-115079621D01*
D14*
%TO.C,U3*%
X148044481Y-115644596D02*
X148044481Y-126804596D01*
X148044481Y-126804596D02*
X163304481Y-126804596D01*
X163204481Y-115644596D02*
X148044481Y-115644596D01*
X163304481Y-126804596D02*
X163304481Y-115644596D01*
%TD*%
M02*
