M48
; DRILL file {KiCad 9.0.8-9.0.8~ubuntu24.04.1} date 2026-05-01T14:37:17+0700
; FORMAT={-:-/ absolute / metric / decimal}
; #@! TF.CreationDate,2026-05-01T14:37:17+07:00
; #@! TF.GenerationSoftware,Kicad,Pcbnew,9.0.8-9.0.8~ubuntu24.04.1
; #@! TF.FileFunction,Plated,1,2,PTH
FMAT,2
METRIC
; #@! TA.AperFunction,Plated,PTH,ViaDrill
T1C0.300
; #@! TA.AperFunction,Plated,PTH,ComponentDrill
T2C0.800
; #@! TA.AperFunction,Plated,PTH,ComponentDrill
T3C1.000
; #@! TA.AperFunction,Plated,PTH,ComponentDrill
T4C1.100
; #@! TA.AperFunction,Plated,PTH,ComponentDrill
T5C2.000
%
G90
G05
T1
X147.3Y-127.2
X153.299Y-136.2
X162.325Y-116.425
X162.899Y-137.7
X164.099Y-115.5
X167.999Y-135.3
X168.599Y-143.1
X168.899Y-140.4
X168.899Y-146.4
X173.699Y-140.7
X175.199Y-149.7
X183.899Y-150.299
X194.399Y-141.3
T2
X149.104Y-118.865
X149.104Y-121.405
X149.104Y-123.945
T3
X167.624Y-113.7
X170.164Y-113.7
X171.599Y-132.04
X171.599Y-134.58
X171.599Y-137.12
X171.599Y-139.66
X171.599Y-142.2
X171.599Y-144.74
X174.624Y-120.5
X174.624Y-123.0
X174.624Y-125.5
X186.089Y-114.5
X188.629Y-114.5
X191.169Y-114.5
X191.699Y-125.1
X191.699Y-130.1
X193.709Y-114.5
T4
X176.699Y-142.8
X176.699Y-147.3
X183.199Y-142.8
X183.199Y-147.3
X186.299Y-142.8
X186.299Y-147.3
X192.799Y-142.8
X192.799Y-147.3
X195.899Y-142.8
X195.899Y-147.3
X202.399Y-142.8
X202.399Y-147.3
T5
X178.899Y-115.0
X178.899Y-137.0
X200.899Y-115.0
X200.899Y-137.0
T4
G00X167.474Y-118.2
M15
G01X166.774Y-118.2
M16
G05
G00X167.474Y-127.8
M15
G01X166.774Y-127.8
M16
G05
M30
