%TF.GenerationSoftware,KiCad,Pcbnew,9.0.8-9.0.8~ubuntu24.04.1*%
%TF.CreationDate,2026-05-01T14:37:12+07:00*%
%TF.ProjectId,majigotcha,6d616a69-676f-4746-9368-612e6b696361,rev?*%
%TF.SameCoordinates,Original*%
%TF.FileFunction,Legend,Top*%
%TF.FilePolarity,Positive*%
%FSLAX46Y46*%
G04 Gerber Fmt 4.6, Leading zero omitted, Abs format (unit mm)*
G04 Created by KiCad (PCBNEW 9.0.8-9.0.8~ubuntu24.04.1) date 2026-05-01 14:37:12*
%MOMM*%
%LPD*%
G01*
G04 APERTURE LIST*
%ADD10C,0.250000*%
%ADD11C,0.150000*%
%ADD12C,0.000000*%
%ADD13C,0.127000*%
%ADD14C,0.200000*%
%ADD15C,0.120000*%
G04 APERTURE END LIST*
D10*
X155196719Y-132880512D02*
X155149100Y-132975750D01*
X155149100Y-132975750D02*
X155149100Y-133118607D01*
X155149100Y-133118607D02*
X155196719Y-133261464D01*
X155196719Y-133261464D02*
X155291957Y-133356702D01*
X155291957Y-133356702D02*
X155387195Y-133404321D01*
X155387195Y-133404321D02*
X155577671Y-133451940D01*
X155577671Y-133451940D02*
X155720528Y-133451940D01*
X155720528Y-133451940D02*
X155911004Y-133404321D01*
X155911004Y-133404321D02*
X156006242Y-133356702D01*
X156006242Y-133356702D02*
X156101481Y-133261464D01*
X156101481Y-133261464D02*
X156149100Y-133118607D01*
X156149100Y-133118607D02*
X156149100Y-133023369D01*
X156149100Y-133023369D02*
X156101481Y-132880512D01*
X156101481Y-132880512D02*
X156053861Y-132832893D01*
X156053861Y-132832893D02*
X155720528Y-132832893D01*
X155720528Y-132832893D02*
X155720528Y-133023369D01*
X155149100Y-132261464D02*
X155387195Y-132261464D01*
X155291957Y-132499559D02*
X155387195Y-132261464D01*
X155387195Y-132261464D02*
X155291957Y-132023369D01*
X155577671Y-132404321D02*
X155387195Y-132261464D01*
X155387195Y-132261464D02*
X155577671Y-132118607D01*
X155149100Y-131499559D02*
X155387195Y-131499559D01*
X155291957Y-131737654D02*
X155387195Y-131499559D01*
X155387195Y-131499559D02*
X155291957Y-131261464D01*
X155577671Y-131642416D02*
X155387195Y-131499559D01*
X155387195Y-131499559D02*
X155577671Y-131356702D01*
X155149100Y-130737654D02*
X155387195Y-130737654D01*
X155291957Y-130975749D02*
X155387195Y-130737654D01*
X155387195Y-130737654D02*
X155291957Y-130499559D01*
X155577671Y-130880511D02*
X155387195Y-130737654D01*
X155387195Y-130737654D02*
X155577671Y-130594797D01*
D11*
X179612462Y-111484399D02*
X179612462Y-112293922D01*
X179612462Y-112293922D02*
X179660081Y-112389160D01*
X179660081Y-112389160D02*
X179707700Y-112436780D01*
X179707700Y-112436780D02*
X179802938Y-112484399D01*
X179802938Y-112484399D02*
X179993414Y-112484399D01*
X179993414Y-112484399D02*
X180088652Y-112436780D01*
X180088652Y-112436780D02*
X180136271Y-112389160D01*
X180136271Y-112389160D02*
X180183890Y-112293922D01*
X180183890Y-112293922D02*
X180183890Y-111484399D01*
X180612462Y-111579637D02*
X180660081Y-111532018D01*
X180660081Y-111532018D02*
X180755319Y-111484399D01*
X180755319Y-111484399D02*
X180993414Y-111484399D01*
X180993414Y-111484399D02*
X181088652Y-111532018D01*
X181088652Y-111532018D02*
X181136271Y-111579637D01*
X181136271Y-111579637D02*
X181183890Y-111674875D01*
X181183890Y-111674875D02*
X181183890Y-111770113D01*
X181183890Y-111770113D02*
X181136271Y-111912970D01*
X181136271Y-111912970D02*
X180564843Y-112484399D01*
X180564843Y-112484399D02*
X181183890Y-112484399D01*
X171300260Y-147809085D02*
X171252641Y-147856705D01*
X171252641Y-147856705D02*
X171109784Y-147904324D01*
X171109784Y-147904324D02*
X171014546Y-147904324D01*
X171014546Y-147904324D02*
X170871689Y-147856705D01*
X170871689Y-147856705D02*
X170776451Y-147761466D01*
X170776451Y-147761466D02*
X170728832Y-147666228D01*
X170728832Y-147666228D02*
X170681213Y-147475752D01*
X170681213Y-147475752D02*
X170681213Y-147332895D01*
X170681213Y-147332895D02*
X170728832Y-147142419D01*
X170728832Y-147142419D02*
X170776451Y-147047181D01*
X170776451Y-147047181D02*
X170871689Y-146951943D01*
X170871689Y-146951943D02*
X171014546Y-146904324D01*
X171014546Y-146904324D02*
X171109784Y-146904324D01*
X171109784Y-146904324D02*
X171252641Y-146951943D01*
X171252641Y-146951943D02*
X171300260Y-146999562D01*
X172252641Y-147904324D02*
X171681213Y-147904324D01*
X171966927Y-147904324D02*
X171966927Y-146904324D01*
X171966927Y-146904324D02*
X171871689Y-147047181D01*
X171871689Y-147047181D02*
X171776451Y-147142419D01*
X171776451Y-147142419D02*
X171681213Y-147190038D01*
X188216046Y-141206724D02*
X188358903Y-141254343D01*
X188358903Y-141254343D02*
X188596998Y-141254343D01*
X188596998Y-141254343D02*
X188692236Y-141206724D01*
X188692236Y-141206724D02*
X188739855Y-141159104D01*
X188739855Y-141159104D02*
X188787474Y-141063866D01*
X188787474Y-141063866D02*
X188787474Y-140968628D01*
X188787474Y-140968628D02*
X188739855Y-140873390D01*
X188739855Y-140873390D02*
X188692236Y-140825771D01*
X188692236Y-140825771D02*
X188596998Y-140778152D01*
X188596998Y-140778152D02*
X188406522Y-140730533D01*
X188406522Y-140730533D02*
X188311284Y-140682914D01*
X188311284Y-140682914D02*
X188263665Y-140635295D01*
X188263665Y-140635295D02*
X188216046Y-140540057D01*
X188216046Y-140540057D02*
X188216046Y-140444819D01*
X188216046Y-140444819D02*
X188263665Y-140349581D01*
X188263665Y-140349581D02*
X188311284Y-140301962D01*
X188311284Y-140301962D02*
X188406522Y-140254343D01*
X188406522Y-140254343D02*
X188644617Y-140254343D01*
X188644617Y-140254343D02*
X188787474Y-140301962D01*
X189120808Y-140254343D02*
X189358903Y-141254343D01*
X189358903Y-141254343D02*
X189549379Y-140540057D01*
X189549379Y-140540057D02*
X189739855Y-141254343D01*
X189739855Y-141254343D02*
X189977951Y-140254343D01*
X190311284Y-140349581D02*
X190358903Y-140301962D01*
X190358903Y-140301962D02*
X190454141Y-140254343D01*
X190454141Y-140254343D02*
X190692236Y-140254343D01*
X190692236Y-140254343D02*
X190787474Y-140301962D01*
X190787474Y-140301962D02*
X190835093Y-140349581D01*
X190835093Y-140349581D02*
X190882712Y-140444819D01*
X190882712Y-140444819D02*
X190882712Y-140540057D01*
X190882712Y-140540057D02*
X190835093Y-140682914D01*
X190835093Y-140682914D02*
X190263665Y-141254343D01*
X190263665Y-141254343D02*
X190882712Y-141254343D01*
X178616078Y-141206724D02*
X178758935Y-141254343D01*
X178758935Y-141254343D02*
X178997030Y-141254343D01*
X178997030Y-141254343D02*
X179092268Y-141206724D01*
X179092268Y-141206724D02*
X179139887Y-141159104D01*
X179139887Y-141159104D02*
X179187506Y-141063866D01*
X179187506Y-141063866D02*
X179187506Y-140968628D01*
X179187506Y-140968628D02*
X179139887Y-140873390D01*
X179139887Y-140873390D02*
X179092268Y-140825771D01*
X179092268Y-140825771D02*
X178997030Y-140778152D01*
X178997030Y-140778152D02*
X178806554Y-140730533D01*
X178806554Y-140730533D02*
X178711316Y-140682914D01*
X178711316Y-140682914D02*
X178663697Y-140635295D01*
X178663697Y-140635295D02*
X178616078Y-140540057D01*
X178616078Y-140540057D02*
X178616078Y-140444819D01*
X178616078Y-140444819D02*
X178663697Y-140349581D01*
X178663697Y-140349581D02*
X178711316Y-140301962D01*
X178711316Y-140301962D02*
X178806554Y-140254343D01*
X178806554Y-140254343D02*
X179044649Y-140254343D01*
X179044649Y-140254343D02*
X179187506Y-140301962D01*
X179520840Y-140254343D02*
X179758935Y-141254343D01*
X179758935Y-141254343D02*
X179949411Y-140540057D01*
X179949411Y-140540057D02*
X180139887Y-141254343D01*
X180139887Y-141254343D02*
X180377983Y-140254343D01*
X181282744Y-141254343D02*
X180711316Y-141254343D01*
X180997030Y-141254343D02*
X180997030Y-140254343D01*
X180997030Y-140254343D02*
X180901792Y-140397200D01*
X180901792Y-140397200D02*
X180806554Y-140492438D01*
X180806554Y-140492438D02*
X180711316Y-140540057D01*
X197816014Y-141206724D02*
X197958871Y-141254343D01*
X197958871Y-141254343D02*
X198196966Y-141254343D01*
X198196966Y-141254343D02*
X198292204Y-141206724D01*
X198292204Y-141206724D02*
X198339823Y-141159104D01*
X198339823Y-141159104D02*
X198387442Y-141063866D01*
X198387442Y-141063866D02*
X198387442Y-140968628D01*
X198387442Y-140968628D02*
X198339823Y-140873390D01*
X198339823Y-140873390D02*
X198292204Y-140825771D01*
X198292204Y-140825771D02*
X198196966Y-140778152D01*
X198196966Y-140778152D02*
X198006490Y-140730533D01*
X198006490Y-140730533D02*
X197911252Y-140682914D01*
X197911252Y-140682914D02*
X197863633Y-140635295D01*
X197863633Y-140635295D02*
X197816014Y-140540057D01*
X197816014Y-140540057D02*
X197816014Y-140444819D01*
X197816014Y-140444819D02*
X197863633Y-140349581D01*
X197863633Y-140349581D02*
X197911252Y-140301962D01*
X197911252Y-140301962D02*
X198006490Y-140254343D01*
X198006490Y-140254343D02*
X198244585Y-140254343D01*
X198244585Y-140254343D02*
X198387442Y-140301962D01*
X198720776Y-140254343D02*
X198958871Y-141254343D01*
X198958871Y-141254343D02*
X199149347Y-140540057D01*
X199149347Y-140540057D02*
X199339823Y-141254343D01*
X199339823Y-141254343D02*
X199577919Y-140254343D01*
X199863633Y-140254343D02*
X200482680Y-140254343D01*
X200482680Y-140254343D02*
X200149347Y-140635295D01*
X200149347Y-140635295D02*
X200292204Y-140635295D01*
X200292204Y-140635295D02*
X200387442Y-140682914D01*
X200387442Y-140682914D02*
X200435061Y-140730533D01*
X200435061Y-140730533D02*
X200482680Y-140825771D01*
X200482680Y-140825771D02*
X200482680Y-141063866D01*
X200482680Y-141063866D02*
X200435061Y-141159104D01*
X200435061Y-141159104D02*
X200387442Y-141206724D01*
X200387442Y-141206724D02*
X200292204Y-141254343D01*
X200292204Y-141254343D02*
X200006490Y-141254343D01*
X200006490Y-141254343D02*
X199911252Y-141206724D01*
X199911252Y-141206724D02*
X199863633Y-141159104D01*
X170837523Y-129114345D02*
X170837523Y-129923868D01*
X170837523Y-129923868D02*
X170885142Y-130019106D01*
X170885142Y-130019106D02*
X170932761Y-130066726D01*
X170932761Y-130066726D02*
X171027999Y-130114345D01*
X171027999Y-130114345D02*
X171218475Y-130114345D01*
X171218475Y-130114345D02*
X171313713Y-130066726D01*
X171313713Y-130066726D02*
X171361332Y-130019106D01*
X171361332Y-130019106D02*
X171408951Y-129923868D01*
X171408951Y-129923868D02*
X171408951Y-129114345D01*
X172313713Y-129447678D02*
X172313713Y-130114345D01*
X172075618Y-129066726D02*
X171837523Y-129781011D01*
X171837523Y-129781011D02*
X172456570Y-129781011D01*
X167319198Y-130594409D02*
X166985865Y-130118218D01*
X166747770Y-130594409D02*
X166747770Y-129594409D01*
X166747770Y-129594409D02*
X167128722Y-129594409D01*
X167128722Y-129594409D02*
X167223960Y-129642028D01*
X167223960Y-129642028D02*
X167271579Y-129689647D01*
X167271579Y-129689647D02*
X167319198Y-129784885D01*
X167319198Y-129784885D02*
X167319198Y-129927742D01*
X167319198Y-129927742D02*
X167271579Y-130022980D01*
X167271579Y-130022980D02*
X167223960Y-130070599D01*
X167223960Y-130070599D02*
X167128722Y-130118218D01*
X167128722Y-130118218D02*
X166747770Y-130118218D01*
X167604913Y-129594409D02*
X167938246Y-130594409D01*
X167938246Y-130594409D02*
X168271579Y-129594409D01*
X169128722Y-130594409D02*
X168557294Y-130594409D01*
X168843008Y-130594409D02*
X168843008Y-129594409D01*
X168843008Y-129594409D02*
X168747770Y-129737266D01*
X168747770Y-129737266D02*
X168652532Y-129832504D01*
X168652532Y-129832504D02*
X168557294Y-129880123D01*
D12*
%TO.C,G\u002A\u002A\u002A*%
G36*
X156298632Y-130480691D02*
G01*
X156554700Y-130482251D01*
X156559377Y-130482289D01*
X157675372Y-130491247D01*
X157826800Y-130571194D01*
X157967826Y-130665934D01*
X158111122Y-130796009D01*
X158236737Y-130941229D01*
X158318401Y-131068620D01*
X158363073Y-131182396D01*
X158402864Y-131328669D01*
X158431513Y-131479621D01*
X158442758Y-131607430D01*
X158442626Y-131620481D01*
X158433681Y-131693410D01*
X158412928Y-131796005D01*
X158396421Y-131862423D01*
X158333049Y-132053225D01*
X158255006Y-132217026D01*
X158167804Y-132345857D01*
X158076956Y-132431750D01*
X157987975Y-132466738D01*
X157978031Y-132467138D01*
X157883416Y-132452884D01*
X157788286Y-132404916D01*
X157678177Y-132315426D01*
X157652747Y-132291535D01*
X157572895Y-132201058D01*
X157544297Y-132122910D01*
X157564413Y-132042099D01*
X157600591Y-131983586D01*
X157662985Y-131873776D01*
X157714540Y-131743774D01*
X157745554Y-131620644D01*
X157750342Y-131565899D01*
X157721663Y-131436292D01*
X157644712Y-131326005D01*
X157530835Y-131245074D01*
X157391373Y-131203534D01*
X157336927Y-131200155D01*
X157256718Y-131201901D01*
X157227091Y-131211232D01*
X157238314Y-131234282D01*
X157255079Y-131251749D01*
X157330464Y-131364422D01*
X157377675Y-131515787D01*
X157391357Y-131661997D01*
X157378282Y-131853536D01*
X157333260Y-132014408D01*
X157248598Y-132162828D01*
X157116600Y-132317013D01*
X157113216Y-132320495D01*
X156915194Y-132484005D01*
X156696566Y-132594817D01*
X156465247Y-132653396D01*
X156314943Y-132657734D01*
X156229153Y-132660210D01*
X155996198Y-132615725D01*
X155774297Y-132520408D01*
X155571367Y-132374726D01*
X155427098Y-132221090D01*
X155314822Y-132041881D01*
X155247847Y-131852251D01*
X155226575Y-131662624D01*
X155246594Y-131518165D01*
X155953666Y-131518165D01*
X155954107Y-131652989D01*
X156001705Y-131767080D01*
X156085210Y-131854829D01*
X156193372Y-131910627D01*
X156314943Y-131928866D01*
X156438673Y-131903937D01*
X156553313Y-131830232D01*
X156562236Y-131821580D01*
X156628090Y-131745683D01*
X156657918Y-131673675D01*
X156664801Y-131577233D01*
X156657537Y-131478935D01*
X156627023Y-131407188D01*
X156562236Y-131332886D01*
X156487710Y-131267815D01*
X156417244Y-131237868D01*
X156319902Y-131230337D01*
X156312546Y-131230321D01*
X156167014Y-131256552D01*
X156051555Y-131330482D01*
X155975076Y-131444969D01*
X155953666Y-131518165D01*
X155246594Y-131518165D01*
X155251409Y-131483423D01*
X155322752Y-131325071D01*
X155389304Y-131243144D01*
X155421579Y-131198510D01*
X155405494Y-131177575D01*
X155355416Y-131150265D01*
X155303079Y-131112288D01*
X155250778Y-131037929D01*
X155223776Y-130931773D01*
X155220250Y-130809946D01*
X155238376Y-130688569D01*
X155276330Y-130583768D01*
X155332289Y-130511666D01*
X155373363Y-130490904D01*
X155418789Y-130487133D01*
X155517338Y-130484120D01*
X155661802Y-130481917D01*
X155844977Y-130480576D01*
X156059655Y-130480150D01*
X156298632Y-130480691D01*
G37*
G36*
X157366167Y-144267593D02*
G01*
X157396874Y-144275335D01*
X157417051Y-144295569D01*
X157429401Y-144339522D01*
X157436627Y-144418420D01*
X157441433Y-144543489D01*
X157442623Y-144585091D01*
X157448092Y-144726986D01*
X157456002Y-144817342D01*
X157467872Y-144864946D01*
X157485222Y-144878585D01*
X157493101Y-144876873D01*
X157538122Y-144887170D01*
X157567476Y-144921485D01*
X157590800Y-144966849D01*
X157592912Y-144997899D01*
X157568344Y-145037042D01*
X157526830Y-145087986D01*
X157471375Y-145168065D01*
X157411825Y-145271985D01*
X157387010Y-145321774D01*
X157337082Y-145415964D01*
X157294330Y-145459793D01*
X157248152Y-145460554D01*
X157212226Y-145442012D01*
X157192050Y-145416353D01*
X157196748Y-145369878D01*
X157228322Y-145287610D01*
X157234851Y-145272724D01*
X157260598Y-145207032D01*
X157278398Y-145137936D01*
X157289648Y-145052674D01*
X157295746Y-144938484D01*
X157298090Y-144782604D01*
X157298293Y-144693628D01*
X157298543Y-144523741D01*
X157300245Y-144405224D01*
X157304827Y-144329115D01*
X157313717Y-144286453D01*
X157328342Y-144268274D01*
X157350131Y-144265617D01*
X157366167Y-144267593D01*
G37*
G36*
X156480162Y-139331261D02*
G01*
X156585222Y-139337521D01*
X156667282Y-139352303D01*
X156744999Y-139379165D01*
X156837031Y-139421662D01*
X156851449Y-139428732D01*
X157051852Y-139554904D01*
X157225634Y-139718328D01*
X157360033Y-139905462D01*
X157419492Y-140031431D01*
X157478582Y-140250975D01*
X157498986Y-140479633D01*
X157479767Y-140696279D01*
X157453541Y-140797965D01*
X157410145Y-140913048D01*
X157360552Y-141022019D01*
X157332746Y-141072673D01*
X157232123Y-141202482D01*
X157094892Y-141335569D01*
X156941121Y-141454537D01*
X156792045Y-141541443D01*
X156698447Y-141581135D01*
X156612191Y-141605394D01*
X156512709Y-141617835D01*
X156379434Y-141622078D01*
X156332338Y-141622290D01*
X156313231Y-141622065D01*
X156191241Y-141620632D01*
X156089490Y-141612493D01*
X156006142Y-141593671D01*
X155920254Y-141559965D01*
X155846510Y-141524824D01*
X155631584Y-141387236D01*
X155446110Y-141205244D01*
X155303366Y-140992375D01*
X155282585Y-140950438D01*
X155245017Y-140863453D01*
X155221172Y-140784208D01*
X155208034Y-140694455D01*
X155202588Y-140575948D01*
X155202355Y-140544486D01*
X155933825Y-140544486D01*
X155985876Y-140685332D01*
X156058702Y-140775288D01*
X156177138Y-140851347D01*
X156313231Y-140880828D01*
X156451611Y-140865990D01*
X156576904Y-140809093D01*
X156673741Y-140712395D01*
X156691712Y-140682248D01*
X156745240Y-140537017D01*
X156743512Y-140399287D01*
X156704924Y-140288741D01*
X156645606Y-140201202D01*
X156568743Y-140130469D01*
X156561634Y-140125922D01*
X156442288Y-140080348D01*
X156308343Y-140071004D01*
X156177524Y-140094789D01*
X156067558Y-140148602D01*
X155998726Y-140224387D01*
X155937898Y-140388911D01*
X155933825Y-140544486D01*
X155202355Y-140544486D01*
X155201737Y-140461200D01*
X155203278Y-140312397D01*
X155209992Y-140205859D01*
X155225021Y-140123554D01*
X155251502Y-140047447D01*
X155287176Y-139970461D01*
X155406405Y-139779997D01*
X155562883Y-139607012D01*
X155740072Y-139468161D01*
X155842170Y-139411528D01*
X155929593Y-139373694D01*
X156008801Y-139349660D01*
X156098059Y-139336393D01*
X156215630Y-139330861D01*
X156333443Y-139329965D01*
X156480162Y-139331261D01*
G37*
G36*
X156534151Y-127886004D02*
G01*
X156781221Y-127923135D01*
X156994767Y-128010409D01*
X157174553Y-128147651D01*
X157320342Y-128334685D01*
X157422321Y-128545523D01*
X157471239Y-128726491D01*
X157496302Y-128935344D01*
X157496222Y-129146313D01*
X157469709Y-129333628D01*
X157463041Y-129359281D01*
X157394110Y-129544571D01*
X157298073Y-129718810D01*
X157183097Y-129872725D01*
X157057352Y-129997041D01*
X156929004Y-130082485D01*
X156806224Y-130119784D01*
X156792466Y-130120578D01*
X156699392Y-130099250D01*
X156595396Y-130039982D01*
X156500280Y-129956758D01*
X156436776Y-129869400D01*
X156402159Y-129783385D01*
X156397810Y-129704339D01*
X156427565Y-129619555D01*
X156495262Y-129516327D01*
X156572454Y-129420100D01*
X156687093Y-129274225D01*
X156760285Y-129155769D01*
X156796621Y-129053156D01*
X156800690Y-128954809D01*
X156786361Y-128880673D01*
X156728418Y-128747418D01*
X156640080Y-128666208D01*
X156520814Y-128636662D01*
X156449980Y-128641063D01*
X156382747Y-128678715D01*
X156317359Y-128765279D01*
X156260312Y-128889516D01*
X156218106Y-129040184D01*
X156217495Y-129043202D01*
X156177445Y-129199513D01*
X156119860Y-129369389D01*
X156052080Y-129535013D01*
X155981446Y-129678569D01*
X155915296Y-129782242D01*
X155910678Y-129787964D01*
X155830696Y-129864039D01*
X155723212Y-129940699D01*
X155649881Y-129981870D01*
X155541225Y-130028659D01*
X155439515Y-130054166D01*
X155317306Y-130064109D01*
X155250794Y-130065025D01*
X155024735Y-130045322D01*
X154832669Y-129981789D01*
X154662270Y-129869257D01*
X154567533Y-129778457D01*
X154468125Y-129661616D01*
X154399682Y-129549765D01*
X154351968Y-129421480D01*
X154314746Y-129255340D01*
X154313003Y-129245804D01*
X154295367Y-129056186D01*
X154306439Y-128860060D01*
X154342485Y-128666674D01*
X154399770Y-128485271D01*
X154474558Y-128325097D01*
X154563116Y-128195397D01*
X154661707Y-128105416D01*
X154766597Y-128064399D01*
X154790901Y-128062862D01*
X154871729Y-128081850D01*
X154973876Y-128130103D01*
X155075673Y-128194555D01*
X155155450Y-128262141D01*
X155184509Y-128300185D01*
X155217738Y-128424231D01*
X155193444Y-128562475D01*
X155112077Y-128712391D01*
X155111239Y-128713572D01*
X155043597Y-128822487D01*
X155011742Y-128916356D01*
X155005657Y-128991877D01*
X155024224Y-129142816D01*
X155073909Y-129249027D01*
X155145686Y-129310821D01*
X155230528Y-129328508D01*
X155319408Y-129302400D01*
X155403301Y-129232807D01*
X155473180Y-129120039D01*
X155518163Y-128974234D01*
X155564068Y-128771788D01*
X155621173Y-128569491D01*
X155683329Y-128387142D01*
X155744387Y-128244544D01*
X155745366Y-128242605D01*
X155855191Y-128089542D01*
X156007709Y-127978521D01*
X156201897Y-127910004D01*
X156436728Y-127884454D01*
X156534151Y-127886004D01*
G37*
G36*
X157169958Y-118340569D02*
G01*
X157285525Y-118407938D01*
X157375044Y-118481687D01*
X157460411Y-118573198D01*
X157499791Y-118649531D01*
X157497421Y-118728936D01*
X157457541Y-118829661D01*
X157456407Y-118831984D01*
X157416897Y-118892079D01*
X157344275Y-118983864D01*
X157247895Y-119096173D01*
X157137111Y-119217839D01*
X157102640Y-119254311D01*
X156800550Y-119571057D01*
X157067915Y-119587069D01*
X157198579Y-119596399D01*
X157284178Y-119608418D01*
X157339956Y-119627605D01*
X157381153Y-119658438D01*
X157407286Y-119686791D01*
X157451056Y-119751031D01*
X157472929Y-119826997D01*
X157479265Y-119937791D01*
X157479291Y-119948398D01*
X157468803Y-120105296D01*
X157434812Y-120213737D01*
X157373527Y-120282283D01*
X157319800Y-120308629D01*
X157266874Y-120316563D01*
X157161696Y-120323397D01*
X157011647Y-120329141D01*
X156824107Y-120333801D01*
X156606456Y-120337384D01*
X156366076Y-120339897D01*
X156110347Y-120341349D01*
X155846649Y-120341745D01*
X155582364Y-120341094D01*
X155324870Y-120339403D01*
X155081549Y-120336678D01*
X154859782Y-120332928D01*
X154666949Y-120328159D01*
X154510430Y-120322379D01*
X154397607Y-120315594D01*
X154335858Y-120307813D01*
X154329208Y-120305686D01*
X154256102Y-120240375D01*
X154210335Y-120128101D01*
X154194499Y-119976928D01*
X154197884Y-119897713D01*
X154219862Y-119768699D01*
X154263388Y-119682992D01*
X154277531Y-119667305D01*
X154299994Y-119647102D01*
X154327127Y-119631296D01*
X154366410Y-119619164D01*
X154425325Y-119609983D01*
X154511350Y-119603032D01*
X154631967Y-119597588D01*
X154794656Y-119592928D01*
X155006897Y-119588331D01*
X155117950Y-119586140D01*
X155892349Y-119571057D01*
X155662683Y-119325553D01*
X155517269Y-119163428D01*
X155416314Y-119032304D01*
X155357547Y-118925022D01*
X155338697Y-118834421D01*
X155357493Y-118753340D01*
X155411665Y-118674619D01*
X155445196Y-118639782D01*
X155571674Y-118535139D01*
X155689869Y-118471784D01*
X155790755Y-118453774D01*
X155835184Y-118464479D01*
X155876232Y-118496078D01*
X155946393Y-118562650D01*
X156035453Y-118653416D01*
X156133198Y-118757595D01*
X156229413Y-118864406D01*
X156313884Y-118963072D01*
X156349767Y-119007566D01*
X156370639Y-118989172D01*
X156423124Y-118932074D01*
X156500354Y-118844033D01*
X156595461Y-118732813D01*
X156647331Y-118671225D01*
X156752023Y-118548520D01*
X156845802Y-118442702D01*
X156920750Y-118362402D01*
X156968948Y-118316248D01*
X156979812Y-118308914D01*
X157062894Y-118305305D01*
X157169958Y-118340569D01*
G37*
G36*
X155775651Y-141925345D02*
G01*
X155906033Y-142001165D01*
X156023768Y-142100655D01*
X156098853Y-142198082D01*
X156119239Y-142303371D01*
X156085357Y-142424357D01*
X156045606Y-142497423D01*
X155982940Y-142646511D01*
X155979161Y-142791875D01*
X156034325Y-142929218D01*
X156039757Y-142937475D01*
X156142911Y-143045179D01*
X156264393Y-143102371D01*
X156392102Y-143110637D01*
X156513940Y-143071564D01*
X156617808Y-142986740D01*
X156691606Y-142857750D01*
X156693757Y-142851707D01*
X156717006Y-142775160D01*
X156720303Y-142715125D01*
X156701341Y-142646538D01*
X156667466Y-142566111D01*
X156607270Y-142409109D01*
X156586641Y-142286961D01*
X156608537Y-142186565D01*
X156675916Y-142094817D01*
X156791737Y-141998615D01*
X156796361Y-141995256D01*
X156924194Y-141924477D01*
X157040216Y-141908468D01*
X157147878Y-141948585D01*
X157250628Y-142046183D01*
X157351916Y-142202616D01*
X157359391Y-142216462D01*
X157412175Y-142322891D01*
X157444066Y-142414138D01*
X157461101Y-142514631D01*
X157469316Y-142648794D01*
X157469828Y-142663337D01*
X157466493Y-142869831D01*
X157441769Y-143031709D01*
X157433464Y-143060611D01*
X157365034Y-143218318D01*
X157263787Y-143383075D01*
X157144128Y-143534967D01*
X157020460Y-143654082D01*
X156985507Y-143679920D01*
X156774287Y-143789512D01*
X156538626Y-143853346D01*
X156293230Y-143870335D01*
X156052809Y-143839393D01*
X155841939Y-143764380D01*
X155653328Y-143641813D01*
X155483312Y-143475042D01*
X155347287Y-143280107D01*
X155312751Y-143212909D01*
X155275192Y-143125960D01*
X155251358Y-143046785D01*
X155238236Y-142957140D01*
X155232816Y-142838783D01*
X155231991Y-142723670D01*
X155239368Y-142520443D01*
X155264845Y-142359861D01*
X155313638Y-142225631D01*
X155390960Y-142101458D01*
X155456921Y-142020772D01*
X155555840Y-141935817D01*
X155660501Y-141903786D01*
X155775651Y-141925345D01*
G37*
G36*
X156589369Y-136785371D02*
G01*
X156812740Y-136786120D01*
X157000668Y-136787517D01*
X157146973Y-136789531D01*
X157245472Y-136792128D01*
X157289984Y-136795277D01*
X157290370Y-136795367D01*
X157373428Y-136846020D01*
X157432767Y-136947996D01*
X157463127Y-137079002D01*
X157466082Y-137221710D01*
X157441120Y-137347127D01*
X157392677Y-137440358D01*
X157343620Y-137480192D01*
X157271330Y-137513130D01*
X157346501Y-137611685D01*
X157411744Y-137738495D01*
X157448439Y-137900454D01*
X157452856Y-138077718D01*
X157445926Y-138140797D01*
X157386053Y-138347682D01*
X157275575Y-138537237D01*
X157123201Y-138703162D01*
X156937644Y-138839159D01*
X156727613Y-138938926D01*
X156501818Y-138996164D01*
X156342724Y-139001911D01*
X156268969Y-139004575D01*
X156253420Y-139003246D01*
X156027035Y-138956451D01*
X155815249Y-138864313D01*
X155625836Y-138734467D01*
X155466570Y-138574550D01*
X155345228Y-138392195D01*
X155269581Y-138195038D01*
X155246987Y-138014877D01*
X155255672Y-137897763D01*
X156001143Y-137897763D01*
X156006512Y-137998926D01*
X156030175Y-138068754D01*
X156083468Y-138135841D01*
X156103709Y-138156497D01*
X156180482Y-138222786D01*
X156253354Y-138252600D01*
X156342724Y-138259062D01*
X156477999Y-138232930D01*
X156598575Y-138162728D01*
X156684970Y-138060748D01*
X156697451Y-138035275D01*
X156717616Y-137921376D01*
X156696850Y-137794776D01*
X156640614Y-137681344D01*
X156616687Y-137652746D01*
X156498582Y-137568412D01*
X156365741Y-137537899D01*
X156230589Y-137561156D01*
X156105549Y-137638130D01*
X156087777Y-137654961D01*
X156033716Y-137719661D01*
X156008026Y-137788735D01*
X156001165Y-137888918D01*
X156001143Y-137897763D01*
X155255672Y-137897763D01*
X155259873Y-137841106D01*
X155301534Y-137708077D01*
X155374920Y-137602946D01*
X155438501Y-137535071D01*
X155003373Y-137533758D01*
X154834938Y-137531508D01*
X154676735Y-137526259D01*
X154544121Y-137518733D01*
X154452449Y-137509653D01*
X154437085Y-137507102D01*
X154332779Y-137479939D01*
X154265158Y-137438828D01*
X154226618Y-137371769D01*
X154209553Y-137266765D01*
X154206250Y-137142910D01*
X154204726Y-137065802D01*
X154203350Y-137001001D01*
X154206913Y-136947415D01*
X154220210Y-136903954D01*
X154248034Y-136869526D01*
X154295177Y-136843042D01*
X154366432Y-136823409D01*
X154466594Y-136809537D01*
X154600454Y-136800335D01*
X154772807Y-136794712D01*
X154988444Y-136791577D01*
X155252159Y-136789839D01*
X155568745Y-136788406D01*
X155768412Y-136787347D01*
X156061023Y-136785952D01*
X156336736Y-136785305D01*
X156589369Y-136785371D01*
G37*
G36*
X156877598Y-135635391D02*
G01*
X157060565Y-135638907D01*
X157200674Y-135646743D01*
X157303748Y-135660583D01*
X157375612Y-135682106D01*
X157422088Y-135712996D01*
X157449000Y-135754933D01*
X157462171Y-135809600D01*
X157467424Y-135878677D01*
X157470225Y-135955254D01*
X157470525Y-136070901D01*
X157463087Y-136170177D01*
X157450493Y-136228408D01*
X157432855Y-136263794D01*
X157409189Y-136292222D01*
X157373301Y-136314378D01*
X157318997Y-136330950D01*
X157240083Y-136342624D01*
X157130367Y-136350087D01*
X156983653Y-136354025D01*
X156793749Y-136355127D01*
X156554461Y-136354078D01*
X156333750Y-136352246D01*
X156053352Y-136349773D01*
X155827295Y-136346944D01*
X155649600Y-136342224D01*
X155514287Y-136334079D01*
X155415377Y-136320973D01*
X155346890Y-136301371D01*
X155302846Y-136273739D01*
X155277265Y-136236540D01*
X155264169Y-136188241D01*
X155257577Y-136127305D01*
X155253517Y-136074932D01*
X155249703Y-135916368D01*
X155270841Y-135800572D01*
X155319917Y-135714121D01*
X155338253Y-135694162D01*
X155357329Y-135677652D01*
X155382287Y-135664507D01*
X155419686Y-135654345D01*
X155476080Y-135646784D01*
X155558027Y-135641442D01*
X155672084Y-135637935D01*
X155824807Y-135635882D01*
X156022752Y-135634900D01*
X156272477Y-135634607D01*
X156359797Y-135634596D01*
X156645950Y-135634515D01*
X156877598Y-135635391D01*
G37*
G36*
X157153437Y-133012740D02*
G01*
X157237970Y-133016730D01*
X157294427Y-133024170D01*
X157330868Y-133035642D01*
X157355355Y-133051726D01*
X157371106Y-133067588D01*
X157423603Y-133161731D01*
X157453381Y-133291419D01*
X157456497Y-133434860D01*
X157448584Y-133495745D01*
X157433437Y-133568687D01*
X157412940Y-133623777D01*
X157379090Y-133663792D01*
X157323882Y-133691510D01*
X157239313Y-133709710D01*
X157117379Y-133721171D01*
X156950076Y-133728670D01*
X156761871Y-133734121D01*
X156556206Y-133740412D01*
X156401955Y-133747394D01*
X156290202Y-133756016D01*
X156212027Y-133767224D01*
X156158515Y-133781967D01*
X156120747Y-133801190D01*
X156118916Y-133802418D01*
X156025414Y-133899851D01*
X155977882Y-134026586D01*
X155978903Y-134170005D01*
X156018558Y-134292849D01*
X156055794Y-134357540D01*
X156103491Y-134406426D01*
X156169984Y-134441634D01*
X156263610Y-134465295D01*
X156392705Y-134479537D01*
X156565604Y-134486488D01*
X156783855Y-134488278D01*
X156971925Y-134488551D01*
X157109310Y-134490176D01*
X157205658Y-134494361D01*
X157270616Y-134502314D01*
X157313830Y-134515243D01*
X157344949Y-134534358D01*
X157373621Y-134560865D01*
X157375080Y-134562323D01*
X157426413Y-134634539D01*
X157449069Y-134707742D01*
X157449124Y-134710687D01*
X157452966Y-134785261D01*
X157458944Y-134825181D01*
X157462562Y-134880782D01*
X157458432Y-134963661D01*
X157457347Y-134974722D01*
X157419753Y-135090624D01*
X157369712Y-135155719D01*
X157293494Y-135227352D01*
X156383364Y-135227352D01*
X156150936Y-135226583D01*
X155934744Y-135224407D01*
X155743085Y-135221022D01*
X155584252Y-135216625D01*
X155466543Y-135211415D01*
X155398251Y-135205588D01*
X155388289Y-135203653D01*
X155308753Y-135152899D01*
X155253314Y-135061683D01*
X155222423Y-134945048D01*
X155216531Y-134818038D01*
X155236091Y-134695699D01*
X155281554Y-134593072D01*
X155353372Y-134525203D01*
X155367716Y-134518418D01*
X155454363Y-134482527D01*
X155367312Y-134362356D01*
X155272253Y-134202044D01*
X155228118Y-134046578D01*
X155229917Y-133878148D01*
X155230447Y-133874068D01*
X155289831Y-133645980D01*
X155402770Y-133443187D01*
X155566528Y-133269275D01*
X155778367Y-133127830D01*
X155813607Y-133109888D01*
X155871330Y-133082277D01*
X155923326Y-133061306D01*
X155978975Y-133045921D01*
X156047654Y-133035064D01*
X156138742Y-133027680D01*
X156261617Y-133022714D01*
X156425659Y-133019110D01*
X156640246Y-133015813D01*
X156650765Y-133015662D01*
X156867896Y-133012787D01*
X157032766Y-133011620D01*
X157153437Y-133012740D01*
G37*
G36*
X157145475Y-125323054D02*
G01*
X157254768Y-125326318D01*
X157316035Y-125331070D01*
X157321312Y-125332111D01*
X157388489Y-125377521D01*
X157437526Y-125465323D01*
X157466728Y-125579861D01*
X157474399Y-125705479D01*
X157458844Y-125826522D01*
X157418367Y-125927334D01*
X157389719Y-125963810D01*
X157363753Y-125985865D01*
X157330118Y-126002491D01*
X157279935Y-126014772D01*
X157204330Y-126023792D01*
X157094425Y-126030637D01*
X156941344Y-126036390D01*
X156752022Y-126041722D01*
X156177049Y-126056805D01*
X156089096Y-126155322D01*
X156032001Y-126232332D01*
X156006310Y-126312556D01*
X156001143Y-126404636D01*
X156007780Y-126506855D01*
X156035873Y-126581804D01*
X156097695Y-126660822D01*
X156104336Y-126668115D01*
X156207528Y-126780796D01*
X156730286Y-126788741D01*
X156906651Y-126792248D01*
X157066002Y-126796958D01*
X157196832Y-126802412D01*
X157287635Y-126808149D01*
X157322906Y-126812439D01*
X157389158Y-126855915D01*
X157438906Y-126943193D01*
X157469193Y-127059285D01*
X157477066Y-127189202D01*
X157459568Y-127317955D01*
X157436215Y-127387148D01*
X157393234Y-127457668D01*
X157345103Y-127499957D01*
X157343075Y-127500791D01*
X157303220Y-127504759D01*
X157209091Y-127508402D01*
X157066748Y-127511647D01*
X156882247Y-127514421D01*
X156661649Y-127516649D01*
X156411010Y-127518258D01*
X156136391Y-127519175D01*
X155843849Y-127519326D01*
X155818322Y-127519301D01*
X155464593Y-127519228D01*
X155166464Y-127519138D01*
X154919209Y-127517973D01*
X154718105Y-127514674D01*
X154558427Y-127508181D01*
X154435452Y-127497435D01*
X154344455Y-127481377D01*
X154280712Y-127458947D01*
X154239498Y-127429088D01*
X154216090Y-127390738D01*
X154205763Y-127342840D01*
X154203793Y-127284334D01*
X154205455Y-127214161D01*
X154206250Y-127157874D01*
X154207196Y-127043546D01*
X154214812Y-126956244D01*
X154236268Y-126892326D01*
X154278732Y-126848146D01*
X154349372Y-126820059D01*
X154455359Y-126804422D01*
X154603860Y-126797590D01*
X154802044Y-126795919D01*
X154918300Y-126795879D01*
X155487918Y-126795879D01*
X155383773Y-126659442D01*
X155289656Y-126490441D01*
X155249119Y-126307907D01*
X155259287Y-126119588D01*
X155317284Y-125933230D01*
X155420234Y-125756580D01*
X155565262Y-125597383D01*
X155749494Y-125463388D01*
X155846692Y-125412308D01*
X155906559Y-125385390D01*
X155962098Y-125365172D01*
X156023271Y-125350530D01*
X156100041Y-125340337D01*
X156202370Y-125333469D01*
X156340221Y-125328801D01*
X156523556Y-125325206D01*
X156633041Y-125323496D01*
X156824252Y-125321513D01*
X156998516Y-125321409D01*
X157145475Y-125323054D01*
G37*
G36*
X156349715Y-122723432D02*
G01*
X156613246Y-122723524D01*
X156823169Y-122724098D01*
X156986209Y-122725601D01*
X157109092Y-122728480D01*
X157198542Y-122733183D01*
X157261284Y-122740157D01*
X157304043Y-122749849D01*
X157333545Y-122762706D01*
X157356513Y-122779176D01*
X157370321Y-122791307D01*
X157415606Y-122845081D01*
X157442785Y-122915920D01*
X157454729Y-123017433D01*
X157454309Y-123163232D01*
X157453510Y-123185789D01*
X157429379Y-123296406D01*
X157361160Y-123389197D01*
X157312992Y-123446955D01*
X157296868Y-123487154D01*
X157301042Y-123494371D01*
X157357478Y-123558642D01*
X157404501Y-123666587D01*
X157438103Y-123801790D01*
X157454275Y-123947836D01*
X157449009Y-124088307D01*
X157447953Y-124095998D01*
X157391922Y-124287899D01*
X157284245Y-124475011D01*
X157133315Y-124646564D01*
X156947521Y-124791789D01*
X156870312Y-124837404D01*
X156781239Y-124883917D01*
X156708724Y-124913851D01*
X156634875Y-124930847D01*
X156541798Y-124938548D01*
X156411604Y-124940596D01*
X156363139Y-124940653D01*
X156313406Y-124940139D01*
X156214379Y-124939117D01*
X156107873Y-124932412D01*
X156025575Y-124917389D01*
X155949440Y-124890902D01*
X155871946Y-124854993D01*
X155707311Y-124752398D01*
X155549019Y-124615279D01*
X155415176Y-124461324D01*
X155333331Y-124328745D01*
X155270749Y-124145088D01*
X155251412Y-123953548D01*
X155256691Y-123911058D01*
X156004968Y-123911058D01*
X156048106Y-124032302D01*
X156137097Y-124137008D01*
X156213473Y-124187099D01*
X156313406Y-124225197D01*
X156404334Y-124222047D01*
X156511871Y-124176752D01*
X156512110Y-124176624D01*
X156624812Y-124085722D01*
X156693091Y-123965827D01*
X156713184Y-123831108D01*
X156681327Y-123695735D01*
X156653356Y-123644822D01*
X156597050Y-123587654D01*
X156514645Y-123532897D01*
X156496806Y-123523873D01*
X156408341Y-123490595D01*
X156331130Y-123489799D01*
X156270523Y-123504826D01*
X156140459Y-123570161D01*
X156052165Y-123667782D01*
X156006661Y-123785483D01*
X156004968Y-123911058D01*
X155256691Y-123911058D01*
X155274300Y-123769338D01*
X155338396Y-123607671D01*
X155386210Y-123539293D01*
X155431342Y-123476969D01*
X155431381Y-123449490D01*
X155420258Y-123447423D01*
X155351007Y-123419690D01*
X155294097Y-123345273D01*
X155254306Y-123237345D01*
X155236412Y-123109079D01*
X155245193Y-122973646D01*
X155246266Y-122967731D01*
X155258797Y-122903027D01*
X155273780Y-122850889D01*
X155297340Y-122809961D01*
X155335605Y-122778887D01*
X155394701Y-122756311D01*
X155480752Y-122740876D01*
X155599886Y-122731227D01*
X155758228Y-122726007D01*
X155961904Y-122723859D01*
X156217041Y-122723428D01*
X156349715Y-122723432D01*
G37*
G36*
X155599093Y-120625552D02*
G01*
X155603042Y-120626476D01*
X155661807Y-120639076D01*
X155684398Y-120639967D01*
X155708427Y-120648217D01*
X155769664Y-120676956D01*
X155813811Y-120699060D01*
X155926991Y-120774637D01*
X155984235Y-120861779D01*
X155989876Y-120969344D01*
X155975779Y-121029991D01*
X155940125Y-121211403D01*
X155952754Y-121358318D01*
X156013895Y-121472719D01*
X156028989Y-121488936D01*
X156117168Y-121577114D01*
X156675600Y-121577114D01*
X156901595Y-121578462D01*
X157074921Y-121583276D01*
X157203198Y-121592708D01*
X157294046Y-121607915D01*
X157355085Y-121630048D01*
X157393935Y-121660263D01*
X157413028Y-121688794D01*
X157442176Y-121782945D01*
X157457063Y-121909539D01*
X157455411Y-122041887D01*
X157448091Y-122099531D01*
X157437543Y-122157843D01*
X157424496Y-122204628D01*
X157402727Y-122241221D01*
X157366013Y-122268957D01*
X157308131Y-122289172D01*
X157222858Y-122303199D01*
X157103971Y-122312374D01*
X156945247Y-122318033D01*
X156740464Y-122321510D01*
X156483397Y-122324141D01*
X156397424Y-122324943D01*
X156105172Y-122326607D01*
X155857491Y-122325741D01*
X155657774Y-122322421D01*
X155509417Y-122316723D01*
X155415813Y-122308720D01*
X155386432Y-122302510D01*
X155311672Y-122247592D01*
X155259624Y-122157190D01*
X155229932Y-122044478D01*
X155222240Y-121922627D01*
X155236195Y-121804810D01*
X155271441Y-121704199D01*
X155327622Y-121633965D01*
X155404383Y-121607283D01*
X155405175Y-121607280D01*
X155438328Y-121602841D01*
X155437044Y-121581277D01*
X155398581Y-121530221D01*
X155384321Y-121513165D01*
X155286356Y-121378115D01*
X155232241Y-121249360D01*
X155213220Y-121103651D01*
X155212971Y-121058077D01*
X155232109Y-120876594D01*
X155284091Y-120744902D01*
X155369501Y-120661809D01*
X155417262Y-120640520D01*
X155512006Y-120622407D01*
X155599093Y-120625552D01*
G37*
G36*
X156978402Y-144310081D02*
G01*
X156995664Y-144393281D01*
X156969210Y-144436791D01*
X156936298Y-144443147D01*
X156909894Y-144446966D01*
X156892563Y-144465375D01*
X156882407Y-144508803D01*
X156877532Y-144587681D01*
X156876040Y-144712437D01*
X156875965Y-144774976D01*
X156875965Y-145106805D01*
X156951381Y-145106805D01*
X157008380Y-145099034D01*
X157027467Y-145084181D01*
X157044661Y-145046435D01*
X157084955Y-144987627D01*
X157129847Y-144939331D01*
X157165424Y-144936782D01*
X157189866Y-144953613D01*
X157227875Y-144998864D01*
X157228126Y-145051921D01*
X157189377Y-145129348D01*
X157175006Y-145152055D01*
X157125424Y-145245187D01*
X157083915Y-145349438D01*
X157081513Y-145357094D01*
X157050807Y-145433210D01*
X157014085Y-145462341D01*
X156983889Y-145462657D01*
X156940262Y-145444013D01*
X156927214Y-145393708D01*
X156928712Y-145356833D01*
X156936209Y-145259984D01*
X156672299Y-145251269D01*
X156408388Y-145242554D01*
X156415758Y-145121889D01*
X156425904Y-145016094D01*
X156443966Y-144959678D01*
X156475953Y-144941713D01*
X156512125Y-144946751D01*
X156564343Y-144986869D01*
X156574303Y-145034908D01*
X156587649Y-145089893D01*
X156638845Y-145106610D01*
X156649718Y-145106805D01*
X156725134Y-145106805D01*
X156725134Y-144733421D01*
X156726249Y-144567541D01*
X156731942Y-144451724D01*
X156745741Y-144375708D01*
X156771169Y-144329234D01*
X156811753Y-144302039D01*
X156871017Y-144283863D01*
X156880362Y-144281607D01*
X156948076Y-144278576D01*
X156978402Y-144310081D01*
G37*
G36*
X157141574Y-144470446D02*
G01*
X157150515Y-144474948D01*
X157201205Y-144524766D01*
X157195083Y-144591943D01*
X157177158Y-144624145D01*
X157149681Y-144682395D01*
X157120540Y-144767120D01*
X157116125Y-144782518D01*
X157087531Y-144858642D01*
X157048826Y-144890746D01*
X157008154Y-144895641D01*
X156957252Y-144889991D01*
X156942658Y-144861050D01*
X156952731Y-144797601D01*
X156979490Y-144707206D01*
X157020262Y-144601700D01*
X157033597Y-144571927D01*
X157073545Y-144495340D01*
X157105347Y-144464989D01*
X157141574Y-144470446D01*
G37*
G36*
X156554444Y-144485445D02*
G01*
X156576753Y-144552198D01*
X156592875Y-144609062D01*
X156619982Y-144709729D01*
X156643261Y-144794994D01*
X156651245Y-144823663D01*
X156650666Y-144878571D01*
X156606314Y-144903900D01*
X156563893Y-144907287D01*
X156530210Y-144885453D01*
X156498845Y-144828792D01*
X156463375Y-144727695D01*
X156442495Y-144658838D01*
X156416410Y-144562783D01*
X156415680Y-144508723D01*
X156448087Y-144480934D01*
X156521418Y-144463694D01*
X156540798Y-144460282D01*
X156554444Y-144485445D01*
G37*
G36*
X155419274Y-144311737D02*
G01*
X155456028Y-144348682D01*
X155472199Y-144407219D01*
X155438427Y-144436956D01*
X155377707Y-144443147D01*
X155338643Y-144447691D01*
X155317547Y-144470725D01*
X155308935Y-144526354D01*
X155307319Y-144624145D01*
X155307319Y-144805143D01*
X155443067Y-144805143D01*
X155529950Y-144810023D01*
X155571254Y-144828290D01*
X155581134Y-144857934D01*
X155589985Y-144865566D01*
X155609756Y-144824483D01*
X155621538Y-144790060D01*
X155642839Y-144708882D01*
X155638513Y-144657293D01*
X155605421Y-144608899D01*
X155599159Y-144601819D01*
X155559002Y-144544197D01*
X155560962Y-144489380D01*
X155575492Y-144453479D01*
X155612290Y-144372716D01*
X155677458Y-144437883D01*
X155742626Y-144503051D01*
X155857096Y-144391274D01*
X155924396Y-144327507D01*
X155965080Y-144301053D01*
X155995600Y-144306976D01*
X156031136Y-144339068D01*
X156065607Y-144377583D01*
X156067572Y-144407132D01*
X156031447Y-144445303D01*
X155985593Y-144482512D01*
X155908688Y-144555288D01*
X155886080Y-144614345D01*
X155916952Y-144670512D01*
X155968222Y-144712682D01*
X156018879Y-144751723D01*
X156040272Y-144787601D01*
X156037119Y-144841283D01*
X156016202Y-144925900D01*
X155995002Y-145015163D01*
X155992608Y-145060628D01*
X156009269Y-145075904D01*
X156018957Y-145076639D01*
X156052377Y-145102879D01*
X156061476Y-145152055D01*
X156047336Y-145211193D01*
X156001143Y-145227470D01*
X155953277Y-145245805D01*
X155940811Y-145300419D01*
X155927509Y-145403355D01*
X155885160Y-145457213D01*
X155831645Y-145468801D01*
X155785950Y-145463625D01*
X155769515Y-145436860D01*
X155774726Y-145371651D01*
X155778071Y-145350167D01*
X155797041Y-145231533D01*
X155729455Y-145225987D01*
X155680387Y-145221960D01*
X155563733Y-145212387D01*
X155570304Y-145076499D01*
X155571324Y-145055412D01*
X155708746Y-145055412D01*
X155729455Y-145073910D01*
X155764979Y-145071345D01*
X155829271Y-145034207D01*
X155853610Y-144986140D01*
X155873633Y-144899383D01*
X155870625Y-144848140D01*
X155842500Y-144811346D01*
X155835729Y-144805558D01*
X155803162Y-144791694D01*
X155775312Y-144815620D01*
X155747546Y-144884815D01*
X155717842Y-144995929D01*
X155708746Y-145055412D01*
X155571324Y-145055412D01*
X155576876Y-144940610D01*
X155442098Y-144951330D01*
X155348722Y-144966781D01*
X155309382Y-144995150D01*
X155307319Y-145006274D01*
X155290032Y-145056470D01*
X155246776Y-145128648D01*
X155228323Y-145154068D01*
X155149327Y-145257637D01*
X155333905Y-145257637D01*
X155435442Y-145259162D01*
X155490692Y-145267560D01*
X155513689Y-145288564D01*
X155518467Y-145327911D01*
X155518483Y-145333052D01*
X155516276Y-145368948D01*
X155501863Y-145391145D01*
X155463553Y-145402936D01*
X155389657Y-145407613D01*
X155268487Y-145408466D01*
X155250680Y-145408468D01*
X155092112Y-145404438D01*
X154989313Y-145389674D01*
X154938098Y-145360166D01*
X154934279Y-145311904D01*
X154973669Y-145240878D01*
X155017076Y-145184722D01*
X155093375Y-145082354D01*
X155123607Y-145013906D01*
X155107507Y-144974022D01*
X155044805Y-144957346D01*
X155005657Y-144955974D01*
X154927914Y-144951858D01*
X154893360Y-144932442D01*
X154885035Y-144887126D01*
X154884991Y-144880558D01*
X154891828Y-144831477D01*
X154923761Y-144810010D01*
X154997930Y-144805148D01*
X155002359Y-144805143D01*
X155119727Y-144805143D01*
X155131228Y-144577386D01*
X155142111Y-144444073D01*
X155163539Y-144360005D01*
X155203165Y-144314162D01*
X155268640Y-144295524D01*
X155328883Y-144292778D01*
X155419274Y-144311737D01*
G37*
G36*
X154708963Y-135640009D02*
G01*
X154803258Y-135661452D01*
X154833335Y-135677419D01*
X154892446Y-135755595D01*
X154929096Y-135872900D01*
X154940437Y-136011409D01*
X154923625Y-136153196D01*
X154914406Y-136188000D01*
X154877834Y-136268871D01*
X154818761Y-136320283D01*
X154725470Y-136347910D01*
X154586241Y-136357424D01*
X154564046Y-136357627D01*
X154412656Y-136352266D01*
X154310676Y-136328228D01*
X154248655Y-136275979D01*
X154217143Y-136185982D01*
X154206692Y-136048703D01*
X154206250Y-135996592D01*
X154207922Y-135871810D01*
X154215331Y-135791968D01*
X154232071Y-135741709D01*
X154261737Y-135705678D01*
X154277466Y-135692264D01*
X154350978Y-135659631D01*
X154461569Y-135639666D01*
X154587982Y-135632936D01*
X154708963Y-135640009D01*
G37*
G36*
X153386057Y-130567804D02*
G01*
X153476825Y-130621560D01*
X153669967Y-130729424D01*
X153855211Y-130782562D01*
X154045484Y-130782875D01*
X154246667Y-130734641D01*
X154360587Y-130703709D01*
X154426169Y-130703878D01*
X154438463Y-130711393D01*
X154453674Y-130766053D01*
X154432685Y-130850578D01*
X154381361Y-130951582D01*
X154305567Y-131055679D01*
X154270823Y-131094036D01*
X154145918Y-131223414D01*
X154212836Y-131385240D01*
X154255501Y-131506278D01*
X154289158Y-131633137D01*
X154299680Y-131690356D01*
X154311581Y-131763180D01*
X154330207Y-131807958D01*
X154366549Y-131827429D01*
X154431597Y-131824331D01*
X154536342Y-131801403D01*
X154639336Y-131774978D01*
X154751753Y-131749166D01*
X154844390Y-131734045D01*
X154899451Y-131732412D01*
X154903291Y-131733473D01*
X154936884Y-131775900D01*
X154938966Y-131856132D01*
X154911761Y-131953410D01*
X154821518Y-132103040D01*
X154683724Y-132233053D01*
X154509984Y-132335702D01*
X154311899Y-132403243D01*
X154211440Y-132420934D01*
X154104242Y-132440451D01*
X153996654Y-132470232D01*
X153904648Y-132504551D01*
X153844197Y-132537680D01*
X153829172Y-132557984D01*
X153808864Y-132585318D01*
X153752608Y-132647610D01*
X153667406Y-132737446D01*
X153560263Y-132847412D01*
X153467177Y-132941181D01*
X153334675Y-133074333D01*
X153239163Y-133173309D01*
X153174606Y-133246225D01*
X153134968Y-133301201D01*
X153114215Y-133346353D01*
X153106310Y-133389800D01*
X153105181Y-133428076D01*
X153102743Y-133512660D01*
X153086475Y-133545928D01*
X153042949Y-133536895D01*
X152985531Y-133508399D01*
X152908883Y-133444275D01*
X152860632Y-133342475D01*
X152839124Y-133197064D01*
X152842704Y-133002107D01*
X152843050Y-132997244D01*
X152856522Y-132856265D01*
X152875364Y-132715389D01*
X152895635Y-132603818D01*
X152896819Y-132598661D01*
X152915944Y-132503494D01*
X152915400Y-132441608D01*
X152892358Y-132388350D01*
X152868680Y-132353254D01*
X152793301Y-132228361D01*
X152735376Y-132095454D01*
X152697514Y-131966499D01*
X152682321Y-131853465D01*
X152692404Y-131768320D01*
X152730370Y-131723030D01*
X152731304Y-131722662D01*
X152785436Y-131724193D01*
X152867977Y-131749147D01*
X152913109Y-131768858D01*
X153020898Y-131808856D01*
X153131640Y-131831637D01*
X153165036Y-131833646D01*
X153225655Y-131830095D01*
X153274379Y-131813099D01*
X153324320Y-131773142D01*
X153388589Y-131700708D01*
X153445594Y-131630024D01*
X153527272Y-131525632D01*
X153600233Y-131429355D01*
X153651592Y-131358278D01*
X153660076Y-131345636D01*
X153712574Y-131264870D01*
X153503799Y-131059056D01*
X153381642Y-130928436D01*
X153296257Y-130815139D01*
X153257685Y-130738875D01*
X153233220Y-130626411D01*
X153247298Y-130559963D01*
X153298662Y-130540203D01*
X153386057Y-130567804D01*
G37*
G36*
X154482240Y-132864883D02*
G01*
X154534167Y-132908020D01*
X154608247Y-132976656D01*
X154628578Y-132996344D01*
X154707753Y-133077399D01*
X154766385Y-133144581D01*
X154793723Y-133185399D01*
X154794493Y-133189116D01*
X154771677Y-133226024D01*
X154718642Y-133269603D01*
X154595928Y-133319658D01*
X154449758Y-133334971D01*
X154307293Y-133313626D01*
X154272378Y-133301076D01*
X154159328Y-133253841D01*
X154310996Y-133065623D01*
X154381875Y-132975152D01*
X154435049Y-132902497D01*
X154461355Y-132860329D01*
X154462664Y-132855882D01*
X154482240Y-132864883D01*
G37*
D13*
%TO.C,U2*%
X176899367Y-112999580D02*
X202899367Y-112999580D01*
X176899367Y-138999580D02*
X176899367Y-112999580D01*
X182899367Y-136999580D02*
X182899367Y-138999580D01*
X182899367Y-138999580D02*
X176899367Y-138999580D01*
X196899367Y-136999580D02*
X182899367Y-136999580D01*
X196899367Y-138999580D02*
X196899367Y-136999580D01*
X202899367Y-112999580D02*
X202899367Y-138999580D01*
X202899367Y-138999580D02*
X196899367Y-138999580D01*
D14*
X185999367Y-112499580D02*
G75*
G02*
X185799367Y-112499580I-100000J0D01*
G01*
X185799367Y-112499580D02*
G75*
G02*
X185999367Y-112499580I100000J0D01*
G01*
D15*
%TO.C,SW2*%
X186049379Y-144299524D02*
X186049379Y-145799524D01*
X187299379Y-148299524D02*
X191799379Y-148299524D01*
X191799379Y-141799524D02*
X187299379Y-141799524D01*
X193049379Y-145799524D02*
X193049379Y-144299524D01*
%TO.C,SW1*%
X176449411Y-144299524D02*
X176449411Y-145799524D01*
X177699411Y-148299524D02*
X182199411Y-148299524D01*
X182199411Y-141799524D02*
X177699411Y-141799524D01*
X183449411Y-145799524D02*
X183449411Y-144299524D01*
%TO.C,SW3*%
X195649347Y-144299524D02*
X195649347Y-145799524D01*
X196899347Y-148299524D02*
X201399347Y-148299524D01*
X201399347Y-141799524D02*
X196899347Y-141799524D01*
X202649347Y-145799524D02*
X202649347Y-144299524D01*
%TO.C,U4*%
X170219428Y-130659526D02*
X171599428Y-130659526D01*
X170219428Y-132039526D02*
X170219428Y-130659526D01*
X170219428Y-133309526D02*
X170219428Y-146119526D01*
X170219428Y-133309526D02*
X172979428Y-133309526D01*
X170219428Y-146119526D02*
X172979428Y-146119526D01*
X172979428Y-133309526D02*
X172979428Y-146119526D01*
%TO.C,RV1*%
X162154437Y-118129590D02*
X162154437Y-127869590D01*
X165214437Y-118129590D02*
X162154437Y-118129590D01*
X165214437Y-127869590D02*
X162154437Y-127869590D01*
X173744437Y-118129590D02*
X169024437Y-118129590D01*
X173744437Y-118129590D02*
X173744437Y-119619590D01*
X173744437Y-121339590D02*
X173744437Y-122169590D01*
X173744437Y-123789590D02*
X173744437Y-124319590D01*
X173744437Y-126689590D02*
X173744437Y-127869590D01*
X173744437Y-127879590D02*
X169024437Y-127879590D01*
%TD*%
M02*
