%TF.GenerationSoftware,KiCad,Pcbnew,9.0.8-9.0.8~ubuntu24.04.1*%
%TF.CreationDate,2026-05-01T14:37:11+07:00*%
%TF.ProjectId,majigotcha,6d616a69-676f-4746-9368-612e6b696361,rev?*%
%TF.SameCoordinates,Original*%
%TF.FileFunction,Copper,L1,Top*%
%TF.FilePolarity,Positive*%
%FSLAX46Y46*%
G04 Gerber Fmt 4.6, Leading zero omitted, Abs format (unit mm)*
G04 Created by KiCad (PCBNEW 9.0.8-9.0.8~ubuntu24.04.1) date 2026-05-01 14:37:11*
%MOMM*%
%LPD*%
G01*
G04 APERTURE LIST*
G04 Aperture macros list*
%AMRoundRect*
0 Rectangle with rounded corners*
0 $1 Rounding radius*
0 $2 $3 $4 $5 $6 $7 $8 $9 X,Y pos of 4 corners*
0 Add a 4 corners polygon primitive as box body*
4,1,4,$2,$3,$4,$5,$6,$7,$8,$9,$2,$3,0*
0 Add four circle primitives for the rounded corners*
1,1,$1+$1,$2,$3*
1,1,$1+$1,$4,$5*
1,1,$1+$1,$6,$7*
1,1,$1+$1,$8,$9*
0 Add four rect primitives between the rounded corners*
20,1,$1+$1,$2,$3,$4,$5,0*
20,1,$1+$1,$4,$5,$6,$7,0*
20,1,$1+$1,$6,$7,$8,$9,0*
20,1,$1+$1,$8,$9,$2,$3,0*%
G04 Aperture macros list end*
%TA.AperFunction,ComponentPad*%
%ADD10R,2.000000X2.000000*%
%TD*%
%TA.AperFunction,ComponentPad*%
%ADD11C,2.000000*%
%TD*%
%TA.AperFunction,ComponentPad*%
%ADD12R,1.508000X1.508000*%
%TD*%
%TA.AperFunction,ComponentPad*%
%ADD13C,1.508000*%
%TD*%
%TA.AperFunction,ComponentPad*%
%ADD14C,3.000000*%
%TD*%
%TA.AperFunction,SMDPad,CuDef*%
%ADD15RoundRect,0.100000X-0.217500X-0.100000X0.217500X-0.100000X0.217500X0.100000X-0.217500X0.100000X0*%
%TD*%
%TA.AperFunction,ComponentPad*%
%ADD16R,1.700000X1.700000*%
%TD*%
%TA.AperFunction,ComponentPad*%
%ADD17C,1.700000*%
%TD*%
%TA.AperFunction,ComponentPad*%
%ADD18O,3.240000X2.720000*%
%TD*%
%TA.AperFunction,ComponentPad*%
%ADD19R,1.800000X1.800000*%
%TD*%
%TA.AperFunction,ComponentPad*%
%ADD20C,1.800000*%
%TD*%
%TA.AperFunction,ComponentPad*%
%ADD21R,1.308000X1.308000*%
%TD*%
%TA.AperFunction,ComponentPad*%
%ADD22C,1.308000*%
%TD*%
%TA.AperFunction,ViaPad*%
%ADD23C,0.600000*%
%TD*%
%TA.AperFunction,Conductor*%
%ADD24C,0.200000*%
%TD*%
G04 APERTURE END LIST*
D10*
%TO.P,BUZZER1,1,+*%
%TO.N,BUZ*%
X191699361Y-130099583D03*
D11*
%TO.P,BUZZER1,2,-*%
%TO.N,GND*%
X191699361Y-125099583D03*
%TD*%
D12*
%TO.P,U2,1,GND*%
%TO.N,GND*%
X186089367Y-114499580D03*
D13*
%TO.P,U2,2,VCC_IN*%
%TO.N,+3V3*%
X188629367Y-114499580D03*
%TO.P,U2,3,SCL*%
%TO.N,SCL*%
X191169367Y-114499580D03*
%TO.P,U2,4,SDA*%
%TO.N,SDA*%
X193709367Y-114499580D03*
D14*
%TO.P,U2,S1*%
%TO.N,N/C*%
X178899367Y-114999580D03*
%TO.P,U2,S2*%
X200899367Y-114999580D03*
%TO.P,U2,S3*%
X200899367Y-136999580D03*
%TO.P,U2,S4*%
X178899367Y-136999580D03*
%TD*%
D15*
%TO.P,C1,1*%
%TO.N,+3V3*%
X171059427Y-148499505D03*
%TO.P,C1,2*%
%TO.N,GND*%
X171966927Y-148499505D03*
%TD*%
D11*
%TO.P,SW2,1,1*%
%TO.N,GND*%
X186299379Y-142799524D03*
X192799379Y-142799524D03*
%TO.P,SW2,2,2*%
%TO.N,BTN2*%
X186299379Y-147299524D03*
X192799379Y-147299524D03*
%TD*%
%TO.P,SW1,1,1*%
%TO.N,GND*%
X176699411Y-142799524D03*
X183199411Y-142799524D03*
%TO.P,SW1,2,2*%
%TO.N,BTN1*%
X176699411Y-147299524D03*
X183199411Y-147299524D03*
%TD*%
%TO.P,SW3,1,1*%
%TO.N,GND*%
X195899347Y-142799524D03*
X202399347Y-142799524D03*
%TO.P,SW3,2,2*%
%TO.N,BTN3*%
X195899347Y-147299524D03*
X202399347Y-147299524D03*
%TD*%
D16*
%TO.P,U4,1,V_TOUCH*%
%TO.N,+3V3*%
X171599428Y-132039526D03*
D17*
%TO.P,U4,2,TOUCH_OUT*%
%TO.N,TOUCH_OUT*%
X171599428Y-134579526D03*
%TO.P,U4,3,VCC*%
%TO.N,+3V3*%
X171599428Y-137119526D03*
%TO.P,U4,4,TX*%
%TO.N,TX*%
X171599428Y-139659526D03*
%TO.P,U4,5,RX*%
%TO.N,RX*%
X171599428Y-142199526D03*
%TO.P,U4,6,GND*%
%TO.N,GND*%
X171599428Y-144739526D03*
%TD*%
D18*
%TO.P,RV1,*%
%TO.N,*%
X167124437Y-127799590D03*
X167124437Y-118199590D03*
D19*
%TO.P,RV1,1,1*%
%TO.N,GND*%
X174624437Y-125499590D03*
D20*
%TO.P,RV1,2,2*%
%TO.N,POTENTIO*%
X174624437Y-122999590D03*
%TO.P,RV1,3,3*%
%TO.N,+3V3*%
X174624437Y-120499590D03*
%TD*%
D16*
%TO.P,BT1,1,+*%
%TO.N,+BATT*%
X167624437Y-113699621D03*
D17*
%TO.P,BT1,2,-*%
%TO.N,GND*%
X170164437Y-113699621D03*
%TD*%
D21*
%TO.P,U3,1,VCC*%
%TO.N,+3V3*%
X149104481Y-123944596D03*
D22*
%TO.P,U3,2,SIG/LOW*%
%TO.N,TOUCH*%
X149104481Y-121404596D03*
%TO.P,U3,3,GND*%
%TO.N,GND*%
X149104481Y-118864596D03*
%TD*%
D23*
%TO.N,BUZ*%
X168599438Y-143099523D03*
%TO.N,+3V3*%
X173699421Y-140699531D03*
X168899437Y-146399512D03*
%TO.N,POTENTIO*%
X162899457Y-137699541D03*
%TO.N,BTN1*%
X175199416Y-149699501D03*
%TO.N,BTN2*%
X183899387Y-150299499D03*
%TO.N,BTN3*%
X194399352Y-141299529D03*
%TO.N,TOUCH_OUT*%
X167999440Y-135299549D03*
%TO.N,TX*%
X153299489Y-136199546D03*
%TO.N,TOUCH*%
X147299509Y-127199576D03*
%TO.N,SDA*%
X164099453Y-115499615D03*
%TO.N,RX*%
X168899437Y-140399532D03*
%TO.N,SCL*%
X162325194Y-116425345D03*
%TD*%
D24*
%TO.N,BUZ*%
X187499375Y-132899557D02*
X190299349Y-130099583D01*
X190299349Y-130099583D02*
X191699361Y-130099583D01*
X187499375Y-132899557D02*
X187499375Y-134699551D01*
X187499375Y-134699551D02*
X181499395Y-140699531D01*
X181499395Y-140699531D02*
X176099413Y-140699531D01*
X176099413Y-140699531D02*
X174899417Y-141899527D01*
X174899417Y-141899527D02*
X174899417Y-144899517D01*
X174899417Y-144899517D02*
X173399422Y-146399512D01*
X173399422Y-146399512D02*
X171299429Y-146399512D01*
X171299429Y-146399512D02*
X168599438Y-143699521D01*
X168599438Y-143699521D02*
X168599438Y-143099523D01*
%TO.N,+3V3*%
X149104481Y-123944596D02*
X161149450Y-111899627D01*
X161149450Y-111899627D02*
X194999350Y-111899627D01*
X194999350Y-111899627D02*
X195899347Y-112799624D01*
X195899347Y-114899618D02*
X193983667Y-116815298D01*
X195899347Y-112799624D02*
X195899347Y-114899618D01*
X191883673Y-116815298D02*
X176659445Y-132039526D01*
X193983667Y-116815298D02*
X191883673Y-116815298D01*
X176659445Y-132039526D02*
X171599428Y-132039526D01*
X188629367Y-114499580D02*
X188629367Y-113433263D01*
X188629367Y-113433263D02*
X189863004Y-112199626D01*
X189863004Y-112199626D02*
X194699351Y-112199626D01*
X187230748Y-120799600D02*
X179068031Y-120799600D01*
X194699351Y-112199626D02*
X195599348Y-113099623D01*
X195599348Y-113099623D02*
X195599348Y-114599618D01*
X195599348Y-114599618D02*
X193799354Y-116399612D01*
X193799354Y-116399612D02*
X191630736Y-116399612D01*
X179068031Y-120799600D02*
X178568029Y-120299599D01*
X178568029Y-120299599D02*
X174824428Y-120299599D01*
X174824428Y-120299599D02*
X174624437Y-120499590D01*
X191630736Y-116399612D02*
X187230748Y-120799600D01*
%TO.N,SCL*%
X162325194Y-116425345D02*
X177213861Y-116425345D01*
X179233717Y-120399600D02*
X187065063Y-120399600D01*
X187065063Y-120399600D02*
X191169367Y-116295296D01*
X177213861Y-116425345D02*
X177988097Y-117199581D01*
X177988097Y-117199581D02*
X177988097Y-119153981D01*
X177988097Y-119153981D02*
X179233717Y-120399600D01*
X191169367Y-116295296D02*
X191169367Y-114499580D01*
%TO.N,SDA*%
X193709367Y-114499580D02*
X192309410Y-113099623D01*
X192309410Y-113099623D02*
X190499365Y-113099623D01*
X190499365Y-113099623D02*
X189683367Y-113915621D01*
X189683367Y-113915621D02*
X189683367Y-117215610D01*
X189683367Y-117215610D02*
X186899377Y-119999600D01*
X186899377Y-119999600D02*
X179399402Y-119999600D01*
X179399402Y-119999600D02*
X178388097Y-118988295D01*
X178388097Y-118988295D02*
X178388097Y-117033895D01*
X178388097Y-117033895D02*
X176853817Y-115499615D01*
X176853817Y-115499615D02*
X164099453Y-115499615D01*
%TO.N,+3V3*%
X174624437Y-120499590D02*
X175824437Y-121699590D01*
X173399422Y-135319532D02*
X171599428Y-137119526D01*
X173399422Y-133839520D02*
X173399422Y-135319532D01*
X168959434Y-146399512D02*
X171059427Y-148499505D01*
X175824437Y-121699590D02*
X175824437Y-127814517D01*
X173699421Y-140699531D02*
X173699421Y-139219519D01*
X171599428Y-132039526D02*
X173399422Y-133839520D01*
X175824437Y-127814517D02*
X171599428Y-132039526D01*
X168899437Y-146399512D02*
X168959434Y-146399512D01*
X173699421Y-139219519D02*
X171599428Y-137119526D01*
%TO.N,POTENTIO*%
X167399442Y-122999590D02*
X162899457Y-127499575D01*
X174624437Y-122999590D02*
X167399442Y-122999590D01*
X162899457Y-127499575D02*
X162899457Y-137699541D01*
%TO.N,BTN1*%
X175199416Y-149699501D02*
X175499415Y-149399502D01*
X176699411Y-147299524D02*
X183199411Y-147299524D01*
X175499415Y-149399502D02*
X175499415Y-148499520D01*
X175499415Y-148499520D02*
X176699411Y-147299524D01*
%TO.N,BTN2*%
X183899387Y-149699516D02*
X186299379Y-147299524D01*
X186299379Y-147299524D02*
X192799379Y-147299524D01*
X183899387Y-150299499D02*
X183899387Y-149699516D01*
%TO.N,BTN3*%
X194399352Y-145799529D02*
X195899347Y-147299524D01*
X195899347Y-147299524D02*
X202399347Y-147299524D01*
X194399352Y-141299529D02*
X194399352Y-145799529D01*
%TO.N,TOUCH_OUT*%
X168719463Y-134579526D02*
X167999440Y-135299549D01*
X171599428Y-134579526D02*
X168719463Y-134579526D01*
%TO.N,TX*%
X171599428Y-139659526D02*
X162459450Y-139659526D01*
X162459450Y-139659526D02*
X159599468Y-136799544D01*
X159599468Y-136799544D02*
X153899487Y-136799544D01*
X153899487Y-136799544D02*
X153299489Y-136199546D01*
%TO.N,TOUCH*%
X149104481Y-121404596D02*
X147299509Y-123209568D01*
X147299509Y-123209568D02*
X147299509Y-127199576D01*
%TO.N,RX*%
X171599428Y-142199526D02*
X169799434Y-140399532D01*
X169799434Y-140399532D02*
X168899437Y-140399532D01*
%TD*%
%TA.AperFunction,Conductor*%
%TO.N,GND*%
G36*
X205241851Y-111219817D02*
G01*
X205287606Y-111272621D01*
X205298812Y-111324132D01*
X205298812Y-150574996D01*
X205279127Y-150642035D01*
X205226323Y-150687790D01*
X205174812Y-150698996D01*
X184785944Y-150698996D01*
X184718905Y-150679311D01*
X184673150Y-150626507D01*
X184663206Y-150557349D01*
X184668195Y-150539077D01*
X184667356Y-150538823D01*
X184669118Y-150533008D01*
X184669124Y-150532996D01*
X184699887Y-150378341D01*
X184699887Y-150220657D01*
X184699887Y-150220654D01*
X184699886Y-150220652D01*
X184671647Y-150078686D01*
X184669124Y-150066002D01*
X184669122Y-150065997D01*
X184616774Y-149939615D01*
X184609305Y-149870146D01*
X184640581Y-149807667D01*
X184643626Y-149804510D01*
X185695816Y-148752320D01*
X185757137Y-148718837D01*
X185821812Y-148722071D01*
X185948011Y-148763077D01*
X186035489Y-148776932D01*
X186181282Y-148800024D01*
X186181287Y-148800024D01*
X186417476Y-148800024D01*
X186650747Y-148763077D01*
X186671712Y-148756265D01*
X186875371Y-148690092D01*
X187085812Y-148582867D01*
X187276889Y-148444041D01*
X187443896Y-148277034D01*
X187582722Y-148085957D01*
X187642962Y-147967728D01*
X187690937Y-147916933D01*
X187753447Y-147900024D01*
X191345311Y-147900024D01*
X191412350Y-147919709D01*
X191455795Y-147967727D01*
X191516036Y-148085957D01*
X191654862Y-148277034D01*
X191821869Y-148444041D01*
X192012946Y-148582867D01*
X192112370Y-148633526D01*
X192223382Y-148690090D01*
X192223384Y-148690090D01*
X192223387Y-148690092D01*
X192311855Y-148718837D01*
X192448010Y-148763077D01*
X192681282Y-148800024D01*
X192681287Y-148800024D01*
X192917476Y-148800024D01*
X193150747Y-148763077D01*
X193171712Y-148756265D01*
X193375371Y-148690092D01*
X193585812Y-148582867D01*
X193776889Y-148444041D01*
X193943896Y-148277034D01*
X194082722Y-148085957D01*
X194189947Y-147875516D01*
X194231432Y-147747837D01*
X194270870Y-147690163D01*
X194335229Y-147662965D01*
X194404075Y-147674880D01*
X194455551Y-147722124D01*
X194467294Y-147747838D01*
X194508780Y-147875520D01*
X194616004Y-148085957D01*
X194754830Y-148277034D01*
X194921837Y-148444041D01*
X195112914Y-148582867D01*
X195212338Y-148633526D01*
X195323350Y-148690090D01*
X195323352Y-148690090D01*
X195323355Y-148690092D01*
X195411823Y-148718837D01*
X195547978Y-148763077D01*
X195781250Y-148800024D01*
X195781255Y-148800024D01*
X196017444Y-148800024D01*
X196250715Y-148763077D01*
X196271680Y-148756265D01*
X196475339Y-148690092D01*
X196685780Y-148582867D01*
X196876857Y-148444041D01*
X197043864Y-148277034D01*
X197182690Y-148085957D01*
X197242930Y-147967728D01*
X197290905Y-147916933D01*
X197353415Y-147900024D01*
X200945279Y-147900024D01*
X201012318Y-147919709D01*
X201055763Y-147967727D01*
X201116004Y-148085957D01*
X201254830Y-148277034D01*
X201421837Y-148444041D01*
X201612914Y-148582867D01*
X201712338Y-148633526D01*
X201823350Y-148690090D01*
X201823352Y-148690090D01*
X201823355Y-148690092D01*
X201911823Y-148718837D01*
X202047978Y-148763077D01*
X202281250Y-148800024D01*
X202281255Y-148800024D01*
X202517444Y-148800024D01*
X202750715Y-148763077D01*
X202771680Y-148756265D01*
X202975339Y-148690092D01*
X203185780Y-148582867D01*
X203376857Y-148444041D01*
X203543864Y-148277034D01*
X203682690Y-148085957D01*
X203789915Y-147875516D01*
X203862900Y-147650892D01*
X203899847Y-147417621D01*
X203899847Y-147181426D01*
X203862900Y-146948155D01*
X203807835Y-146778684D01*
X203789915Y-146723532D01*
X203789913Y-146723529D01*
X203789913Y-146723527D01*
X203682689Y-146513090D01*
X203543864Y-146322014D01*
X203376857Y-146155007D01*
X203185780Y-146016181D01*
X203178989Y-146012721D01*
X202975343Y-145908957D01*
X202750715Y-145835970D01*
X202517444Y-145799024D01*
X202517439Y-145799024D01*
X202281255Y-145799024D01*
X202281250Y-145799024D01*
X202047978Y-145835970D01*
X201823350Y-145908957D01*
X201612913Y-146016181D01*
X201503897Y-146095386D01*
X201421837Y-146155007D01*
X201421835Y-146155009D01*
X201421834Y-146155009D01*
X201254832Y-146322011D01*
X201254832Y-146322012D01*
X201254830Y-146322014D01*
X201195209Y-146404074D01*
X201116004Y-146513090D01*
X201055764Y-146631319D01*
X201007789Y-146682115D01*
X200945279Y-146699024D01*
X197353415Y-146699024D01*
X197286376Y-146679339D01*
X197242930Y-146631319D01*
X197182689Y-146513090D01*
X197043864Y-146322014D01*
X196876857Y-146155007D01*
X196685780Y-146016181D01*
X196678989Y-146012721D01*
X196475343Y-145908957D01*
X196250715Y-145835970D01*
X196017444Y-145799024D01*
X196017439Y-145799024D01*
X195781255Y-145799024D01*
X195781250Y-145799024D01*
X195547975Y-145835971D01*
X195421780Y-145876974D01*
X195351939Y-145878969D01*
X195295782Y-145846724D01*
X195036171Y-145587113D01*
X195002686Y-145525790D01*
X194999852Y-145499432D01*
X194999852Y-141879294D01*
X195019537Y-141812255D01*
X195020750Y-141810403D01*
X195108742Y-141678714D01*
X195108742Y-141678713D01*
X195108746Y-141678708D01*
X195169089Y-141533026D01*
X195199852Y-141378371D01*
X195199852Y-141220687D01*
X195199852Y-141220684D01*
X195199851Y-141220682D01*
X195171612Y-141078716D01*
X195169089Y-141066032D01*
X195141988Y-141000603D01*
X195108749Y-140920356D01*
X195108742Y-140920343D01*
X195021141Y-140789240D01*
X195021138Y-140789236D01*
X194909644Y-140677742D01*
X194909640Y-140677739D01*
X194778537Y-140590138D01*
X194778524Y-140590131D01*
X194632853Y-140529793D01*
X194632841Y-140529790D01*
X194478197Y-140499029D01*
X194478194Y-140499029D01*
X194320510Y-140499029D01*
X194320507Y-140499029D01*
X194165862Y-140529790D01*
X194165850Y-140529793D01*
X194020179Y-140590131D01*
X194020166Y-140590138D01*
X193889063Y-140677739D01*
X193889059Y-140677742D01*
X193777565Y-140789236D01*
X193777562Y-140789240D01*
X193689961Y-140920343D01*
X193689954Y-140920356D01*
X193629616Y-141066027D01*
X193629613Y-141066039D01*
X193598852Y-141220682D01*
X193598852Y-141378375D01*
X193629613Y-141533018D01*
X193629616Y-141533030D01*
X193689954Y-141678701D01*
X193689961Y-141678714D01*
X193777954Y-141810403D01*
X193798832Y-141877080D01*
X193798852Y-141879294D01*
X193798852Y-145720468D01*
X193798851Y-145720472D01*
X193798851Y-145878586D01*
X193808932Y-145916208D01*
X193809579Y-145929451D01*
X193804367Y-145951045D01*
X193803839Y-145973259D01*
X193796330Y-145984352D01*
X193793189Y-145997371D01*
X193777128Y-146012721D01*
X193764675Y-146031121D01*
X193752362Y-146036393D01*
X193742680Y-146045648D01*
X193720868Y-146049879D01*
X193700447Y-146058624D01*
X193687239Y-146056402D01*
X193674089Y-146058954D01*
X193653452Y-146050721D01*
X193631544Y-146047037D01*
X193612841Y-146035819D01*
X193606640Y-146031314D01*
X193585812Y-146016181D01*
X193579021Y-146012721D01*
X193375375Y-145908957D01*
X193150747Y-145835970D01*
X192917476Y-145799024D01*
X192917471Y-145799024D01*
X192681287Y-145799024D01*
X192681282Y-145799024D01*
X192448010Y-145835970D01*
X192223382Y-145908957D01*
X192012945Y-146016181D01*
X191903929Y-146095386D01*
X191821869Y-146155007D01*
X191821867Y-146155009D01*
X191821866Y-146155009D01*
X191654864Y-146322011D01*
X191654864Y-146322012D01*
X191654862Y-146322014D01*
X191595241Y-146404074D01*
X191516036Y-146513090D01*
X191455796Y-146631319D01*
X191407821Y-146682115D01*
X191345311Y-146699024D01*
X187753447Y-146699024D01*
X187686408Y-146679339D01*
X187642962Y-146631319D01*
X187582721Y-146513090D01*
X187443896Y-146322014D01*
X187276889Y-146155007D01*
X187085812Y-146016181D01*
X187079021Y-146012721D01*
X186875375Y-145908957D01*
X186650747Y-145835970D01*
X186417476Y-145799024D01*
X186417471Y-145799024D01*
X186181287Y-145799024D01*
X186181282Y-145799024D01*
X185948010Y-145835970D01*
X185723382Y-145908957D01*
X185512945Y-146016181D01*
X185403929Y-146095386D01*
X185321869Y-146155007D01*
X185321867Y-146155009D01*
X185321866Y-146155009D01*
X185154864Y-146322011D01*
X185154864Y-146322012D01*
X185154862Y-146322014D01*
X185095241Y-146404074D01*
X185016036Y-146513090D01*
X184908812Y-146723527D01*
X184867326Y-146851209D01*
X184827888Y-146908884D01*
X184763529Y-146936082D01*
X184694683Y-146924167D01*
X184643207Y-146876923D01*
X184631464Y-146851209D01*
X184607899Y-146778684D01*
X184589979Y-146723532D01*
X184589977Y-146723529D01*
X184589977Y-146723527D01*
X184482753Y-146513090D01*
X184343928Y-146322014D01*
X184176921Y-146155007D01*
X183985844Y-146016181D01*
X183979053Y-146012721D01*
X183775407Y-145908957D01*
X183550779Y-145835970D01*
X183317508Y-145799024D01*
X183317503Y-145799024D01*
X183081319Y-145799024D01*
X183081314Y-145799024D01*
X182848042Y-145835970D01*
X182623414Y-145908957D01*
X182412977Y-146016181D01*
X182303961Y-146095386D01*
X182221901Y-146155007D01*
X182221899Y-146155009D01*
X182221898Y-146155009D01*
X182054896Y-146322011D01*
X182054896Y-146322012D01*
X182054894Y-146322014D01*
X181995273Y-146404074D01*
X181916068Y-146513090D01*
X181855828Y-146631319D01*
X181807853Y-146682115D01*
X181745343Y-146699024D01*
X178153479Y-146699024D01*
X178086440Y-146679339D01*
X178042994Y-146631319D01*
X177982753Y-146513090D01*
X177843928Y-146322014D01*
X177676921Y-146155007D01*
X177485844Y-146016181D01*
X177479053Y-146012721D01*
X177275407Y-145908957D01*
X177050779Y-145835970D01*
X176817508Y-145799024D01*
X176817503Y-145799024D01*
X176581319Y-145799024D01*
X176581314Y-145799024D01*
X176348042Y-145835970D01*
X176123414Y-145908957D01*
X175912977Y-146016181D01*
X175803961Y-146095386D01*
X175721901Y-146155007D01*
X175721899Y-146155009D01*
X175721898Y-146155009D01*
X175554896Y-146322011D01*
X175554896Y-146322012D01*
X175554894Y-146322014D01*
X175495273Y-146404074D01*
X175416068Y-146513090D01*
X175308844Y-146723527D01*
X175235857Y-146948155D01*
X175198911Y-147181426D01*
X175198911Y-147417621D01*
X175235858Y-147650893D01*
X175235858Y-147650896D01*
X175276861Y-147777088D01*
X175277295Y-147792299D01*
X175282614Y-147806559D01*
X175278272Y-147826514D01*
X175278856Y-147846929D01*
X175270767Y-147861016D01*
X175267762Y-147874832D01*
X175246612Y-147903087D01*
X175130701Y-148018998D01*
X175130700Y-148018998D01*
X175130699Y-148018999D01*
X175018896Y-148130802D01*
X175018894Y-148130805D01*
X174968776Y-148217614D01*
X174968774Y-148217616D01*
X174939840Y-148267729D01*
X174939839Y-148267730D01*
X174923959Y-148326992D01*
X174898914Y-148420463D01*
X174898914Y-148420465D01*
X174898914Y-148588566D01*
X174898915Y-148588579D01*
X174898915Y-148874663D01*
X174879230Y-148941702D01*
X174826426Y-148987457D01*
X174822369Y-148989223D01*
X174820243Y-148990103D01*
X174820234Y-148990108D01*
X174689131Y-149077708D01*
X174689123Y-149077714D01*
X174577629Y-149189208D01*
X174577626Y-149189212D01*
X174490025Y-149320315D01*
X174490018Y-149320328D01*
X174429680Y-149465999D01*
X174429677Y-149466011D01*
X174398916Y-149620654D01*
X174398916Y-149778347D01*
X174429677Y-149932990D01*
X174429680Y-149933002D01*
X174490018Y-150078673D01*
X174490025Y-150078686D01*
X174577626Y-150209789D01*
X174577629Y-150209793D01*
X174689123Y-150321287D01*
X174689127Y-150321290D01*
X174820230Y-150408891D01*
X174820243Y-150408898D01*
X174944666Y-150460435D01*
X174999070Y-150504275D01*
X175021135Y-150570570D01*
X175003856Y-150638269D01*
X174952719Y-150685880D01*
X174897214Y-150698996D01*
X146724013Y-150698996D01*
X146656974Y-150679311D01*
X146611219Y-150626507D01*
X146600013Y-150574996D01*
X146600013Y-146320665D01*
X168098937Y-146320665D01*
X168098937Y-146478358D01*
X168129698Y-146633001D01*
X168129701Y-146633013D01*
X168190039Y-146778684D01*
X168190046Y-146778697D01*
X168277647Y-146909800D01*
X168277650Y-146909804D01*
X168389144Y-147021298D01*
X168389148Y-147021301D01*
X168520251Y-147108902D01*
X168520264Y-147108909D01*
X168665935Y-147169247D01*
X168665940Y-147169249D01*
X168820590Y-147200011D01*
X168820593Y-147200012D01*
X168820595Y-147200012D01*
X168859337Y-147200012D01*
X168926376Y-147219697D01*
X168947018Y-147236331D01*
X170205108Y-148494422D01*
X170238593Y-148555745D01*
X170241427Y-148582101D01*
X170241427Y-148638867D01*
X170256880Y-148756258D01*
X170256883Y-148756267D01*
X170317391Y-148902346D01*
X170413645Y-149027787D01*
X170539086Y-149124041D01*
X170685165Y-149184549D01*
X170802566Y-149200005D01*
X171316287Y-149200004D01*
X171316290Y-149200004D01*
X171433680Y-149184551D01*
X171433684Y-149184549D01*
X171433689Y-149184549D01*
X171579768Y-149124041D01*
X171705209Y-149027787D01*
X171801463Y-148902346D01*
X171861971Y-148756267D01*
X171877427Y-148638866D01*
X171877426Y-148360145D01*
X171877426Y-148360141D01*
X171861973Y-148242751D01*
X171861971Y-148242746D01*
X171861971Y-148242743D01*
X171801463Y-148096664D01*
X171705209Y-147971223D01*
X171579768Y-147874969D01*
X171579437Y-147874832D01*
X171433689Y-147814461D01*
X171433687Y-147814460D01*
X171316297Y-147799006D01*
X171316294Y-147799005D01*
X171316288Y-147799005D01*
X171316281Y-147799005D01*
X171259525Y-147799005D01*
X171192486Y-147779320D01*
X171171844Y-147762686D01*
X169719112Y-146309954D01*
X169685627Y-146248631D01*
X169685202Y-146246594D01*
X169669174Y-146166015D01*
X169664614Y-146155007D01*
X169608834Y-146020339D01*
X169608827Y-146020326D01*
X169521226Y-145889223D01*
X169521223Y-145889219D01*
X169409729Y-145777725D01*
X169409725Y-145777722D01*
X169278622Y-145690121D01*
X169278609Y-145690114D01*
X169132938Y-145629776D01*
X169132926Y-145629773D01*
X168978282Y-145599012D01*
X168978279Y-145599012D01*
X168820595Y-145599012D01*
X168820592Y-145599012D01*
X168665947Y-145629773D01*
X168665935Y-145629776D01*
X168520264Y-145690114D01*
X168520251Y-145690121D01*
X168389148Y-145777722D01*
X168389144Y-145777725D01*
X168277650Y-145889219D01*
X168277647Y-145889223D01*
X168190046Y-146020326D01*
X168190039Y-146020339D01*
X168129701Y-146166010D01*
X168129698Y-146166022D01*
X168098937Y-146320665D01*
X146600013Y-146320665D01*
X146600013Y-143020676D01*
X167798938Y-143020676D01*
X167798938Y-143178369D01*
X167829699Y-143333012D01*
X167829702Y-143333024D01*
X167890040Y-143478695D01*
X167890047Y-143478708D01*
X167978039Y-143610396D01*
X167998917Y-143677073D01*
X167998937Y-143679287D01*
X167998937Y-143778575D01*
X167998936Y-143778575D01*
X168039861Y-143931306D01*
X168068796Y-143981421D01*
X168068797Y-143981425D01*
X168068798Y-143981425D01*
X168118917Y-144068235D01*
X168118919Y-144068238D01*
X168237787Y-144187106D01*
X168237793Y-144187111D01*
X170814568Y-146763886D01*
X170814578Y-146763897D01*
X170818908Y-146768227D01*
X170818909Y-146768228D01*
X170930713Y-146880032D01*
X170982274Y-146909800D01*
X171017524Y-146930151D01*
X171017526Y-146930153D01*
X171048708Y-146948156D01*
X171067644Y-146959089D01*
X171220372Y-147000013D01*
X171220375Y-147000013D01*
X171386082Y-147000013D01*
X171386098Y-147000012D01*
X173312753Y-147000012D01*
X173312769Y-147000013D01*
X173320365Y-147000013D01*
X173478476Y-147000013D01*
X173478479Y-147000013D01*
X173631207Y-146959089D01*
X173681326Y-146930151D01*
X173768138Y-146880032D01*
X173879942Y-146768228D01*
X173879942Y-146768226D01*
X173890150Y-146758019D01*
X173890152Y-146758016D01*
X175268130Y-145380038D01*
X175268133Y-145380037D01*
X175379937Y-145268233D01*
X175430056Y-145181421D01*
X175458994Y-145131302D01*
X175499917Y-144978575D01*
X175499917Y-144820460D01*
X175499917Y-142199624D01*
X175519602Y-142132585D01*
X175536236Y-142111943D01*
X176311830Y-141336350D01*
X176373153Y-141302865D01*
X176399511Y-141300031D01*
X181412726Y-141300031D01*
X181412742Y-141300032D01*
X181420338Y-141300032D01*
X181578449Y-141300032D01*
X181578452Y-141300032D01*
X181731180Y-141259108D01*
X181781299Y-141230170D01*
X181868111Y-141180051D01*
X181979915Y-141068247D01*
X181979915Y-141068245D01*
X181990123Y-141058038D01*
X181990125Y-141058035D01*
X186179708Y-136868452D01*
X198898867Y-136868452D01*
X198898867Y-137130707D01*
X198918532Y-137280065D01*
X198933097Y-137390696D01*
X198994725Y-137620696D01*
X199000969Y-137643998D01*
X199000972Y-137644008D01*
X199101320Y-137886270D01*
X199101325Y-137886280D01*
X199232442Y-138113383D01*
X199392085Y-138321431D01*
X199392093Y-138321440D01*
X199577507Y-138506854D01*
X199577515Y-138506861D01*
X199785563Y-138666504D01*
X200012666Y-138797621D01*
X200012676Y-138797626D01*
X200254938Y-138897974D01*
X200254948Y-138897978D01*
X200508251Y-138965850D01*
X200768247Y-139000080D01*
X200768254Y-139000080D01*
X201030480Y-139000080D01*
X201030487Y-139000080D01*
X201290483Y-138965850D01*
X201543786Y-138897978D01*
X201786064Y-138797623D01*
X202013170Y-138666504D01*
X202221218Y-138506862D01*
X202221222Y-138506857D01*
X202221227Y-138506854D01*
X202406641Y-138321440D01*
X202406644Y-138321435D01*
X202406649Y-138321431D01*
X202566291Y-138113383D01*
X202697410Y-137886277D01*
X202797765Y-137643999D01*
X202865637Y-137390696D01*
X202899867Y-137130700D01*
X202899867Y-136868460D01*
X202865637Y-136608464D01*
X202797765Y-136355161D01*
X202759846Y-136263616D01*
X202697413Y-136112889D01*
X202697408Y-136112879D01*
X202566291Y-135885776D01*
X202414721Y-135688249D01*
X202406649Y-135677729D01*
X202406648Y-135677728D01*
X202406641Y-135677720D01*
X202221227Y-135492306D01*
X202221218Y-135492298D01*
X202013170Y-135332655D01*
X201786067Y-135201538D01*
X201786057Y-135201533D01*
X201543795Y-135101185D01*
X201543788Y-135101183D01*
X201543786Y-135101182D01*
X201290483Y-135033310D01*
X201232706Y-135025703D01*
X201030494Y-134999080D01*
X201030487Y-134999080D01*
X200768247Y-134999080D01*
X200768239Y-134999080D01*
X200537139Y-135029506D01*
X200508251Y-135033310D01*
X200254948Y-135101182D01*
X200254938Y-135101185D01*
X200012676Y-135201533D01*
X200012666Y-135201538D01*
X199785563Y-135332655D01*
X199577515Y-135492298D01*
X199392085Y-135677728D01*
X199232442Y-135885776D01*
X199101325Y-136112879D01*
X199101320Y-136112889D01*
X199000972Y-136355151D01*
X199000969Y-136355161D01*
X198935067Y-136601114D01*
X198933097Y-136608465D01*
X198898867Y-136868452D01*
X186179708Y-136868452D01*
X187857881Y-135190279D01*
X187857886Y-135190275D01*
X187868089Y-135180071D01*
X187868091Y-135180071D01*
X187979895Y-135068267D01*
X188049190Y-134948244D01*
X188049191Y-134948243D01*
X188053151Y-134941382D01*
X188058952Y-134931336D01*
X188099875Y-134778608D01*
X188099875Y-134620494D01*
X188099875Y-133199653D01*
X188119560Y-133132614D01*
X188136189Y-133111977D01*
X190024238Y-131223927D01*
X190085559Y-131190444D01*
X190155251Y-131195428D01*
X190211184Y-131237300D01*
X190228099Y-131268276D01*
X190255564Y-131341912D01*
X190255567Y-131341918D01*
X190341813Y-131457127D01*
X190341816Y-131457130D01*
X190457025Y-131543376D01*
X190457032Y-131543380D01*
X190591878Y-131593674D01*
X190591877Y-131593674D01*
X190598805Y-131594418D01*
X190651488Y-131600083D01*
X192747233Y-131600082D01*
X192806844Y-131593674D01*
X192941692Y-131543379D01*
X193056907Y-131457129D01*
X193143157Y-131341914D01*
X193193452Y-131207066D01*
X193199861Y-131147456D01*
X193199860Y-129051711D01*
X193193452Y-128992100D01*
X193143157Y-128857252D01*
X193143156Y-128857251D01*
X193143154Y-128857247D01*
X193056908Y-128742038D01*
X193056905Y-128742035D01*
X192941696Y-128655789D01*
X192941689Y-128655785D01*
X192806843Y-128605491D01*
X192806844Y-128605491D01*
X192747244Y-128599084D01*
X192747242Y-128599083D01*
X192747234Y-128599083D01*
X192747225Y-128599083D01*
X190651490Y-128599083D01*
X190651484Y-128599084D01*
X190591877Y-128605491D01*
X190457032Y-128655785D01*
X190457025Y-128655789D01*
X190341816Y-128742035D01*
X190341813Y-128742038D01*
X190255567Y-128857247D01*
X190255563Y-128857254D01*
X190205269Y-128992100D01*
X190201309Y-129028940D01*
X190198862Y-129051706D01*
X190198861Y-129051718D01*
X190198861Y-129409676D01*
X190179176Y-129476715D01*
X190126372Y-129522470D01*
X190124271Y-129523407D01*
X190115835Y-129527071D01*
X190067564Y-129540006D01*
X190017444Y-129568943D01*
X190011328Y-129572473D01*
X190011328Y-129572474D01*
X189930634Y-129619062D01*
X189930631Y-129619064D01*
X187018856Y-132530839D01*
X187018850Y-132530847D01*
X186979444Y-132599102D01*
X186979444Y-132599103D01*
X186955817Y-132640026D01*
X186941538Y-132664759D01*
X186939798Y-132667772D01*
X186898874Y-132820500D01*
X186898874Y-132820502D01*
X186898874Y-132988603D01*
X186898875Y-132988616D01*
X186898875Y-134399454D01*
X186879190Y-134466493D01*
X186862556Y-134487135D01*
X181286979Y-140062712D01*
X181225656Y-140096197D01*
X181199298Y-140099031D01*
X176186083Y-140099031D01*
X176186067Y-140099030D01*
X176178471Y-140099030D01*
X176020356Y-140099030D01*
X175943992Y-140119492D01*
X175867627Y-140139954D01*
X175867622Y-140139957D01*
X175730703Y-140219006D01*
X175730695Y-140219012D01*
X174418898Y-141530809D01*
X174418896Y-141530812D01*
X174374532Y-141607655D01*
X174374530Y-141607657D01*
X174339842Y-141667736D01*
X174339841Y-141667737D01*
X174323961Y-141726999D01*
X174298916Y-141820470D01*
X174298916Y-141820472D01*
X174298916Y-141988573D01*
X174298917Y-141988586D01*
X174298917Y-144599420D01*
X174279232Y-144666459D01*
X174262598Y-144687101D01*
X173187006Y-145762693D01*
X173125683Y-145796178D01*
X173099325Y-145799012D01*
X171599526Y-145799012D01*
X171532487Y-145779327D01*
X171511845Y-145762693D01*
X169343700Y-143594548D01*
X169310215Y-143533225D01*
X169315199Y-143463533D01*
X169316795Y-143459476D01*
X169369175Y-143333020D01*
X169399938Y-143178365D01*
X169399938Y-143020681D01*
X169399938Y-143020678D01*
X169399937Y-143020676D01*
X169369176Y-142866033D01*
X169369175Y-142866026D01*
X169369173Y-142866021D01*
X169308835Y-142720350D01*
X169308828Y-142720337D01*
X169221227Y-142589234D01*
X169221224Y-142589230D01*
X169109730Y-142477736D01*
X169109726Y-142477733D01*
X168978623Y-142390132D01*
X168978610Y-142390125D01*
X168832939Y-142329787D01*
X168832927Y-142329784D01*
X168678283Y-142299023D01*
X168678280Y-142299023D01*
X168520596Y-142299023D01*
X168520593Y-142299023D01*
X168365948Y-142329784D01*
X168365936Y-142329787D01*
X168220265Y-142390125D01*
X168220252Y-142390132D01*
X168089149Y-142477733D01*
X168089145Y-142477736D01*
X167977651Y-142589230D01*
X167977648Y-142589234D01*
X167890047Y-142720337D01*
X167890040Y-142720350D01*
X167829702Y-142866021D01*
X167829699Y-142866033D01*
X167798938Y-143020676D01*
X146600013Y-143020676D01*
X146600013Y-127926928D01*
X146619698Y-127859889D01*
X146672502Y-127814134D01*
X146741660Y-127804190D01*
X146792901Y-127823825D01*
X146920330Y-127908970D01*
X146920332Y-127908971D01*
X146920336Y-127908973D01*
X147066007Y-127969311D01*
X147066012Y-127969313D01*
X147220662Y-128000075D01*
X147220665Y-128000076D01*
X147220667Y-128000076D01*
X147378353Y-128000076D01*
X147378354Y-128000075D01*
X147533006Y-127969313D01*
X147648356Y-127921534D01*
X147678681Y-127908973D01*
X147678681Y-127908972D01*
X147678688Y-127908970D01*
X147809798Y-127821365D01*
X147921298Y-127709865D01*
X148008903Y-127578755D01*
X148069246Y-127433073D01*
X148100009Y-127278418D01*
X148100009Y-127120734D01*
X148100009Y-127120731D01*
X148100008Y-127120729D01*
X148069246Y-126966079D01*
X148069244Y-126966074D01*
X148008906Y-126820403D01*
X148008899Y-126820390D01*
X147920907Y-126688701D01*
X147900029Y-126622023D01*
X147900009Y-126619810D01*
X147900009Y-125059439D01*
X147919694Y-124992400D01*
X147972498Y-124946645D01*
X148041656Y-124936701D01*
X148098318Y-124960171D01*
X148208146Y-125042389D01*
X148208149Y-125042391D01*
X148208152Y-125042393D01*
X148342998Y-125092687D01*
X148342997Y-125092687D01*
X148349925Y-125093431D01*
X148402608Y-125099096D01*
X149806353Y-125099095D01*
X149865964Y-125092687D01*
X150000812Y-125042392D01*
X150116027Y-124956142D01*
X150202277Y-124840927D01*
X150252572Y-124706079D01*
X150258981Y-124646469D01*
X150258980Y-123690691D01*
X150278664Y-123623653D01*
X150295294Y-123603016D01*
X161361867Y-112536446D01*
X161423190Y-112502961D01*
X161449548Y-112500127D01*
X166192017Y-112500127D01*
X166259056Y-112519812D01*
X166304811Y-112572616D01*
X166314755Y-112641774D01*
X166308199Y-112667460D01*
X166280345Y-112742138D01*
X166274111Y-112800126D01*
X166273938Y-112801744D01*
X166273937Y-112801756D01*
X166273937Y-114597491D01*
X166273938Y-114597497D01*
X166280345Y-114657104D01*
X166308199Y-114731782D01*
X166313183Y-114801473D01*
X166279698Y-114862797D01*
X166218375Y-114896281D01*
X166192017Y-114899115D01*
X164679219Y-114899115D01*
X164612180Y-114879430D01*
X164610328Y-114878217D01*
X164478638Y-114790224D01*
X164478625Y-114790217D01*
X164332954Y-114729879D01*
X164332942Y-114729876D01*
X164178298Y-114699115D01*
X164178295Y-114699115D01*
X164020611Y-114699115D01*
X164020608Y-114699115D01*
X163865963Y-114729876D01*
X163865951Y-114729879D01*
X163720280Y-114790217D01*
X163720267Y-114790224D01*
X163589164Y-114877825D01*
X163589160Y-114877828D01*
X163477666Y-114989322D01*
X163477663Y-114989326D01*
X163390062Y-115120429D01*
X163390055Y-115120442D01*
X163329717Y-115266113D01*
X163329714Y-115266125D01*
X163298953Y-115420768D01*
X163298953Y-115578461D01*
X163318485Y-115676654D01*
X163312258Y-115746245D01*
X163269395Y-115801423D01*
X163203505Y-115824667D01*
X163196868Y-115824845D01*
X162904960Y-115824845D01*
X162837921Y-115805160D01*
X162836069Y-115803947D01*
X162704379Y-115715954D01*
X162704366Y-115715947D01*
X162558695Y-115655609D01*
X162558683Y-115655606D01*
X162404039Y-115624845D01*
X162404036Y-115624845D01*
X162246352Y-115624845D01*
X162246349Y-115624845D01*
X162091704Y-115655606D01*
X162091692Y-115655609D01*
X161946021Y-115715947D01*
X161946008Y-115715954D01*
X161814905Y-115803555D01*
X161814901Y-115803558D01*
X161703407Y-115915052D01*
X161703404Y-115915056D01*
X161615803Y-116046159D01*
X161615796Y-116046172D01*
X161555458Y-116191843D01*
X161555455Y-116191855D01*
X161524694Y-116346498D01*
X161524694Y-116504191D01*
X161555455Y-116658834D01*
X161555458Y-116658846D01*
X161615796Y-116804517D01*
X161615803Y-116804530D01*
X161703404Y-116935633D01*
X161703407Y-116935637D01*
X161814901Y-117047131D01*
X161814905Y-117047134D01*
X161946008Y-117134735D01*
X161946021Y-117134742D01*
X162040329Y-117173805D01*
X162091697Y-117195082D01*
X162246347Y-117225844D01*
X162246350Y-117225845D01*
X162246352Y-117225845D01*
X162404038Y-117225845D01*
X162404039Y-117225844D01*
X162558691Y-117195082D01*
X162704373Y-117134739D01*
X162736978Y-117112953D01*
X162836069Y-117046743D01*
X162902747Y-117025865D01*
X162904960Y-117025845D01*
X165179005Y-117025845D01*
X165246044Y-117045530D01*
X165291799Y-117098334D01*
X165301743Y-117167492D01*
X165286392Y-117211843D01*
X165237910Y-117295817D01*
X165192225Y-117374945D01*
X165192223Y-117374949D01*
X165098896Y-117600259D01*
X165098893Y-117600269D01*
X165035772Y-117835843D01*
X165035770Y-117835854D01*
X165003937Y-118077638D01*
X165003937Y-118321541D01*
X165030450Y-118522923D01*
X165035771Y-118563334D01*
X165082990Y-118739560D01*
X165098893Y-118798910D01*
X165098896Y-118798920D01*
X165192223Y-119024230D01*
X165192228Y-119024241D01*
X165314164Y-119235438D01*
X165314175Y-119235454D01*
X165462636Y-119428933D01*
X165462642Y-119428940D01*
X165635086Y-119601384D01*
X165635093Y-119601390D01*
X165736776Y-119679414D01*
X165828581Y-119749858D01*
X165828588Y-119749862D01*
X166039785Y-119871798D01*
X166039790Y-119871800D01*
X166039793Y-119871802D01*
X166265116Y-119965134D01*
X166500693Y-120028256D01*
X166742493Y-120060090D01*
X166742500Y-120060090D01*
X167506374Y-120060090D01*
X167506381Y-120060090D01*
X167748181Y-120028256D01*
X167983758Y-119965134D01*
X168209081Y-119871802D01*
X168420293Y-119749858D01*
X168613782Y-119601389D01*
X168786236Y-119428935D01*
X168934705Y-119235446D01*
X169056649Y-119024234D01*
X169149981Y-118798911D01*
X169213103Y-118563334D01*
X169244937Y-118321534D01*
X169244937Y-118077646D01*
X169213103Y-117835846D01*
X169149981Y-117600269D01*
X169056649Y-117374946D01*
X168962481Y-117211844D01*
X168946009Y-117143946D01*
X168968861Y-117077918D01*
X169023782Y-117034728D01*
X169069869Y-117025845D01*
X176913764Y-117025845D01*
X176980803Y-117045530D01*
X177001445Y-117062164D01*
X177351278Y-117411997D01*
X177384763Y-117473320D01*
X177387597Y-117499678D01*
X177387597Y-119067311D01*
X177387596Y-119067329D01*
X177387596Y-119074924D01*
X177387596Y-119233039D01*
X177406014Y-119301775D01*
X177428520Y-119385766D01*
X177453442Y-119428933D01*
X177453444Y-119428935D01*
X177485289Y-119484092D01*
X177502036Y-119513100D01*
X177518507Y-119581000D01*
X177495655Y-119647027D01*
X177440733Y-119690217D01*
X177394648Y-119699099D01*
X175837141Y-119699099D01*
X175770102Y-119679414D01*
X175736822Y-119647983D01*
X175736127Y-119647027D01*
X175727027Y-119634501D01*
X175692682Y-119587228D01*
X175536800Y-119431346D01*
X175536795Y-119431342D01*
X175358462Y-119301777D01*
X175358461Y-119301776D01*
X175358459Y-119301775D01*
X175295533Y-119269712D01*
X175162043Y-119201694D01*
X175162040Y-119201693D01*
X174952389Y-119133575D01*
X174843523Y-119116332D01*
X174734659Y-119099090D01*
X174514215Y-119099090D01*
X174441638Y-119110585D01*
X174296484Y-119133575D01*
X174086833Y-119201693D01*
X174086830Y-119201694D01*
X173890411Y-119301777D01*
X173712078Y-119431342D01*
X173712073Y-119431346D01*
X173556193Y-119587226D01*
X173556189Y-119587231D01*
X173426624Y-119765564D01*
X173326541Y-119961983D01*
X173326540Y-119961986D01*
X173258422Y-120171637D01*
X173223937Y-120389368D01*
X173223937Y-120609811D01*
X173258422Y-120827542D01*
X173326540Y-121037193D01*
X173326541Y-121037196D01*
X173375991Y-121134245D01*
X173419212Y-121219070D01*
X173426624Y-121233615D01*
X173556189Y-121411948D01*
X173556193Y-121411953D01*
X173712073Y-121567833D01*
X173712078Y-121567837D01*
X173824164Y-121649272D01*
X173866830Y-121704601D01*
X173872809Y-121774215D01*
X173840204Y-121836010D01*
X173824164Y-121849908D01*
X173712078Y-121931342D01*
X173712073Y-121931346D01*
X173556193Y-122087226D01*
X173556189Y-122087231D01*
X173426622Y-122265566D01*
X173393085Y-122331386D01*
X173345111Y-122382181D01*
X173282601Y-122399090D01*
X167486111Y-122399090D01*
X167486095Y-122399089D01*
X167478499Y-122399089D01*
X167320385Y-122399089D01*
X167240452Y-122420507D01*
X167167658Y-122440012D01*
X167129601Y-122461985D01*
X167129600Y-122461984D01*
X167030729Y-122519067D01*
X167030724Y-122519071D01*
X162418938Y-127130857D01*
X162418934Y-127130862D01*
X162370927Y-127214015D01*
X162370926Y-127214014D01*
X162339881Y-127267786D01*
X162339880Y-127267790D01*
X162298956Y-127420518D01*
X162298956Y-127420520D01*
X162298956Y-127588621D01*
X162298957Y-127588634D01*
X162298957Y-137119775D01*
X162279272Y-137186814D01*
X162278059Y-137188666D01*
X162190066Y-137320355D01*
X162190059Y-137320368D01*
X162129721Y-137466039D01*
X162129718Y-137466051D01*
X162098957Y-137620694D01*
X162098957Y-137778387D01*
X162129718Y-137933030D01*
X162129721Y-137933042D01*
X162190059Y-138078713D01*
X162190066Y-138078726D01*
X162277667Y-138209829D01*
X162277670Y-138209833D01*
X162389164Y-138321327D01*
X162389168Y-138321330D01*
X162520271Y-138408931D01*
X162520284Y-138408938D01*
X162665955Y-138469276D01*
X162665960Y-138469278D01*
X162820459Y-138500010D01*
X162820610Y-138500040D01*
X162820613Y-138500041D01*
X162820615Y-138500041D01*
X162978301Y-138500041D01*
X162978302Y-138500040D01*
X163132954Y-138469278D01*
X163278636Y-138408935D01*
X163409746Y-138321330D01*
X163521246Y-138209830D01*
X163608851Y-138078720D01*
X163669194Y-137933038D01*
X163699957Y-137778383D01*
X163699957Y-137620699D01*
X163699957Y-137620696D01*
X163699956Y-137620694D01*
X163684447Y-137542725D01*
X163669194Y-137466044D01*
X163656654Y-137435769D01*
X163608854Y-137320368D01*
X163608847Y-137320355D01*
X163520855Y-137188666D01*
X163499977Y-137121988D01*
X163499957Y-137119775D01*
X163499957Y-127799672D01*
X163508601Y-127770231D01*
X163515125Y-127740245D01*
X163518879Y-127735229D01*
X163519642Y-127732633D01*
X163536276Y-127711991D01*
X163570629Y-127677638D01*
X165003937Y-127677638D01*
X165003937Y-127921541D01*
X165022055Y-128059152D01*
X165035771Y-128163334D01*
X165073797Y-128305249D01*
X165098893Y-128398910D01*
X165098896Y-128398920D01*
X165192223Y-128624230D01*
X165192228Y-128624241D01*
X165314164Y-128835438D01*
X165314175Y-128835454D01*
X165462636Y-129028933D01*
X165462642Y-129028940D01*
X165635086Y-129201384D01*
X165635092Y-129201389D01*
X165828581Y-129349858D01*
X165828588Y-129349862D01*
X166039785Y-129471798D01*
X166039790Y-129471800D01*
X166039793Y-129471802D01*
X166265116Y-129565134D01*
X166500693Y-129628256D01*
X166742493Y-129660090D01*
X166742500Y-129660090D01*
X167506374Y-129660090D01*
X167506381Y-129660090D01*
X167748181Y-129628256D01*
X167983758Y-129565134D01*
X168209081Y-129471802D01*
X168420293Y-129349858D01*
X168613782Y-129201389D01*
X168786236Y-129028935D01*
X168934705Y-128835446D01*
X169056649Y-128624234D01*
X169149981Y-128398911D01*
X169213103Y-128163334D01*
X169244937Y-127921534D01*
X169244937Y-127677646D01*
X169213103Y-127435846D01*
X169149981Y-127200269D01*
X169056649Y-126974946D01*
X169056647Y-126974943D01*
X169056645Y-126974938D01*
X168934709Y-126763741D01*
X168934705Y-126763734D01*
X168825967Y-126622023D01*
X168786237Y-126570246D01*
X168786231Y-126570239D01*
X168613787Y-126397795D01*
X168613780Y-126397789D01*
X168420301Y-126249328D01*
X168420299Y-126249326D01*
X168420293Y-126249322D01*
X168420288Y-126249319D01*
X168420285Y-126249317D01*
X168209088Y-126127381D01*
X168209077Y-126127376D01*
X167983767Y-126034049D01*
X167983760Y-126034047D01*
X167983758Y-126034046D01*
X167748181Y-125970924D01*
X167707770Y-125965603D01*
X167506388Y-125939090D01*
X167506381Y-125939090D01*
X166742493Y-125939090D01*
X166742485Y-125939090D01*
X166512333Y-125969391D01*
X166500693Y-125970924D01*
X166265116Y-126034046D01*
X166265106Y-126034049D01*
X166039796Y-126127376D01*
X166039785Y-126127381D01*
X165828588Y-126249317D01*
X165828572Y-126249328D01*
X165635093Y-126397789D01*
X165635086Y-126397795D01*
X165462642Y-126570239D01*
X165462636Y-126570246D01*
X165314175Y-126763725D01*
X165314164Y-126763741D01*
X165192228Y-126974938D01*
X165192223Y-126974949D01*
X165098896Y-127200259D01*
X165098893Y-127200269D01*
X165035772Y-127435843D01*
X165035770Y-127435854D01*
X165003937Y-127677638D01*
X163570629Y-127677638D01*
X167611858Y-123636409D01*
X167673181Y-123602924D01*
X167699539Y-123600090D01*
X173282601Y-123600090D01*
X173349640Y-123619775D01*
X173393085Y-123667794D01*
X173426622Y-123733613D01*
X173556189Y-123911948D01*
X173556193Y-123911953D01*
X173712073Y-124067833D01*
X173712078Y-124067837D01*
X173867629Y-124180850D01*
X173890415Y-124197405D01*
X174018812Y-124262827D01*
X174086830Y-124297485D01*
X174086833Y-124297486D01*
X174181114Y-124328119D01*
X174296486Y-124365605D01*
X174514215Y-124400090D01*
X174514216Y-124400090D01*
X174734658Y-124400090D01*
X174734659Y-124400090D01*
X174952388Y-124365605D01*
X175061619Y-124330113D01*
X175131460Y-124328119D01*
X175191293Y-124364199D01*
X175222121Y-124426900D01*
X175223937Y-124448045D01*
X175223937Y-127514419D01*
X175204252Y-127581458D01*
X175187618Y-127602100D01*
X172137010Y-130652707D01*
X172075687Y-130686192D01*
X172049329Y-130689026D01*
X170701557Y-130689026D01*
X170701551Y-130689027D01*
X170641944Y-130695434D01*
X170507099Y-130745728D01*
X170507092Y-130745732D01*
X170391883Y-130831978D01*
X170391880Y-130831981D01*
X170305634Y-130947190D01*
X170305630Y-130947197D01*
X170255336Y-131082043D01*
X170248929Y-131141642D01*
X170248928Y-131141661D01*
X170248928Y-132937396D01*
X170248929Y-132937402D01*
X170255336Y-132997009D01*
X170305630Y-133131854D01*
X170305634Y-133131861D01*
X170391880Y-133247070D01*
X170391883Y-133247073D01*
X170507092Y-133333319D01*
X170507099Y-133333323D01*
X170638510Y-133382336D01*
X170694444Y-133424207D01*
X170718861Y-133489671D01*
X170704010Y-133557944D01*
X170682859Y-133586199D01*
X170569317Y-133699741D01*
X170444376Y-133871710D01*
X170444375Y-133871711D01*
X170424193Y-133911321D01*
X170376219Y-133962117D01*
X170313709Y-133979026D01*
X168798520Y-133979026D01*
X168640405Y-133979026D01*
X168487678Y-134019949D01*
X168487677Y-134019949D01*
X168487675Y-134019950D01*
X168487672Y-134019951D01*
X168437559Y-134048885D01*
X168437558Y-134048886D01*
X168394152Y-134073946D01*
X168350748Y-134099005D01*
X168350745Y-134099007D01*
X167984779Y-134464974D01*
X167923456Y-134498459D01*
X167921290Y-134498910D01*
X167765948Y-134529810D01*
X167765938Y-134529813D01*
X167620267Y-134590151D01*
X167620254Y-134590158D01*
X167489151Y-134677759D01*
X167489147Y-134677762D01*
X167377653Y-134789256D01*
X167377650Y-134789260D01*
X167290049Y-134920363D01*
X167290042Y-134920376D01*
X167229704Y-135066047D01*
X167229701Y-135066059D01*
X167198940Y-135220702D01*
X167198940Y-135378395D01*
X167229701Y-135533038D01*
X167229704Y-135533050D01*
X167290042Y-135678721D01*
X167290049Y-135678734D01*
X167377650Y-135809837D01*
X167377653Y-135809841D01*
X167489147Y-135921335D01*
X167489151Y-135921338D01*
X167620254Y-136008939D01*
X167620267Y-136008946D01*
X167765938Y-136069284D01*
X167765943Y-136069286D01*
X167916506Y-136099235D01*
X167920593Y-136100048D01*
X167920596Y-136100049D01*
X167920598Y-136100049D01*
X168078284Y-136100049D01*
X168078285Y-136100048D01*
X168232937Y-136069286D01*
X168378619Y-136008943D01*
X168509729Y-135921338D01*
X168621229Y-135809838D01*
X168708834Y-135678728D01*
X168769177Y-135533046D01*
X168789713Y-135429807D01*
X168800078Y-135377699D01*
X168808842Y-135360943D01*
X168812863Y-135342463D01*
X168831608Y-135317421D01*
X168832463Y-135315788D01*
X168833907Y-135314316D01*
X168931881Y-135216342D01*
X168993203Y-135182860D01*
X169019560Y-135180026D01*
X170313709Y-135180026D01*
X170380748Y-135199711D01*
X170424193Y-135247731D01*
X170444375Y-135287340D01*
X170444376Y-135287341D01*
X170569318Y-135459312D01*
X170719641Y-135609635D01*
X170891610Y-135734576D01*
X170900374Y-135739042D01*
X170951170Y-135787017D01*
X170967964Y-135854838D01*
X170945426Y-135920973D01*
X170900374Y-135960010D01*
X170891610Y-135964475D01*
X170719641Y-136089416D01*
X170569318Y-136239739D01*
X170444379Y-136411705D01*
X170347872Y-136601111D01*
X170282181Y-136803286D01*
X170248928Y-137013239D01*
X170248928Y-137225812D01*
X170282181Y-137435765D01*
X170282181Y-137435767D01*
X170282182Y-137435769D01*
X170336859Y-137604048D01*
X170347872Y-137637940D01*
X170444379Y-137827346D01*
X170569318Y-137999312D01*
X170719641Y-138149635D01*
X170891610Y-138274576D01*
X170900374Y-138279042D01*
X170951170Y-138327017D01*
X170967964Y-138394838D01*
X170945426Y-138460973D01*
X170900374Y-138500010D01*
X170891610Y-138504475D01*
X170719641Y-138629416D01*
X170569318Y-138779739D01*
X170444376Y-138951710D01*
X170444375Y-138951711D01*
X170424193Y-138991321D01*
X170376219Y-139042117D01*
X170313709Y-139059026D01*
X162759547Y-139059026D01*
X162692508Y-139039341D01*
X162671866Y-139022707D01*
X160087058Y-136437899D01*
X160087056Y-136437896D01*
X159968185Y-136319025D01*
X159968184Y-136319024D01*
X159872212Y-136263615D01*
X159831253Y-136239967D01*
X159678525Y-136199043D01*
X159520411Y-136199043D01*
X159512815Y-136199043D01*
X159512799Y-136199044D01*
X154217336Y-136199044D01*
X154150297Y-136179359D01*
X154104542Y-136126555D01*
X154095719Y-136099235D01*
X154069227Y-135966056D01*
X154069226Y-135966049D01*
X154035976Y-135885776D01*
X154008886Y-135820373D01*
X154008879Y-135820360D01*
X153921278Y-135689257D01*
X153921275Y-135689253D01*
X153809781Y-135577759D01*
X153809777Y-135577756D01*
X153678674Y-135490155D01*
X153678661Y-135490148D01*
X153532990Y-135429810D01*
X153532978Y-135429807D01*
X153378334Y-135399046D01*
X153378331Y-135399046D01*
X153220647Y-135399046D01*
X153220644Y-135399046D01*
X153065999Y-135429807D01*
X153065987Y-135429810D01*
X152920316Y-135490148D01*
X152920303Y-135490155D01*
X152789200Y-135577756D01*
X152789196Y-135577759D01*
X152677702Y-135689253D01*
X152677699Y-135689257D01*
X152590098Y-135820360D01*
X152590091Y-135820373D01*
X152529753Y-135966044D01*
X152529750Y-135966056D01*
X152498989Y-136120699D01*
X152498989Y-136278392D01*
X152529750Y-136433035D01*
X152529753Y-136433047D01*
X152590091Y-136578718D01*
X152590098Y-136578731D01*
X152677699Y-136709834D01*
X152677702Y-136709838D01*
X152789196Y-136821332D01*
X152789200Y-136821335D01*
X152920303Y-136908936D01*
X152920316Y-136908943D01*
X153065987Y-136969281D01*
X153065992Y-136969283D01*
X153130636Y-136982141D01*
X153221338Y-137000184D01*
X153238094Y-137008948D01*
X153256574Y-137012969D01*
X153281612Y-137031713D01*
X153283249Y-137032569D01*
X153284828Y-137034120D01*
X153414626Y-137163918D01*
X153414636Y-137163929D01*
X153418966Y-137168259D01*
X153418967Y-137168260D01*
X153530771Y-137280064D01*
X153600570Y-137320362D01*
X153667702Y-137359121D01*
X153820429Y-137400044D01*
X153820430Y-137400044D01*
X159299371Y-137400044D01*
X159366410Y-137419729D01*
X159387052Y-137436363D01*
X161974589Y-140023900D01*
X161974599Y-140023911D01*
X161978929Y-140028241D01*
X161978930Y-140028242D01*
X162090734Y-140140046D01*
X162090736Y-140140047D01*
X162090740Y-140140050D01*
X162227498Y-140219006D01*
X162227666Y-140219103D01*
X162339469Y-140249060D01*
X162380392Y-140260026D01*
X162380393Y-140260026D01*
X167974937Y-140260026D01*
X168041976Y-140279711D01*
X168087731Y-140332515D01*
X168098937Y-140384026D01*
X168098937Y-140478378D01*
X168129698Y-140633021D01*
X168129701Y-140633033D01*
X168190039Y-140778704D01*
X168190046Y-140778717D01*
X168277647Y-140909820D01*
X168277650Y-140909824D01*
X168389144Y-141021318D01*
X168389148Y-141021321D01*
X168520251Y-141108922D01*
X168520264Y-141108929D01*
X168665935Y-141169267D01*
X168665940Y-141169269D01*
X168820590Y-141200031D01*
X168820593Y-141200032D01*
X168820595Y-141200032D01*
X168978281Y-141200032D01*
X168978282Y-141200031D01*
X169132934Y-141169269D01*
X169278616Y-141108926D01*
X169278622Y-141108922D01*
X169410312Y-141020930D01*
X169428358Y-141015279D01*
X169444268Y-141005055D01*
X169475229Y-141000603D01*
X169476990Y-141000052D01*
X169479203Y-141000032D01*
X169499337Y-141000032D01*
X169566376Y-141019717D01*
X169587018Y-141036351D01*
X170265669Y-141715002D01*
X170299154Y-141776325D01*
X170295920Y-141840999D01*
X170282181Y-141883283D01*
X170248928Y-142093239D01*
X170248928Y-142305812D01*
X170276157Y-142477733D01*
X170282182Y-142515769D01*
X170306052Y-142589234D01*
X170347872Y-142717940D01*
X170444379Y-142907346D01*
X170569318Y-143079312D01*
X170719641Y-143229635D01*
X170891607Y-143354574D01*
X170891609Y-143354575D01*
X170891612Y-143354577D01*
X171081016Y-143451083D01*
X171283185Y-143516772D01*
X171493141Y-143550026D01*
X171493142Y-143550026D01*
X171705714Y-143550026D01*
X171705715Y-143550026D01*
X171915671Y-143516772D01*
X172117840Y-143451083D01*
X172307244Y-143354577D01*
X172336926Y-143333012D01*
X172479214Y-143229635D01*
X172479216Y-143229632D01*
X172479220Y-143229630D01*
X172629532Y-143079318D01*
X172629534Y-143079314D01*
X172629537Y-143079312D01*
X172754476Y-142907346D01*
X172754475Y-142907346D01*
X172754479Y-142907342D01*
X172850985Y-142717938D01*
X172916674Y-142515769D01*
X172949928Y-142305813D01*
X172949928Y-142093239D01*
X172916674Y-141883283D01*
X172850985Y-141681114D01*
X172754479Y-141491710D01*
X172754477Y-141491707D01*
X172754476Y-141491705D01*
X172629537Y-141319739D01*
X172479214Y-141169416D01*
X172307248Y-141044477D01*
X172306543Y-141044117D01*
X172298482Y-141040011D01*
X172247687Y-140992038D01*
X172230891Y-140924218D01*
X172253427Y-140858082D01*
X172298482Y-140819041D01*
X172307244Y-140814577D01*
X172342123Y-140789236D01*
X172479214Y-140689635D01*
X172479216Y-140689632D01*
X172479220Y-140689630D01*
X172629532Y-140539318D01*
X172636455Y-140529790D01*
X172690572Y-140455303D01*
X172745902Y-140412636D01*
X172815515Y-140406657D01*
X172877310Y-140439262D01*
X172911668Y-140500100D01*
X172912508Y-140552378D01*
X172898921Y-140620684D01*
X172898921Y-140778377D01*
X172929682Y-140933020D01*
X172929685Y-140933032D01*
X172990023Y-141078703D01*
X172990030Y-141078716D01*
X173077631Y-141209819D01*
X173077634Y-141209823D01*
X173189128Y-141321317D01*
X173189132Y-141321320D01*
X173320235Y-141408921D01*
X173320248Y-141408928D01*
X173465919Y-141469266D01*
X173465924Y-141469268D01*
X173578722Y-141491705D01*
X173620574Y-141500030D01*
X173620577Y-141500031D01*
X173620579Y-141500031D01*
X173778265Y-141500031D01*
X173778266Y-141500030D01*
X173932918Y-141469268D01*
X174078600Y-141408925D01*
X174209710Y-141321320D01*
X174321210Y-141209820D01*
X174408815Y-141078710D01*
X174414064Y-141066039D01*
X174432748Y-141020930D01*
X174469158Y-140933028D01*
X174499921Y-140778373D01*
X174499921Y-140620689D01*
X174499921Y-140620686D01*
X174499920Y-140620684D01*
X174483734Y-140539314D01*
X174469158Y-140466034D01*
X174447040Y-140412636D01*
X174408818Y-140320358D01*
X174408811Y-140320345D01*
X174320819Y-140188656D01*
X174299941Y-140121978D01*
X174299921Y-140119765D01*
X174299921Y-139308579D01*
X174299922Y-139308566D01*
X174299922Y-139140463D01*
X174299922Y-139140462D01*
X174258998Y-138987735D01*
X174238199Y-138951710D01*
X174179945Y-138850809D01*
X174179939Y-138850801D01*
X173603714Y-138274576D01*
X172933184Y-137604047D01*
X172899700Y-137542725D01*
X172902935Y-137478049D01*
X172916674Y-137435769D01*
X172949928Y-137225813D01*
X172949928Y-137013239D01*
X172949885Y-137012969D01*
X172929996Y-136887393D01*
X172929995Y-136887389D01*
X172926996Y-136868452D01*
X176898867Y-136868452D01*
X176898867Y-137130707D01*
X176918532Y-137280065D01*
X176933097Y-137390696D01*
X176994725Y-137620696D01*
X177000969Y-137643998D01*
X177000972Y-137644008D01*
X177101320Y-137886270D01*
X177101325Y-137886280D01*
X177232442Y-138113383D01*
X177392085Y-138321431D01*
X177392093Y-138321440D01*
X177577507Y-138506854D01*
X177577515Y-138506861D01*
X177785563Y-138666504D01*
X178012666Y-138797621D01*
X178012676Y-138797626D01*
X178254938Y-138897974D01*
X178254948Y-138897978D01*
X178508251Y-138965850D01*
X178768247Y-139000080D01*
X178768254Y-139000080D01*
X179030480Y-139000080D01*
X179030487Y-139000080D01*
X179290483Y-138965850D01*
X179543786Y-138897978D01*
X179786064Y-138797623D01*
X180013170Y-138666504D01*
X180221218Y-138506862D01*
X180221222Y-138506857D01*
X180221227Y-138506854D01*
X180406641Y-138321440D01*
X180406644Y-138321435D01*
X180406649Y-138321431D01*
X180566291Y-138113383D01*
X180697410Y-137886277D01*
X180797765Y-137643999D01*
X180865637Y-137390696D01*
X180899867Y-137130700D01*
X180899867Y-136868460D01*
X180865637Y-136608464D01*
X180797765Y-136355161D01*
X180759846Y-136263616D01*
X180697413Y-136112889D01*
X180697408Y-136112879D01*
X180566291Y-135885776D01*
X180414721Y-135688249D01*
X180406649Y-135677729D01*
X180406648Y-135677728D01*
X180406641Y-135677720D01*
X180221227Y-135492306D01*
X180221218Y-135492298D01*
X180013170Y-135332655D01*
X179786067Y-135201538D01*
X179786057Y-135201533D01*
X179543795Y-135101185D01*
X179543788Y-135101183D01*
X179543786Y-135101182D01*
X179290483Y-135033310D01*
X179232706Y-135025703D01*
X179030494Y-134999080D01*
X179030487Y-134999080D01*
X178768247Y-134999080D01*
X178768239Y-134999080D01*
X178537139Y-135029506D01*
X178508251Y-135033310D01*
X178254948Y-135101182D01*
X178254938Y-135101185D01*
X178012676Y-135201533D01*
X178012666Y-135201538D01*
X177785563Y-135332655D01*
X177577515Y-135492298D01*
X177392085Y-135677728D01*
X177232442Y-135885776D01*
X177101325Y-136112879D01*
X177101320Y-136112889D01*
X177000972Y-136355151D01*
X177000969Y-136355161D01*
X176935067Y-136601114D01*
X176933097Y-136608465D01*
X176898867Y-136868452D01*
X172926996Y-136868452D01*
X172916674Y-136803283D01*
X172901043Y-136755177D01*
X172899736Y-136749208D01*
X172901769Y-136720208D01*
X172900940Y-136691161D01*
X172904205Y-136685473D01*
X172904624Y-136679510D01*
X172917647Y-136662062D01*
X172933183Y-136635004D01*
X173757928Y-135810260D01*
X173757933Y-135810256D01*
X173768136Y-135800052D01*
X173768138Y-135800052D01*
X173879942Y-135688248D01*
X173931443Y-135599045D01*
X173958999Y-135551317D01*
X173999923Y-135398589D01*
X173999923Y-135240475D01*
X173999923Y-135232880D01*
X173999922Y-135232862D01*
X173999922Y-133928579D01*
X173999923Y-133928566D01*
X173999923Y-133760465D01*
X173999923Y-133760463D01*
X173958999Y-133607735D01*
X173925332Y-133549422D01*
X173879942Y-133470804D01*
X173768138Y-133359000D01*
X173768137Y-133358999D01*
X173763807Y-133354669D01*
X173763796Y-133354659D01*
X173260844Y-132851707D01*
X173227359Y-132790384D01*
X173232343Y-132720692D01*
X173274215Y-132664759D01*
X173339679Y-132640342D01*
X173348525Y-132640026D01*
X176572776Y-132640026D01*
X176572792Y-132640027D01*
X176580388Y-132640027D01*
X176738499Y-132640027D01*
X176738502Y-132640027D01*
X176891230Y-132599103D01*
X176941349Y-132570165D01*
X177028161Y-132520046D01*
X177139965Y-132408242D01*
X177139965Y-132408240D01*
X177150173Y-132398033D01*
X177150174Y-132398030D01*
X192096090Y-117452117D01*
X192157413Y-117418632D01*
X192183771Y-117415798D01*
X193896998Y-117415798D01*
X193897014Y-117415799D01*
X193904610Y-117415799D01*
X194062721Y-117415799D01*
X194062724Y-117415799D01*
X194215452Y-117374875D01*
X194265571Y-117345937D01*
X194352383Y-117295818D01*
X194464187Y-117184014D01*
X194464187Y-117184012D01*
X194474395Y-117173805D01*
X194474396Y-117173802D01*
X196379867Y-115268334D01*
X196458924Y-115131402D01*
X196499848Y-114978675D01*
X196499848Y-114868452D01*
X198898867Y-114868452D01*
X198898867Y-115130707D01*
X198916696Y-115266125D01*
X198933097Y-115390696D01*
X199000969Y-115643998D01*
X199000972Y-115644008D01*
X199101320Y-115886270D01*
X199101325Y-115886280D01*
X199232442Y-116113383D01*
X199392085Y-116321431D01*
X199392093Y-116321440D01*
X199577507Y-116506854D01*
X199577515Y-116506861D01*
X199785563Y-116666504D01*
X200012666Y-116797621D01*
X200012676Y-116797626D01*
X200254938Y-116897974D01*
X200254948Y-116897978D01*
X200508251Y-116965850D01*
X200768247Y-117000080D01*
X200768254Y-117000080D01*
X201030480Y-117000080D01*
X201030487Y-117000080D01*
X201290483Y-116965850D01*
X201543786Y-116897978D01*
X201769404Y-116804524D01*
X201786057Y-116797626D01*
X201786058Y-116797625D01*
X201786064Y-116797623D01*
X202013170Y-116666504D01*
X202221218Y-116506862D01*
X202221222Y-116506857D01*
X202221227Y-116506854D01*
X202406641Y-116321440D01*
X202406644Y-116321435D01*
X202406649Y-116321431D01*
X202566291Y-116113383D01*
X202697410Y-115886277D01*
X202797765Y-115643999D01*
X202865637Y-115390696D01*
X202899867Y-115130700D01*
X202899867Y-114868460D01*
X202865637Y-114608464D01*
X202797765Y-114355161D01*
X202735905Y-114205817D01*
X202697413Y-114112889D01*
X202697408Y-114112879D01*
X202566291Y-113885776D01*
X202443791Y-113726134D01*
X202406649Y-113677729D01*
X202406648Y-113677728D01*
X202406641Y-113677720D01*
X202221227Y-113492306D01*
X202221218Y-113492298D01*
X202013170Y-113332655D01*
X201786067Y-113201538D01*
X201786057Y-113201533D01*
X201543795Y-113101185D01*
X201543788Y-113101183D01*
X201543786Y-113101182D01*
X201290483Y-113033310D01*
X201232706Y-113025703D01*
X201030494Y-112999080D01*
X201030487Y-112999080D01*
X200768247Y-112999080D01*
X200768239Y-112999080D01*
X200537139Y-113029506D01*
X200508251Y-113033310D01*
X200391669Y-113064548D01*
X200254948Y-113101182D01*
X200254938Y-113101185D01*
X200012676Y-113201533D01*
X200012666Y-113201538D01*
X199785563Y-113332655D01*
X199577515Y-113492298D01*
X199392085Y-113677728D01*
X199232442Y-113885776D01*
X199101325Y-114112879D01*
X199101320Y-114112889D01*
X199000972Y-114355151D01*
X199000969Y-114355161D01*
X198935818Y-114598311D01*
X198933097Y-114608465D01*
X198898867Y-114868452D01*
X196499848Y-114868452D01*
X196499848Y-114820560D01*
X196499847Y-114820556D01*
X196499847Y-112888683D01*
X196499848Y-112888670D01*
X196499848Y-112720569D01*
X196499848Y-112720567D01*
X196458924Y-112567839D01*
X196419830Y-112500127D01*
X196419830Y-112500126D01*
X196379869Y-112430911D01*
X196379868Y-112430910D01*
X196379867Y-112430908D01*
X196268063Y-112319104D01*
X196268062Y-112319103D01*
X196263732Y-112314773D01*
X196263721Y-112314763D01*
X195487102Y-111538144D01*
X195479871Y-111530913D01*
X195479870Y-111530911D01*
X195368066Y-111419107D01*
X195367013Y-111418499D01*
X195360465Y-111411975D01*
X195347362Y-111388084D01*
X195331294Y-111366077D01*
X195330806Y-111357897D01*
X195326867Y-111350714D01*
X195328760Y-111323529D01*
X195327141Y-111296331D01*
X195331152Y-111289187D01*
X195331722Y-111281014D01*
X195348010Y-111259170D01*
X195361354Y-111235412D01*
X195368592Y-111231570D01*
X195373490Y-111225003D01*
X195398999Y-111215434D01*
X195423072Y-111202660D01*
X195436760Y-111201270D01*
X195438909Y-111200465D01*
X195440763Y-111200864D01*
X195447984Y-111200132D01*
X205174812Y-111200132D01*
X205241851Y-111219817D01*
G37*
%TD.AperFunction*%
%TA.AperFunction,Conductor*%
G36*
X160767855Y-111219817D02*
G01*
X160813610Y-111272621D01*
X160823554Y-111341779D01*
X160794529Y-111405335D01*
X160786253Y-111413132D01*
X160786481Y-111413360D01*
X150445014Y-121754826D01*
X150383691Y-121788311D01*
X150313999Y-121783327D01*
X150258066Y-121741455D01*
X150233649Y-121675991D01*
X150234860Y-121647747D01*
X150239171Y-121620533D01*
X150258981Y-121495457D01*
X150258981Y-121313735D01*
X150230553Y-121134250D01*
X150230552Y-121134246D01*
X150230552Y-121134245D01*
X150174399Y-120961424D01*
X150174397Y-120961421D01*
X150161658Y-120936418D01*
X150091898Y-120799506D01*
X149985084Y-120652490D01*
X149856587Y-120523993D01*
X149709571Y-120417179D01*
X149547655Y-120334679D01*
X149547652Y-120334677D01*
X149374829Y-120278524D01*
X149255170Y-120259572D01*
X149195342Y-120250096D01*
X149013620Y-120250096D01*
X148953791Y-120259572D01*
X148834133Y-120278524D01*
X148834130Y-120278524D01*
X148661309Y-120334677D01*
X148661306Y-120334679D01*
X148499390Y-120417179D01*
X148415511Y-120478121D01*
X148352375Y-120523993D01*
X148352373Y-120523995D01*
X148352372Y-120523995D01*
X148223880Y-120652487D01*
X148223880Y-120652488D01*
X148223878Y-120652490D01*
X148178006Y-120715626D01*
X148117064Y-120799505D01*
X148034564Y-120961421D01*
X148034562Y-120961424D01*
X147978409Y-121134245D01*
X147978409Y-121134248D01*
X147949981Y-121313735D01*
X147949981Y-121495456D01*
X147969412Y-121618141D01*
X147960457Y-121687435D01*
X147934620Y-121725220D01*
X146930966Y-122728873D01*
X146930967Y-122728874D01*
X146930795Y-122729046D01*
X146930793Y-122729048D01*
X146818989Y-122840852D01*
X146818383Y-122841900D01*
X146811866Y-122848444D01*
X146787968Y-122861554D01*
X146765950Y-122877628D01*
X146757782Y-122878113D01*
X146750609Y-122882049D01*
X146723413Y-122880157D01*
X146696204Y-122881776D01*
X146689071Y-122877769D01*
X146680908Y-122877202D01*
X146659051Y-122860907D01*
X146635286Y-122847558D01*
X146631451Y-122840329D01*
X146624892Y-122835440D01*
X146615317Y-122809921D01*
X146602539Y-122785838D01*
X146601152Y-122772171D01*
X146600347Y-122770024D01*
X146600746Y-122768168D01*
X146600013Y-122760935D01*
X146600013Y-111324132D01*
X146619698Y-111257093D01*
X146672502Y-111211338D01*
X146724013Y-111200132D01*
X160700816Y-111200132D01*
X160767855Y-111219817D01*
G37*
%TD.AperFunction*%
%TA.AperFunction,Conductor*%
G36*
X188480945Y-112519812D02*
G01*
X188526700Y-112572616D01*
X188536644Y-112641774D01*
X188507619Y-112705330D01*
X188501593Y-112711801D01*
X188376949Y-112836445D01*
X188260653Y-112952741D01*
X188148848Y-113064545D01*
X188148847Y-113064547D01*
X188098727Y-113151358D01*
X188069790Y-113201478D01*
X188028866Y-113354206D01*
X188028866Y-113354645D01*
X188026748Y-113360621D01*
X188009025Y-113385121D01*
X187993282Y-113410949D01*
X187986850Y-113415775D01*
X187985797Y-113417232D01*
X187983941Y-113417958D01*
X187974667Y-113424919D01*
X187971862Y-113426637D01*
X187812120Y-113542695D01*
X187672482Y-113682333D01*
X187556425Y-113842075D01*
X187466775Y-114018021D01*
X187405756Y-114205816D01*
X187374867Y-114400843D01*
X187374867Y-114598316D01*
X187405756Y-114793343D01*
X187440124Y-114899115D01*
X187466776Y-114981141D01*
X187543342Y-115131408D01*
X187556425Y-115157084D01*
X187672482Y-115316826D01*
X187812120Y-115456464D01*
X187923579Y-115537442D01*
X187971866Y-115572524D01*
X188147806Y-115662171D01*
X188263423Y-115699737D01*
X188335603Y-115723190D01*
X188530631Y-115754080D01*
X188530636Y-115754080D01*
X188728103Y-115754080D01*
X188836449Y-115736918D01*
X188923130Y-115723190D01*
X188923141Y-115723186D01*
X188927865Y-115722053D01*
X188928286Y-115723809D01*
X188990376Y-115722029D01*
X189050213Y-115758103D01*
X189081048Y-115820800D01*
X189082867Y-115841959D01*
X189082867Y-116915513D01*
X189063182Y-116982552D01*
X189046548Y-117003194D01*
X186686961Y-119362781D01*
X186625638Y-119396266D01*
X186599280Y-119399100D01*
X179699499Y-119399100D01*
X179632460Y-119379415D01*
X179611818Y-119362781D01*
X179024916Y-118775879D01*
X178991431Y-118714556D01*
X178988597Y-118688198D01*
X178988597Y-117122941D01*
X178988598Y-117114325D01*
X178991968Y-117102850D01*
X178991970Y-117102844D01*
X178999696Y-117076540D01*
X179008283Y-117047300D01*
X179008287Y-117047296D01*
X179008290Y-117047287D01*
X179040934Y-117019008D01*
X179061087Y-117001545D01*
X179061096Y-117001542D01*
X179061100Y-117001539D01*
X179061115Y-117001536D01*
X179096410Y-116991400D01*
X179290483Y-116965850D01*
X179543786Y-116897978D01*
X179769404Y-116804524D01*
X179786057Y-116797626D01*
X179786058Y-116797625D01*
X179786064Y-116797623D01*
X180013170Y-116666504D01*
X180221218Y-116506862D01*
X180221222Y-116506857D01*
X180221227Y-116506854D01*
X180406641Y-116321440D01*
X180406644Y-116321435D01*
X180406649Y-116321431D01*
X180566291Y-116113383D01*
X180697410Y-115886277D01*
X180797765Y-115643999D01*
X180865637Y-115390696D01*
X180899867Y-115130700D01*
X180899867Y-114868460D01*
X180865637Y-114608464D01*
X180797765Y-114355161D01*
X180735905Y-114205817D01*
X180697413Y-114112889D01*
X180697408Y-114112879D01*
X180566291Y-113885776D01*
X180443791Y-113726134D01*
X180406649Y-113677729D01*
X180406648Y-113677728D01*
X180406641Y-113677720D01*
X180221227Y-113492306D01*
X180221218Y-113492298D01*
X180013170Y-113332655D01*
X179786067Y-113201538D01*
X179786057Y-113201533D01*
X179543795Y-113101185D01*
X179543788Y-113101183D01*
X179543786Y-113101182D01*
X179290483Y-113033310D01*
X179232706Y-113025703D01*
X179030494Y-112999080D01*
X179030487Y-112999080D01*
X178768247Y-112999080D01*
X178768239Y-112999080D01*
X178537139Y-113029506D01*
X178508251Y-113033310D01*
X178391669Y-113064548D01*
X178254948Y-113101182D01*
X178254938Y-113101185D01*
X178012676Y-113201533D01*
X178012666Y-113201538D01*
X177785563Y-113332655D01*
X177577515Y-113492298D01*
X177392085Y-113677728D01*
X177232442Y-113885776D01*
X177101325Y-114112879D01*
X177101320Y-114112889D01*
X177000972Y-114355151D01*
X177000969Y-114355161D01*
X176933097Y-114608464D01*
X176909168Y-114790224D01*
X176909026Y-114791300D01*
X176908717Y-114791998D01*
X176908826Y-114792755D01*
X176894597Y-114823914D01*
X176880759Y-114855196D01*
X176880121Y-114855616D01*
X176879804Y-114856312D01*
X176851008Y-114874819D01*
X176822435Y-114893667D01*
X176821456Y-114893813D01*
X176821028Y-114894089D01*
X176786259Y-114899089D01*
X176786094Y-114899114D01*
X176774760Y-114899114D01*
X176774757Y-114899114D01*
X176767155Y-114899115D01*
X176767153Y-114899114D01*
X176767148Y-114899115D01*
X169056857Y-114899115D01*
X168989818Y-114879430D01*
X168944063Y-114826626D01*
X168934119Y-114757468D01*
X168940675Y-114731782D01*
X168968528Y-114657103D01*
X168973757Y-114608465D01*
X168974937Y-114597494D01*
X168974936Y-112801749D01*
X168968528Y-112742138D01*
X168960483Y-112720569D01*
X168940675Y-112667460D01*
X168935691Y-112597769D01*
X168969176Y-112536445D01*
X169030499Y-112502961D01*
X169056857Y-112500127D01*
X188413906Y-112500127D01*
X188480945Y-112519812D01*
G37*
%TD.AperFunction*%
%TD*%
M02*
