%TF.GenerationSoftware,KiCad,Pcbnew,9.0.8-9.0.8~ubuntu24.04.1*%
%TF.CreationDate,2026-05-11T17:22:14+07:00*%
%TF.ProjectId,majigotcha,6d616a69-676f-4746-9368-612e6b696361,rev?*%
%TF.SameCoordinates,Original*%
%TF.FileFunction,Drillmap*%
%TF.FilePolarity,Positive*%
%FSLAX45Y45*%
G04 Gerber Fmt 4.5, Leading zero omitted, Abs format (unit mm)*
G04 Created by KiCad (PCBNEW 9.0.8-9.0.8~ubuntu24.04.1) date 2026-05-11 17:22:14*
%MOMM*%
%LPD*%
G01*
G04 APERTURE LIST*
%ADD10C,0.050000*%
%ADD11C,0.200000*%
%ADD12C,0.100000*%
%ADD13C,0.110000*%
G04 APERTURE END LIST*
D10*
X15439949Y-6880000D02*
X19724929Y-6880000D01*
X19724929Y-10844984D01*
X15439949Y-10844984D01*
X15439949Y-6880000D01*
X15980997Y-9260000D02*
G75*
G02*
X15579002Y-9260000I-200998J0D01*
G01*
X15579002Y-9260000D02*
G75*
G02*
X15980997Y-9260000I200998J0D01*
G01*
X19588806Y-7300000D02*
G75*
G02*
X19171194Y-7300000I-208806J0D01*
G01*
X19171194Y-7300000D02*
G75*
G02*
X19588806Y-7300000I208806J0D01*
G01*
D11*
D12*
X17525000Y-9065000D02*
X17555000Y-9095000D01*
X17555000Y-9065000D02*
X17525000Y-9095000D01*
X18615000Y-8955000D02*
X18645000Y-8985000D01*
X18645000Y-8955000D02*
X18615000Y-8985000D01*
X18825000Y-8015000D02*
X18855000Y-8045000D01*
X18855000Y-8015000D02*
X18825000Y-8045000D01*
X19175000Y-8165000D02*
X19205000Y-8195000D01*
X19205000Y-8165000D02*
X19175000Y-8195000D01*
X19185000Y-9860000D02*
G75*
G02*
X19135000Y-9860000I-25000J0D01*
G01*
X19135000Y-9860000D02*
G75*
G02*
X19185000Y-9860000I25000J0D01*
G01*
X18474520Y-9189000D02*
X18474520Y-9289000D01*
X18424520Y-9239000D02*
X18524520Y-9239000D01*
X18730000Y-9190000D02*
X18730000Y-9290000D01*
X18680000Y-9240000D02*
X18780000Y-9240000D01*
X15837856Y-7865356D02*
X15837856Y-7794644D01*
X15767144Y-7794644D01*
X15767144Y-7865356D01*
X15837856Y-7865356D01*
X15837856Y-8115356D02*
X15837856Y-8044644D01*
X15767144Y-8044644D01*
X15767144Y-8115356D01*
X15837856Y-8115356D01*
X15837856Y-8365356D02*
X15837856Y-8294644D01*
X15767144Y-8294644D01*
X15767144Y-8365356D01*
X15837856Y-8365356D01*
X16781356Y-7255356D02*
X16781356Y-7184644D01*
X16710644Y-7184644D01*
X16710644Y-7255356D01*
X16781356Y-7255356D01*
X17035356Y-7255356D02*
X17035356Y-7184644D01*
X16964644Y-7184644D01*
X16964644Y-7255356D01*
X17035356Y-7255356D01*
X17375298Y-7340356D02*
X17375298Y-7269644D01*
X17304587Y-7269644D01*
X17304587Y-7340356D01*
X17375298Y-7340356D01*
X17375298Y-7594356D02*
X17375298Y-7523644D01*
X17304587Y-7523644D01*
X17304587Y-7594356D01*
X17375298Y-7594356D01*
X17375298Y-7848356D02*
X17375298Y-7777644D01*
X17304587Y-7777644D01*
X17304587Y-7848356D01*
X17375298Y-7848356D01*
X17375298Y-8102356D02*
X17375298Y-8031644D01*
X17304587Y-8031644D01*
X17304587Y-8102356D01*
X17375298Y-8102356D01*
X17375298Y-8356356D02*
X17375298Y-8285644D01*
X17304587Y-8285644D01*
X17304587Y-8356356D01*
X17375298Y-8356356D01*
X17375298Y-8610356D02*
X17375298Y-8539644D01*
X17304587Y-8539644D01*
X17304587Y-8610356D01*
X17375298Y-8610356D01*
X18201356Y-7152856D02*
X18201356Y-7082144D01*
X18130644Y-7082144D01*
X18130644Y-7152856D01*
X18201356Y-7152856D01*
X18455356Y-7152856D02*
X18455356Y-7082144D01*
X18384644Y-7082144D01*
X18384644Y-7152856D01*
X18455356Y-7152856D01*
X18515356Y-8045356D02*
X18515356Y-7974644D01*
X18444644Y-7974644D01*
X18444644Y-8045356D01*
X18515356Y-8045356D01*
X18515356Y-8299356D02*
X18515356Y-8228644D01*
X18444644Y-8228644D01*
X18444644Y-8299356D01*
X18515356Y-8299356D01*
X18709356Y-7152856D02*
X18709356Y-7082144D01*
X18638644Y-7082144D01*
X18638644Y-7152856D01*
X18709356Y-7152856D01*
X18907356Y-8545356D02*
X18907356Y-8474644D01*
X18836644Y-8474644D01*
X18836644Y-8545356D01*
X18907356Y-8545356D01*
X18963356Y-7152856D02*
X18963356Y-7082144D01*
X18892644Y-7082144D01*
X18892644Y-7152856D01*
X18963356Y-7152856D01*
X19161356Y-8545356D02*
X19161356Y-8474644D01*
X19090644Y-8474644D01*
X19090644Y-8545356D01*
X19161356Y-8545356D01*
X19415356Y-8545356D02*
X19415356Y-8474644D01*
X19344644Y-8474644D01*
X19344644Y-8545356D01*
X19415356Y-8545356D01*
D13*
X15770002Y-9969999D02*
X15825002Y-9914999D01*
X15770002Y-9859999D01*
X15715002Y-9914999D01*
X15770002Y-9969999D01*
X15770002Y-10419999D02*
X15825002Y-10364999D01*
X15770002Y-10309999D01*
X15715002Y-10364999D01*
X15770002Y-10419999D01*
X16240003Y-9205002D02*
X16295003Y-9150002D01*
X16240003Y-9095002D01*
X16185003Y-9150002D01*
X16240003Y-9205002D01*
X16240003Y-9655002D02*
X16295003Y-9600002D01*
X16240003Y-9545002D01*
X16185003Y-9600002D01*
X16240003Y-9655002D01*
X16420002Y-9969999D02*
X16475002Y-9914999D01*
X16420002Y-9859999D01*
X16365002Y-9914999D01*
X16420002Y-9969999D01*
X16420002Y-10419999D02*
X16475002Y-10364999D01*
X16420002Y-10309999D01*
X16365002Y-10364999D01*
X16420002Y-10419999D01*
X16552500Y-7655000D02*
X16607500Y-7600000D01*
X16552500Y-7545000D01*
X16497500Y-7600000D01*
X16552500Y-7655000D01*
D12*
X16517500Y-7655000D02*
X16587500Y-7655000D01*
X16587500Y-7545000D02*
G75*
G02*
X16587500Y-7655000I0J-55000D01*
G01*
X16587500Y-7545000D02*
X16517500Y-7545000D01*
X16517500Y-7545000D02*
G75*
G03*
X16517500Y-7655000I0J-55000D01*
G01*
D13*
X16552500Y-8615000D02*
X16607500Y-8560000D01*
X16552500Y-8505000D01*
X16497500Y-8560000D01*
X16552500Y-8615000D01*
D12*
X16517500Y-8615000D02*
X16587500Y-8615000D01*
X16587500Y-8505000D02*
G75*
G02*
X16587500Y-8615000I0J-55000D01*
G01*
X16587500Y-8505000D02*
X16517500Y-8505000D01*
X16517500Y-8505000D02*
G75*
G03*
X16517500Y-8615000I0J-55000D01*
G01*
D13*
X16725000Y-9970000D02*
X16780000Y-9915000D01*
X16725000Y-9860000D01*
X16670000Y-9915000D01*
X16725000Y-9970000D01*
X16725000Y-10420000D02*
X16780000Y-10365000D01*
X16725000Y-10310000D01*
X16670000Y-10365000D01*
X16725000Y-10420000D01*
X16890003Y-9205002D02*
X16945003Y-9150002D01*
X16890003Y-9095002D01*
X16835003Y-9150002D01*
X16890003Y-9205002D01*
X16890003Y-9655002D02*
X16945003Y-9600002D01*
X16890003Y-9545002D01*
X16835003Y-9600002D01*
X16890003Y-9655002D01*
X17375000Y-9970000D02*
X17430000Y-9915000D01*
X17375000Y-9860000D01*
X17320000Y-9915000D01*
X17375000Y-9970000D01*
X17375000Y-10420000D02*
X17430000Y-10365000D01*
X17375000Y-10310000D01*
X17320000Y-10365000D01*
X17375000Y-10420000D01*
D11*
X15698226Y-11158967D02*
X15698226Y-10958967D01*
X15698226Y-10958967D02*
X15745845Y-10958967D01*
X15745845Y-10958967D02*
X15774416Y-10968491D01*
X15774416Y-10968491D02*
X15793464Y-10987539D01*
X15793464Y-10987539D02*
X15802988Y-11006586D01*
X15802988Y-11006586D02*
X15812512Y-11044682D01*
X15812512Y-11044682D02*
X15812512Y-11073253D01*
X15812512Y-11073253D02*
X15802988Y-11111348D01*
X15802988Y-11111348D02*
X15793464Y-11130396D01*
X15793464Y-11130396D02*
X15774416Y-11149444D01*
X15774416Y-11149444D02*
X15745845Y-11158967D01*
X15745845Y-11158967D02*
X15698226Y-11158967D01*
X15898226Y-11158967D02*
X15898226Y-11025634D01*
X15898226Y-11063729D02*
X15907750Y-11044682D01*
X15907750Y-11044682D02*
X15917273Y-11035158D01*
X15917273Y-11035158D02*
X15936321Y-11025634D01*
X15936321Y-11025634D02*
X15955369Y-11025634D01*
X16022035Y-11158967D02*
X16022035Y-11025634D01*
X16022035Y-10958967D02*
X16012512Y-10968491D01*
X16012512Y-10968491D02*
X16022035Y-10978015D01*
X16022035Y-10978015D02*
X16031559Y-10968491D01*
X16031559Y-10968491D02*
X16022035Y-10958967D01*
X16022035Y-10958967D02*
X16022035Y-10978015D01*
X16145845Y-11158967D02*
X16126797Y-11149444D01*
X16126797Y-11149444D02*
X16117273Y-11130396D01*
X16117273Y-11130396D02*
X16117273Y-10958967D01*
X16250607Y-11158967D02*
X16231559Y-11149444D01*
X16231559Y-11149444D02*
X16222035Y-11130396D01*
X16222035Y-11130396D02*
X16222035Y-10958967D01*
X16479178Y-11158967D02*
X16479178Y-10958967D01*
X16479178Y-10958967D02*
X16545845Y-11101825D01*
X16545845Y-11101825D02*
X16612512Y-10958967D01*
X16612512Y-10958967D02*
X16612512Y-11158967D01*
X16793464Y-11158967D02*
X16793464Y-11054206D01*
X16793464Y-11054206D02*
X16783940Y-11035158D01*
X16783940Y-11035158D02*
X16764893Y-11025634D01*
X16764893Y-11025634D02*
X16726797Y-11025634D01*
X16726797Y-11025634D02*
X16707750Y-11035158D01*
X16793464Y-11149444D02*
X16774416Y-11158967D01*
X16774416Y-11158967D02*
X16726797Y-11158967D01*
X16726797Y-11158967D02*
X16707750Y-11149444D01*
X16707750Y-11149444D02*
X16698226Y-11130396D01*
X16698226Y-11130396D02*
X16698226Y-11111348D01*
X16698226Y-11111348D02*
X16707750Y-11092301D01*
X16707750Y-11092301D02*
X16726797Y-11082777D01*
X16726797Y-11082777D02*
X16774416Y-11082777D01*
X16774416Y-11082777D02*
X16793464Y-11073253D01*
X16888702Y-11025634D02*
X16888702Y-11225634D01*
X16888702Y-11035158D02*
X16907750Y-11025634D01*
X16907750Y-11025634D02*
X16945845Y-11025634D01*
X16945845Y-11025634D02*
X16964893Y-11035158D01*
X16964893Y-11035158D02*
X16974416Y-11044682D01*
X16974416Y-11044682D02*
X16983940Y-11063729D01*
X16983940Y-11063729D02*
X16983940Y-11120872D01*
X16983940Y-11120872D02*
X16974416Y-11139920D01*
X16974416Y-11139920D02*
X16964893Y-11149444D01*
X16964893Y-11149444D02*
X16945845Y-11158967D01*
X16945845Y-11158967D02*
X16907750Y-11158967D01*
X16907750Y-11158967D02*
X16888702Y-11149444D01*
X17069655Y-11139920D02*
X17079178Y-11149444D01*
X17079178Y-11149444D02*
X17069655Y-11158967D01*
X17069655Y-11158967D02*
X17060131Y-11149444D01*
X17060131Y-11149444D02*
X17069655Y-11139920D01*
X17069655Y-11139920D02*
X17069655Y-11158967D01*
X17069655Y-11035158D02*
X17079178Y-11044682D01*
X17079178Y-11044682D02*
X17069655Y-11054206D01*
X17069655Y-11054206D02*
X17060131Y-11044682D01*
X17060131Y-11044682D02*
X17069655Y-11035158D01*
X17069655Y-11035158D02*
X17069655Y-11054206D01*
D12*
X15407449Y-11472484D02*
X15437449Y-11502484D01*
X15437449Y-11472484D02*
X15407449Y-11502484D01*
D11*
X15736321Y-11378967D02*
X15755369Y-11378967D01*
X15755369Y-11378967D02*
X15774416Y-11388491D01*
X15774416Y-11388491D02*
X15783940Y-11398015D01*
X15783940Y-11398015D02*
X15793464Y-11417063D01*
X15793464Y-11417063D02*
X15802988Y-11455158D01*
X15802988Y-11455158D02*
X15802988Y-11502777D01*
X15802988Y-11502777D02*
X15793464Y-11540872D01*
X15793464Y-11540872D02*
X15783940Y-11559920D01*
X15783940Y-11559920D02*
X15774416Y-11569444D01*
X15774416Y-11569444D02*
X15755369Y-11578967D01*
X15755369Y-11578967D02*
X15736321Y-11578967D01*
X15736321Y-11578967D02*
X15717273Y-11569444D01*
X15717273Y-11569444D02*
X15707750Y-11559920D01*
X15707750Y-11559920D02*
X15698226Y-11540872D01*
X15698226Y-11540872D02*
X15688702Y-11502777D01*
X15688702Y-11502777D02*
X15688702Y-11455158D01*
X15688702Y-11455158D02*
X15698226Y-11417063D01*
X15698226Y-11417063D02*
X15707750Y-11398015D01*
X15707750Y-11398015D02*
X15717273Y-11388491D01*
X15717273Y-11388491D02*
X15736321Y-11378967D01*
X15888702Y-11559920D02*
X15898226Y-11569444D01*
X15898226Y-11569444D02*
X15888702Y-11578967D01*
X15888702Y-11578967D02*
X15879178Y-11569444D01*
X15879178Y-11569444D02*
X15888702Y-11559920D01*
X15888702Y-11559920D02*
X15888702Y-11578967D01*
X15964893Y-11378967D02*
X16088702Y-11378967D01*
X16088702Y-11378967D02*
X16022035Y-11455158D01*
X16022035Y-11455158D02*
X16050607Y-11455158D01*
X16050607Y-11455158D02*
X16069654Y-11464682D01*
X16069654Y-11464682D02*
X16079178Y-11474205D01*
X16079178Y-11474205D02*
X16088702Y-11493253D01*
X16088702Y-11493253D02*
X16088702Y-11540872D01*
X16088702Y-11540872D02*
X16079178Y-11559920D01*
X16079178Y-11559920D02*
X16069654Y-11569444D01*
X16069654Y-11569444D02*
X16050607Y-11578967D01*
X16050607Y-11578967D02*
X15993464Y-11578967D01*
X15993464Y-11578967D02*
X15974416Y-11569444D01*
X15974416Y-11569444D02*
X15964893Y-11559920D01*
X16212512Y-11378967D02*
X16231559Y-11378967D01*
X16231559Y-11378967D02*
X16250607Y-11388491D01*
X16250607Y-11388491D02*
X16260131Y-11398015D01*
X16260131Y-11398015D02*
X16269654Y-11417063D01*
X16269654Y-11417063D02*
X16279178Y-11455158D01*
X16279178Y-11455158D02*
X16279178Y-11502777D01*
X16279178Y-11502777D02*
X16269654Y-11540872D01*
X16269654Y-11540872D02*
X16260131Y-11559920D01*
X16260131Y-11559920D02*
X16250607Y-11569444D01*
X16250607Y-11569444D02*
X16231559Y-11578967D01*
X16231559Y-11578967D02*
X16212512Y-11578967D01*
X16212512Y-11578967D02*
X16193464Y-11569444D01*
X16193464Y-11569444D02*
X16183940Y-11559920D01*
X16183940Y-11559920D02*
X16174416Y-11540872D01*
X16174416Y-11540872D02*
X16164893Y-11502777D01*
X16164893Y-11502777D02*
X16164893Y-11455158D01*
X16164893Y-11455158D02*
X16174416Y-11417063D01*
X16174416Y-11417063D02*
X16183940Y-11398015D01*
X16183940Y-11398015D02*
X16193464Y-11388491D01*
X16193464Y-11388491D02*
X16212512Y-11378967D01*
X16402988Y-11378967D02*
X16422035Y-11378967D01*
X16422035Y-11378967D02*
X16441083Y-11388491D01*
X16441083Y-11388491D02*
X16450607Y-11398015D01*
X16450607Y-11398015D02*
X16460131Y-11417063D01*
X16460131Y-11417063D02*
X16469654Y-11455158D01*
X16469654Y-11455158D02*
X16469654Y-11502777D01*
X16469654Y-11502777D02*
X16460131Y-11540872D01*
X16460131Y-11540872D02*
X16450607Y-11559920D01*
X16450607Y-11559920D02*
X16441083Y-11569444D01*
X16441083Y-11569444D02*
X16422035Y-11578967D01*
X16422035Y-11578967D02*
X16402988Y-11578967D01*
X16402988Y-11578967D02*
X16383940Y-11569444D01*
X16383940Y-11569444D02*
X16374416Y-11559920D01*
X16374416Y-11559920D02*
X16364893Y-11540872D01*
X16364893Y-11540872D02*
X16355369Y-11502777D01*
X16355369Y-11502777D02*
X16355369Y-11455158D01*
X16355369Y-11455158D02*
X16364893Y-11417063D01*
X16364893Y-11417063D02*
X16374416Y-11398015D01*
X16374416Y-11398015D02*
X16383940Y-11388491D01*
X16383940Y-11388491D02*
X16402988Y-11378967D01*
X16555369Y-11578967D02*
X16555369Y-11445634D01*
X16555369Y-11464682D02*
X16564893Y-11455158D01*
X16564893Y-11455158D02*
X16583940Y-11445634D01*
X16583940Y-11445634D02*
X16612512Y-11445634D01*
X16612512Y-11445634D02*
X16631559Y-11455158D01*
X16631559Y-11455158D02*
X16641083Y-11474205D01*
X16641083Y-11474205D02*
X16641083Y-11578967D01*
X16641083Y-11474205D02*
X16650607Y-11455158D01*
X16650607Y-11455158D02*
X16669654Y-11445634D01*
X16669654Y-11445634D02*
X16698226Y-11445634D01*
X16698226Y-11445634D02*
X16717274Y-11455158D01*
X16717274Y-11455158D02*
X16726797Y-11474205D01*
X16726797Y-11474205D02*
X16726797Y-11578967D01*
X16822036Y-11578967D02*
X16822036Y-11445634D01*
X16822036Y-11464682D02*
X16831559Y-11455158D01*
X16831559Y-11455158D02*
X16850607Y-11445634D01*
X16850607Y-11445634D02*
X16879178Y-11445634D01*
X16879178Y-11445634D02*
X16898226Y-11455158D01*
X16898226Y-11455158D02*
X16907750Y-11474205D01*
X16907750Y-11474205D02*
X16907750Y-11578967D01*
X16907750Y-11474205D02*
X16917274Y-11455158D01*
X16917274Y-11455158D02*
X16936321Y-11445634D01*
X16936321Y-11445634D02*
X16964893Y-11445634D01*
X16964893Y-11445634D02*
X16983940Y-11455158D01*
X16983940Y-11455158D02*
X16993464Y-11474205D01*
X16993464Y-11474205D02*
X16993464Y-11578967D01*
X17383940Y-11369444D02*
X17212512Y-11626586D01*
X17641083Y-11378967D02*
X17660131Y-11378967D01*
X17660131Y-11378967D02*
X17679179Y-11388491D01*
X17679179Y-11388491D02*
X17688702Y-11398015D01*
X17688702Y-11398015D02*
X17698226Y-11417063D01*
X17698226Y-11417063D02*
X17707750Y-11455158D01*
X17707750Y-11455158D02*
X17707750Y-11502777D01*
X17707750Y-11502777D02*
X17698226Y-11540872D01*
X17698226Y-11540872D02*
X17688702Y-11559920D01*
X17688702Y-11559920D02*
X17679179Y-11569444D01*
X17679179Y-11569444D02*
X17660131Y-11578967D01*
X17660131Y-11578967D02*
X17641083Y-11578967D01*
X17641083Y-11578967D02*
X17622036Y-11569444D01*
X17622036Y-11569444D02*
X17612512Y-11559920D01*
X17612512Y-11559920D02*
X17602988Y-11540872D01*
X17602988Y-11540872D02*
X17593464Y-11502777D01*
X17593464Y-11502777D02*
X17593464Y-11455158D01*
X17593464Y-11455158D02*
X17602988Y-11417063D01*
X17602988Y-11417063D02*
X17612512Y-11398015D01*
X17612512Y-11398015D02*
X17622036Y-11388491D01*
X17622036Y-11388491D02*
X17641083Y-11378967D01*
X17793464Y-11559920D02*
X17802988Y-11569444D01*
X17802988Y-11569444D02*
X17793464Y-11578967D01*
X17793464Y-11578967D02*
X17783940Y-11569444D01*
X17783940Y-11569444D02*
X17793464Y-11559920D01*
X17793464Y-11559920D02*
X17793464Y-11578967D01*
X17926798Y-11378967D02*
X17945845Y-11378967D01*
X17945845Y-11378967D02*
X17964893Y-11388491D01*
X17964893Y-11388491D02*
X17974417Y-11398015D01*
X17974417Y-11398015D02*
X17983940Y-11417063D01*
X17983940Y-11417063D02*
X17993464Y-11455158D01*
X17993464Y-11455158D02*
X17993464Y-11502777D01*
X17993464Y-11502777D02*
X17983940Y-11540872D01*
X17983940Y-11540872D02*
X17974417Y-11559920D01*
X17974417Y-11559920D02*
X17964893Y-11569444D01*
X17964893Y-11569444D02*
X17945845Y-11578967D01*
X17945845Y-11578967D02*
X17926798Y-11578967D01*
X17926798Y-11578967D02*
X17907750Y-11569444D01*
X17907750Y-11569444D02*
X17898226Y-11559920D01*
X17898226Y-11559920D02*
X17888702Y-11540872D01*
X17888702Y-11540872D02*
X17879179Y-11502777D01*
X17879179Y-11502777D02*
X17879179Y-11455158D01*
X17879179Y-11455158D02*
X17888702Y-11417063D01*
X17888702Y-11417063D02*
X17898226Y-11398015D01*
X17898226Y-11398015D02*
X17907750Y-11388491D01*
X17907750Y-11388491D02*
X17926798Y-11378967D01*
X18183940Y-11578967D02*
X18069655Y-11578967D01*
X18126798Y-11578967D02*
X18126798Y-11378967D01*
X18126798Y-11378967D02*
X18107750Y-11407539D01*
X18107750Y-11407539D02*
X18088702Y-11426586D01*
X18088702Y-11426586D02*
X18069655Y-11436110D01*
X18374417Y-11578967D02*
X18260131Y-11578967D01*
X18317274Y-11578967D02*
X18317274Y-11378967D01*
X18317274Y-11378967D02*
X18298226Y-11407539D01*
X18298226Y-11407539D02*
X18279179Y-11426586D01*
X18279179Y-11426586D02*
X18260131Y-11436110D01*
X18488702Y-11464682D02*
X18469655Y-11455158D01*
X18469655Y-11455158D02*
X18460131Y-11445634D01*
X18460131Y-11445634D02*
X18450607Y-11426586D01*
X18450607Y-11426586D02*
X18450607Y-11417063D01*
X18450607Y-11417063D02*
X18460131Y-11398015D01*
X18460131Y-11398015D02*
X18469655Y-11388491D01*
X18469655Y-11388491D02*
X18488702Y-11378967D01*
X18488702Y-11378967D02*
X18526798Y-11378967D01*
X18526798Y-11378967D02*
X18545845Y-11388491D01*
X18545845Y-11388491D02*
X18555369Y-11398015D01*
X18555369Y-11398015D02*
X18564893Y-11417063D01*
X18564893Y-11417063D02*
X18564893Y-11426586D01*
X18564893Y-11426586D02*
X18555369Y-11445634D01*
X18555369Y-11445634D02*
X18545845Y-11455158D01*
X18545845Y-11455158D02*
X18526798Y-11464682D01*
X18526798Y-11464682D02*
X18488702Y-11464682D01*
X18488702Y-11464682D02*
X18469655Y-11474205D01*
X18469655Y-11474205D02*
X18460131Y-11483729D01*
X18460131Y-11483729D02*
X18450607Y-11502777D01*
X18450607Y-11502777D02*
X18450607Y-11540872D01*
X18450607Y-11540872D02*
X18460131Y-11559920D01*
X18460131Y-11559920D02*
X18469655Y-11569444D01*
X18469655Y-11569444D02*
X18488702Y-11578967D01*
X18488702Y-11578967D02*
X18526798Y-11578967D01*
X18526798Y-11578967D02*
X18545845Y-11569444D01*
X18545845Y-11569444D02*
X18555369Y-11559920D01*
X18555369Y-11559920D02*
X18564893Y-11540872D01*
X18564893Y-11540872D02*
X18564893Y-11502777D01*
X18564893Y-11502777D02*
X18555369Y-11483729D01*
X18555369Y-11483729D02*
X18545845Y-11474205D01*
X18545845Y-11474205D02*
X18526798Y-11464682D01*
X18641083Y-11378967D02*
X18641083Y-11417063D01*
X18717274Y-11378967D02*
X18717274Y-11417063D01*
X19012512Y-11655158D02*
X19002988Y-11645634D01*
X19002988Y-11645634D02*
X18983941Y-11617063D01*
X18983941Y-11617063D02*
X18974417Y-11598015D01*
X18974417Y-11598015D02*
X18964893Y-11569444D01*
X18964893Y-11569444D02*
X18955369Y-11521824D01*
X18955369Y-11521824D02*
X18955369Y-11483729D01*
X18955369Y-11483729D02*
X18964893Y-11436110D01*
X18964893Y-11436110D02*
X18974417Y-11407539D01*
X18974417Y-11407539D02*
X18983941Y-11388491D01*
X18983941Y-11388491D02*
X19002988Y-11359920D01*
X19002988Y-11359920D02*
X19012512Y-11350396D01*
X19174417Y-11445634D02*
X19174417Y-11578967D01*
X19126798Y-11369444D02*
X19079179Y-11512301D01*
X19079179Y-11512301D02*
X19202988Y-11512301D01*
X19431560Y-11578967D02*
X19431560Y-11378967D01*
X19517274Y-11578967D02*
X19517274Y-11474205D01*
X19517274Y-11474205D02*
X19507750Y-11455158D01*
X19507750Y-11455158D02*
X19488703Y-11445634D01*
X19488703Y-11445634D02*
X19460131Y-11445634D01*
X19460131Y-11445634D02*
X19441083Y-11455158D01*
X19441083Y-11455158D02*
X19431560Y-11464682D01*
X19641083Y-11578967D02*
X19622036Y-11569444D01*
X19622036Y-11569444D02*
X19612512Y-11559920D01*
X19612512Y-11559920D02*
X19602988Y-11540872D01*
X19602988Y-11540872D02*
X19602988Y-11483729D01*
X19602988Y-11483729D02*
X19612512Y-11464682D01*
X19612512Y-11464682D02*
X19622036Y-11455158D01*
X19622036Y-11455158D02*
X19641083Y-11445634D01*
X19641083Y-11445634D02*
X19669655Y-11445634D01*
X19669655Y-11445634D02*
X19688703Y-11455158D01*
X19688703Y-11455158D02*
X19698226Y-11464682D01*
X19698226Y-11464682D02*
X19707750Y-11483729D01*
X19707750Y-11483729D02*
X19707750Y-11540872D01*
X19707750Y-11540872D02*
X19698226Y-11559920D01*
X19698226Y-11559920D02*
X19688703Y-11569444D01*
X19688703Y-11569444D02*
X19669655Y-11578967D01*
X19669655Y-11578967D02*
X19641083Y-11578967D01*
X19822036Y-11578967D02*
X19802988Y-11569444D01*
X19802988Y-11569444D02*
X19793464Y-11550396D01*
X19793464Y-11550396D02*
X19793464Y-11378967D01*
X19974417Y-11569444D02*
X19955369Y-11578967D01*
X19955369Y-11578967D02*
X19917274Y-11578967D01*
X19917274Y-11578967D02*
X19898226Y-11569444D01*
X19898226Y-11569444D02*
X19888703Y-11550396D01*
X19888703Y-11550396D02*
X19888703Y-11474205D01*
X19888703Y-11474205D02*
X19898226Y-11455158D01*
X19898226Y-11455158D02*
X19917274Y-11445634D01*
X19917274Y-11445634D02*
X19955369Y-11445634D01*
X19955369Y-11445634D02*
X19974417Y-11455158D01*
X19974417Y-11455158D02*
X19983941Y-11474205D01*
X19983941Y-11474205D02*
X19983941Y-11493253D01*
X19983941Y-11493253D02*
X19888703Y-11512301D01*
X20060131Y-11569444D02*
X20079179Y-11578967D01*
X20079179Y-11578967D02*
X20117274Y-11578967D01*
X20117274Y-11578967D02*
X20136322Y-11569444D01*
X20136322Y-11569444D02*
X20145845Y-11550396D01*
X20145845Y-11550396D02*
X20145845Y-11540872D01*
X20145845Y-11540872D02*
X20136322Y-11521824D01*
X20136322Y-11521824D02*
X20117274Y-11512301D01*
X20117274Y-11512301D02*
X20088703Y-11512301D01*
X20088703Y-11512301D02*
X20069655Y-11502777D01*
X20069655Y-11502777D02*
X20060131Y-11483729D01*
X20060131Y-11483729D02*
X20060131Y-11474205D01*
X20060131Y-11474205D02*
X20069655Y-11455158D01*
X20069655Y-11455158D02*
X20088703Y-11445634D01*
X20088703Y-11445634D02*
X20117274Y-11445634D01*
X20117274Y-11445634D02*
X20136322Y-11455158D01*
X20212512Y-11655158D02*
X20222036Y-11645634D01*
X20222036Y-11645634D02*
X20241084Y-11617063D01*
X20241084Y-11617063D02*
X20250607Y-11598015D01*
X20250607Y-11598015D02*
X20260131Y-11569444D01*
X20260131Y-11569444D02*
X20269655Y-11521824D01*
X20269655Y-11521824D02*
X20269655Y-11483729D01*
X20269655Y-11483729D02*
X20260131Y-11436110D01*
X20260131Y-11436110D02*
X20250607Y-11407539D01*
X20250607Y-11407539D02*
X20241084Y-11388491D01*
X20241084Y-11388491D02*
X20222036Y-11359920D01*
X20222036Y-11359920D02*
X20212512Y-11350396D01*
D12*
X15437449Y-11751484D02*
G75*
G02*
X15387449Y-11751484I-25000J0D01*
G01*
X15387449Y-11751484D02*
G75*
G02*
X15437449Y-11751484I25000J0D01*
G01*
D11*
X15736321Y-11642967D02*
X15755369Y-11642967D01*
X15755369Y-11642967D02*
X15774416Y-11652491D01*
X15774416Y-11652491D02*
X15783940Y-11662015D01*
X15783940Y-11662015D02*
X15793464Y-11681063D01*
X15793464Y-11681063D02*
X15802988Y-11719158D01*
X15802988Y-11719158D02*
X15802988Y-11766777D01*
X15802988Y-11766777D02*
X15793464Y-11804872D01*
X15793464Y-11804872D02*
X15783940Y-11823920D01*
X15783940Y-11823920D02*
X15774416Y-11833444D01*
X15774416Y-11833444D02*
X15755369Y-11842967D01*
X15755369Y-11842967D02*
X15736321Y-11842967D01*
X15736321Y-11842967D02*
X15717273Y-11833444D01*
X15717273Y-11833444D02*
X15707750Y-11823920D01*
X15707750Y-11823920D02*
X15698226Y-11804872D01*
X15698226Y-11804872D02*
X15688702Y-11766777D01*
X15688702Y-11766777D02*
X15688702Y-11719158D01*
X15688702Y-11719158D02*
X15698226Y-11681063D01*
X15698226Y-11681063D02*
X15707750Y-11662015D01*
X15707750Y-11662015D02*
X15717273Y-11652491D01*
X15717273Y-11652491D02*
X15736321Y-11642967D01*
X15888702Y-11823920D02*
X15898226Y-11833444D01*
X15898226Y-11833444D02*
X15888702Y-11842967D01*
X15888702Y-11842967D02*
X15879178Y-11833444D01*
X15879178Y-11833444D02*
X15888702Y-11823920D01*
X15888702Y-11823920D02*
X15888702Y-11842967D01*
X16079178Y-11642967D02*
X15983940Y-11642967D01*
X15983940Y-11642967D02*
X15974416Y-11738205D01*
X15974416Y-11738205D02*
X15983940Y-11728682D01*
X15983940Y-11728682D02*
X16002988Y-11719158D01*
X16002988Y-11719158D02*
X16050607Y-11719158D01*
X16050607Y-11719158D02*
X16069654Y-11728682D01*
X16069654Y-11728682D02*
X16079178Y-11738205D01*
X16079178Y-11738205D02*
X16088702Y-11757253D01*
X16088702Y-11757253D02*
X16088702Y-11804872D01*
X16088702Y-11804872D02*
X16079178Y-11823920D01*
X16079178Y-11823920D02*
X16069654Y-11833444D01*
X16069654Y-11833444D02*
X16050607Y-11842967D01*
X16050607Y-11842967D02*
X16002988Y-11842967D01*
X16002988Y-11842967D02*
X15983940Y-11833444D01*
X15983940Y-11833444D02*
X15974416Y-11823920D01*
X16212512Y-11642967D02*
X16231559Y-11642967D01*
X16231559Y-11642967D02*
X16250607Y-11652491D01*
X16250607Y-11652491D02*
X16260131Y-11662015D01*
X16260131Y-11662015D02*
X16269654Y-11681063D01*
X16269654Y-11681063D02*
X16279178Y-11719158D01*
X16279178Y-11719158D02*
X16279178Y-11766777D01*
X16279178Y-11766777D02*
X16269654Y-11804872D01*
X16269654Y-11804872D02*
X16260131Y-11823920D01*
X16260131Y-11823920D02*
X16250607Y-11833444D01*
X16250607Y-11833444D02*
X16231559Y-11842967D01*
X16231559Y-11842967D02*
X16212512Y-11842967D01*
X16212512Y-11842967D02*
X16193464Y-11833444D01*
X16193464Y-11833444D02*
X16183940Y-11823920D01*
X16183940Y-11823920D02*
X16174416Y-11804872D01*
X16174416Y-11804872D02*
X16164893Y-11766777D01*
X16164893Y-11766777D02*
X16164893Y-11719158D01*
X16164893Y-11719158D02*
X16174416Y-11681063D01*
X16174416Y-11681063D02*
X16183940Y-11662015D01*
X16183940Y-11662015D02*
X16193464Y-11652491D01*
X16193464Y-11652491D02*
X16212512Y-11642967D01*
X16402988Y-11642967D02*
X16422035Y-11642967D01*
X16422035Y-11642967D02*
X16441083Y-11652491D01*
X16441083Y-11652491D02*
X16450607Y-11662015D01*
X16450607Y-11662015D02*
X16460131Y-11681063D01*
X16460131Y-11681063D02*
X16469654Y-11719158D01*
X16469654Y-11719158D02*
X16469654Y-11766777D01*
X16469654Y-11766777D02*
X16460131Y-11804872D01*
X16460131Y-11804872D02*
X16450607Y-11823920D01*
X16450607Y-11823920D02*
X16441083Y-11833444D01*
X16441083Y-11833444D02*
X16422035Y-11842967D01*
X16422035Y-11842967D02*
X16402988Y-11842967D01*
X16402988Y-11842967D02*
X16383940Y-11833444D01*
X16383940Y-11833444D02*
X16374416Y-11823920D01*
X16374416Y-11823920D02*
X16364893Y-11804872D01*
X16364893Y-11804872D02*
X16355369Y-11766777D01*
X16355369Y-11766777D02*
X16355369Y-11719158D01*
X16355369Y-11719158D02*
X16364893Y-11681063D01*
X16364893Y-11681063D02*
X16374416Y-11662015D01*
X16374416Y-11662015D02*
X16383940Y-11652491D01*
X16383940Y-11652491D02*
X16402988Y-11642967D01*
X16555369Y-11842967D02*
X16555369Y-11709634D01*
X16555369Y-11728682D02*
X16564893Y-11719158D01*
X16564893Y-11719158D02*
X16583940Y-11709634D01*
X16583940Y-11709634D02*
X16612512Y-11709634D01*
X16612512Y-11709634D02*
X16631559Y-11719158D01*
X16631559Y-11719158D02*
X16641083Y-11738205D01*
X16641083Y-11738205D02*
X16641083Y-11842967D01*
X16641083Y-11738205D02*
X16650607Y-11719158D01*
X16650607Y-11719158D02*
X16669654Y-11709634D01*
X16669654Y-11709634D02*
X16698226Y-11709634D01*
X16698226Y-11709634D02*
X16717274Y-11719158D01*
X16717274Y-11719158D02*
X16726797Y-11738205D01*
X16726797Y-11738205D02*
X16726797Y-11842967D01*
X16822036Y-11842967D02*
X16822036Y-11709634D01*
X16822036Y-11728682D02*
X16831559Y-11719158D01*
X16831559Y-11719158D02*
X16850607Y-11709634D01*
X16850607Y-11709634D02*
X16879178Y-11709634D01*
X16879178Y-11709634D02*
X16898226Y-11719158D01*
X16898226Y-11719158D02*
X16907750Y-11738205D01*
X16907750Y-11738205D02*
X16907750Y-11842967D01*
X16907750Y-11738205D02*
X16917274Y-11719158D01*
X16917274Y-11719158D02*
X16936321Y-11709634D01*
X16936321Y-11709634D02*
X16964893Y-11709634D01*
X16964893Y-11709634D02*
X16983940Y-11719158D01*
X16983940Y-11719158D02*
X16993464Y-11738205D01*
X16993464Y-11738205D02*
X16993464Y-11842967D01*
X17383940Y-11633444D02*
X17212512Y-11890586D01*
X17641083Y-11642967D02*
X17660131Y-11642967D01*
X17660131Y-11642967D02*
X17679179Y-11652491D01*
X17679179Y-11652491D02*
X17688702Y-11662015D01*
X17688702Y-11662015D02*
X17698226Y-11681063D01*
X17698226Y-11681063D02*
X17707750Y-11719158D01*
X17707750Y-11719158D02*
X17707750Y-11766777D01*
X17707750Y-11766777D02*
X17698226Y-11804872D01*
X17698226Y-11804872D02*
X17688702Y-11823920D01*
X17688702Y-11823920D02*
X17679179Y-11833444D01*
X17679179Y-11833444D02*
X17660131Y-11842967D01*
X17660131Y-11842967D02*
X17641083Y-11842967D01*
X17641083Y-11842967D02*
X17622036Y-11833444D01*
X17622036Y-11833444D02*
X17612512Y-11823920D01*
X17612512Y-11823920D02*
X17602988Y-11804872D01*
X17602988Y-11804872D02*
X17593464Y-11766777D01*
X17593464Y-11766777D02*
X17593464Y-11719158D01*
X17593464Y-11719158D02*
X17602988Y-11681063D01*
X17602988Y-11681063D02*
X17612512Y-11662015D01*
X17612512Y-11662015D02*
X17622036Y-11652491D01*
X17622036Y-11652491D02*
X17641083Y-11642967D01*
X17793464Y-11823920D02*
X17802988Y-11833444D01*
X17802988Y-11833444D02*
X17793464Y-11842967D01*
X17793464Y-11842967D02*
X17783940Y-11833444D01*
X17783940Y-11833444D02*
X17793464Y-11823920D01*
X17793464Y-11823920D02*
X17793464Y-11842967D01*
X17926798Y-11642967D02*
X17945845Y-11642967D01*
X17945845Y-11642967D02*
X17964893Y-11652491D01*
X17964893Y-11652491D02*
X17974417Y-11662015D01*
X17974417Y-11662015D02*
X17983940Y-11681063D01*
X17983940Y-11681063D02*
X17993464Y-11719158D01*
X17993464Y-11719158D02*
X17993464Y-11766777D01*
X17993464Y-11766777D02*
X17983940Y-11804872D01*
X17983940Y-11804872D02*
X17974417Y-11823920D01*
X17974417Y-11823920D02*
X17964893Y-11833444D01*
X17964893Y-11833444D02*
X17945845Y-11842967D01*
X17945845Y-11842967D02*
X17926798Y-11842967D01*
X17926798Y-11842967D02*
X17907750Y-11833444D01*
X17907750Y-11833444D02*
X17898226Y-11823920D01*
X17898226Y-11823920D02*
X17888702Y-11804872D01*
X17888702Y-11804872D02*
X17879179Y-11766777D01*
X17879179Y-11766777D02*
X17879179Y-11719158D01*
X17879179Y-11719158D02*
X17888702Y-11681063D01*
X17888702Y-11681063D02*
X17898226Y-11662015D01*
X17898226Y-11662015D02*
X17907750Y-11652491D01*
X17907750Y-11652491D02*
X17926798Y-11642967D01*
X18183940Y-11842967D02*
X18069655Y-11842967D01*
X18126798Y-11842967D02*
X18126798Y-11642967D01*
X18126798Y-11642967D02*
X18107750Y-11671539D01*
X18107750Y-11671539D02*
X18088702Y-11690586D01*
X18088702Y-11690586D02*
X18069655Y-11700110D01*
X18279179Y-11842967D02*
X18317274Y-11842967D01*
X18317274Y-11842967D02*
X18336321Y-11833444D01*
X18336321Y-11833444D02*
X18345845Y-11823920D01*
X18345845Y-11823920D02*
X18364893Y-11795348D01*
X18364893Y-11795348D02*
X18374417Y-11757253D01*
X18374417Y-11757253D02*
X18374417Y-11681063D01*
X18374417Y-11681063D02*
X18364893Y-11662015D01*
X18364893Y-11662015D02*
X18355369Y-11652491D01*
X18355369Y-11652491D02*
X18336321Y-11642967D01*
X18336321Y-11642967D02*
X18298226Y-11642967D01*
X18298226Y-11642967D02*
X18279179Y-11652491D01*
X18279179Y-11652491D02*
X18269655Y-11662015D01*
X18269655Y-11662015D02*
X18260131Y-11681063D01*
X18260131Y-11681063D02*
X18260131Y-11728682D01*
X18260131Y-11728682D02*
X18269655Y-11747729D01*
X18269655Y-11747729D02*
X18279179Y-11757253D01*
X18279179Y-11757253D02*
X18298226Y-11766777D01*
X18298226Y-11766777D02*
X18336321Y-11766777D01*
X18336321Y-11766777D02*
X18355369Y-11757253D01*
X18355369Y-11757253D02*
X18364893Y-11747729D01*
X18364893Y-11747729D02*
X18374417Y-11728682D01*
X18441083Y-11642967D02*
X18574417Y-11642967D01*
X18574417Y-11642967D02*
X18488702Y-11842967D01*
X18641083Y-11642967D02*
X18641083Y-11681063D01*
X18717274Y-11642967D02*
X18717274Y-11681063D01*
X19012512Y-11919158D02*
X19002988Y-11909634D01*
X19002988Y-11909634D02*
X18983941Y-11881063D01*
X18983941Y-11881063D02*
X18974417Y-11862015D01*
X18974417Y-11862015D02*
X18964893Y-11833444D01*
X18964893Y-11833444D02*
X18955369Y-11785824D01*
X18955369Y-11785824D02*
X18955369Y-11747729D01*
X18955369Y-11747729D02*
X18964893Y-11700110D01*
X18964893Y-11700110D02*
X18974417Y-11671539D01*
X18974417Y-11671539D02*
X18983941Y-11652491D01*
X18983941Y-11652491D02*
X19002988Y-11623920D01*
X19002988Y-11623920D02*
X19012512Y-11614396D01*
X19193464Y-11842967D02*
X19079179Y-11842967D01*
X19136321Y-11842967D02*
X19136321Y-11642967D01*
X19136321Y-11642967D02*
X19117274Y-11671539D01*
X19117274Y-11671539D02*
X19098226Y-11690586D01*
X19098226Y-11690586D02*
X19079179Y-11700110D01*
X19431560Y-11842967D02*
X19431560Y-11642967D01*
X19517274Y-11842967D02*
X19517274Y-11738205D01*
X19517274Y-11738205D02*
X19507750Y-11719158D01*
X19507750Y-11719158D02*
X19488703Y-11709634D01*
X19488703Y-11709634D02*
X19460131Y-11709634D01*
X19460131Y-11709634D02*
X19441083Y-11719158D01*
X19441083Y-11719158D02*
X19431560Y-11728682D01*
X19641083Y-11842967D02*
X19622036Y-11833444D01*
X19622036Y-11833444D02*
X19612512Y-11823920D01*
X19612512Y-11823920D02*
X19602988Y-11804872D01*
X19602988Y-11804872D02*
X19602988Y-11747729D01*
X19602988Y-11747729D02*
X19612512Y-11728682D01*
X19612512Y-11728682D02*
X19622036Y-11719158D01*
X19622036Y-11719158D02*
X19641083Y-11709634D01*
X19641083Y-11709634D02*
X19669655Y-11709634D01*
X19669655Y-11709634D02*
X19688703Y-11719158D01*
X19688703Y-11719158D02*
X19698226Y-11728682D01*
X19698226Y-11728682D02*
X19707750Y-11747729D01*
X19707750Y-11747729D02*
X19707750Y-11804872D01*
X19707750Y-11804872D02*
X19698226Y-11823920D01*
X19698226Y-11823920D02*
X19688703Y-11833444D01*
X19688703Y-11833444D02*
X19669655Y-11842967D01*
X19669655Y-11842967D02*
X19641083Y-11842967D01*
X19822036Y-11842967D02*
X19802988Y-11833444D01*
X19802988Y-11833444D02*
X19793464Y-11814396D01*
X19793464Y-11814396D02*
X19793464Y-11642967D01*
X19974417Y-11833444D02*
X19955369Y-11842967D01*
X19955369Y-11842967D02*
X19917274Y-11842967D01*
X19917274Y-11842967D02*
X19898226Y-11833444D01*
X19898226Y-11833444D02*
X19888703Y-11814396D01*
X19888703Y-11814396D02*
X19888703Y-11738205D01*
X19888703Y-11738205D02*
X19898226Y-11719158D01*
X19898226Y-11719158D02*
X19917274Y-11709634D01*
X19917274Y-11709634D02*
X19955369Y-11709634D01*
X19955369Y-11709634D02*
X19974417Y-11719158D01*
X19974417Y-11719158D02*
X19983941Y-11738205D01*
X19983941Y-11738205D02*
X19983941Y-11757253D01*
X19983941Y-11757253D02*
X19888703Y-11776301D01*
X20050607Y-11919158D02*
X20060131Y-11909634D01*
X20060131Y-11909634D02*
X20079179Y-11881063D01*
X20079179Y-11881063D02*
X20088703Y-11862015D01*
X20088703Y-11862015D02*
X20098226Y-11833444D01*
X20098226Y-11833444D02*
X20107750Y-11785824D01*
X20107750Y-11785824D02*
X20107750Y-11747729D01*
X20107750Y-11747729D02*
X20098226Y-11700110D01*
X20098226Y-11700110D02*
X20088703Y-11671539D01*
X20088703Y-11671539D02*
X20079179Y-11652491D01*
X20079179Y-11652491D02*
X20060131Y-11623920D01*
X20060131Y-11623920D02*
X20050607Y-11614396D01*
D12*
X15387449Y-11965484D02*
X15387449Y-12065484D01*
X15337449Y-12015484D02*
X15437449Y-12015484D01*
D11*
X15802988Y-12106967D02*
X15688702Y-12106967D01*
X15745845Y-12106967D02*
X15745845Y-11906967D01*
X15745845Y-11906967D02*
X15726797Y-11935539D01*
X15726797Y-11935539D02*
X15707750Y-11954586D01*
X15707750Y-11954586D02*
X15688702Y-11964110D01*
X15888702Y-12087920D02*
X15898226Y-12097444D01*
X15898226Y-12097444D02*
X15888702Y-12106967D01*
X15888702Y-12106967D02*
X15879178Y-12097444D01*
X15879178Y-12097444D02*
X15888702Y-12087920D01*
X15888702Y-12087920D02*
X15888702Y-12106967D01*
X16022035Y-11906967D02*
X16041083Y-11906967D01*
X16041083Y-11906967D02*
X16060131Y-11916491D01*
X16060131Y-11916491D02*
X16069654Y-11926015D01*
X16069654Y-11926015D02*
X16079178Y-11945063D01*
X16079178Y-11945063D02*
X16088702Y-11983158D01*
X16088702Y-11983158D02*
X16088702Y-12030777D01*
X16088702Y-12030777D02*
X16079178Y-12068872D01*
X16079178Y-12068872D02*
X16069654Y-12087920D01*
X16069654Y-12087920D02*
X16060131Y-12097444D01*
X16060131Y-12097444D02*
X16041083Y-12106967D01*
X16041083Y-12106967D02*
X16022035Y-12106967D01*
X16022035Y-12106967D02*
X16002988Y-12097444D01*
X16002988Y-12097444D02*
X15993464Y-12087920D01*
X15993464Y-12087920D02*
X15983940Y-12068872D01*
X15983940Y-12068872D02*
X15974416Y-12030777D01*
X15974416Y-12030777D02*
X15974416Y-11983158D01*
X15974416Y-11983158D02*
X15983940Y-11945063D01*
X15983940Y-11945063D02*
X15993464Y-11926015D01*
X15993464Y-11926015D02*
X16002988Y-11916491D01*
X16002988Y-11916491D02*
X16022035Y-11906967D01*
X16212512Y-11906967D02*
X16231559Y-11906967D01*
X16231559Y-11906967D02*
X16250607Y-11916491D01*
X16250607Y-11916491D02*
X16260131Y-11926015D01*
X16260131Y-11926015D02*
X16269654Y-11945063D01*
X16269654Y-11945063D02*
X16279178Y-11983158D01*
X16279178Y-11983158D02*
X16279178Y-12030777D01*
X16279178Y-12030777D02*
X16269654Y-12068872D01*
X16269654Y-12068872D02*
X16260131Y-12087920D01*
X16260131Y-12087920D02*
X16250607Y-12097444D01*
X16250607Y-12097444D02*
X16231559Y-12106967D01*
X16231559Y-12106967D02*
X16212512Y-12106967D01*
X16212512Y-12106967D02*
X16193464Y-12097444D01*
X16193464Y-12097444D02*
X16183940Y-12087920D01*
X16183940Y-12087920D02*
X16174416Y-12068872D01*
X16174416Y-12068872D02*
X16164893Y-12030777D01*
X16164893Y-12030777D02*
X16164893Y-11983158D01*
X16164893Y-11983158D02*
X16174416Y-11945063D01*
X16174416Y-11945063D02*
X16183940Y-11926015D01*
X16183940Y-11926015D02*
X16193464Y-11916491D01*
X16193464Y-11916491D02*
X16212512Y-11906967D01*
X16402988Y-11906967D02*
X16422035Y-11906967D01*
X16422035Y-11906967D02*
X16441083Y-11916491D01*
X16441083Y-11916491D02*
X16450607Y-11926015D01*
X16450607Y-11926015D02*
X16460131Y-11945063D01*
X16460131Y-11945063D02*
X16469654Y-11983158D01*
X16469654Y-11983158D02*
X16469654Y-12030777D01*
X16469654Y-12030777D02*
X16460131Y-12068872D01*
X16460131Y-12068872D02*
X16450607Y-12087920D01*
X16450607Y-12087920D02*
X16441083Y-12097444D01*
X16441083Y-12097444D02*
X16422035Y-12106967D01*
X16422035Y-12106967D02*
X16402988Y-12106967D01*
X16402988Y-12106967D02*
X16383940Y-12097444D01*
X16383940Y-12097444D02*
X16374416Y-12087920D01*
X16374416Y-12087920D02*
X16364893Y-12068872D01*
X16364893Y-12068872D02*
X16355369Y-12030777D01*
X16355369Y-12030777D02*
X16355369Y-11983158D01*
X16355369Y-11983158D02*
X16364893Y-11945063D01*
X16364893Y-11945063D02*
X16374416Y-11926015D01*
X16374416Y-11926015D02*
X16383940Y-11916491D01*
X16383940Y-11916491D02*
X16402988Y-11906967D01*
X16555369Y-12106967D02*
X16555369Y-11973634D01*
X16555369Y-11992682D02*
X16564893Y-11983158D01*
X16564893Y-11983158D02*
X16583940Y-11973634D01*
X16583940Y-11973634D02*
X16612512Y-11973634D01*
X16612512Y-11973634D02*
X16631559Y-11983158D01*
X16631559Y-11983158D02*
X16641083Y-12002205D01*
X16641083Y-12002205D02*
X16641083Y-12106967D01*
X16641083Y-12002205D02*
X16650607Y-11983158D01*
X16650607Y-11983158D02*
X16669654Y-11973634D01*
X16669654Y-11973634D02*
X16698226Y-11973634D01*
X16698226Y-11973634D02*
X16717274Y-11983158D01*
X16717274Y-11983158D02*
X16726797Y-12002205D01*
X16726797Y-12002205D02*
X16726797Y-12106967D01*
X16822036Y-12106967D02*
X16822036Y-11973634D01*
X16822036Y-11992682D02*
X16831559Y-11983158D01*
X16831559Y-11983158D02*
X16850607Y-11973634D01*
X16850607Y-11973634D02*
X16879178Y-11973634D01*
X16879178Y-11973634D02*
X16898226Y-11983158D01*
X16898226Y-11983158D02*
X16907750Y-12002205D01*
X16907750Y-12002205D02*
X16907750Y-12106967D01*
X16907750Y-12002205D02*
X16917274Y-11983158D01*
X16917274Y-11983158D02*
X16936321Y-11973634D01*
X16936321Y-11973634D02*
X16964893Y-11973634D01*
X16964893Y-11973634D02*
X16983940Y-11983158D01*
X16983940Y-11983158D02*
X16993464Y-12002205D01*
X16993464Y-12002205D02*
X16993464Y-12106967D01*
X17383940Y-11897444D02*
X17212512Y-12154586D01*
X17641083Y-11906967D02*
X17660131Y-11906967D01*
X17660131Y-11906967D02*
X17679179Y-11916491D01*
X17679179Y-11916491D02*
X17688702Y-11926015D01*
X17688702Y-11926015D02*
X17698226Y-11945063D01*
X17698226Y-11945063D02*
X17707750Y-11983158D01*
X17707750Y-11983158D02*
X17707750Y-12030777D01*
X17707750Y-12030777D02*
X17698226Y-12068872D01*
X17698226Y-12068872D02*
X17688702Y-12087920D01*
X17688702Y-12087920D02*
X17679179Y-12097444D01*
X17679179Y-12097444D02*
X17660131Y-12106967D01*
X17660131Y-12106967D02*
X17641083Y-12106967D01*
X17641083Y-12106967D02*
X17622036Y-12097444D01*
X17622036Y-12097444D02*
X17612512Y-12087920D01*
X17612512Y-12087920D02*
X17602988Y-12068872D01*
X17602988Y-12068872D02*
X17593464Y-12030777D01*
X17593464Y-12030777D02*
X17593464Y-11983158D01*
X17593464Y-11983158D02*
X17602988Y-11945063D01*
X17602988Y-11945063D02*
X17612512Y-11926015D01*
X17612512Y-11926015D02*
X17622036Y-11916491D01*
X17622036Y-11916491D02*
X17641083Y-11906967D01*
X17793464Y-12087920D02*
X17802988Y-12097444D01*
X17802988Y-12097444D02*
X17793464Y-12106967D01*
X17793464Y-12106967D02*
X17783940Y-12097444D01*
X17783940Y-12097444D02*
X17793464Y-12087920D01*
X17793464Y-12087920D02*
X17793464Y-12106967D01*
X17926798Y-11906967D02*
X17945845Y-11906967D01*
X17945845Y-11906967D02*
X17964893Y-11916491D01*
X17964893Y-11916491D02*
X17974417Y-11926015D01*
X17974417Y-11926015D02*
X17983940Y-11945063D01*
X17983940Y-11945063D02*
X17993464Y-11983158D01*
X17993464Y-11983158D02*
X17993464Y-12030777D01*
X17993464Y-12030777D02*
X17983940Y-12068872D01*
X17983940Y-12068872D02*
X17974417Y-12087920D01*
X17974417Y-12087920D02*
X17964893Y-12097444D01*
X17964893Y-12097444D02*
X17945845Y-12106967D01*
X17945845Y-12106967D02*
X17926798Y-12106967D01*
X17926798Y-12106967D02*
X17907750Y-12097444D01*
X17907750Y-12097444D02*
X17898226Y-12087920D01*
X17898226Y-12087920D02*
X17888702Y-12068872D01*
X17888702Y-12068872D02*
X17879179Y-12030777D01*
X17879179Y-12030777D02*
X17879179Y-11983158D01*
X17879179Y-11983158D02*
X17888702Y-11945063D01*
X17888702Y-11945063D02*
X17898226Y-11926015D01*
X17898226Y-11926015D02*
X17907750Y-11916491D01*
X17907750Y-11916491D02*
X17926798Y-11906967D01*
X18060131Y-11906967D02*
X18183940Y-11906967D01*
X18183940Y-11906967D02*
X18117274Y-11983158D01*
X18117274Y-11983158D02*
X18145845Y-11983158D01*
X18145845Y-11983158D02*
X18164893Y-11992682D01*
X18164893Y-11992682D02*
X18174417Y-12002205D01*
X18174417Y-12002205D02*
X18183940Y-12021253D01*
X18183940Y-12021253D02*
X18183940Y-12068872D01*
X18183940Y-12068872D02*
X18174417Y-12087920D01*
X18174417Y-12087920D02*
X18164893Y-12097444D01*
X18164893Y-12097444D02*
X18145845Y-12106967D01*
X18145845Y-12106967D02*
X18088702Y-12106967D01*
X18088702Y-12106967D02*
X18069655Y-12097444D01*
X18069655Y-12097444D02*
X18060131Y-12087920D01*
X18279179Y-12106967D02*
X18317274Y-12106967D01*
X18317274Y-12106967D02*
X18336321Y-12097444D01*
X18336321Y-12097444D02*
X18345845Y-12087920D01*
X18345845Y-12087920D02*
X18364893Y-12059348D01*
X18364893Y-12059348D02*
X18374417Y-12021253D01*
X18374417Y-12021253D02*
X18374417Y-11945063D01*
X18374417Y-11945063D02*
X18364893Y-11926015D01*
X18364893Y-11926015D02*
X18355369Y-11916491D01*
X18355369Y-11916491D02*
X18336321Y-11906967D01*
X18336321Y-11906967D02*
X18298226Y-11906967D01*
X18298226Y-11906967D02*
X18279179Y-11916491D01*
X18279179Y-11916491D02*
X18269655Y-11926015D01*
X18269655Y-11926015D02*
X18260131Y-11945063D01*
X18260131Y-11945063D02*
X18260131Y-11992682D01*
X18260131Y-11992682D02*
X18269655Y-12011729D01*
X18269655Y-12011729D02*
X18279179Y-12021253D01*
X18279179Y-12021253D02*
X18298226Y-12030777D01*
X18298226Y-12030777D02*
X18336321Y-12030777D01*
X18336321Y-12030777D02*
X18355369Y-12021253D01*
X18355369Y-12021253D02*
X18364893Y-12011729D01*
X18364893Y-12011729D02*
X18374417Y-11992682D01*
X18545845Y-11973634D02*
X18545845Y-12106967D01*
X18498226Y-11897444D02*
X18450607Y-12040301D01*
X18450607Y-12040301D02*
X18574417Y-12040301D01*
X18641083Y-11906967D02*
X18641083Y-11945063D01*
X18717274Y-11906967D02*
X18717274Y-11945063D01*
X19012512Y-12183158D02*
X19002988Y-12173634D01*
X19002988Y-12173634D02*
X18983941Y-12145063D01*
X18983941Y-12145063D02*
X18974417Y-12126015D01*
X18974417Y-12126015D02*
X18964893Y-12097444D01*
X18964893Y-12097444D02*
X18955369Y-12049824D01*
X18955369Y-12049824D02*
X18955369Y-12011729D01*
X18955369Y-12011729D02*
X18964893Y-11964110D01*
X18964893Y-11964110D02*
X18974417Y-11935539D01*
X18974417Y-11935539D02*
X18983941Y-11916491D01*
X18983941Y-11916491D02*
X19002988Y-11887920D01*
X19002988Y-11887920D02*
X19012512Y-11878396D01*
X19079179Y-11926015D02*
X19088702Y-11916491D01*
X19088702Y-11916491D02*
X19107750Y-11906967D01*
X19107750Y-11906967D02*
X19155369Y-11906967D01*
X19155369Y-11906967D02*
X19174417Y-11916491D01*
X19174417Y-11916491D02*
X19183941Y-11926015D01*
X19183941Y-11926015D02*
X19193464Y-11945063D01*
X19193464Y-11945063D02*
X19193464Y-11964110D01*
X19193464Y-11964110D02*
X19183941Y-11992682D01*
X19183941Y-11992682D02*
X19069655Y-12106967D01*
X19069655Y-12106967D02*
X19193464Y-12106967D01*
X19431560Y-12106967D02*
X19431560Y-11906967D01*
X19517274Y-12106967D02*
X19517274Y-12002205D01*
X19517274Y-12002205D02*
X19507750Y-11983158D01*
X19507750Y-11983158D02*
X19488703Y-11973634D01*
X19488703Y-11973634D02*
X19460131Y-11973634D01*
X19460131Y-11973634D02*
X19441083Y-11983158D01*
X19441083Y-11983158D02*
X19431560Y-11992682D01*
X19641083Y-12106967D02*
X19622036Y-12097444D01*
X19622036Y-12097444D02*
X19612512Y-12087920D01*
X19612512Y-12087920D02*
X19602988Y-12068872D01*
X19602988Y-12068872D02*
X19602988Y-12011729D01*
X19602988Y-12011729D02*
X19612512Y-11992682D01*
X19612512Y-11992682D02*
X19622036Y-11983158D01*
X19622036Y-11983158D02*
X19641083Y-11973634D01*
X19641083Y-11973634D02*
X19669655Y-11973634D01*
X19669655Y-11973634D02*
X19688703Y-11983158D01*
X19688703Y-11983158D02*
X19698226Y-11992682D01*
X19698226Y-11992682D02*
X19707750Y-12011729D01*
X19707750Y-12011729D02*
X19707750Y-12068872D01*
X19707750Y-12068872D02*
X19698226Y-12087920D01*
X19698226Y-12087920D02*
X19688703Y-12097444D01*
X19688703Y-12097444D02*
X19669655Y-12106967D01*
X19669655Y-12106967D02*
X19641083Y-12106967D01*
X19822036Y-12106967D02*
X19802988Y-12097444D01*
X19802988Y-12097444D02*
X19793464Y-12078396D01*
X19793464Y-12078396D02*
X19793464Y-11906967D01*
X19974417Y-12097444D02*
X19955369Y-12106967D01*
X19955369Y-12106967D02*
X19917274Y-12106967D01*
X19917274Y-12106967D02*
X19898226Y-12097444D01*
X19898226Y-12097444D02*
X19888703Y-12078396D01*
X19888703Y-12078396D02*
X19888703Y-12002205D01*
X19888703Y-12002205D02*
X19898226Y-11983158D01*
X19898226Y-11983158D02*
X19917274Y-11973634D01*
X19917274Y-11973634D02*
X19955369Y-11973634D01*
X19955369Y-11973634D02*
X19974417Y-11983158D01*
X19974417Y-11983158D02*
X19983941Y-12002205D01*
X19983941Y-12002205D02*
X19983941Y-12021253D01*
X19983941Y-12021253D02*
X19888703Y-12040301D01*
X20060131Y-12097444D02*
X20079179Y-12106967D01*
X20079179Y-12106967D02*
X20117274Y-12106967D01*
X20117274Y-12106967D02*
X20136322Y-12097444D01*
X20136322Y-12097444D02*
X20145845Y-12078396D01*
X20145845Y-12078396D02*
X20145845Y-12068872D01*
X20145845Y-12068872D02*
X20136322Y-12049824D01*
X20136322Y-12049824D02*
X20117274Y-12040301D01*
X20117274Y-12040301D02*
X20088703Y-12040301D01*
X20088703Y-12040301D02*
X20069655Y-12030777D01*
X20069655Y-12030777D02*
X20060131Y-12011729D01*
X20060131Y-12011729D02*
X20060131Y-12002205D01*
X20060131Y-12002205D02*
X20069655Y-11983158D01*
X20069655Y-11983158D02*
X20088703Y-11973634D01*
X20088703Y-11973634D02*
X20117274Y-11973634D01*
X20117274Y-11973634D02*
X20136322Y-11983158D01*
X20212512Y-12183158D02*
X20222036Y-12173634D01*
X20222036Y-12173634D02*
X20241084Y-12145063D01*
X20241084Y-12145063D02*
X20250607Y-12126015D01*
X20250607Y-12126015D02*
X20260131Y-12097444D01*
X20260131Y-12097444D02*
X20269655Y-12049824D01*
X20269655Y-12049824D02*
X20269655Y-12011729D01*
X20269655Y-12011729D02*
X20260131Y-11964110D01*
X20260131Y-11964110D02*
X20250607Y-11935539D01*
X20250607Y-11935539D02*
X20241084Y-11916491D01*
X20241084Y-11916491D02*
X20222036Y-11887920D01*
X20222036Y-11887920D02*
X20212512Y-11878396D01*
D12*
X15422805Y-12314839D02*
X15422805Y-12244128D01*
X15352093Y-12244128D01*
X15352093Y-12314839D01*
X15422805Y-12314839D01*
D11*
X15802988Y-12370967D02*
X15688702Y-12370967D01*
X15745845Y-12370967D02*
X15745845Y-12170967D01*
X15745845Y-12170967D02*
X15726797Y-12199539D01*
X15726797Y-12199539D02*
X15707750Y-12218586D01*
X15707750Y-12218586D02*
X15688702Y-12228110D01*
X15888702Y-12351920D02*
X15898226Y-12361444D01*
X15898226Y-12361444D02*
X15888702Y-12370967D01*
X15888702Y-12370967D02*
X15879178Y-12361444D01*
X15879178Y-12361444D02*
X15888702Y-12351920D01*
X15888702Y-12351920D02*
X15888702Y-12370967D01*
X16022035Y-12170967D02*
X16041083Y-12170967D01*
X16041083Y-12170967D02*
X16060131Y-12180491D01*
X16060131Y-12180491D02*
X16069654Y-12190015D01*
X16069654Y-12190015D02*
X16079178Y-12209063D01*
X16079178Y-12209063D02*
X16088702Y-12247158D01*
X16088702Y-12247158D02*
X16088702Y-12294777D01*
X16088702Y-12294777D02*
X16079178Y-12332872D01*
X16079178Y-12332872D02*
X16069654Y-12351920D01*
X16069654Y-12351920D02*
X16060131Y-12361444D01*
X16060131Y-12361444D02*
X16041083Y-12370967D01*
X16041083Y-12370967D02*
X16022035Y-12370967D01*
X16022035Y-12370967D02*
X16002988Y-12361444D01*
X16002988Y-12361444D02*
X15993464Y-12351920D01*
X15993464Y-12351920D02*
X15983940Y-12332872D01*
X15983940Y-12332872D02*
X15974416Y-12294777D01*
X15974416Y-12294777D02*
X15974416Y-12247158D01*
X15974416Y-12247158D02*
X15983940Y-12209063D01*
X15983940Y-12209063D02*
X15993464Y-12190015D01*
X15993464Y-12190015D02*
X16002988Y-12180491D01*
X16002988Y-12180491D02*
X16022035Y-12170967D01*
X16212512Y-12170967D02*
X16231559Y-12170967D01*
X16231559Y-12170967D02*
X16250607Y-12180491D01*
X16250607Y-12180491D02*
X16260131Y-12190015D01*
X16260131Y-12190015D02*
X16269654Y-12209063D01*
X16269654Y-12209063D02*
X16279178Y-12247158D01*
X16279178Y-12247158D02*
X16279178Y-12294777D01*
X16279178Y-12294777D02*
X16269654Y-12332872D01*
X16269654Y-12332872D02*
X16260131Y-12351920D01*
X16260131Y-12351920D02*
X16250607Y-12361444D01*
X16250607Y-12361444D02*
X16231559Y-12370967D01*
X16231559Y-12370967D02*
X16212512Y-12370967D01*
X16212512Y-12370967D02*
X16193464Y-12361444D01*
X16193464Y-12361444D02*
X16183940Y-12351920D01*
X16183940Y-12351920D02*
X16174416Y-12332872D01*
X16174416Y-12332872D02*
X16164893Y-12294777D01*
X16164893Y-12294777D02*
X16164893Y-12247158D01*
X16164893Y-12247158D02*
X16174416Y-12209063D01*
X16174416Y-12209063D02*
X16183940Y-12190015D01*
X16183940Y-12190015D02*
X16193464Y-12180491D01*
X16193464Y-12180491D02*
X16212512Y-12170967D01*
X16402988Y-12170967D02*
X16422035Y-12170967D01*
X16422035Y-12170967D02*
X16441083Y-12180491D01*
X16441083Y-12180491D02*
X16450607Y-12190015D01*
X16450607Y-12190015D02*
X16460131Y-12209063D01*
X16460131Y-12209063D02*
X16469654Y-12247158D01*
X16469654Y-12247158D02*
X16469654Y-12294777D01*
X16469654Y-12294777D02*
X16460131Y-12332872D01*
X16460131Y-12332872D02*
X16450607Y-12351920D01*
X16450607Y-12351920D02*
X16441083Y-12361444D01*
X16441083Y-12361444D02*
X16422035Y-12370967D01*
X16422035Y-12370967D02*
X16402988Y-12370967D01*
X16402988Y-12370967D02*
X16383940Y-12361444D01*
X16383940Y-12361444D02*
X16374416Y-12351920D01*
X16374416Y-12351920D02*
X16364893Y-12332872D01*
X16364893Y-12332872D02*
X16355369Y-12294777D01*
X16355369Y-12294777D02*
X16355369Y-12247158D01*
X16355369Y-12247158D02*
X16364893Y-12209063D01*
X16364893Y-12209063D02*
X16374416Y-12190015D01*
X16374416Y-12190015D02*
X16383940Y-12180491D01*
X16383940Y-12180491D02*
X16402988Y-12170967D01*
X16555369Y-12370967D02*
X16555369Y-12237634D01*
X16555369Y-12256682D02*
X16564893Y-12247158D01*
X16564893Y-12247158D02*
X16583940Y-12237634D01*
X16583940Y-12237634D02*
X16612512Y-12237634D01*
X16612512Y-12237634D02*
X16631559Y-12247158D01*
X16631559Y-12247158D02*
X16641083Y-12266205D01*
X16641083Y-12266205D02*
X16641083Y-12370967D01*
X16641083Y-12266205D02*
X16650607Y-12247158D01*
X16650607Y-12247158D02*
X16669654Y-12237634D01*
X16669654Y-12237634D02*
X16698226Y-12237634D01*
X16698226Y-12237634D02*
X16717274Y-12247158D01*
X16717274Y-12247158D02*
X16726797Y-12266205D01*
X16726797Y-12266205D02*
X16726797Y-12370967D01*
X16822036Y-12370967D02*
X16822036Y-12237634D01*
X16822036Y-12256682D02*
X16831559Y-12247158D01*
X16831559Y-12247158D02*
X16850607Y-12237634D01*
X16850607Y-12237634D02*
X16879178Y-12237634D01*
X16879178Y-12237634D02*
X16898226Y-12247158D01*
X16898226Y-12247158D02*
X16907750Y-12266205D01*
X16907750Y-12266205D02*
X16907750Y-12370967D01*
X16907750Y-12266205D02*
X16917274Y-12247158D01*
X16917274Y-12247158D02*
X16936321Y-12237634D01*
X16936321Y-12237634D02*
X16964893Y-12237634D01*
X16964893Y-12237634D02*
X16983940Y-12247158D01*
X16983940Y-12247158D02*
X16993464Y-12266205D01*
X16993464Y-12266205D02*
X16993464Y-12370967D01*
X17383940Y-12161444D02*
X17212512Y-12418586D01*
X17641083Y-12170967D02*
X17660131Y-12170967D01*
X17660131Y-12170967D02*
X17679179Y-12180491D01*
X17679179Y-12180491D02*
X17688702Y-12190015D01*
X17688702Y-12190015D02*
X17698226Y-12209063D01*
X17698226Y-12209063D02*
X17707750Y-12247158D01*
X17707750Y-12247158D02*
X17707750Y-12294777D01*
X17707750Y-12294777D02*
X17698226Y-12332872D01*
X17698226Y-12332872D02*
X17688702Y-12351920D01*
X17688702Y-12351920D02*
X17679179Y-12361444D01*
X17679179Y-12361444D02*
X17660131Y-12370967D01*
X17660131Y-12370967D02*
X17641083Y-12370967D01*
X17641083Y-12370967D02*
X17622036Y-12361444D01*
X17622036Y-12361444D02*
X17612512Y-12351920D01*
X17612512Y-12351920D02*
X17602988Y-12332872D01*
X17602988Y-12332872D02*
X17593464Y-12294777D01*
X17593464Y-12294777D02*
X17593464Y-12247158D01*
X17593464Y-12247158D02*
X17602988Y-12209063D01*
X17602988Y-12209063D02*
X17612512Y-12190015D01*
X17612512Y-12190015D02*
X17622036Y-12180491D01*
X17622036Y-12180491D02*
X17641083Y-12170967D01*
X17793464Y-12351920D02*
X17802988Y-12361444D01*
X17802988Y-12361444D02*
X17793464Y-12370967D01*
X17793464Y-12370967D02*
X17783940Y-12361444D01*
X17783940Y-12361444D02*
X17793464Y-12351920D01*
X17793464Y-12351920D02*
X17793464Y-12370967D01*
X17926798Y-12170967D02*
X17945845Y-12170967D01*
X17945845Y-12170967D02*
X17964893Y-12180491D01*
X17964893Y-12180491D02*
X17974417Y-12190015D01*
X17974417Y-12190015D02*
X17983940Y-12209063D01*
X17983940Y-12209063D02*
X17993464Y-12247158D01*
X17993464Y-12247158D02*
X17993464Y-12294777D01*
X17993464Y-12294777D02*
X17983940Y-12332872D01*
X17983940Y-12332872D02*
X17974417Y-12351920D01*
X17974417Y-12351920D02*
X17964893Y-12361444D01*
X17964893Y-12361444D02*
X17945845Y-12370967D01*
X17945845Y-12370967D02*
X17926798Y-12370967D01*
X17926798Y-12370967D02*
X17907750Y-12361444D01*
X17907750Y-12361444D02*
X17898226Y-12351920D01*
X17898226Y-12351920D02*
X17888702Y-12332872D01*
X17888702Y-12332872D02*
X17879179Y-12294777D01*
X17879179Y-12294777D02*
X17879179Y-12247158D01*
X17879179Y-12247158D02*
X17888702Y-12209063D01*
X17888702Y-12209063D02*
X17898226Y-12190015D01*
X17898226Y-12190015D02*
X17907750Y-12180491D01*
X17907750Y-12180491D02*
X17926798Y-12170967D01*
X18060131Y-12170967D02*
X18183940Y-12170967D01*
X18183940Y-12170967D02*
X18117274Y-12247158D01*
X18117274Y-12247158D02*
X18145845Y-12247158D01*
X18145845Y-12247158D02*
X18164893Y-12256682D01*
X18164893Y-12256682D02*
X18174417Y-12266205D01*
X18174417Y-12266205D02*
X18183940Y-12285253D01*
X18183940Y-12285253D02*
X18183940Y-12332872D01*
X18183940Y-12332872D02*
X18174417Y-12351920D01*
X18174417Y-12351920D02*
X18164893Y-12361444D01*
X18164893Y-12361444D02*
X18145845Y-12370967D01*
X18145845Y-12370967D02*
X18088702Y-12370967D01*
X18088702Y-12370967D02*
X18069655Y-12361444D01*
X18069655Y-12361444D02*
X18060131Y-12351920D01*
X18279179Y-12370967D02*
X18317274Y-12370967D01*
X18317274Y-12370967D02*
X18336321Y-12361444D01*
X18336321Y-12361444D02*
X18345845Y-12351920D01*
X18345845Y-12351920D02*
X18364893Y-12323348D01*
X18364893Y-12323348D02*
X18374417Y-12285253D01*
X18374417Y-12285253D02*
X18374417Y-12209063D01*
X18374417Y-12209063D02*
X18364893Y-12190015D01*
X18364893Y-12190015D02*
X18355369Y-12180491D01*
X18355369Y-12180491D02*
X18336321Y-12170967D01*
X18336321Y-12170967D02*
X18298226Y-12170967D01*
X18298226Y-12170967D02*
X18279179Y-12180491D01*
X18279179Y-12180491D02*
X18269655Y-12190015D01*
X18269655Y-12190015D02*
X18260131Y-12209063D01*
X18260131Y-12209063D02*
X18260131Y-12256682D01*
X18260131Y-12256682D02*
X18269655Y-12275729D01*
X18269655Y-12275729D02*
X18279179Y-12285253D01*
X18279179Y-12285253D02*
X18298226Y-12294777D01*
X18298226Y-12294777D02*
X18336321Y-12294777D01*
X18336321Y-12294777D02*
X18355369Y-12285253D01*
X18355369Y-12285253D02*
X18364893Y-12275729D01*
X18364893Y-12275729D02*
X18374417Y-12256682D01*
X18545845Y-12237634D02*
X18545845Y-12370967D01*
X18498226Y-12161444D02*
X18450607Y-12304301D01*
X18450607Y-12304301D02*
X18574417Y-12304301D01*
X18641083Y-12170967D02*
X18641083Y-12209063D01*
X18717274Y-12170967D02*
X18717274Y-12209063D01*
X19012512Y-12447158D02*
X19002988Y-12437634D01*
X19002988Y-12437634D02*
X18983941Y-12409063D01*
X18983941Y-12409063D02*
X18974417Y-12390015D01*
X18974417Y-12390015D02*
X18964893Y-12361444D01*
X18964893Y-12361444D02*
X18955369Y-12313824D01*
X18955369Y-12313824D02*
X18955369Y-12275729D01*
X18955369Y-12275729D02*
X18964893Y-12228110D01*
X18964893Y-12228110D02*
X18974417Y-12199539D01*
X18974417Y-12199539D02*
X18983941Y-12180491D01*
X18983941Y-12180491D02*
X19002988Y-12151920D01*
X19002988Y-12151920D02*
X19012512Y-12142396D01*
X19079179Y-12190015D02*
X19088702Y-12180491D01*
X19088702Y-12180491D02*
X19107750Y-12170967D01*
X19107750Y-12170967D02*
X19155369Y-12170967D01*
X19155369Y-12170967D02*
X19174417Y-12180491D01*
X19174417Y-12180491D02*
X19183941Y-12190015D01*
X19183941Y-12190015D02*
X19193464Y-12209063D01*
X19193464Y-12209063D02*
X19193464Y-12228110D01*
X19193464Y-12228110D02*
X19183941Y-12256682D01*
X19183941Y-12256682D02*
X19069655Y-12370967D01*
X19069655Y-12370967D02*
X19193464Y-12370967D01*
X19317274Y-12170967D02*
X19336322Y-12170967D01*
X19336322Y-12170967D02*
X19355369Y-12180491D01*
X19355369Y-12180491D02*
X19364893Y-12190015D01*
X19364893Y-12190015D02*
X19374417Y-12209063D01*
X19374417Y-12209063D02*
X19383941Y-12247158D01*
X19383941Y-12247158D02*
X19383941Y-12294777D01*
X19383941Y-12294777D02*
X19374417Y-12332872D01*
X19374417Y-12332872D02*
X19364893Y-12351920D01*
X19364893Y-12351920D02*
X19355369Y-12361444D01*
X19355369Y-12361444D02*
X19336322Y-12370967D01*
X19336322Y-12370967D02*
X19317274Y-12370967D01*
X19317274Y-12370967D02*
X19298226Y-12361444D01*
X19298226Y-12361444D02*
X19288702Y-12351920D01*
X19288702Y-12351920D02*
X19279179Y-12332872D01*
X19279179Y-12332872D02*
X19269655Y-12294777D01*
X19269655Y-12294777D02*
X19269655Y-12247158D01*
X19269655Y-12247158D02*
X19279179Y-12209063D01*
X19279179Y-12209063D02*
X19288702Y-12190015D01*
X19288702Y-12190015D02*
X19298226Y-12180491D01*
X19298226Y-12180491D02*
X19317274Y-12170967D01*
X19622036Y-12370967D02*
X19622036Y-12170967D01*
X19707750Y-12370967D02*
X19707750Y-12266205D01*
X19707750Y-12266205D02*
X19698226Y-12247158D01*
X19698226Y-12247158D02*
X19679179Y-12237634D01*
X19679179Y-12237634D02*
X19650607Y-12237634D01*
X19650607Y-12237634D02*
X19631560Y-12247158D01*
X19631560Y-12247158D02*
X19622036Y-12256682D01*
X19831560Y-12370967D02*
X19812512Y-12361444D01*
X19812512Y-12361444D02*
X19802988Y-12351920D01*
X19802988Y-12351920D02*
X19793464Y-12332872D01*
X19793464Y-12332872D02*
X19793464Y-12275729D01*
X19793464Y-12275729D02*
X19802988Y-12256682D01*
X19802988Y-12256682D02*
X19812512Y-12247158D01*
X19812512Y-12247158D02*
X19831560Y-12237634D01*
X19831560Y-12237634D02*
X19860131Y-12237634D01*
X19860131Y-12237634D02*
X19879179Y-12247158D01*
X19879179Y-12247158D02*
X19888703Y-12256682D01*
X19888703Y-12256682D02*
X19898226Y-12275729D01*
X19898226Y-12275729D02*
X19898226Y-12332872D01*
X19898226Y-12332872D02*
X19888703Y-12351920D01*
X19888703Y-12351920D02*
X19879179Y-12361444D01*
X19879179Y-12361444D02*
X19860131Y-12370967D01*
X19860131Y-12370967D02*
X19831560Y-12370967D01*
X20012512Y-12370967D02*
X19993464Y-12361444D01*
X19993464Y-12361444D02*
X19983941Y-12342396D01*
X19983941Y-12342396D02*
X19983941Y-12170967D01*
X20164893Y-12361444D02*
X20145845Y-12370967D01*
X20145845Y-12370967D02*
X20107750Y-12370967D01*
X20107750Y-12370967D02*
X20088703Y-12361444D01*
X20088703Y-12361444D02*
X20079179Y-12342396D01*
X20079179Y-12342396D02*
X20079179Y-12266205D01*
X20079179Y-12266205D02*
X20088703Y-12247158D01*
X20088703Y-12247158D02*
X20107750Y-12237634D01*
X20107750Y-12237634D02*
X20145845Y-12237634D01*
X20145845Y-12237634D02*
X20164893Y-12247158D01*
X20164893Y-12247158D02*
X20174417Y-12266205D01*
X20174417Y-12266205D02*
X20174417Y-12285253D01*
X20174417Y-12285253D02*
X20079179Y-12304301D01*
X20250607Y-12361444D02*
X20269655Y-12370967D01*
X20269655Y-12370967D02*
X20307750Y-12370967D01*
X20307750Y-12370967D02*
X20326798Y-12361444D01*
X20326798Y-12361444D02*
X20336322Y-12342396D01*
X20336322Y-12342396D02*
X20336322Y-12332872D01*
X20336322Y-12332872D02*
X20326798Y-12313824D01*
X20326798Y-12313824D02*
X20307750Y-12304301D01*
X20307750Y-12304301D02*
X20279179Y-12304301D01*
X20279179Y-12304301D02*
X20260131Y-12294777D01*
X20260131Y-12294777D02*
X20250607Y-12275729D01*
X20250607Y-12275729D02*
X20250607Y-12266205D01*
X20250607Y-12266205D02*
X20260131Y-12247158D01*
X20260131Y-12247158D02*
X20279179Y-12237634D01*
X20279179Y-12237634D02*
X20307750Y-12237634D01*
X20307750Y-12237634D02*
X20326798Y-12247158D01*
X20402988Y-12447158D02*
X20412512Y-12437634D01*
X20412512Y-12437634D02*
X20431560Y-12409063D01*
X20431560Y-12409063D02*
X20441084Y-12390015D01*
X20441084Y-12390015D02*
X20450607Y-12361444D01*
X20450607Y-12361444D02*
X20460131Y-12313824D01*
X20460131Y-12313824D02*
X20460131Y-12275729D01*
X20460131Y-12275729D02*
X20450607Y-12228110D01*
X20450607Y-12228110D02*
X20441084Y-12199539D01*
X20441084Y-12199539D02*
X20431560Y-12180491D01*
X20431560Y-12180491D02*
X20412512Y-12151920D01*
X20412512Y-12151920D02*
X20402988Y-12142396D01*
D13*
X15382449Y-12598484D02*
X15437449Y-12543484D01*
X15382449Y-12488484D01*
X15327449Y-12543484D01*
X15382449Y-12598484D01*
D11*
X15802988Y-12634967D02*
X15688702Y-12634967D01*
X15745845Y-12634967D02*
X15745845Y-12434967D01*
X15745845Y-12434967D02*
X15726797Y-12463539D01*
X15726797Y-12463539D02*
X15707750Y-12482586D01*
X15707750Y-12482586D02*
X15688702Y-12492110D01*
X15888702Y-12615920D02*
X15898226Y-12625444D01*
X15898226Y-12625444D02*
X15888702Y-12634967D01*
X15888702Y-12634967D02*
X15879178Y-12625444D01*
X15879178Y-12625444D02*
X15888702Y-12615920D01*
X15888702Y-12615920D02*
X15888702Y-12634967D01*
X16088702Y-12634967D02*
X15974416Y-12634967D01*
X16031559Y-12634967D02*
X16031559Y-12434967D01*
X16031559Y-12434967D02*
X16012512Y-12463539D01*
X16012512Y-12463539D02*
X15993464Y-12482586D01*
X15993464Y-12482586D02*
X15974416Y-12492110D01*
X16212512Y-12434967D02*
X16231559Y-12434967D01*
X16231559Y-12434967D02*
X16250607Y-12444491D01*
X16250607Y-12444491D02*
X16260131Y-12454015D01*
X16260131Y-12454015D02*
X16269654Y-12473063D01*
X16269654Y-12473063D02*
X16279178Y-12511158D01*
X16279178Y-12511158D02*
X16279178Y-12558777D01*
X16279178Y-12558777D02*
X16269654Y-12596872D01*
X16269654Y-12596872D02*
X16260131Y-12615920D01*
X16260131Y-12615920D02*
X16250607Y-12625444D01*
X16250607Y-12625444D02*
X16231559Y-12634967D01*
X16231559Y-12634967D02*
X16212512Y-12634967D01*
X16212512Y-12634967D02*
X16193464Y-12625444D01*
X16193464Y-12625444D02*
X16183940Y-12615920D01*
X16183940Y-12615920D02*
X16174416Y-12596872D01*
X16174416Y-12596872D02*
X16164893Y-12558777D01*
X16164893Y-12558777D02*
X16164893Y-12511158D01*
X16164893Y-12511158D02*
X16174416Y-12473063D01*
X16174416Y-12473063D02*
X16183940Y-12454015D01*
X16183940Y-12454015D02*
X16193464Y-12444491D01*
X16193464Y-12444491D02*
X16212512Y-12434967D01*
X16402988Y-12434967D02*
X16422035Y-12434967D01*
X16422035Y-12434967D02*
X16441083Y-12444491D01*
X16441083Y-12444491D02*
X16450607Y-12454015D01*
X16450607Y-12454015D02*
X16460131Y-12473063D01*
X16460131Y-12473063D02*
X16469654Y-12511158D01*
X16469654Y-12511158D02*
X16469654Y-12558777D01*
X16469654Y-12558777D02*
X16460131Y-12596872D01*
X16460131Y-12596872D02*
X16450607Y-12615920D01*
X16450607Y-12615920D02*
X16441083Y-12625444D01*
X16441083Y-12625444D02*
X16422035Y-12634967D01*
X16422035Y-12634967D02*
X16402988Y-12634967D01*
X16402988Y-12634967D02*
X16383940Y-12625444D01*
X16383940Y-12625444D02*
X16374416Y-12615920D01*
X16374416Y-12615920D02*
X16364893Y-12596872D01*
X16364893Y-12596872D02*
X16355369Y-12558777D01*
X16355369Y-12558777D02*
X16355369Y-12511158D01*
X16355369Y-12511158D02*
X16364893Y-12473063D01*
X16364893Y-12473063D02*
X16374416Y-12454015D01*
X16374416Y-12454015D02*
X16383940Y-12444491D01*
X16383940Y-12444491D02*
X16402988Y-12434967D01*
X16555369Y-12634967D02*
X16555369Y-12501634D01*
X16555369Y-12520682D02*
X16564893Y-12511158D01*
X16564893Y-12511158D02*
X16583940Y-12501634D01*
X16583940Y-12501634D02*
X16612512Y-12501634D01*
X16612512Y-12501634D02*
X16631559Y-12511158D01*
X16631559Y-12511158D02*
X16641083Y-12530205D01*
X16641083Y-12530205D02*
X16641083Y-12634967D01*
X16641083Y-12530205D02*
X16650607Y-12511158D01*
X16650607Y-12511158D02*
X16669654Y-12501634D01*
X16669654Y-12501634D02*
X16698226Y-12501634D01*
X16698226Y-12501634D02*
X16717274Y-12511158D01*
X16717274Y-12511158D02*
X16726797Y-12530205D01*
X16726797Y-12530205D02*
X16726797Y-12634967D01*
X16822036Y-12634967D02*
X16822036Y-12501634D01*
X16822036Y-12520682D02*
X16831559Y-12511158D01*
X16831559Y-12511158D02*
X16850607Y-12501634D01*
X16850607Y-12501634D02*
X16879178Y-12501634D01*
X16879178Y-12501634D02*
X16898226Y-12511158D01*
X16898226Y-12511158D02*
X16907750Y-12530205D01*
X16907750Y-12530205D02*
X16907750Y-12634967D01*
X16907750Y-12530205D02*
X16917274Y-12511158D01*
X16917274Y-12511158D02*
X16936321Y-12501634D01*
X16936321Y-12501634D02*
X16964893Y-12501634D01*
X16964893Y-12501634D02*
X16983940Y-12511158D01*
X16983940Y-12511158D02*
X16993464Y-12530205D01*
X16993464Y-12530205D02*
X16993464Y-12634967D01*
X17383940Y-12425444D02*
X17212512Y-12682586D01*
X17641083Y-12434967D02*
X17660131Y-12434967D01*
X17660131Y-12434967D02*
X17679179Y-12444491D01*
X17679179Y-12444491D02*
X17688702Y-12454015D01*
X17688702Y-12454015D02*
X17698226Y-12473063D01*
X17698226Y-12473063D02*
X17707750Y-12511158D01*
X17707750Y-12511158D02*
X17707750Y-12558777D01*
X17707750Y-12558777D02*
X17698226Y-12596872D01*
X17698226Y-12596872D02*
X17688702Y-12615920D01*
X17688702Y-12615920D02*
X17679179Y-12625444D01*
X17679179Y-12625444D02*
X17660131Y-12634967D01*
X17660131Y-12634967D02*
X17641083Y-12634967D01*
X17641083Y-12634967D02*
X17622036Y-12625444D01*
X17622036Y-12625444D02*
X17612512Y-12615920D01*
X17612512Y-12615920D02*
X17602988Y-12596872D01*
X17602988Y-12596872D02*
X17593464Y-12558777D01*
X17593464Y-12558777D02*
X17593464Y-12511158D01*
X17593464Y-12511158D02*
X17602988Y-12473063D01*
X17602988Y-12473063D02*
X17612512Y-12454015D01*
X17612512Y-12454015D02*
X17622036Y-12444491D01*
X17622036Y-12444491D02*
X17641083Y-12434967D01*
X17793464Y-12615920D02*
X17802988Y-12625444D01*
X17802988Y-12625444D02*
X17793464Y-12634967D01*
X17793464Y-12634967D02*
X17783940Y-12625444D01*
X17783940Y-12625444D02*
X17793464Y-12615920D01*
X17793464Y-12615920D02*
X17793464Y-12634967D01*
X17926798Y-12434967D02*
X17945845Y-12434967D01*
X17945845Y-12434967D02*
X17964893Y-12444491D01*
X17964893Y-12444491D02*
X17974417Y-12454015D01*
X17974417Y-12454015D02*
X17983940Y-12473063D01*
X17983940Y-12473063D02*
X17993464Y-12511158D01*
X17993464Y-12511158D02*
X17993464Y-12558777D01*
X17993464Y-12558777D02*
X17983940Y-12596872D01*
X17983940Y-12596872D02*
X17974417Y-12615920D01*
X17974417Y-12615920D02*
X17964893Y-12625444D01*
X17964893Y-12625444D02*
X17945845Y-12634967D01*
X17945845Y-12634967D02*
X17926798Y-12634967D01*
X17926798Y-12634967D02*
X17907750Y-12625444D01*
X17907750Y-12625444D02*
X17898226Y-12615920D01*
X17898226Y-12615920D02*
X17888702Y-12596872D01*
X17888702Y-12596872D02*
X17879179Y-12558777D01*
X17879179Y-12558777D02*
X17879179Y-12511158D01*
X17879179Y-12511158D02*
X17888702Y-12473063D01*
X17888702Y-12473063D02*
X17898226Y-12454015D01*
X17898226Y-12454015D02*
X17907750Y-12444491D01*
X17907750Y-12444491D02*
X17926798Y-12434967D01*
X18164893Y-12501634D02*
X18164893Y-12634967D01*
X18117274Y-12425444D02*
X18069655Y-12568301D01*
X18069655Y-12568301D02*
X18193464Y-12568301D01*
X18250607Y-12434967D02*
X18374417Y-12434967D01*
X18374417Y-12434967D02*
X18307750Y-12511158D01*
X18307750Y-12511158D02*
X18336321Y-12511158D01*
X18336321Y-12511158D02*
X18355369Y-12520682D01*
X18355369Y-12520682D02*
X18364893Y-12530205D01*
X18364893Y-12530205D02*
X18374417Y-12549253D01*
X18374417Y-12549253D02*
X18374417Y-12596872D01*
X18374417Y-12596872D02*
X18364893Y-12615920D01*
X18364893Y-12615920D02*
X18355369Y-12625444D01*
X18355369Y-12625444D02*
X18336321Y-12634967D01*
X18336321Y-12634967D02*
X18279179Y-12634967D01*
X18279179Y-12634967D02*
X18260131Y-12625444D01*
X18260131Y-12625444D02*
X18250607Y-12615920D01*
X18441083Y-12434967D02*
X18564893Y-12434967D01*
X18564893Y-12434967D02*
X18498226Y-12511158D01*
X18498226Y-12511158D02*
X18526798Y-12511158D01*
X18526798Y-12511158D02*
X18545845Y-12520682D01*
X18545845Y-12520682D02*
X18555369Y-12530205D01*
X18555369Y-12530205D02*
X18564893Y-12549253D01*
X18564893Y-12549253D02*
X18564893Y-12596872D01*
X18564893Y-12596872D02*
X18555369Y-12615920D01*
X18555369Y-12615920D02*
X18545845Y-12625444D01*
X18545845Y-12625444D02*
X18526798Y-12634967D01*
X18526798Y-12634967D02*
X18469655Y-12634967D01*
X18469655Y-12634967D02*
X18450607Y-12625444D01*
X18450607Y-12625444D02*
X18441083Y-12615920D01*
X18641083Y-12434967D02*
X18641083Y-12473063D01*
X18717274Y-12434967D02*
X18717274Y-12473063D01*
X19012512Y-12711158D02*
X19002988Y-12701634D01*
X19002988Y-12701634D02*
X18983941Y-12673063D01*
X18983941Y-12673063D02*
X18974417Y-12654015D01*
X18974417Y-12654015D02*
X18964893Y-12625444D01*
X18964893Y-12625444D02*
X18955369Y-12577824D01*
X18955369Y-12577824D02*
X18955369Y-12539729D01*
X18955369Y-12539729D02*
X18964893Y-12492110D01*
X18964893Y-12492110D02*
X18974417Y-12463539D01*
X18974417Y-12463539D02*
X18983941Y-12444491D01*
X18983941Y-12444491D02*
X19002988Y-12415920D01*
X19002988Y-12415920D02*
X19012512Y-12406396D01*
X19193464Y-12634967D02*
X19079179Y-12634967D01*
X19136321Y-12634967D02*
X19136321Y-12434967D01*
X19136321Y-12434967D02*
X19117274Y-12463539D01*
X19117274Y-12463539D02*
X19098226Y-12482586D01*
X19098226Y-12482586D02*
X19079179Y-12492110D01*
X19269655Y-12454015D02*
X19279179Y-12444491D01*
X19279179Y-12444491D02*
X19298226Y-12434967D01*
X19298226Y-12434967D02*
X19345845Y-12434967D01*
X19345845Y-12434967D02*
X19364893Y-12444491D01*
X19364893Y-12444491D02*
X19374417Y-12454015D01*
X19374417Y-12454015D02*
X19383941Y-12473063D01*
X19383941Y-12473063D02*
X19383941Y-12492110D01*
X19383941Y-12492110D02*
X19374417Y-12520682D01*
X19374417Y-12520682D02*
X19260131Y-12634967D01*
X19260131Y-12634967D02*
X19383941Y-12634967D01*
X19622036Y-12634967D02*
X19622036Y-12434967D01*
X19707750Y-12634967D02*
X19707750Y-12530205D01*
X19707750Y-12530205D02*
X19698226Y-12511158D01*
X19698226Y-12511158D02*
X19679179Y-12501634D01*
X19679179Y-12501634D02*
X19650607Y-12501634D01*
X19650607Y-12501634D02*
X19631560Y-12511158D01*
X19631560Y-12511158D02*
X19622036Y-12520682D01*
X19831560Y-12634967D02*
X19812512Y-12625444D01*
X19812512Y-12625444D02*
X19802988Y-12615920D01*
X19802988Y-12615920D02*
X19793464Y-12596872D01*
X19793464Y-12596872D02*
X19793464Y-12539729D01*
X19793464Y-12539729D02*
X19802988Y-12520682D01*
X19802988Y-12520682D02*
X19812512Y-12511158D01*
X19812512Y-12511158D02*
X19831560Y-12501634D01*
X19831560Y-12501634D02*
X19860131Y-12501634D01*
X19860131Y-12501634D02*
X19879179Y-12511158D01*
X19879179Y-12511158D02*
X19888703Y-12520682D01*
X19888703Y-12520682D02*
X19898226Y-12539729D01*
X19898226Y-12539729D02*
X19898226Y-12596872D01*
X19898226Y-12596872D02*
X19888703Y-12615920D01*
X19888703Y-12615920D02*
X19879179Y-12625444D01*
X19879179Y-12625444D02*
X19860131Y-12634967D01*
X19860131Y-12634967D02*
X19831560Y-12634967D01*
X20012512Y-12634967D02*
X19993464Y-12625444D01*
X19993464Y-12625444D02*
X19983941Y-12606396D01*
X19983941Y-12606396D02*
X19983941Y-12434967D01*
X20164893Y-12625444D02*
X20145845Y-12634967D01*
X20145845Y-12634967D02*
X20107750Y-12634967D01*
X20107750Y-12634967D02*
X20088703Y-12625444D01*
X20088703Y-12625444D02*
X20079179Y-12606396D01*
X20079179Y-12606396D02*
X20079179Y-12530205D01*
X20079179Y-12530205D02*
X20088703Y-12511158D01*
X20088703Y-12511158D02*
X20107750Y-12501634D01*
X20107750Y-12501634D02*
X20145845Y-12501634D01*
X20145845Y-12501634D02*
X20164893Y-12511158D01*
X20164893Y-12511158D02*
X20174417Y-12530205D01*
X20174417Y-12530205D02*
X20174417Y-12549253D01*
X20174417Y-12549253D02*
X20079179Y-12568301D01*
X20250607Y-12625444D02*
X20269655Y-12634967D01*
X20269655Y-12634967D02*
X20307750Y-12634967D01*
X20307750Y-12634967D02*
X20326798Y-12625444D01*
X20326798Y-12625444D02*
X20336322Y-12606396D01*
X20336322Y-12606396D02*
X20336322Y-12596872D01*
X20336322Y-12596872D02*
X20326798Y-12577824D01*
X20326798Y-12577824D02*
X20307750Y-12568301D01*
X20307750Y-12568301D02*
X20279179Y-12568301D01*
X20279179Y-12568301D02*
X20260131Y-12558777D01*
X20260131Y-12558777D02*
X20250607Y-12539729D01*
X20250607Y-12539729D02*
X20250607Y-12530205D01*
X20250607Y-12530205D02*
X20260131Y-12511158D01*
X20260131Y-12511158D02*
X20279179Y-12501634D01*
X20279179Y-12501634D02*
X20307750Y-12501634D01*
X20307750Y-12501634D02*
X20326798Y-12511158D01*
X20574417Y-12558777D02*
X20726798Y-12558777D01*
X20650607Y-12634967D02*
X20650607Y-12482586D01*
X20964893Y-12454015D02*
X20974417Y-12444491D01*
X20974417Y-12444491D02*
X20993465Y-12434967D01*
X20993465Y-12434967D02*
X21041084Y-12434967D01*
X21041084Y-12434967D02*
X21060131Y-12444491D01*
X21060131Y-12444491D02*
X21069655Y-12454015D01*
X21069655Y-12454015D02*
X21079179Y-12473063D01*
X21079179Y-12473063D02*
X21079179Y-12492110D01*
X21079179Y-12492110D02*
X21069655Y-12520682D01*
X21069655Y-12520682D02*
X20955369Y-12634967D01*
X20955369Y-12634967D02*
X21079179Y-12634967D01*
X21307750Y-12625444D02*
X21326798Y-12634967D01*
X21326798Y-12634967D02*
X21364893Y-12634967D01*
X21364893Y-12634967D02*
X21383941Y-12625444D01*
X21383941Y-12625444D02*
X21393465Y-12606396D01*
X21393465Y-12606396D02*
X21393465Y-12596872D01*
X21393465Y-12596872D02*
X21383941Y-12577824D01*
X21383941Y-12577824D02*
X21364893Y-12568301D01*
X21364893Y-12568301D02*
X21336322Y-12568301D01*
X21336322Y-12568301D02*
X21317274Y-12558777D01*
X21317274Y-12558777D02*
X21307750Y-12539729D01*
X21307750Y-12539729D02*
X21307750Y-12530205D01*
X21307750Y-12530205D02*
X21317274Y-12511158D01*
X21317274Y-12511158D02*
X21336322Y-12501634D01*
X21336322Y-12501634D02*
X21364893Y-12501634D01*
X21364893Y-12501634D02*
X21383941Y-12511158D01*
X21507750Y-12634967D02*
X21488703Y-12625444D01*
X21488703Y-12625444D02*
X21479179Y-12606396D01*
X21479179Y-12606396D02*
X21479179Y-12434967D01*
X21612512Y-12634967D02*
X21593465Y-12625444D01*
X21593465Y-12625444D02*
X21583941Y-12615920D01*
X21583941Y-12615920D02*
X21574417Y-12596872D01*
X21574417Y-12596872D02*
X21574417Y-12539729D01*
X21574417Y-12539729D02*
X21583941Y-12520682D01*
X21583941Y-12520682D02*
X21593465Y-12511158D01*
X21593465Y-12511158D02*
X21612512Y-12501634D01*
X21612512Y-12501634D02*
X21641084Y-12501634D01*
X21641084Y-12501634D02*
X21660131Y-12511158D01*
X21660131Y-12511158D02*
X21669655Y-12520682D01*
X21669655Y-12520682D02*
X21679179Y-12539729D01*
X21679179Y-12539729D02*
X21679179Y-12596872D01*
X21679179Y-12596872D02*
X21669655Y-12615920D01*
X21669655Y-12615920D02*
X21660131Y-12625444D01*
X21660131Y-12625444D02*
X21641084Y-12634967D01*
X21641084Y-12634967D02*
X21612512Y-12634967D01*
X21736322Y-12501634D02*
X21812512Y-12501634D01*
X21764893Y-12434967D02*
X21764893Y-12606396D01*
X21764893Y-12606396D02*
X21774417Y-12625444D01*
X21774417Y-12625444D02*
X21793465Y-12634967D01*
X21793465Y-12634967D02*
X21812512Y-12634967D01*
X21869655Y-12625444D02*
X21888703Y-12634967D01*
X21888703Y-12634967D02*
X21926798Y-12634967D01*
X21926798Y-12634967D02*
X21945846Y-12625444D01*
X21945846Y-12625444D02*
X21955369Y-12606396D01*
X21955369Y-12606396D02*
X21955369Y-12596872D01*
X21955369Y-12596872D02*
X21945846Y-12577824D01*
X21945846Y-12577824D02*
X21926798Y-12568301D01*
X21926798Y-12568301D02*
X21898227Y-12568301D01*
X21898227Y-12568301D02*
X21879179Y-12558777D01*
X21879179Y-12558777D02*
X21869655Y-12539729D01*
X21869655Y-12539729D02*
X21869655Y-12530205D01*
X21869655Y-12530205D02*
X21879179Y-12511158D01*
X21879179Y-12511158D02*
X21898227Y-12501634D01*
X21898227Y-12501634D02*
X21926798Y-12501634D01*
X21926798Y-12501634D02*
X21945846Y-12511158D01*
X22022036Y-12711158D02*
X22031560Y-12701634D01*
X22031560Y-12701634D02*
X22050608Y-12673063D01*
X22050608Y-12673063D02*
X22060131Y-12654015D01*
X22060131Y-12654015D02*
X22069655Y-12625444D01*
X22069655Y-12625444D02*
X22079179Y-12577824D01*
X22079179Y-12577824D02*
X22079179Y-12539729D01*
X22079179Y-12539729D02*
X22069655Y-12492110D01*
X22069655Y-12492110D02*
X22060131Y-12463539D01*
X22060131Y-12463539D02*
X22050608Y-12444491D01*
X22050608Y-12444491D02*
X22031560Y-12415920D01*
X22031560Y-12415920D02*
X22022036Y-12406396D01*
M02*
