%TF.GenerationSoftware,KiCad,Pcbnew,9.0.8-9.0.8~ubuntu24.04.1*%
%TF.CreationDate,2026-05-10T20:52:24+07:00*%
%TF.ProjectId,majigotcha,6d616a69-676f-4746-9368-612e6b696361,rev?*%
%TF.SameCoordinates,Original*%
%TF.FileFunction,Soldermask,Bot*%
%TF.FilePolarity,Negative*%
%FSLAX46Y46*%
G04 Gerber Fmt 4.6, Leading zero omitted, Abs format (unit mm)*
G04 Created by KiCad (PCBNEW 9.0.8-9.0.8~ubuntu24.04.1) date 2026-05-10 20:52:24*
%MOMM*%
%LPD*%
G01*
G04 APERTURE LIST*
G04 Aperture macros list*
%AMRoundRect*
0 Rectangle with rounded corners*
0 $1 Rounding radius*
0 $2 $3 $4 $5 $6 $7 $8 $9 X,Y pos of 4 corners*
0 Add a 4 corners polygon primitive as box body*
4,1,4,$2,$3,$4,$5,$6,$7,$8,$9,$2,$3,0*
0 Add four circle primitives for the rounded corners*
1,1,$1+$1,$2,$3*
1,1,$1+$1,$4,$5*
1,1,$1+$1,$6,$7*
1,1,$1+$1,$8,$9*
0 Add four rect primitives between the rounded corners*
20,1,$1+$1,$2,$3,$4,$5,0*
20,1,$1+$1,$4,$5,$6,$7,0*
20,1,$1+$1,$6,$7,$8,$9,0*
20,1,$1+$1,$8,$9,$2,$3,0*%
G04 Aperture macros list end*
%ADD10C,2.000000*%
%ADD11R,1.700000X1.700000*%
%ADD12C,1.700000*%
%ADD13O,3.240000X2.720000*%
%ADD14R,1.800000X1.800000*%
%ADD15C,1.800000*%
%ADD16RoundRect,0.525400X-0.900400X-0.525400X0.900400X-0.525400X0.900400X0.525400X-0.900400X0.525400X0*%
%ADD17RoundRect,0.300400X0.300400X-1.000400X0.300400X1.000400X-0.300400X1.000400X-0.300400X-1.000400X0*%
G04 APERTURE END LIST*
D10*
%TO.C,SW1*%
X162400027Y-91500018D03*
X168900027Y-91500018D03*
X162400027Y-96000018D03*
X168900027Y-96000018D03*
%TD*%
D11*
%TO.C,U4*%
X173399422Y-73050000D03*
D12*
X173399422Y-75590000D03*
X173399422Y-78130000D03*
X173399422Y-80670000D03*
X173399422Y-83210000D03*
X173399422Y-85750000D03*
%TD*%
D10*
%TO.C,SW3*%
X157700021Y-99149985D03*
X164200021Y-99149985D03*
X157700021Y-103649985D03*
X164200021Y-103649985D03*
%TD*%
%TO.C,SW2*%
X167250000Y-99150000D03*
X173750000Y-99150000D03*
X167250000Y-103650000D03*
X173750000Y-103650000D03*
%TD*%
D11*
%TO.C,U3*%
X193800000Y-85100000D03*
D12*
X191260000Y-85100000D03*
X188720000Y-85100000D03*
%TD*%
D11*
%TO.C,DS1*%
X181660000Y-71175000D03*
D12*
X184200000Y-71175000D03*
X186740000Y-71175000D03*
X189280000Y-71175000D03*
%TD*%
D13*
%TO.C,RV1*%
X165525000Y-76000000D03*
X165525000Y-85600000D03*
D14*
X158025000Y-78300000D03*
D15*
X158025000Y-80800000D03*
X158025000Y-83300000D03*
%TD*%
D11*
%TO.C,BUZZER1*%
X184800000Y-80100000D03*
D12*
X184800000Y-82640000D03*
%TD*%
D16*
%TO.C,U5*%
X178471600Y-105541700D03*
X178471600Y-103001700D03*
X178471600Y-100461700D03*
X178471600Y-97921700D03*
X178471600Y-95381700D03*
X178471600Y-92841700D03*
X178471600Y-90301700D03*
X194636600Y-90301700D03*
X194636600Y-92841700D03*
X194636600Y-95381700D03*
X194636600Y-97921700D03*
X194636600Y-100461700D03*
X194636600Y-103001700D03*
X194636600Y-105541700D03*
D17*
X184745200Y-92390000D03*
X187285200Y-92390000D03*
D12*
X185253200Y-106563200D03*
X187793200Y-106563200D03*
X185253200Y-104023200D03*
X187793200Y-104023200D03*
X185253200Y-101483200D03*
X187793200Y-101483200D03*
X185253200Y-98943200D03*
X187700600Y-99000000D03*
%TD*%
D11*
%TO.C,BT1*%
X167460000Y-72200000D03*
D12*
X170000000Y-72200000D03*
%TD*%
M02*
