%TF.GenerationSoftware,KiCad,Pcbnew,9.0.8-9.0.8~ubuntu24.04.1*%
%TF.CreationDate,2026-05-10T12:08:07+07:00*%
%TF.ProjectId,majigotcha,6d616a69-676f-4746-9368-612e6b696361,rev?*%
%TF.SameCoordinates,Original*%
%TF.FileFunction,Drillmap*%
%TF.FilePolarity,Positive*%
%FSLAX45Y45*%
G04 Gerber Fmt 4.5, Leading zero omitted, Abs format (unit mm)*
G04 Created by KiCad (PCBNEW 9.0.8-9.0.8~ubuntu24.04.1) date 2026-05-10 12:08:07*
%MOMM*%
%LPD*%
G01*
G04 APERTURE LIST*
%ADD10C,0.050000*%
%ADD11C,0.200000*%
G04 APERTURE END LIST*
D10*
X15439949Y-6880000D02*
X19724929Y-6880000D01*
X19724929Y-10844984D01*
X15439949Y-10844984D01*
X15439949Y-6880000D01*
X15980997Y-9260000D02*
G75*
G02*
X15579002Y-9260000I-200998J0D01*
G01*
X15579002Y-9260000D02*
G75*
G02*
X15980997Y-9260000I200998J0D01*
G01*
X19588806Y-7300000D02*
G75*
G02*
X19171194Y-7300000I-208806J0D01*
G01*
X19171194Y-7300000D02*
G75*
G02*
X19588806Y-7300000I208806J0D01*
G01*
D11*
X15698226Y-11158967D02*
X15698226Y-10958967D01*
X15698226Y-10958967D02*
X15745845Y-10958967D01*
X15745845Y-10958967D02*
X15774416Y-10968491D01*
X15774416Y-10968491D02*
X15793464Y-10987539D01*
X15793464Y-10987539D02*
X15802988Y-11006586D01*
X15802988Y-11006586D02*
X15812512Y-11044682D01*
X15812512Y-11044682D02*
X15812512Y-11073253D01*
X15812512Y-11073253D02*
X15802988Y-11111348D01*
X15802988Y-11111348D02*
X15793464Y-11130396D01*
X15793464Y-11130396D02*
X15774416Y-11149444D01*
X15774416Y-11149444D02*
X15745845Y-11158967D01*
X15745845Y-11158967D02*
X15698226Y-11158967D01*
X15898226Y-11158967D02*
X15898226Y-11025634D01*
X15898226Y-11063729D02*
X15907750Y-11044682D01*
X15907750Y-11044682D02*
X15917273Y-11035158D01*
X15917273Y-11035158D02*
X15936321Y-11025634D01*
X15936321Y-11025634D02*
X15955369Y-11025634D01*
X16022035Y-11158967D02*
X16022035Y-11025634D01*
X16022035Y-10958967D02*
X16012512Y-10968491D01*
X16012512Y-10968491D02*
X16022035Y-10978015D01*
X16022035Y-10978015D02*
X16031559Y-10968491D01*
X16031559Y-10968491D02*
X16022035Y-10958967D01*
X16022035Y-10958967D02*
X16022035Y-10978015D01*
X16145845Y-11158967D02*
X16126797Y-11149444D01*
X16126797Y-11149444D02*
X16117273Y-11130396D01*
X16117273Y-11130396D02*
X16117273Y-10958967D01*
X16250607Y-11158967D02*
X16231559Y-11149444D01*
X16231559Y-11149444D02*
X16222035Y-11130396D01*
X16222035Y-11130396D02*
X16222035Y-10958967D01*
X16479178Y-11158967D02*
X16479178Y-10958967D01*
X16479178Y-10958967D02*
X16545845Y-11101825D01*
X16545845Y-11101825D02*
X16612512Y-10958967D01*
X16612512Y-10958967D02*
X16612512Y-11158967D01*
X16793464Y-11158967D02*
X16793464Y-11054206D01*
X16793464Y-11054206D02*
X16783940Y-11035158D01*
X16783940Y-11035158D02*
X16764893Y-11025634D01*
X16764893Y-11025634D02*
X16726797Y-11025634D01*
X16726797Y-11025634D02*
X16707750Y-11035158D01*
X16793464Y-11149444D02*
X16774416Y-11158967D01*
X16774416Y-11158967D02*
X16726797Y-11158967D01*
X16726797Y-11158967D02*
X16707750Y-11149444D01*
X16707750Y-11149444D02*
X16698226Y-11130396D01*
X16698226Y-11130396D02*
X16698226Y-11111348D01*
X16698226Y-11111348D02*
X16707750Y-11092301D01*
X16707750Y-11092301D02*
X16726797Y-11082777D01*
X16726797Y-11082777D02*
X16774416Y-11082777D01*
X16774416Y-11082777D02*
X16793464Y-11073253D01*
X16888702Y-11025634D02*
X16888702Y-11225634D01*
X16888702Y-11035158D02*
X16907750Y-11025634D01*
X16907750Y-11025634D02*
X16945845Y-11025634D01*
X16945845Y-11025634D02*
X16964893Y-11035158D01*
X16964893Y-11035158D02*
X16974416Y-11044682D01*
X16974416Y-11044682D02*
X16983940Y-11063729D01*
X16983940Y-11063729D02*
X16983940Y-11120872D01*
X16983940Y-11120872D02*
X16974416Y-11139920D01*
X16974416Y-11139920D02*
X16964893Y-11149444D01*
X16964893Y-11149444D02*
X16945845Y-11158967D01*
X16945845Y-11158967D02*
X16907750Y-11158967D01*
X16907750Y-11158967D02*
X16888702Y-11149444D01*
X17069655Y-11139920D02*
X17079178Y-11149444D01*
X17079178Y-11149444D02*
X17069655Y-11158967D01*
X17069655Y-11158967D02*
X17060131Y-11149444D01*
X17060131Y-11149444D02*
X17069655Y-11139920D01*
X17069655Y-11139920D02*
X17069655Y-11158967D01*
X17069655Y-11035158D02*
X17079178Y-11044682D01*
X17079178Y-11044682D02*
X17069655Y-11054206D01*
X17069655Y-11054206D02*
X17060131Y-11044682D01*
X17060131Y-11044682D02*
X17069655Y-11035158D01*
X17069655Y-11035158D02*
X17069655Y-11054206D01*
M02*
