%TF.GenerationSoftware,KiCad,Pcbnew,9.0.8-9.0.8~ubuntu24.04.1*%
%TF.CreationDate,2026-05-10T20:52:23+07:00*%
%TF.ProjectId,majigotcha,6d616a69-676f-4746-9368-612e6b696361,rev?*%
%TF.SameCoordinates,Original*%
%TF.FileFunction,Copper,L2,Bot*%
%TF.FilePolarity,Positive*%
%FSLAX46Y46*%
G04 Gerber Fmt 4.6, Leading zero omitted, Abs format (unit mm)*
G04 Created by KiCad (PCBNEW 9.0.8-9.0.8~ubuntu24.04.1) date 2026-05-10 20:52:23*
%MOMM*%
%LPD*%
G01*
G04 APERTURE LIST*
G04 Aperture macros list*
%AMRoundRect*
0 Rectangle with rounded corners*
0 $1 Rounding radius*
0 $2 $3 $4 $5 $6 $7 $8 $9 X,Y pos of 4 corners*
0 Add a 4 corners polygon primitive as box body*
4,1,4,$2,$3,$4,$5,$6,$7,$8,$9,$2,$3,0*
0 Add four circle primitives for the rounded corners*
1,1,$1+$1,$2,$3*
1,1,$1+$1,$4,$5*
1,1,$1+$1,$6,$7*
1,1,$1+$1,$8,$9*
0 Add four rect primitives between the rounded corners*
20,1,$1+$1,$2,$3,$4,$5,0*
20,1,$1+$1,$4,$5,$6,$7,0*
20,1,$1+$1,$6,$7,$8,$9,0*
20,1,$1+$1,$8,$9,$2,$3,0*%
G04 Aperture macros list end*
%TA.AperFunction,ComponentPad*%
%ADD10C,2.000000*%
%TD*%
%TA.AperFunction,ComponentPad*%
%ADD11R,1.700000X1.700000*%
%TD*%
%TA.AperFunction,ComponentPad*%
%ADD12C,1.700000*%
%TD*%
%TA.AperFunction,ComponentPad*%
%ADD13O,3.240000X2.720000*%
%TD*%
%TA.AperFunction,ComponentPad*%
%ADD14R,1.800000X1.800000*%
%TD*%
%TA.AperFunction,ComponentPad*%
%ADD15C,1.800000*%
%TD*%
%TA.AperFunction,SMDPad,CuDef*%
%ADD16RoundRect,0.500000X-0.875000X-0.500000X0.875000X-0.500000X0.875000X0.500000X-0.875000X0.500000X0*%
%TD*%
%TA.AperFunction,SMDPad,CuDef*%
%ADD17RoundRect,0.275000X0.275000X-0.975000X0.275000X0.975000X-0.275000X0.975000X-0.275000X-0.975000X0*%
%TD*%
%TA.AperFunction,SMDPad,CuDef*%
%ADD18C,1.700000*%
%TD*%
%TA.AperFunction,ViaPad*%
%ADD19C,1.400000*%
%TD*%
%TA.AperFunction,ViaPad*%
%ADD20C,0.600000*%
%TD*%
%TA.AperFunction,ViaPad*%
%ADD21C,0.700000*%
%TD*%
%TA.AperFunction,Conductor*%
%ADD22C,0.200000*%
%TD*%
%TA.AperFunction,Conductor*%
%ADD23C,0.400000*%
%TD*%
G04 APERTURE END LIST*
D10*
%TO.P,SW1,1,1*%
%TO.N,GND*%
X162400027Y-91500018D03*
X168900027Y-91500018D03*
%TO.P,SW1,2,2*%
%TO.N,BTN1*%
X162400027Y-96000018D03*
X168900027Y-96000018D03*
%TD*%
D11*
%TO.P,U4,1,V_TOUCH*%
%TO.N,+3V3*%
X173399422Y-73050000D03*
D12*
%TO.P,U4,2,TOUCH_OUT*%
%TO.N,TOUCH_OUT*%
X173399422Y-75590000D03*
%TO.P,U4,3,VCC*%
%TO.N,+3V3*%
X173399422Y-78130000D03*
%TO.P,U4,4,TX*%
%TO.N,TX*%
X173399422Y-80670000D03*
%TO.P,U4,5,RX*%
%TO.N,RX*%
X173399422Y-83210000D03*
%TO.P,U4,6,GND*%
%TO.N,GND*%
X173399422Y-85750000D03*
%TD*%
D10*
%TO.P,SW3,1,1*%
%TO.N,GND*%
X157700021Y-99149985D03*
X164200021Y-99149985D03*
%TO.P,SW3,2,2*%
%TO.N,BTN3*%
X157700021Y-103649985D03*
X164200021Y-103649985D03*
%TD*%
%TO.P,SW2,1,1*%
%TO.N,GND*%
X167250000Y-99150000D03*
X173750000Y-99150000D03*
%TO.P,SW2,2,2*%
%TO.N,BTN2*%
X167250000Y-103650000D03*
X173750000Y-103650000D03*
%TD*%
D11*
%TO.P,U3,1,VCC*%
%TO.N,+3V3*%
X193800000Y-85100000D03*
D12*
%TO.P,U3,2,SIG/LOW*%
%TO.N,TOUCH*%
X191260000Y-85100000D03*
%TO.P,U3,3,GND*%
%TO.N,GND*%
X188720000Y-85100000D03*
%TD*%
D11*
%TO.P,DS1,1,VDD*%
%TO.N,+3V3*%
X181660000Y-71175000D03*
D12*
%TO.P,DS1,2,GND*%
%TO.N,GND*%
X184200000Y-71175000D03*
%TO.P,DS1,3,SCK*%
%TO.N,SCK*%
X186740000Y-71175000D03*
%TO.P,DS1,4,SDA*%
%TO.N,SDA*%
X189280000Y-71175000D03*
%TD*%
D13*
%TO.P,RV1,*%
%TO.N,*%
X165525000Y-76000000D03*
X165525000Y-85600000D03*
D14*
%TO.P,RV1,1,1*%
%TO.N,GND*%
X158025000Y-78300000D03*
D15*
%TO.P,RV1,2,2*%
%TO.N,POTENTIO*%
X158025000Y-80800000D03*
%TO.P,RV1,3,3*%
%TO.N,+3V3*%
X158025000Y-83300000D03*
%TD*%
D11*
%TO.P,BUZZER1,1,+*%
%TO.N,BUZ*%
X184800000Y-80100000D03*
D12*
%TO.P,BUZZER1,2,-*%
%TO.N,GND*%
X184800000Y-82640000D03*
%TD*%
D16*
%TO.P,U5,1,GPIO0_A0_D0*%
%TO.N,BTN2*%
X178471600Y-105541700D03*
%TO.P,U5,2,GPIO1_A1_D1*%
%TO.N,BTN1*%
X178471600Y-103001700D03*
%TO.P,U5,3,GPIO2_A2_D2*%
%TO.N,POTENTIO*%
X178471600Y-100461700D03*
%TO.P,U5,4,GPIO21_D3*%
%TO.N,BTN3*%
X178471600Y-97921700D03*
%TO.P,U5,5,GPIO22_D4_SDA*%
%TO.N,SDA*%
X178471600Y-95381700D03*
%TO.P,U5,6,GPIO23_D5_SCL*%
%TO.N,SCK*%
X178471600Y-92841700D03*
%TO.P,U5,7,GPIO16_D6_TX*%
%TO.N,TOUCH_OUT*%
X178471600Y-90301700D03*
%TO.P,U5,8,GPIO17_D7_RX*%
%TO.N,TX*%
X194636600Y-90301700D03*
%TO.P,U5,9,GPIO19_D8_SCK*%
%TO.N,RX*%
X194636600Y-92841700D03*
%TO.P,U5,10,GPIO20_D9_MISO*%
%TO.N,TOUCH*%
X194636600Y-95381700D03*
%TO.P,U5,11,GPIO18_D10_MOSI*%
%TO.N,BUZ*%
X194636600Y-97921700D03*
%TO.P,U5,12,3V3*%
%TO.N,+3V3*%
X194636600Y-100461700D03*
%TO.P,U5,13,GND*%
%TO.N,GND*%
X194636600Y-103001700D03*
%TO.P,U5,14,5V*%
%TO.N,+5V*%
X194636600Y-105541700D03*
D17*
%TO.P,U5,15,BAT*%
%TO.N,+BATT*%
X184745200Y-92390000D03*
%TO.P,U5,16,GND*%
%TO.N,GND*%
X187285200Y-92390000D03*
D18*
%TO.P,U5,17,MTDI*%
%TO.N,unconnected-(U5-MTDI-Pad17)*%
X185253200Y-106563200D03*
%TO.P,U5,18,MTDO*%
%TO.N,unconnected-(U5-MTDO-Pad18)*%
X187793200Y-106563200D03*
%TO.P,U5,19,CHIP_EN*%
%TO.N,unconnected-(U5-CHIP_EN-Pad19)*%
X185253200Y-104023200D03*
%TO.P,U5,20,GND*%
%TO.N,unconnected-(U5-GND-Pad20)*%
X187793200Y-104023200D03*
%TO.P,U5,21,MTMS*%
%TO.N,unconnected-(U5-MTMS-Pad21)*%
X185253200Y-101483200D03*
%TO.P,U5,22,MTCK*%
%TO.N,unconnected-(U5-MTCK-Pad22)*%
X187793200Y-101483200D03*
%TO.P,U5,23,BOOT*%
%TO.N,unconnected-(U5-BOOT-Pad23)*%
X185253200Y-98943200D03*
%TO.P,U5,24,3V3_1*%
%TO.N,unconnected-(U5-3V3_1-Pad24)*%
X187700600Y-99000000D03*
%TD*%
D11*
%TO.P,BT1,1,+*%
%TO.N,+BATT*%
X167460000Y-72200000D03*
D12*
%TO.P,BT1,2,-*%
%TO.N,GND*%
X170000000Y-72200000D03*
%TD*%
D19*
%TO.N,GND*%
X187300000Y-92400000D03*
%TO.N,+BATT*%
X184745200Y-92390000D03*
D20*
%TO.N,GND*%
X186300000Y-89700000D03*
X175400000Y-90800000D03*
%TO.N,TX*%
X191900000Y-81800000D03*
%TO.N,RX*%
X188400000Y-80300000D03*
D21*
%TO.N,+3V3*%
X191600000Y-98600000D03*
%TD*%
D22*
%TO.N,SDA*%
X189300000Y-72500000D02*
X189300000Y-72400000D01*
X190300000Y-94900000D02*
X190300000Y-89265686D01*
X181000000Y-76265686D02*
X183265686Y-74000000D01*
X188734314Y-87700000D02*
X185100000Y-87700000D01*
X185100000Y-87700000D02*
X181000000Y-83600000D01*
X189300000Y-72400000D02*
X189280000Y-72380000D01*
X178789900Y-95700000D02*
X189500000Y-95700000D01*
X187800000Y-74000000D02*
X189300000Y-72500000D01*
X183265686Y-74000000D02*
X187800000Y-74000000D01*
X181000000Y-83600000D02*
X181000000Y-76265686D01*
X178471600Y-95381700D02*
X178789900Y-95700000D01*
X190300000Y-89265686D02*
X188734314Y-87700000D01*
X189500000Y-95700000D02*
X190300000Y-94900000D01*
X189280000Y-72380000D02*
X189280000Y-71175000D01*
%TO.N,SCK*%
X178471600Y-92841700D02*
X180241700Y-92841700D01*
X180241700Y-92841700D02*
X182700000Y-95300000D01*
X183100001Y-73600000D02*
X185400000Y-73600000D01*
X182700000Y-95300000D02*
X189334314Y-95300000D01*
X180600000Y-76100000D02*
X183100001Y-73600000D01*
X189334314Y-95300000D02*
X189900000Y-94734314D01*
X189900000Y-94734314D02*
X189900000Y-89431372D01*
X184900000Y-88100000D02*
X180600000Y-83800000D01*
X186740000Y-72260000D02*
X186740000Y-71175000D01*
X189900000Y-89431372D02*
X188568628Y-88100000D01*
X188568628Y-88100000D02*
X184900000Y-88100000D01*
X180600000Y-83800000D02*
X180600000Y-76100000D01*
X185400000Y-73600000D02*
X186740000Y-72260000D01*
%TO.N,+BATT*%
X167460000Y-72200000D02*
X167460000Y-71040000D01*
X167460000Y-71040000D02*
X168400000Y-70100000D01*
X168400000Y-70100000D02*
X174400000Y-70100000D01*
X174400000Y-70100000D02*
X180200000Y-75900000D01*
X180200000Y-75900000D02*
X180200000Y-87844800D01*
X180200000Y-87844800D02*
X184745200Y-92390000D01*
%TO.N,BUZ*%
X184800000Y-80100000D02*
X186200000Y-80100000D01*
X186200000Y-80100000D02*
X186700000Y-80600000D01*
X190700000Y-89100000D02*
X190700000Y-96500000D01*
X186700000Y-80600000D02*
X186700000Y-85100000D01*
X186700000Y-85100000D02*
X190700000Y-89100000D01*
X190700000Y-96500000D02*
X192121700Y-97921700D01*
X192121700Y-97921700D02*
X194636600Y-97921700D01*
%TO.N,TX*%
X194636600Y-90301700D02*
X192761700Y-90301700D01*
X193365686Y-87200000D02*
X195065685Y-87200000D01*
X195065685Y-87200000D02*
X195800000Y-86465685D01*
X192060000Y-89600000D02*
X192060000Y-88505686D01*
X192761700Y-90301700D02*
X192060000Y-89600000D01*
X195800000Y-86465685D02*
X195800000Y-83534314D01*
X192060000Y-88505686D02*
X193365686Y-87200000D01*
X195800000Y-83534314D02*
X194965685Y-82700000D01*
X194965685Y-82700000D02*
X192800000Y-82700000D01*
X192800000Y-82700000D02*
X191900000Y-81800000D01*
%TO.N,RX*%
X188400000Y-81400000D02*
X188400000Y-80300000D01*
X194636600Y-92841700D02*
X192641700Y-92841700D01*
X195400000Y-86300000D02*
X195400000Y-83700000D01*
X194800000Y-83100000D02*
X190100000Y-83100000D01*
X193200000Y-86800000D02*
X194800000Y-86800000D01*
X190100000Y-83100000D02*
X188400000Y-81400000D01*
X191660000Y-91860000D02*
X191660000Y-88340000D01*
X191660000Y-88340000D02*
X193200000Y-86800000D01*
X192641700Y-92841700D02*
X191660000Y-91860000D01*
X195400000Y-83700000D02*
X194800000Y-83100000D01*
X194800000Y-86800000D02*
X195300000Y-86300000D01*
X195300000Y-86300000D02*
X195400000Y-86300000D01*
D23*
%TO.N,+3V3*%
X191600000Y-98600000D02*
X191600000Y-99300000D01*
X192761700Y-100461700D02*
X194636600Y-100461700D01*
X191600000Y-99300000D02*
X192761700Y-100461700D01*
D22*
%TO.N,POTENTIO*%
X168800000Y-88000000D02*
X158500000Y-88000000D01*
X175700000Y-94900000D02*
X168800000Y-88000000D01*
X178471600Y-100461700D02*
X175700000Y-97690100D01*
X156000000Y-82200000D02*
X157400000Y-80800000D01*
X157400000Y-80800000D02*
X158025000Y-80800000D01*
X158500000Y-88000000D02*
X156000000Y-85500000D01*
X175700000Y-97690100D02*
X175700000Y-94900000D01*
X156000000Y-85500000D02*
X156000000Y-82200000D01*
%TO.N,BTN1*%
X178471600Y-103001700D02*
X176701700Y-103001700D01*
X171600000Y-101300000D02*
X170400000Y-100100000D01*
X170400000Y-97499991D02*
X168900027Y-96000018D01*
X175000000Y-101300000D02*
X171600000Y-101300000D01*
X170400000Y-100100000D02*
X170400000Y-97499991D01*
X176701700Y-103001700D02*
X175000000Y-101300000D01*
%TO.N,BTN2*%
X175641700Y-105541700D02*
X178471600Y-105541700D01*
X173750000Y-103650000D02*
X175641700Y-105541700D01*
%TO.N,BTN3*%
X180121700Y-97921700D02*
X181100000Y-98900000D01*
X181100000Y-106600000D02*
X180600000Y-107100000D01*
X178471600Y-97921700D02*
X180121700Y-97921700D01*
X164200021Y-105600021D02*
X164200021Y-103649985D01*
X180600000Y-107100000D02*
X165700000Y-107100000D01*
X165700000Y-107100000D02*
X164200021Y-105600021D01*
X181100000Y-98900000D02*
X181100000Y-106600000D01*
%TO.N,TOUCH_OUT*%
X176100000Y-89600000D02*
X176801700Y-90301700D01*
X176801700Y-90301700D02*
X178471600Y-90301700D01*
X176100000Y-78290578D02*
X176100000Y-89600000D01*
X173399422Y-75590000D02*
X176100000Y-78290578D01*
%TO.N,TOUCH*%
X192081700Y-95381700D02*
X191260000Y-94560000D01*
X194636600Y-95381700D02*
X192081700Y-95381700D01*
X191260000Y-94560000D02*
X191260000Y-85100000D01*
%TO.N,SDA*%
X177381700Y-95381700D02*
X178471600Y-95381700D01*
%TD*%
%TA.AperFunction,Conductor*%
%TO.N,GND*%
G36*
X168191088Y-69320186D02*
G01*
X168236843Y-69372990D01*
X168246787Y-69442148D01*
X168217762Y-69505704D01*
X168175252Y-69536357D01*
X168175254Y-69536359D01*
X168175236Y-69536369D01*
X168171502Y-69539062D01*
X168168211Y-69540425D01*
X168031290Y-69619475D01*
X168031282Y-69619481D01*
X166979481Y-70671282D01*
X166979479Y-70671285D01*
X166945085Y-70730859D01*
X166945083Y-70730861D01*
X166912381Y-70787501D01*
X166861814Y-70835716D01*
X166804996Y-70849500D01*
X166562130Y-70849500D01*
X166562123Y-70849501D01*
X166502516Y-70855908D01*
X166367671Y-70906202D01*
X166367664Y-70906206D01*
X166252455Y-70992452D01*
X166252452Y-70992455D01*
X166166206Y-71107664D01*
X166166202Y-71107671D01*
X166115908Y-71242517D01*
X166109501Y-71302116D01*
X166109501Y-71302123D01*
X166109500Y-71302135D01*
X166109500Y-73097870D01*
X166109501Y-73097876D01*
X166115908Y-73157483D01*
X166166202Y-73292328D01*
X166166206Y-73292335D01*
X166252452Y-73407544D01*
X166252455Y-73407547D01*
X166367664Y-73493793D01*
X166367671Y-73493797D01*
X166502517Y-73544091D01*
X166502516Y-73544091D01*
X166509444Y-73544835D01*
X166562127Y-73550500D01*
X168357872Y-73550499D01*
X168417483Y-73544091D01*
X168552331Y-73493796D01*
X168667546Y-73407546D01*
X168753796Y-73292331D01*
X168804091Y-73157483D01*
X168810500Y-73097873D01*
X168810499Y-71302128D01*
X168804091Y-71242517D01*
X168753796Y-71107669D01*
X168753795Y-71107668D01*
X168753793Y-71107664D01*
X168667547Y-70992455D01*
X168604382Y-70945169D01*
X168593697Y-70930896D01*
X168579425Y-70920211D01*
X168573195Y-70903506D01*
X168562512Y-70889235D01*
X168561240Y-70871451D01*
X168555010Y-70854746D01*
X168558799Y-70837326D01*
X168557528Y-70819543D01*
X168566073Y-70803894D01*
X168569863Y-70786474D01*
X168591012Y-70758222D01*
X168612419Y-70736817D01*
X168673743Y-70703333D01*
X168700098Y-70700500D01*
X174099903Y-70700500D01*
X174166942Y-70720185D01*
X174187584Y-70736819D01*
X179563181Y-76112416D01*
X179596666Y-76173739D01*
X179599500Y-76200097D01*
X179599500Y-87758130D01*
X179599499Y-87758148D01*
X179599499Y-87923854D01*
X179599498Y-87923854D01*
X179640423Y-88076585D01*
X179669358Y-88126700D01*
X179669359Y-88126704D01*
X179669360Y-88126704D01*
X179719479Y-88213514D01*
X179719481Y-88213517D01*
X179838349Y-88332385D01*
X179838355Y-88332390D01*
X183535133Y-92029168D01*
X183568618Y-92090491D01*
X183569925Y-92136247D01*
X183544700Y-92295513D01*
X183544700Y-92484486D01*
X183574259Y-92671118D01*
X183632654Y-92850836D01*
X183681185Y-92946081D01*
X183694700Y-93002376D01*
X183694700Y-93408558D01*
X183709357Y-93538648D01*
X183709359Y-93538658D01*
X183767077Y-93703604D01*
X183767078Y-93703606D01*
X183860053Y-93851576D01*
X183983624Y-93975147D01*
X184131594Y-94068122D01*
X184296543Y-94125841D01*
X184296549Y-94125841D01*
X184296551Y-94125842D01*
X184337950Y-94130506D01*
X184426642Y-94140499D01*
X184426645Y-94140500D01*
X184426648Y-94140500D01*
X185063755Y-94140500D01*
X185063756Y-94140499D01*
X185193857Y-94125841D01*
X185358806Y-94068122D01*
X185506776Y-93975147D01*
X185630347Y-93851576D01*
X185723322Y-93703606D01*
X185781041Y-93538657D01*
X185795700Y-93408552D01*
X185795700Y-93002376D01*
X185809215Y-92946081D01*
X185857745Y-92850836D01*
X185857745Y-92850835D01*
X185857747Y-92850832D01*
X185916140Y-92671118D01*
X185945700Y-92484486D01*
X185945700Y-92295513D01*
X185916140Y-92108881D01*
X185883068Y-92007099D01*
X185857747Y-91929168D01*
X185857745Y-91929165D01*
X185857745Y-91929163D01*
X185809215Y-91833918D01*
X185795700Y-91777623D01*
X185795700Y-91371445D01*
X185795699Y-91371441D01*
X185781042Y-91241351D01*
X185781041Y-91241349D01*
X185781041Y-91241343D01*
X185723322Y-91076394D01*
X185630347Y-90928424D01*
X185506776Y-90804853D01*
X185358806Y-90711878D01*
X185358805Y-90711877D01*
X185358804Y-90711877D01*
X185193858Y-90654159D01*
X185193848Y-90654157D01*
X185063758Y-90639500D01*
X185063752Y-90639500D01*
X184426648Y-90639500D01*
X184426641Y-90639500D01*
X184296551Y-90654157D01*
X184296549Y-90654157D01*
X184131595Y-90711877D01*
X184131592Y-90711878D01*
X184083112Y-90742340D01*
X184015875Y-90761339D01*
X183949040Y-90740970D01*
X183929461Y-90725026D01*
X180836819Y-87632384D01*
X180803334Y-87571061D01*
X180800500Y-87544703D01*
X180800500Y-85149097D01*
X180820185Y-85082058D01*
X180872989Y-85036303D01*
X180942147Y-85026359D01*
X181005703Y-85055384D01*
X181012181Y-85061416D01*
X184415139Y-88464374D01*
X184415149Y-88464385D01*
X184419479Y-88468715D01*
X184419480Y-88468716D01*
X184531284Y-88580520D01*
X184599988Y-88620185D01*
X184618095Y-88630639D01*
X184618097Y-88630641D01*
X184668213Y-88659576D01*
X184668215Y-88659577D01*
X184820942Y-88700500D01*
X184820943Y-88700500D01*
X188268531Y-88700500D01*
X188335570Y-88720185D01*
X188356212Y-88736819D01*
X189263181Y-89643788D01*
X189296666Y-89705111D01*
X189299500Y-89731469D01*
X189299500Y-94434217D01*
X189290855Y-94463657D01*
X189284332Y-94493644D01*
X189280577Y-94498659D01*
X189279815Y-94501256D01*
X189263181Y-94521898D01*
X189121898Y-94663181D01*
X189060575Y-94696666D01*
X189034217Y-94699500D01*
X183000097Y-94699500D01*
X182933058Y-94679815D01*
X182912416Y-94663181D01*
X180729290Y-92480055D01*
X180729288Y-92480052D01*
X180610417Y-92361181D01*
X180610409Y-92361175D01*
X180529917Y-92314703D01*
X180529906Y-92314698D01*
X180523400Y-92310942D01*
X180473485Y-92282123D01*
X180419186Y-92267573D01*
X180411148Y-92264152D01*
X180390632Y-92247288D01*
X180367955Y-92233466D01*
X180364059Y-92225446D01*
X180357172Y-92219785D01*
X180349029Y-92194504D01*
X180337427Y-92170618D01*
X180336900Y-92166514D01*
X180336486Y-92164285D01*
X180336486Y-92164282D01*
X180280509Y-91968651D01*
X180186298Y-91788293D01*
X180073583Y-91650059D01*
X180046475Y-91585665D01*
X180058484Y-91516835D01*
X180073581Y-91493342D01*
X180186298Y-91355107D01*
X180280509Y-91174749D01*
X180336486Y-90979118D01*
X180347100Y-90859737D01*
X180347099Y-89743664D01*
X180336486Y-89624282D01*
X180280509Y-89428651D01*
X180186298Y-89248293D01*
X180134284Y-89184503D01*
X180057709Y-89090590D01*
X179922478Y-88980325D01*
X179900007Y-88962002D01*
X179719649Y-88867791D01*
X179719648Y-88867790D01*
X179719645Y-88867789D01*
X179602429Y-88834250D01*
X179524018Y-88811814D01*
X179524015Y-88811813D01*
X179524013Y-88811813D01*
X179456184Y-88805783D01*
X179404637Y-88801200D01*
X179404632Y-88801200D01*
X177538571Y-88801200D01*
X177538565Y-88801200D01*
X177538564Y-88801201D01*
X177526916Y-88802236D01*
X177419184Y-88811813D01*
X177223554Y-88867789D01*
X177043187Y-88962005D01*
X176902860Y-89076427D01*
X176838464Y-89103536D01*
X176769634Y-89091526D01*
X176718224Y-89044211D01*
X176700500Y-88980325D01*
X176700500Y-78379637D01*
X176700501Y-78379624D01*
X176700501Y-78211523D01*
X176700501Y-78211521D01*
X176659577Y-78058793D01*
X176630639Y-78008673D01*
X176580520Y-77921862D01*
X176468716Y-77810058D01*
X176468715Y-77810057D01*
X176464385Y-77805727D01*
X176464374Y-77805717D01*
X174733179Y-76074522D01*
X174699694Y-76013199D01*
X174702929Y-75948523D01*
X174716668Y-75906243D01*
X174749922Y-75696287D01*
X174749922Y-75483713D01*
X174716668Y-75273757D01*
X174650979Y-75071588D01*
X174554473Y-74882184D01*
X174554471Y-74882181D01*
X174554470Y-74882179D01*
X174429531Y-74710213D01*
X174315991Y-74596673D01*
X174282506Y-74535350D01*
X174287490Y-74465658D01*
X174329362Y-74409725D01*
X174360337Y-74392810D01*
X174491753Y-74343796D01*
X174606968Y-74257546D01*
X174693218Y-74142331D01*
X174743513Y-74007483D01*
X174749922Y-73947873D01*
X174749921Y-72152128D01*
X174743513Y-72092517D01*
X174736187Y-72072876D01*
X174693219Y-71957671D01*
X174693215Y-71957664D01*
X174606969Y-71842455D01*
X174606966Y-71842452D01*
X174491757Y-71756206D01*
X174491750Y-71756202D01*
X174356904Y-71705908D01*
X174356905Y-71705908D01*
X174297305Y-71699501D01*
X174297303Y-71699500D01*
X174297295Y-71699500D01*
X174297286Y-71699500D01*
X172501551Y-71699500D01*
X172501545Y-71699501D01*
X172441938Y-71705908D01*
X172307093Y-71756202D01*
X172307086Y-71756206D01*
X172191877Y-71842452D01*
X172191874Y-71842455D01*
X172105628Y-71957664D01*
X172105624Y-71957671D01*
X172055330Y-72092517D01*
X172051034Y-72132482D01*
X172048923Y-72152123D01*
X172048922Y-72152135D01*
X172048922Y-73947870D01*
X172048923Y-73947876D01*
X172055330Y-74007483D01*
X172105624Y-74142328D01*
X172105628Y-74142335D01*
X172191874Y-74257544D01*
X172191877Y-74257547D01*
X172307086Y-74343793D01*
X172307093Y-74343797D01*
X172438504Y-74392810D01*
X172494438Y-74434681D01*
X172518855Y-74500145D01*
X172504004Y-74568418D01*
X172482853Y-74596673D01*
X172369311Y-74710215D01*
X172244373Y-74882179D01*
X172147866Y-75071585D01*
X172082175Y-75273760D01*
X172048922Y-75483713D01*
X172048922Y-75696286D01*
X172082175Y-75906239D01*
X172082175Y-75906241D01*
X172082176Y-75906243D01*
X172136853Y-76074522D01*
X172147866Y-76108414D01*
X172244373Y-76297820D01*
X172369312Y-76469786D01*
X172519635Y-76620109D01*
X172691604Y-76745050D01*
X172700368Y-76749516D01*
X172751164Y-76797491D01*
X172767958Y-76865312D01*
X172745420Y-76931447D01*
X172700368Y-76970484D01*
X172691604Y-76974949D01*
X172519635Y-77099890D01*
X172369312Y-77250213D01*
X172244373Y-77422179D01*
X172147866Y-77611585D01*
X172082175Y-77813760D01*
X172048922Y-78023713D01*
X172048922Y-78236286D01*
X172071626Y-78379637D01*
X172082176Y-78446243D01*
X172112416Y-78539313D01*
X172147866Y-78648414D01*
X172244373Y-78837820D01*
X172369312Y-79009786D01*
X172519635Y-79160109D01*
X172691604Y-79285050D01*
X172700368Y-79289516D01*
X172751164Y-79337491D01*
X172767958Y-79405312D01*
X172745420Y-79471447D01*
X172700368Y-79510484D01*
X172691604Y-79514949D01*
X172519635Y-79639890D01*
X172369312Y-79790213D01*
X172244373Y-79962179D01*
X172147866Y-80151585D01*
X172082175Y-80353760D01*
X172063440Y-80472049D01*
X172048922Y-80563713D01*
X172048922Y-80776287D01*
X172082176Y-80986243D01*
X172144550Y-81178211D01*
X172147866Y-81188414D01*
X172244373Y-81377820D01*
X172369312Y-81549786D01*
X172519635Y-81700109D01*
X172691604Y-81825050D01*
X172700368Y-81829516D01*
X172751164Y-81877491D01*
X172767958Y-81945312D01*
X172745420Y-82011447D01*
X172700368Y-82050484D01*
X172691604Y-82054949D01*
X172519635Y-82179890D01*
X172369312Y-82330213D01*
X172244373Y-82502179D01*
X172147866Y-82691585D01*
X172082175Y-82893760D01*
X172048922Y-83103713D01*
X172048922Y-83316286D01*
X172073064Y-83468716D01*
X172082176Y-83526243D01*
X172138795Y-83700499D01*
X172147866Y-83728414D01*
X172244373Y-83917820D01*
X172369312Y-84089786D01*
X172519635Y-84240109D01*
X172691601Y-84365048D01*
X172691603Y-84365049D01*
X172691606Y-84365051D01*
X172881010Y-84461557D01*
X173083179Y-84527246D01*
X173293135Y-84560500D01*
X173293136Y-84560500D01*
X173505708Y-84560500D01*
X173505709Y-84560500D01*
X173715665Y-84527246D01*
X173917834Y-84461557D01*
X174107238Y-84365051D01*
X174129211Y-84349086D01*
X174279208Y-84240109D01*
X174279210Y-84240106D01*
X174279214Y-84240104D01*
X174429526Y-84089792D01*
X174429528Y-84089788D01*
X174429531Y-84089786D01*
X174554470Y-83917820D01*
X174554469Y-83917820D01*
X174554473Y-83917816D01*
X174650979Y-83728412D01*
X174716668Y-83526243D01*
X174749922Y-83316287D01*
X174749922Y-83103713D01*
X174716668Y-82893757D01*
X174650979Y-82691588D01*
X174554473Y-82502184D01*
X174554471Y-82502181D01*
X174554470Y-82502179D01*
X174429531Y-82330213D01*
X174279208Y-82179890D01*
X174107242Y-82054951D01*
X174106537Y-82054591D01*
X174098476Y-82050485D01*
X174047681Y-82002512D01*
X174030885Y-81934692D01*
X174053421Y-81868556D01*
X174098476Y-81829515D01*
X174107238Y-81825051D01*
X174161897Y-81785339D01*
X174279208Y-81700109D01*
X174279210Y-81700106D01*
X174279214Y-81700104D01*
X174429526Y-81549792D01*
X174429528Y-81549788D01*
X174429531Y-81549786D01*
X174554470Y-81377820D01*
X174554469Y-81377820D01*
X174554473Y-81377816D01*
X174650979Y-81188412D01*
X174716668Y-80986243D01*
X174749922Y-80776287D01*
X174749922Y-80563713D01*
X174716668Y-80353757D01*
X174650979Y-80151588D01*
X174554473Y-79962184D01*
X174554471Y-79962181D01*
X174554470Y-79962179D01*
X174429531Y-79790213D01*
X174279208Y-79639890D01*
X174107242Y-79514951D01*
X174106537Y-79514591D01*
X174098476Y-79510485D01*
X174047681Y-79462512D01*
X174030885Y-79394692D01*
X174053421Y-79328556D01*
X174098476Y-79289515D01*
X174107238Y-79285051D01*
X174221363Y-79202135D01*
X174279208Y-79160109D01*
X174279210Y-79160106D01*
X174279214Y-79160104D01*
X174429526Y-79009792D01*
X174429528Y-79009788D01*
X174429531Y-79009786D01*
X174554470Y-78837820D01*
X174554469Y-78837820D01*
X174554473Y-78837816D01*
X174650979Y-78648412D01*
X174716668Y-78446243D01*
X174749922Y-78236287D01*
X174749922Y-78089097D01*
X174769607Y-78022058D01*
X174822411Y-77976303D01*
X174891569Y-77966359D01*
X174955125Y-77995384D01*
X174961603Y-78001416D01*
X175463181Y-78502994D01*
X175496666Y-78564317D01*
X175499500Y-78590675D01*
X175499500Y-89513330D01*
X175499499Y-89513348D01*
X175499499Y-89679054D01*
X175499498Y-89679054D01*
X175540423Y-89831785D01*
X175560285Y-89866186D01*
X175599748Y-89934539D01*
X175619479Y-89968715D01*
X175738349Y-90087585D01*
X175738354Y-90087589D01*
X176432984Y-90782220D01*
X176541855Y-90845076D01*
X176590070Y-90895642D01*
X176603368Y-90941482D01*
X176606713Y-90979115D01*
X176662689Y-91174745D01*
X176662690Y-91174746D01*
X176662691Y-91174749D01*
X176756902Y-91355107D01*
X176780239Y-91383727D01*
X176869615Y-91493339D01*
X176896724Y-91557736D01*
X176884715Y-91626565D01*
X176869615Y-91650061D01*
X176756904Y-91788290D01*
X176662689Y-91968654D01*
X176606714Y-92164283D01*
X176606713Y-92164286D01*
X176596100Y-92283666D01*
X176596100Y-93399728D01*
X176596101Y-93399734D01*
X176606713Y-93519115D01*
X176662689Y-93714745D01*
X176662690Y-93714748D01*
X176662691Y-93714749D01*
X176756902Y-93895107D01*
X176756904Y-93895109D01*
X176869615Y-94033339D01*
X176896724Y-94097736D01*
X176884715Y-94166565D01*
X176869615Y-94190061D01*
X176770787Y-94311265D01*
X176756902Y-94328293D01*
X176709796Y-94418472D01*
X176662689Y-94508654D01*
X176622054Y-94650672D01*
X176608083Y-94699500D01*
X176606714Y-94704283D01*
X176606713Y-94704286D01*
X176596100Y-94823666D01*
X176596100Y-95939728D01*
X176596101Y-95939734D01*
X176606713Y-96059115D01*
X176662689Y-96254745D01*
X176662690Y-96254748D01*
X176662691Y-96254749D01*
X176756902Y-96435107D01*
X176756904Y-96435109D01*
X176869615Y-96573339D01*
X176896724Y-96637736D01*
X176884715Y-96706565D01*
X176869615Y-96730061D01*
X176868210Y-96731785D01*
X176756902Y-96868293D01*
X176756681Y-96868716D01*
X176662689Y-97048654D01*
X176639049Y-97131275D01*
X176610426Y-97231311D01*
X176606714Y-97244283D01*
X176606713Y-97244286D01*
X176596100Y-97363666D01*
X176596100Y-97437603D01*
X176589861Y-97458848D01*
X176588282Y-97480937D01*
X176580209Y-97491720D01*
X176576415Y-97504642D01*
X176559681Y-97519141D01*
X176546410Y-97536870D01*
X176533789Y-97541577D01*
X176523611Y-97550397D01*
X176501693Y-97553548D01*
X176480946Y-97561287D01*
X176467785Y-97558424D01*
X176454453Y-97560341D01*
X176434309Y-97551141D01*
X176412673Y-97546435D01*
X176394947Y-97533166D01*
X176390897Y-97531316D01*
X176384419Y-97525284D01*
X176336819Y-97477684D01*
X176303334Y-97416361D01*
X176300500Y-97390003D01*
X176300500Y-94989060D01*
X176300501Y-94989047D01*
X176300501Y-94820944D01*
X176295880Y-94803699D01*
X176259577Y-94668216D01*
X176249448Y-94650672D01*
X176180524Y-94531290D01*
X176180518Y-94531282D01*
X169287590Y-87638355D01*
X169287588Y-87638352D01*
X169168717Y-87519481D01*
X169168709Y-87519475D01*
X169066560Y-87460500D01*
X169031788Y-87440424D01*
X169031787Y-87440423D01*
X168970693Y-87424053D01*
X168879057Y-87399499D01*
X168720943Y-87399499D01*
X168713347Y-87399499D01*
X168713331Y-87399500D01*
X166851948Y-87399500D01*
X166784909Y-87379815D01*
X166739154Y-87327011D01*
X166729210Y-87257853D01*
X166758235Y-87194297D01*
X166789945Y-87168114D01*
X166820856Y-87150268D01*
X167014345Y-87001799D01*
X167186799Y-86829345D01*
X167335268Y-86635856D01*
X167457212Y-86424644D01*
X167550544Y-86199321D01*
X167613666Y-85963744D01*
X167645500Y-85721944D01*
X167645500Y-85478056D01*
X167613666Y-85236256D01*
X167550544Y-85000679D01*
X167457212Y-84775356D01*
X167457210Y-84775353D01*
X167457208Y-84775348D01*
X167335272Y-84564151D01*
X167335268Y-84564144D01*
X167186799Y-84370655D01*
X167186794Y-84370649D01*
X167014350Y-84198205D01*
X167014343Y-84198199D01*
X166820864Y-84049738D01*
X166820862Y-84049736D01*
X166820856Y-84049732D01*
X166820851Y-84049729D01*
X166820848Y-84049727D01*
X166609651Y-83927791D01*
X166609640Y-83927786D01*
X166384330Y-83834459D01*
X166384323Y-83834457D01*
X166384321Y-83834456D01*
X166148744Y-83771334D01*
X166108333Y-83766013D01*
X165906951Y-83739500D01*
X165906944Y-83739500D01*
X165143056Y-83739500D01*
X165143048Y-83739500D01*
X164912896Y-83769801D01*
X164901256Y-83771334D01*
X164858636Y-83782754D01*
X164665679Y-83834456D01*
X164665669Y-83834459D01*
X164440359Y-83927786D01*
X164440348Y-83927791D01*
X164229151Y-84049727D01*
X164229135Y-84049738D01*
X164035656Y-84198199D01*
X164035649Y-84198205D01*
X163863205Y-84370649D01*
X163863199Y-84370656D01*
X163714738Y-84564135D01*
X163714727Y-84564151D01*
X163592791Y-84775348D01*
X163592786Y-84775359D01*
X163499459Y-85000669D01*
X163499456Y-85000679D01*
X163444365Y-85206286D01*
X163436335Y-85236253D01*
X163436333Y-85236264D01*
X163404500Y-85478048D01*
X163404500Y-85721951D01*
X163423823Y-85868714D01*
X163436334Y-85963744D01*
X163497583Y-86192331D01*
X163499456Y-86199320D01*
X163499459Y-86199330D01*
X163592786Y-86424640D01*
X163592791Y-86424651D01*
X163714727Y-86635848D01*
X163714738Y-86635864D01*
X163863199Y-86829343D01*
X163863205Y-86829350D01*
X164035649Y-87001794D01*
X164035655Y-87001799D01*
X164229144Y-87150268D01*
X164260053Y-87168113D01*
X164308268Y-87218681D01*
X164321490Y-87287288D01*
X164295522Y-87352152D01*
X164238608Y-87392680D01*
X164198052Y-87399500D01*
X158800097Y-87399500D01*
X158733058Y-87379815D01*
X158712416Y-87363181D01*
X156636819Y-85287584D01*
X156603334Y-85226261D01*
X156600500Y-85199903D01*
X156600500Y-84103650D01*
X156620185Y-84036611D01*
X156672989Y-83990856D01*
X156742147Y-83980912D01*
X156805703Y-84009937D01*
X156824818Y-84030765D01*
X156956752Y-84212358D01*
X156956756Y-84212363D01*
X157112636Y-84368243D01*
X157112641Y-84368247D01*
X157238646Y-84459794D01*
X157290978Y-84497815D01*
X157414003Y-84560500D01*
X157487393Y-84597895D01*
X157487396Y-84597896D01*
X157592221Y-84631955D01*
X157697049Y-84666015D01*
X157914778Y-84700500D01*
X157914779Y-84700500D01*
X158135221Y-84700500D01*
X158135222Y-84700500D01*
X158352951Y-84666015D01*
X158562606Y-84597895D01*
X158759022Y-84497815D01*
X158937365Y-84368242D01*
X159093242Y-84212365D01*
X159222815Y-84034022D01*
X159322895Y-83837606D01*
X159323919Y-83834456D01*
X159391015Y-83627951D01*
X159425500Y-83410221D01*
X159425500Y-83189778D01*
X159391015Y-82972049D01*
X159322895Y-82762394D01*
X159322895Y-82762393D01*
X159286816Y-82691585D01*
X159222815Y-82565978D01*
X159165694Y-82487357D01*
X159093247Y-82387641D01*
X159093243Y-82387636D01*
X158937365Y-82231758D01*
X158920459Y-82219475D01*
X158825270Y-82150317D01*
X158782606Y-82094989D01*
X158776627Y-82025376D01*
X158809232Y-81963580D01*
X158825265Y-81949686D01*
X158937365Y-81868242D01*
X159093242Y-81712365D01*
X159222815Y-81534022D01*
X159322895Y-81337606D01*
X159391015Y-81127951D01*
X159425500Y-80910222D01*
X159425500Y-80689778D01*
X159391015Y-80472049D01*
X159322895Y-80262394D01*
X159322895Y-80262393D01*
X159266434Y-80151585D01*
X159222815Y-80065978D01*
X159147401Y-79962179D01*
X159093247Y-79887641D01*
X159093243Y-79887636D01*
X158937363Y-79731756D01*
X158937358Y-79731752D01*
X158759025Y-79602187D01*
X158759024Y-79602186D01*
X158759022Y-79602185D01*
X158637809Y-79540423D01*
X158562606Y-79502104D01*
X158562603Y-79502103D01*
X158352952Y-79433985D01*
X158171917Y-79405312D01*
X158135222Y-79399500D01*
X157914778Y-79399500D01*
X157878083Y-79405312D01*
X157697047Y-79433985D01*
X157487396Y-79502103D01*
X157487393Y-79502104D01*
X157290974Y-79602187D01*
X157112641Y-79731752D01*
X157112636Y-79731756D01*
X156956756Y-79887636D01*
X156956752Y-79887641D01*
X156827187Y-80065974D01*
X156727104Y-80262393D01*
X156727103Y-80262396D01*
X156658985Y-80472047D01*
X156623936Y-80693337D01*
X156594007Y-80756472D01*
X156589144Y-80761620D01*
X155519481Y-81831282D01*
X155519479Y-81831284D01*
X155499499Y-81865891D01*
X155491054Y-81880520D01*
X155440423Y-81968215D01*
X155399499Y-82120943D01*
X155399499Y-82120945D01*
X155399499Y-82289046D01*
X155399500Y-82289059D01*
X155399500Y-85413330D01*
X155399499Y-85413348D01*
X155399499Y-85579054D01*
X155399498Y-85579054D01*
X155440423Y-85731785D01*
X155469358Y-85781900D01*
X155469359Y-85781904D01*
X155469360Y-85781904D01*
X155519479Y-85868714D01*
X155519481Y-85868717D01*
X155638349Y-85987585D01*
X155638355Y-85987590D01*
X158015139Y-88364374D01*
X158015149Y-88364385D01*
X158019479Y-88368715D01*
X158019480Y-88368716D01*
X158131284Y-88480520D01*
X158218095Y-88530639D01*
X158218097Y-88530641D01*
X158256151Y-88552611D01*
X158268215Y-88559577D01*
X158420943Y-88600501D01*
X158420946Y-88600501D01*
X158586653Y-88600501D01*
X158586669Y-88600500D01*
X168499903Y-88600500D01*
X168566942Y-88620185D01*
X168587584Y-88636819D01*
X175063181Y-95112416D01*
X175096666Y-95173739D01*
X175099500Y-95200097D01*
X175099500Y-97603430D01*
X175099499Y-97603448D01*
X175099499Y-97769154D01*
X175099498Y-97769154D01*
X175140423Y-97921886D01*
X175140424Y-97921887D01*
X175168142Y-97969896D01*
X175219480Y-98058816D01*
X175219482Y-98058818D01*
X175338349Y-98177685D01*
X175338355Y-98177690D01*
X176630347Y-99469682D01*
X176663832Y-99531005D01*
X176661882Y-99591474D01*
X176606714Y-99784282D01*
X176606713Y-99784286D01*
X176596100Y-99903666D01*
X176596100Y-101019728D01*
X176596101Y-101019734D01*
X176606713Y-101139115D01*
X176662689Y-101334745D01*
X176662690Y-101334748D01*
X176662691Y-101334749D01*
X176756902Y-101515107D01*
X176756904Y-101515109D01*
X176869615Y-101653339D01*
X176881048Y-101680498D01*
X176894923Y-101706490D01*
X176894449Y-101712332D01*
X176896724Y-101717736D01*
X176891658Y-101746767D01*
X176889279Y-101776131D01*
X176885353Y-101782903D01*
X176884715Y-101786565D01*
X176872072Y-101806947D01*
X176870859Y-101808534D01*
X176756902Y-101948293D01*
X176741179Y-101978391D01*
X176734738Y-101986829D01*
X176714780Y-102001476D01*
X176697598Y-102019303D01*
X176687104Y-102021788D01*
X176678411Y-102028169D01*
X176653701Y-102029701D01*
X176629609Y-102035408D01*
X176619437Y-102031825D01*
X176608675Y-102032493D01*
X176587060Y-102020423D01*
X176563707Y-102012199D01*
X176548498Y-101999263D01*
X175487590Y-100938355D01*
X175487588Y-100938352D01*
X175368717Y-100819481D01*
X175368716Y-100819480D01*
X175281904Y-100769360D01*
X175281904Y-100769359D01*
X175281900Y-100769358D01*
X175231785Y-100740423D01*
X175079057Y-100699499D01*
X174920943Y-100699499D01*
X174913347Y-100699499D01*
X174913331Y-100699500D01*
X171900097Y-100699500D01*
X171833058Y-100679815D01*
X171812416Y-100663181D01*
X171036819Y-99887584D01*
X171003334Y-99826261D01*
X171000500Y-99799903D01*
X171000500Y-97420936D01*
X171000500Y-97420934D01*
X170973826Y-97321384D01*
X170959577Y-97268206D01*
X170930639Y-97218086D01*
X170880520Y-97131275D01*
X170768716Y-97019471D01*
X170768715Y-97019470D01*
X170764385Y-97015140D01*
X170764374Y-97015130D01*
X170352825Y-96603581D01*
X170319340Y-96542258D01*
X170322574Y-96477584D01*
X170363580Y-96351386D01*
X170383732Y-96224144D01*
X170400527Y-96118115D01*
X170400527Y-95881920D01*
X170363580Y-95648649D01*
X170290593Y-95424021D01*
X170183369Y-95213584D01*
X170154420Y-95173739D01*
X170044544Y-95022508D01*
X169877537Y-94855501D01*
X169686460Y-94716675D01*
X169476023Y-94609451D01*
X169251395Y-94536464D01*
X169018124Y-94499518D01*
X169018119Y-94499518D01*
X168781935Y-94499518D01*
X168781930Y-94499518D01*
X168548658Y-94536464D01*
X168324030Y-94609451D01*
X168113593Y-94716675D01*
X168056792Y-94757944D01*
X167922517Y-94855501D01*
X167922515Y-94855503D01*
X167922514Y-94855503D01*
X167755512Y-95022505D01*
X167755512Y-95022506D01*
X167755510Y-95022508D01*
X167714536Y-95078904D01*
X167616684Y-95213584D01*
X167509460Y-95424021D01*
X167436473Y-95648649D01*
X167399527Y-95881920D01*
X167399527Y-96118115D01*
X167436473Y-96351386D01*
X167509460Y-96576014D01*
X167555140Y-96665665D01*
X167616684Y-96786451D01*
X167755510Y-96977528D01*
X167922517Y-97144535D01*
X168113594Y-97283361D01*
X168213018Y-97334020D01*
X168324030Y-97390584D01*
X168324032Y-97390584D01*
X168324035Y-97390586D01*
X168422459Y-97422566D01*
X168548658Y-97463571D01*
X168781930Y-97500518D01*
X168781935Y-97500518D01*
X169018124Y-97500518D01*
X169124153Y-97483723D01*
X169251395Y-97463571D01*
X169377593Y-97422565D01*
X169447431Y-97420571D01*
X169503590Y-97452816D01*
X169763181Y-97712407D01*
X169796666Y-97773730D01*
X169799500Y-97800088D01*
X169799500Y-100013330D01*
X169799499Y-100013348D01*
X169799499Y-100179054D01*
X169799498Y-100179054D01*
X169818926Y-100251557D01*
X169840423Y-100331785D01*
X169864262Y-100373075D01*
X169869358Y-100381900D01*
X169869359Y-100381904D01*
X169869360Y-100381904D01*
X169910458Y-100453090D01*
X169919479Y-100468714D01*
X169919481Y-100468717D01*
X170038349Y-100587585D01*
X170038355Y-100587590D01*
X171115139Y-101664374D01*
X171115149Y-101664385D01*
X171119479Y-101668715D01*
X171119480Y-101668716D01*
X171231284Y-101780520D01*
X171282452Y-101810061D01*
X171318095Y-101830639D01*
X171318097Y-101830641D01*
X171368213Y-101859576D01*
X171368215Y-101859577D01*
X171520942Y-101900500D01*
X171520943Y-101900500D01*
X174699903Y-101900500D01*
X174766942Y-101920185D01*
X174787584Y-101936819D01*
X176216839Y-103366074D01*
X176216849Y-103366085D01*
X176221179Y-103370415D01*
X176221180Y-103370416D01*
X176332984Y-103482220D01*
X176419021Y-103531893D01*
X176469915Y-103561277D01*
X176524085Y-103575791D01*
X176532185Y-103579251D01*
X176552622Y-103596092D01*
X176575238Y-103609877D01*
X176579166Y-103617964D01*
X176586106Y-103623683D01*
X176594195Y-103648903D01*
X176605767Y-103672725D01*
X176606304Y-103676914D01*
X176606713Y-103679114D01*
X176606714Y-103679118D01*
X176614680Y-103706957D01*
X176662689Y-103874745D01*
X176662690Y-103874748D01*
X176662691Y-103874749D01*
X176756902Y-104055107D01*
X176799860Y-104107791D01*
X176869615Y-104193339D01*
X176896724Y-104257736D01*
X176884715Y-104326565D01*
X176869615Y-104350061D01*
X176756902Y-104488293D01*
X176709796Y-104578472D01*
X176662689Y-104668654D01*
X176627096Y-104793047D01*
X176610425Y-104851312D01*
X176573059Y-104910349D01*
X176509705Y-104939813D01*
X176491210Y-104941200D01*
X175941798Y-104941200D01*
X175874759Y-104921515D01*
X175854117Y-104904881D01*
X175202798Y-104253563D01*
X175169313Y-104192240D01*
X175172547Y-104127566D01*
X175213553Y-104001368D01*
X175237052Y-103852999D01*
X175250500Y-103768097D01*
X175250500Y-103531902D01*
X175213553Y-103298631D01*
X175163119Y-103143413D01*
X175140568Y-103074008D01*
X175140566Y-103074005D01*
X175140566Y-103074003D01*
X175084002Y-102962991D01*
X175033343Y-102863567D01*
X174894517Y-102672490D01*
X174727510Y-102505483D01*
X174536433Y-102366657D01*
X174529228Y-102362986D01*
X174325996Y-102259433D01*
X174101368Y-102186446D01*
X173868097Y-102149500D01*
X173868092Y-102149500D01*
X173631908Y-102149500D01*
X173631903Y-102149500D01*
X173398631Y-102186446D01*
X173174003Y-102259433D01*
X172963566Y-102366657D01*
X172857576Y-102443664D01*
X172772490Y-102505483D01*
X172772488Y-102505485D01*
X172772487Y-102505485D01*
X172605485Y-102672487D01*
X172605485Y-102672488D01*
X172605483Y-102672490D01*
X172560243Y-102734757D01*
X172466657Y-102863566D01*
X172359433Y-103074003D01*
X172286446Y-103298631D01*
X172249500Y-103531902D01*
X172249500Y-103768097D01*
X172286446Y-104001368D01*
X172359433Y-104225996D01*
X172417236Y-104339439D01*
X172466657Y-104436433D01*
X172605483Y-104627510D01*
X172772490Y-104794517D01*
X172963567Y-104933343D01*
X173023144Y-104963699D01*
X173174003Y-105040566D01*
X173174005Y-105040566D01*
X173174008Y-105040568D01*
X173213221Y-105053309D01*
X173398631Y-105113553D01*
X173631903Y-105150500D01*
X173631908Y-105150500D01*
X173868097Y-105150500D01*
X173974126Y-105133705D01*
X174101368Y-105113553D01*
X174227566Y-105072547D01*
X174297404Y-105070553D01*
X174353562Y-105102797D01*
X175272984Y-106022220D01*
X175409915Y-106101277D01*
X175562643Y-106142201D01*
X175562646Y-106142201D01*
X175728354Y-106142201D01*
X175728370Y-106142200D01*
X176491210Y-106142200D01*
X176516962Y-106149761D01*
X176543500Y-106153765D01*
X176549976Y-106159455D01*
X176558249Y-106161885D01*
X176575822Y-106182166D01*
X176595987Y-106199884D01*
X176601145Y-106211390D01*
X176604004Y-106214689D01*
X176610423Y-106232082D01*
X176610542Y-106232495D01*
X176641700Y-106341389D01*
X176641217Y-106411257D01*
X176603037Y-106469772D01*
X176539282Y-106498357D01*
X176522484Y-106499500D01*
X166000098Y-106499500D01*
X165933059Y-106479815D01*
X165912417Y-106463181D01*
X164836840Y-105387604D01*
X164803355Y-105326281D01*
X164800521Y-105299923D01*
X164800521Y-105104052D01*
X164820206Y-105037013D01*
X164868226Y-104993567D01*
X164986454Y-104933328D01*
X165177531Y-104794502D01*
X165344538Y-104627495D01*
X165483364Y-104436418D01*
X165590589Y-104225977D01*
X165607077Y-104175229D01*
X165646514Y-104117556D01*
X165710873Y-104090357D01*
X165779719Y-104102272D01*
X165831195Y-104149516D01*
X165842937Y-104175228D01*
X165859432Y-104225992D01*
X165966657Y-104436433D01*
X166105483Y-104627510D01*
X166272490Y-104794517D01*
X166463567Y-104933343D01*
X166523144Y-104963699D01*
X166674003Y-105040566D01*
X166674005Y-105040566D01*
X166674008Y-105040568D01*
X166713221Y-105053309D01*
X166898631Y-105113553D01*
X167131903Y-105150500D01*
X167131908Y-105150500D01*
X167368097Y-105150500D01*
X167601368Y-105113553D01*
X167634468Y-105102798D01*
X167825992Y-105040568D01*
X167826022Y-105040553D01*
X167833719Y-105036630D01*
X168036433Y-104933343D01*
X168227510Y-104794517D01*
X168394517Y-104627510D01*
X168533343Y-104436433D01*
X168640568Y-104225992D01*
X168713553Y-104001368D01*
X168719991Y-103960718D01*
X168750500Y-103768097D01*
X168750500Y-103531902D01*
X168713553Y-103298631D01*
X168663119Y-103143413D01*
X168640568Y-103074008D01*
X168640566Y-103074005D01*
X168640566Y-103074003D01*
X168584002Y-102962991D01*
X168533343Y-102863567D01*
X168394517Y-102672490D01*
X168227510Y-102505483D01*
X168036433Y-102366657D01*
X168029228Y-102362986D01*
X167825996Y-102259433D01*
X167601368Y-102186446D01*
X167368097Y-102149500D01*
X167368092Y-102149500D01*
X167131908Y-102149500D01*
X167131903Y-102149500D01*
X166898631Y-102186446D01*
X166674003Y-102259433D01*
X166463566Y-102366657D01*
X166357576Y-102443664D01*
X166272490Y-102505483D01*
X166272488Y-102505485D01*
X166272487Y-102505485D01*
X166105485Y-102672487D01*
X166105485Y-102672488D01*
X166105483Y-102672490D01*
X166060243Y-102734757D01*
X165966657Y-102863566D01*
X165859432Y-103074006D01*
X165842942Y-103124756D01*
X165803504Y-103182430D01*
X165739144Y-103209627D01*
X165670298Y-103197711D01*
X165618823Y-103150466D01*
X165607083Y-103124756D01*
X165590589Y-103073993D01*
X165483364Y-102863552D01*
X165344538Y-102672475D01*
X165177531Y-102505468D01*
X164986454Y-102366642D01*
X164776017Y-102259418D01*
X164551389Y-102186431D01*
X164318118Y-102149485D01*
X164318113Y-102149485D01*
X164081929Y-102149485D01*
X164081924Y-102149485D01*
X163848652Y-102186431D01*
X163624024Y-102259418D01*
X163413587Y-102366642D01*
X163307577Y-102443664D01*
X163222511Y-102505468D01*
X163222509Y-102505470D01*
X163222508Y-102505470D01*
X163055506Y-102672472D01*
X163055506Y-102672473D01*
X163055504Y-102672475D01*
X163010253Y-102734757D01*
X162916678Y-102863551D01*
X162809454Y-103073988D01*
X162736467Y-103298616D01*
X162699521Y-103531887D01*
X162699521Y-103768082D01*
X162736467Y-104001353D01*
X162809454Y-104225981D01*
X162872677Y-104350061D01*
X162916678Y-104436418D01*
X163055504Y-104627495D01*
X163222511Y-104794502D01*
X163348227Y-104885840D01*
X163413589Y-104933329D01*
X163473195Y-104963699D01*
X163531815Y-104993567D01*
X163582611Y-105041541D01*
X163599521Y-105104052D01*
X163599521Y-105513351D01*
X163599520Y-105513369D01*
X163599520Y-105679075D01*
X163599519Y-105679075D01*
X163616815Y-105743623D01*
X163640444Y-105831806D01*
X163640445Y-105831807D01*
X163654056Y-105855384D01*
X163654057Y-105855385D01*
X163719496Y-105968730D01*
X163719502Y-105968738D01*
X163838370Y-106087606D01*
X163838375Y-106087610D01*
X165331284Y-107580520D01*
X165331286Y-107580521D01*
X165331290Y-107580524D01*
X165468209Y-107659573D01*
X165468216Y-107659577D01*
X165620943Y-107700501D01*
X165620945Y-107700501D01*
X165786654Y-107700501D01*
X165786670Y-107700500D01*
X180513331Y-107700500D01*
X180513347Y-107700501D01*
X180520943Y-107700501D01*
X180679054Y-107700501D01*
X180679057Y-107700501D01*
X180831785Y-107659577D01*
X180881904Y-107630639D01*
X180968716Y-107580520D01*
X181080520Y-107468716D01*
X181080521Y-107468714D01*
X181580520Y-106968716D01*
X181659577Y-106831784D01*
X181700501Y-106679057D01*
X181700501Y-106520942D01*
X181700501Y-106513347D01*
X181700500Y-106513329D01*
X181700500Y-98820945D01*
X181700500Y-98820943D01*
X181659577Y-98668216D01*
X181659577Y-98668215D01*
X181619904Y-98599500D01*
X181591734Y-98550707D01*
X181580521Y-98531285D01*
X181464385Y-98415149D01*
X181464374Y-98415139D01*
X180609290Y-97560055D01*
X180609288Y-97560052D01*
X180490417Y-97441181D01*
X180490416Y-97441180D01*
X180402785Y-97390586D01*
X180402424Y-97390378D01*
X180354204Y-97339816D01*
X180340902Y-97293964D01*
X180339959Y-97283361D01*
X180336486Y-97244282D01*
X180280509Y-97048651D01*
X180186298Y-96868293D01*
X180073583Y-96730059D01*
X180046475Y-96665665D01*
X180058484Y-96596835D01*
X180073581Y-96573342D01*
X180186298Y-96435107D01*
X180221828Y-96367087D01*
X180270315Y-96316781D01*
X180331737Y-96300500D01*
X189413331Y-96300500D01*
X189413347Y-96300501D01*
X189420943Y-96300501D01*
X189579054Y-96300501D01*
X189579057Y-96300501D01*
X189731785Y-96259577D01*
X189781904Y-96230639D01*
X189868716Y-96180520D01*
X189887817Y-96161419D01*
X189949139Y-96127932D01*
X190018831Y-96132915D01*
X190074766Y-96174786D01*
X190099184Y-96240249D01*
X190099500Y-96249098D01*
X190099500Y-96413330D01*
X190099499Y-96413348D01*
X190099499Y-96579054D01*
X190099498Y-96579054D01*
X190140423Y-96731785D01*
X190169358Y-96781900D01*
X190169359Y-96781904D01*
X190169360Y-96781904D01*
X190219479Y-96868714D01*
X190219481Y-96868717D01*
X190338349Y-96987585D01*
X190338355Y-96987590D01*
X191090252Y-97739487D01*
X191123737Y-97800810D01*
X191118753Y-97870502D01*
X191076881Y-97926435D01*
X191071463Y-97930269D01*
X191057840Y-97939371D01*
X191057834Y-97939376D01*
X190939373Y-98057837D01*
X190846295Y-98197139D01*
X190782184Y-98351917D01*
X190782182Y-98351925D01*
X190749500Y-98516228D01*
X190749500Y-98683771D01*
X190782182Y-98848074D01*
X190782184Y-98848082D01*
X190846295Y-99002860D01*
X190878602Y-99051210D01*
X190899480Y-99117887D01*
X190899500Y-99120101D01*
X190899500Y-99231006D01*
X190899500Y-99368994D01*
X190899500Y-99368996D01*
X190899499Y-99368996D01*
X190926418Y-99504322D01*
X190926421Y-99504332D01*
X190979222Y-99631807D01*
X191055887Y-99746545D01*
X192315154Y-101005812D01*
X192429892Y-101082477D01*
X192552628Y-101133315D01*
X192557372Y-101135280D01*
X192692706Y-101162200D01*
X192692707Y-101162200D01*
X192692716Y-101162200D01*
X192696917Y-101162614D01*
X192761706Y-101188771D01*
X192802069Y-101245803D01*
X192803987Y-101251907D01*
X192827689Y-101334745D01*
X192827690Y-101334748D01*
X192827691Y-101334749D01*
X192849716Y-101376913D01*
X192921902Y-101515107D01*
X193050490Y-101672809D01*
X193122715Y-101731700D01*
X193208193Y-101801398D01*
X193388551Y-101895609D01*
X193584182Y-101951586D01*
X193703563Y-101962200D01*
X195569636Y-101962199D01*
X195689018Y-101951586D01*
X195884649Y-101895609D01*
X196065007Y-101801398D01*
X196222709Y-101672809D01*
X196351298Y-101515107D01*
X196445509Y-101334749D01*
X196501486Y-101139118D01*
X196501487Y-101139103D01*
X196502564Y-101133315D01*
X196504362Y-101133649D01*
X196526816Y-101076482D01*
X196583464Y-101035583D01*
X196653232Y-101031802D01*
X196713968Y-101066340D01*
X196746389Y-101128232D01*
X196748786Y-101152495D01*
X196748786Y-104850905D01*
X196729101Y-104917944D01*
X196676297Y-104963699D01*
X196607139Y-104973643D01*
X196543583Y-104944618D01*
X196505809Y-104885840D01*
X196502816Y-104870037D01*
X196502564Y-104870084D01*
X196501486Y-104864285D01*
X196501486Y-104864282D01*
X196447725Y-104676394D01*
X196445510Y-104668654D01*
X196445509Y-104668653D01*
X196445509Y-104668651D01*
X196351298Y-104488293D01*
X196238585Y-104350061D01*
X196222709Y-104330590D01*
X196083198Y-104216835D01*
X196065007Y-104202002D01*
X195884649Y-104107791D01*
X195884648Y-104107790D01*
X195884645Y-104107789D01*
X195767429Y-104074250D01*
X195689018Y-104051814D01*
X195689015Y-104051813D01*
X195689013Y-104051813D01*
X195622702Y-104045917D01*
X195569637Y-104041200D01*
X195569632Y-104041200D01*
X193703571Y-104041200D01*
X193703565Y-104041200D01*
X193703564Y-104041201D01*
X193691916Y-104042236D01*
X193584184Y-104051813D01*
X193388554Y-104107789D01*
X193350699Y-104127563D01*
X193208193Y-104202002D01*
X193208191Y-104202003D01*
X193208190Y-104202004D01*
X193050490Y-104330590D01*
X192924709Y-104484850D01*
X192921902Y-104488293D01*
X192874796Y-104578472D01*
X192827689Y-104668654D01*
X192791677Y-104794514D01*
X192775426Y-104851311D01*
X192771714Y-104864283D01*
X192771713Y-104864286D01*
X192761100Y-104983666D01*
X192761100Y-106099728D01*
X192761101Y-106099734D01*
X192771713Y-106219115D01*
X192827689Y-106414745D01*
X192827690Y-106414748D01*
X192827691Y-106414749D01*
X192921902Y-106595107D01*
X192921904Y-106595109D01*
X193050490Y-106752809D01*
X193144403Y-106829384D01*
X193208193Y-106881398D01*
X193388551Y-106975609D01*
X193584182Y-107031586D01*
X193703563Y-107042200D01*
X195569636Y-107042199D01*
X195689018Y-107031586D01*
X195884649Y-106975609D01*
X196065007Y-106881398D01*
X196222709Y-106752809D01*
X196351298Y-106595107D01*
X196445509Y-106414749D01*
X196501486Y-106219118D01*
X196501487Y-106219103D01*
X196502564Y-106213315D01*
X196504362Y-106213649D01*
X196526816Y-106156482D01*
X196583464Y-106115583D01*
X196653232Y-106111802D01*
X196713968Y-106146340D01*
X196746389Y-106208232D01*
X196748786Y-106232495D01*
X196748786Y-107825336D01*
X196729101Y-107892375D01*
X196676297Y-107938130D01*
X196624786Y-107949336D01*
X188563591Y-107949336D01*
X188496552Y-107929651D01*
X188450797Y-107876847D01*
X188440853Y-107807689D01*
X188469878Y-107744133D01*
X188498800Y-107719609D01*
X188501012Y-107718252D01*
X188501016Y-107718251D01*
X188501022Y-107718247D01*
X188672986Y-107593309D01*
X188672988Y-107593306D01*
X188672992Y-107593304D01*
X188823304Y-107442992D01*
X188823306Y-107442988D01*
X188823309Y-107442986D01*
X188948248Y-107271020D01*
X188948247Y-107271020D01*
X188948251Y-107271016D01*
X189044757Y-107081612D01*
X189110446Y-106879443D01*
X189143700Y-106669487D01*
X189143700Y-106456913D01*
X189110446Y-106246957D01*
X189044757Y-106044788D01*
X188948251Y-105855384D01*
X188948249Y-105855381D01*
X188948248Y-105855379D01*
X188823309Y-105683413D01*
X188672986Y-105533090D01*
X188501020Y-105408151D01*
X188500315Y-105407791D01*
X188492254Y-105403685D01*
X188441459Y-105355712D01*
X188424663Y-105287892D01*
X188447199Y-105221756D01*
X188492254Y-105182715D01*
X188501016Y-105178251D01*
X188590066Y-105113553D01*
X188672986Y-105053309D01*
X188672988Y-105053306D01*
X188672992Y-105053304D01*
X188823304Y-104902992D01*
X188823306Y-104902988D01*
X188823309Y-104902986D01*
X188948248Y-104731020D01*
X188948247Y-104731020D01*
X188948251Y-104731016D01*
X189044757Y-104541612D01*
X189110446Y-104339443D01*
X189143700Y-104129487D01*
X189143700Y-103916913D01*
X189110446Y-103706957D01*
X189044757Y-103504788D01*
X188948251Y-103315384D01*
X188948249Y-103315381D01*
X188948248Y-103315379D01*
X188823309Y-103143413D01*
X188672986Y-102993090D01*
X188501020Y-102868151D01*
X188500315Y-102867791D01*
X188492254Y-102863685D01*
X188441459Y-102815712D01*
X188424663Y-102747892D01*
X188447199Y-102681756D01*
X188492254Y-102642715D01*
X188501016Y-102638251D01*
X188522989Y-102622286D01*
X188672986Y-102513309D01*
X188672988Y-102513306D01*
X188672992Y-102513304D01*
X188823304Y-102362992D01*
X188823306Y-102362988D01*
X188823309Y-102362986D01*
X188948248Y-102191020D01*
X188948247Y-102191020D01*
X188948251Y-102191016D01*
X189044757Y-102001612D01*
X189110446Y-101799443D01*
X189143700Y-101589487D01*
X189143700Y-101376913D01*
X189110446Y-101166957D01*
X189044757Y-100964788D01*
X188948251Y-100775384D01*
X188948249Y-100775381D01*
X188948248Y-100775379D01*
X188823309Y-100603413D01*
X188672986Y-100453090D01*
X188501017Y-100328149D01*
X188486840Y-100320925D01*
X188436045Y-100272949D01*
X188419252Y-100205128D01*
X188441791Y-100138994D01*
X188470252Y-100110124D01*
X188580392Y-100030104D01*
X188730704Y-99879792D01*
X188730706Y-99879788D01*
X188730709Y-99879786D01*
X188855648Y-99707820D01*
X188855647Y-99707820D01*
X188855651Y-99707816D01*
X188952157Y-99518412D01*
X189017846Y-99316243D01*
X189051100Y-99106287D01*
X189051100Y-98893713D01*
X189017846Y-98683757D01*
X188952157Y-98481588D01*
X188855651Y-98292184D01*
X188855649Y-98292181D01*
X188855648Y-98292179D01*
X188730709Y-98120213D01*
X188580386Y-97969890D01*
X188408420Y-97844951D01*
X188219014Y-97748444D01*
X188219013Y-97748443D01*
X188219012Y-97748443D01*
X188016843Y-97682754D01*
X188016841Y-97682753D01*
X188016840Y-97682753D01*
X187855557Y-97657208D01*
X187806887Y-97649500D01*
X187594313Y-97649500D01*
X187545642Y-97657208D01*
X187384360Y-97682753D01*
X187293095Y-97712407D01*
X187217514Y-97736965D01*
X187182185Y-97748444D01*
X186992779Y-97844951D01*
X186820813Y-97969890D01*
X186670494Y-98120209D01*
X186597851Y-98220194D01*
X186542521Y-98262859D01*
X186472907Y-98268838D01*
X186411112Y-98236232D01*
X186397215Y-98220193D01*
X186283309Y-98063414D01*
X186283305Y-98063409D01*
X186132986Y-97913090D01*
X185961020Y-97788151D01*
X185771614Y-97691644D01*
X185771613Y-97691643D01*
X185771612Y-97691643D01*
X185569443Y-97625954D01*
X185569441Y-97625953D01*
X185569440Y-97625953D01*
X185408157Y-97600408D01*
X185359487Y-97592700D01*
X185146913Y-97592700D01*
X185098242Y-97600408D01*
X184936960Y-97625953D01*
X184936957Y-97625954D01*
X184762149Y-97682753D01*
X184734785Y-97691644D01*
X184545379Y-97788151D01*
X184373413Y-97913090D01*
X184223090Y-98063413D01*
X184098151Y-98235379D01*
X184001644Y-98424785D01*
X183935953Y-98626960D01*
X183902700Y-98836913D01*
X183902700Y-99049486D01*
X183932680Y-99238777D01*
X183935954Y-99259443D01*
X184000536Y-99458206D01*
X184001644Y-99461614D01*
X184098151Y-99651020D01*
X184223090Y-99822986D01*
X184373413Y-99973309D01*
X184545382Y-100098250D01*
X184554146Y-100102716D01*
X184604942Y-100150691D01*
X184621736Y-100218512D01*
X184599198Y-100284647D01*
X184554146Y-100323684D01*
X184545382Y-100328149D01*
X184373413Y-100453090D01*
X184223090Y-100603413D01*
X184098151Y-100775379D01*
X184001644Y-100964785D01*
X183935953Y-101166960D01*
X183902700Y-101376913D01*
X183902700Y-101589486D01*
X183932261Y-101776131D01*
X183935954Y-101799443D01*
X183988837Y-101962200D01*
X184001644Y-102001614D01*
X184098151Y-102191020D01*
X184223090Y-102362986D01*
X184373413Y-102513309D01*
X184545382Y-102638250D01*
X184554146Y-102642716D01*
X184604942Y-102690691D01*
X184621736Y-102758512D01*
X184599198Y-102824647D01*
X184554146Y-102863684D01*
X184545382Y-102868149D01*
X184373413Y-102993090D01*
X184223090Y-103143413D01*
X184098151Y-103315379D01*
X184001644Y-103504785D01*
X183935953Y-103706960D01*
X183902700Y-103916913D01*
X183902700Y-104129486D01*
X183934551Y-104330590D01*
X183935954Y-104339443D01*
X183967463Y-104436418D01*
X184001644Y-104541614D01*
X184098151Y-104731020D01*
X184223090Y-104902986D01*
X184373413Y-105053309D01*
X184545382Y-105178250D01*
X184554146Y-105182716D01*
X184604942Y-105230691D01*
X184621736Y-105298512D01*
X184599198Y-105364647D01*
X184554146Y-105403684D01*
X184545382Y-105408149D01*
X184373413Y-105533090D01*
X184223090Y-105683413D01*
X184098151Y-105855379D01*
X184001644Y-106044785D01*
X183935953Y-106246960D01*
X183920997Y-106341389D01*
X183902700Y-106456913D01*
X183902700Y-106669487D01*
X183904216Y-106679057D01*
X183928405Y-106831785D01*
X183935954Y-106879443D01*
X183988837Y-107042200D01*
X184001644Y-107081614D01*
X184098151Y-107271020D01*
X184223090Y-107442986D01*
X184373413Y-107593309D01*
X184545377Y-107718247D01*
X184547600Y-107719609D01*
X184548267Y-107720346D01*
X184549325Y-107721115D01*
X184549163Y-107721337D01*
X184594475Y-107771421D01*
X184605897Y-107840351D01*
X184578239Y-107904514D01*
X184520283Y-107943538D01*
X184482809Y-107949336D01*
X155023991Y-107949336D01*
X154956952Y-107929651D01*
X154911197Y-107876847D01*
X154899991Y-107825336D01*
X154899991Y-103531887D01*
X156199521Y-103531887D01*
X156199521Y-103768082D01*
X156236467Y-104001353D01*
X156309454Y-104225981D01*
X156372677Y-104350061D01*
X156416678Y-104436418D01*
X156555504Y-104627495D01*
X156722511Y-104794502D01*
X156913588Y-104933328D01*
X156992711Y-104973643D01*
X157124024Y-105040551D01*
X157124026Y-105040551D01*
X157124029Y-105040553D01*
X157216359Y-105070553D01*
X157348652Y-105113538D01*
X157581924Y-105150485D01*
X157581929Y-105150485D01*
X157818118Y-105150485D01*
X158051389Y-105113538D01*
X158084443Y-105102798D01*
X158276013Y-105040553D01*
X158486454Y-104933328D01*
X158677531Y-104794502D01*
X158844538Y-104627495D01*
X158983364Y-104436418D01*
X159090589Y-104225977D01*
X159163574Y-104001353D01*
X159183627Y-103874745D01*
X159200521Y-103768082D01*
X159200521Y-103531887D01*
X159163574Y-103298616D01*
X159107083Y-103124756D01*
X159090589Y-103073993D01*
X159090587Y-103073990D01*
X159090587Y-103073988D01*
X158983431Y-102863684D01*
X158983364Y-102863552D01*
X158844538Y-102672475D01*
X158677531Y-102505468D01*
X158486454Y-102366642D01*
X158276017Y-102259418D01*
X158051389Y-102186431D01*
X157818118Y-102149485D01*
X157818113Y-102149485D01*
X157581929Y-102149485D01*
X157581924Y-102149485D01*
X157348652Y-102186431D01*
X157124024Y-102259418D01*
X156913587Y-102366642D01*
X156807577Y-102443664D01*
X156722511Y-102505468D01*
X156722509Y-102505470D01*
X156722508Y-102505470D01*
X156555506Y-102672472D01*
X156555506Y-102672473D01*
X156555504Y-102672475D01*
X156510253Y-102734757D01*
X156416678Y-102863551D01*
X156309454Y-103073988D01*
X156236467Y-103298616D01*
X156199521Y-103531887D01*
X154899991Y-103531887D01*
X154899991Y-95881920D01*
X160899527Y-95881920D01*
X160899527Y-96118115D01*
X160936473Y-96351386D01*
X161009460Y-96576014D01*
X161055140Y-96665665D01*
X161116684Y-96786451D01*
X161255510Y-96977528D01*
X161422517Y-97144535D01*
X161613594Y-97283361D01*
X161713018Y-97334020D01*
X161824030Y-97390584D01*
X161824032Y-97390584D01*
X161824035Y-97390586D01*
X161922459Y-97422566D01*
X162048658Y-97463571D01*
X162281930Y-97500518D01*
X162281935Y-97500518D01*
X162518124Y-97500518D01*
X162751395Y-97463571D01*
X162784495Y-97452816D01*
X162976019Y-97390586D01*
X163186460Y-97283361D01*
X163377537Y-97144535D01*
X163544544Y-96977528D01*
X163683370Y-96786451D01*
X163790595Y-96576010D01*
X163863580Y-96351386D01*
X163869061Y-96316781D01*
X163900527Y-96118115D01*
X163900527Y-95881920D01*
X163863580Y-95648649D01*
X163790593Y-95424021D01*
X163683369Y-95213584D01*
X163654420Y-95173739D01*
X163544544Y-95022508D01*
X163377537Y-94855501D01*
X163186460Y-94716675D01*
X162976023Y-94609451D01*
X162751395Y-94536464D01*
X162518124Y-94499518D01*
X162518119Y-94499518D01*
X162281935Y-94499518D01*
X162281930Y-94499518D01*
X162048658Y-94536464D01*
X161824030Y-94609451D01*
X161613593Y-94716675D01*
X161556792Y-94757944D01*
X161422517Y-94855501D01*
X161422515Y-94855503D01*
X161422514Y-94855503D01*
X161255512Y-95022505D01*
X161255512Y-95022506D01*
X161255510Y-95022508D01*
X161214536Y-95078904D01*
X161116684Y-95213584D01*
X161009460Y-95424021D01*
X160936473Y-95648649D01*
X160899527Y-95881920D01*
X154899991Y-95881920D01*
X154899991Y-92459008D01*
X155289525Y-92459008D01*
X155289525Y-92740991D01*
X155321092Y-93021168D01*
X155321095Y-93021182D01*
X155383839Y-93296083D01*
X155383843Y-93296095D01*
X155476970Y-93562234D01*
X155476973Y-93562242D01*
X155599307Y-93816272D01*
X155615345Y-93841796D01*
X155749328Y-94055029D01*
X155925134Y-94275482D01*
X156124518Y-94474866D01*
X156344971Y-94650672D01*
X156558145Y-94784618D01*
X156583727Y-94800692D01*
X156837757Y-94923026D01*
X156837764Y-94923028D01*
X156837769Y-94923031D01*
X157026432Y-94989047D01*
X157103904Y-95016156D01*
X157103916Y-95016160D01*
X157378817Y-95078905D01*
X157378826Y-95078906D01*
X157378831Y-95078907D01*
X157558802Y-95099184D01*
X157659009Y-95110474D01*
X157659012Y-95110475D01*
X157659015Y-95110475D01*
X157940988Y-95110475D01*
X157940989Y-95110474D01*
X158084180Y-95094341D01*
X158221168Y-95078907D01*
X158221171Y-95078906D01*
X158221183Y-95078905D01*
X158496084Y-95016160D01*
X158762231Y-94923031D01*
X158762239Y-94923027D01*
X158762242Y-94923026D01*
X159016272Y-94800692D01*
X159016272Y-94800691D01*
X159016278Y-94800689D01*
X159255029Y-94650672D01*
X159475482Y-94474866D01*
X159674866Y-94275482D01*
X159850672Y-94055029D01*
X160000689Y-93816278D01*
X160004743Y-93807859D01*
X160123026Y-93562242D01*
X160123027Y-93562239D01*
X160123031Y-93562231D01*
X160216160Y-93296084D01*
X160278905Y-93021183D01*
X160310475Y-92740985D01*
X160310475Y-92459015D01*
X160292053Y-92295513D01*
X160278907Y-92178831D01*
X160278906Y-92178826D01*
X160278905Y-92178817D01*
X160216160Y-91903916D01*
X160123031Y-91637769D01*
X160123028Y-91637764D01*
X160123026Y-91637757D01*
X160000692Y-91383727D01*
X159911225Y-91241341D01*
X159850672Y-91144971D01*
X159674866Y-90924518D01*
X159475482Y-90725134D01*
X159255029Y-90549328D01*
X159016278Y-90399311D01*
X159016279Y-90399311D01*
X159016272Y-90399307D01*
X158762242Y-90276973D01*
X158762234Y-90276970D01*
X158496095Y-90183843D01*
X158496083Y-90183839D01*
X158283927Y-90135416D01*
X158221183Y-90121095D01*
X158221180Y-90121094D01*
X158221168Y-90121092D01*
X157940991Y-90089525D01*
X157940985Y-90089525D01*
X157659015Y-90089525D01*
X157659008Y-90089525D01*
X157378831Y-90121092D01*
X157378817Y-90121095D01*
X157103916Y-90183839D01*
X157103904Y-90183843D01*
X156837765Y-90276970D01*
X156837757Y-90276973D01*
X156583727Y-90399307D01*
X156344972Y-90549327D01*
X156124518Y-90725133D01*
X155925133Y-90924518D01*
X155749327Y-91144972D01*
X155599307Y-91383727D01*
X155476973Y-91637757D01*
X155476970Y-91637765D01*
X155383843Y-91903904D01*
X155383839Y-91903916D01*
X155321095Y-92178817D01*
X155321092Y-92178831D01*
X155289525Y-92459008D01*
X154899991Y-92459008D01*
X154899991Y-75878048D01*
X163404500Y-75878048D01*
X163404500Y-76121951D01*
X163414789Y-76200097D01*
X163436334Y-76363744D01*
X163490470Y-76565783D01*
X163499456Y-76599320D01*
X163499459Y-76599330D01*
X163592786Y-76824640D01*
X163592791Y-76824651D01*
X163714727Y-77035848D01*
X163714738Y-77035864D01*
X163863199Y-77229343D01*
X163863205Y-77229350D01*
X164035649Y-77401794D01*
X164035655Y-77401799D01*
X164229144Y-77550268D01*
X164229151Y-77550272D01*
X164440348Y-77672208D01*
X164440353Y-77672210D01*
X164440356Y-77672212D01*
X164665679Y-77765544D01*
X164901256Y-77828666D01*
X165143056Y-77860500D01*
X165143063Y-77860500D01*
X165906937Y-77860500D01*
X165906944Y-77860500D01*
X166148744Y-77828666D01*
X166384321Y-77765544D01*
X166609644Y-77672212D01*
X166820856Y-77550268D01*
X167014345Y-77401799D01*
X167186799Y-77229345D01*
X167335268Y-77035856D01*
X167457212Y-76824644D01*
X167550544Y-76599321D01*
X167613666Y-76363744D01*
X167645500Y-76121944D01*
X167645500Y-75878056D01*
X167613666Y-75636256D01*
X167550544Y-75400679D01*
X167548311Y-75395289D01*
X167457213Y-75175359D01*
X167457208Y-75175348D01*
X167335272Y-74964151D01*
X167335268Y-74964144D01*
X167186799Y-74770655D01*
X167186794Y-74770649D01*
X167014350Y-74598205D01*
X167014343Y-74598199D01*
X166820864Y-74449738D01*
X166820862Y-74449736D01*
X166820856Y-74449732D01*
X166820851Y-74449729D01*
X166820848Y-74449727D01*
X166609651Y-74327791D01*
X166609640Y-74327786D01*
X166384330Y-74234459D01*
X166384323Y-74234457D01*
X166384321Y-74234456D01*
X166148744Y-74171334D01*
X166108333Y-74166013D01*
X165906951Y-74139500D01*
X165906944Y-74139500D01*
X165143056Y-74139500D01*
X165143048Y-74139500D01*
X164912896Y-74169801D01*
X164901256Y-74171334D01*
X164665679Y-74234456D01*
X164665669Y-74234459D01*
X164440359Y-74327786D01*
X164440348Y-74327791D01*
X164229151Y-74449727D01*
X164229135Y-74449738D01*
X164035656Y-74598199D01*
X164035649Y-74598205D01*
X163863205Y-74770649D01*
X163863199Y-74770656D01*
X163714738Y-74964135D01*
X163714727Y-74964151D01*
X163592791Y-75175348D01*
X163592786Y-75175359D01*
X163499459Y-75400669D01*
X163499456Y-75400679D01*
X163436335Y-75636253D01*
X163436333Y-75636264D01*
X163404500Y-75878048D01*
X154899991Y-75878048D01*
X154899991Y-69424501D01*
X154919676Y-69357462D01*
X154972480Y-69311707D01*
X155023991Y-69300501D01*
X168124049Y-69300501D01*
X168191088Y-69320186D01*
G37*
%TD.AperFunction*%
%TA.AperFunction,Conductor*%
G36*
X196691825Y-69320186D02*
G01*
X196737580Y-69372990D01*
X196748786Y-69424501D01*
X196748786Y-89610905D01*
X196729101Y-89677944D01*
X196676297Y-89723699D01*
X196607139Y-89733643D01*
X196543583Y-89704618D01*
X196505809Y-89645840D01*
X196502816Y-89630037D01*
X196502564Y-89630084D01*
X196501486Y-89624285D01*
X196501486Y-89624284D01*
X196501486Y-89624282D01*
X196445509Y-89428651D01*
X196351298Y-89248293D01*
X196299284Y-89184503D01*
X196222709Y-89090590D01*
X196087478Y-88980325D01*
X196065007Y-88962002D01*
X195884649Y-88867791D01*
X195884648Y-88867790D01*
X195884645Y-88867789D01*
X195767429Y-88834250D01*
X195689018Y-88811814D01*
X195689015Y-88811813D01*
X195689013Y-88811813D01*
X195621184Y-88805783D01*
X195569637Y-88801200D01*
X195569632Y-88801200D01*
X193703571Y-88801200D01*
X193703565Y-88801200D01*
X193703564Y-88801201D01*
X193691916Y-88802236D01*
X193584184Y-88811813D01*
X193388554Y-88867789D01*
X193298372Y-88914896D01*
X193208193Y-88962002D01*
X193208191Y-88962003D01*
X193208190Y-88962004D01*
X193050490Y-89090590D01*
X192921904Y-89248290D01*
X192921902Y-89248293D01*
X192894407Y-89300928D01*
X192845922Y-89351234D01*
X192777934Y-89367341D01*
X192712031Y-89344134D01*
X192669136Y-89288982D01*
X192660500Y-89243515D01*
X192660500Y-88805783D01*
X192680185Y-88738744D01*
X192696819Y-88718102D01*
X193578102Y-87836819D01*
X193639425Y-87803334D01*
X193665783Y-87800500D01*
X194979016Y-87800500D01*
X194979032Y-87800501D01*
X194986628Y-87800501D01*
X195144739Y-87800501D01*
X195144742Y-87800501D01*
X195297470Y-87759577D01*
X195347589Y-87730639D01*
X195434401Y-87680520D01*
X195546205Y-87568716D01*
X195546205Y-87568714D01*
X195556413Y-87558507D01*
X195556415Y-87558504D01*
X196168713Y-86946206D01*
X196168716Y-86946205D01*
X196280520Y-86834401D01*
X196330639Y-86747589D01*
X196359577Y-86697470D01*
X196400500Y-86544743D01*
X196400500Y-86386628D01*
X196400500Y-83623373D01*
X196400501Y-83623360D01*
X196400501Y-83455257D01*
X196400501Y-83455256D01*
X196359577Y-83302529D01*
X196333498Y-83257361D01*
X196318443Y-83231283D01*
X196318442Y-83231282D01*
X196280521Y-83165600D01*
X196280520Y-83165598D01*
X196168716Y-83053794D01*
X196168715Y-83053793D01*
X196164385Y-83049463D01*
X196164374Y-83049453D01*
X195334402Y-82219481D01*
X195334394Y-82219475D01*
X195197475Y-82140426D01*
X195197470Y-82140423D01*
X195159287Y-82130192D01*
X195044742Y-82099499D01*
X195044739Y-82099499D01*
X194886627Y-82099500D01*
X193100097Y-82099500D01*
X193033058Y-82079815D01*
X193012416Y-82063181D01*
X192734574Y-81785339D01*
X192701089Y-81724016D01*
X192700638Y-81721849D01*
X192669738Y-81566510D01*
X192669737Y-81566503D01*
X192656283Y-81534022D01*
X192609397Y-81420827D01*
X192609390Y-81420814D01*
X192521789Y-81289711D01*
X192521786Y-81289707D01*
X192410292Y-81178213D01*
X192410288Y-81178210D01*
X192279185Y-81090609D01*
X192279172Y-81090602D01*
X192133501Y-81030264D01*
X192133489Y-81030261D01*
X191978845Y-80999500D01*
X191978842Y-80999500D01*
X191821158Y-80999500D01*
X191821155Y-80999500D01*
X191666510Y-81030261D01*
X191666498Y-81030264D01*
X191520827Y-81090602D01*
X191520814Y-81090609D01*
X191389711Y-81178210D01*
X191389707Y-81178213D01*
X191278213Y-81289707D01*
X191278210Y-81289711D01*
X191190609Y-81420814D01*
X191190602Y-81420827D01*
X191130264Y-81566498D01*
X191130261Y-81566510D01*
X191099500Y-81721153D01*
X191099500Y-81878846D01*
X191130261Y-82033489D01*
X191130264Y-82033501D01*
X191190602Y-82179172D01*
X191190609Y-82179185D01*
X191275752Y-82306609D01*
X191296630Y-82373286D01*
X191278146Y-82440666D01*
X191226167Y-82487357D01*
X191172650Y-82499500D01*
X190400097Y-82499500D01*
X190333058Y-82479815D01*
X190312416Y-82463181D01*
X189036819Y-81187584D01*
X189022115Y-81160656D01*
X189005523Y-81134838D01*
X189004631Y-81128637D01*
X189003334Y-81126261D01*
X189000500Y-81099903D01*
X189000500Y-80879765D01*
X189020185Y-80812726D01*
X189021398Y-80810874D01*
X189109390Y-80679185D01*
X189109390Y-80679184D01*
X189109394Y-80679179D01*
X189169737Y-80533497D01*
X189200500Y-80378842D01*
X189200500Y-80221158D01*
X189200500Y-80221155D01*
X189200499Y-80221153D01*
X189169737Y-80066503D01*
X189126525Y-79962179D01*
X189109397Y-79920827D01*
X189109390Y-79920814D01*
X189021789Y-79789711D01*
X189021786Y-79789707D01*
X188910292Y-79678213D01*
X188910288Y-79678210D01*
X188779185Y-79590609D01*
X188779172Y-79590602D01*
X188633501Y-79530264D01*
X188633489Y-79530261D01*
X188478845Y-79499500D01*
X188478842Y-79499500D01*
X188321158Y-79499500D01*
X188321155Y-79499500D01*
X188166510Y-79530261D01*
X188166498Y-79530264D01*
X188020827Y-79590602D01*
X188020814Y-79590609D01*
X187889711Y-79678210D01*
X187889707Y-79678213D01*
X187778213Y-79789707D01*
X187778210Y-79789711D01*
X187690609Y-79920814D01*
X187690602Y-79920827D01*
X187630264Y-80066498D01*
X187630261Y-80066510D01*
X187599500Y-80221153D01*
X187599500Y-80378846D01*
X187630261Y-80533489D01*
X187630264Y-80533501D01*
X187690602Y-80679172D01*
X187690609Y-80679185D01*
X187778602Y-80810874D01*
X187799480Y-80877551D01*
X187799500Y-80879765D01*
X187799500Y-81313330D01*
X187799499Y-81313348D01*
X187799499Y-81479054D01*
X187799498Y-81479054D01*
X187840423Y-81631786D01*
X187840424Y-81631787D01*
X187862775Y-81670500D01*
X187919480Y-81768716D01*
X187919482Y-81768718D01*
X188038349Y-81887585D01*
X188038355Y-81887590D01*
X189615139Y-83464374D01*
X189615149Y-83464385D01*
X189619479Y-83468715D01*
X189619480Y-83468716D01*
X189731284Y-83580520D01*
X189813438Y-83627951D01*
X189868215Y-83659577D01*
X190020943Y-83700500D01*
X190179057Y-83700500D01*
X190515445Y-83700500D01*
X190582484Y-83720185D01*
X190628239Y-83772989D01*
X190638183Y-83842147D01*
X190609158Y-83905703D01*
X190571739Y-83934985D01*
X190552182Y-83944949D01*
X190380213Y-84069890D01*
X190229890Y-84220213D01*
X190104951Y-84392179D01*
X190008444Y-84581585D01*
X189942753Y-84783760D01*
X189909500Y-84993713D01*
X189909500Y-85206286D01*
X189942292Y-85413330D01*
X189942754Y-85416243D01*
X189998428Y-85587590D01*
X190008444Y-85618414D01*
X190104951Y-85807820D01*
X190229890Y-85979786D01*
X190380213Y-86130109D01*
X190552184Y-86255051D01*
X190552184Y-86255052D01*
X190591793Y-86275233D01*
X190642590Y-86323206D01*
X190659500Y-86385718D01*
X190659500Y-87910903D01*
X190639815Y-87977942D01*
X190587011Y-88023697D01*
X190517853Y-88033641D01*
X190454297Y-88004616D01*
X190447819Y-87998584D01*
X187336819Y-84887584D01*
X187303334Y-84826261D01*
X187300500Y-84799903D01*
X187300500Y-80689060D01*
X187300501Y-80689047D01*
X187300501Y-80520944D01*
X187300501Y-80520943D01*
X187259577Y-80368216D01*
X187251229Y-80353757D01*
X187180524Y-80231290D01*
X187180518Y-80231282D01*
X186568717Y-79619481D01*
X186568716Y-79619480D01*
X186481904Y-79569360D01*
X186481904Y-79569359D01*
X186481900Y-79569358D01*
X186431785Y-79540423D01*
X186279057Y-79499499D01*
X186279054Y-79499499D01*
X186274499Y-79499499D01*
X186207460Y-79479814D01*
X186161705Y-79427010D01*
X186150499Y-79375499D01*
X186150499Y-79202129D01*
X186150498Y-79202123D01*
X186150497Y-79202116D01*
X186144091Y-79142517D01*
X186093796Y-79007669D01*
X186093795Y-79007668D01*
X186093793Y-79007664D01*
X186007547Y-78892455D01*
X186007544Y-78892452D01*
X185892335Y-78806206D01*
X185892328Y-78806202D01*
X185757482Y-78755908D01*
X185757483Y-78755908D01*
X185697883Y-78749501D01*
X185697881Y-78749500D01*
X185697873Y-78749500D01*
X185697864Y-78749500D01*
X183902129Y-78749500D01*
X183902123Y-78749501D01*
X183842516Y-78755908D01*
X183707671Y-78806202D01*
X183707664Y-78806206D01*
X183592455Y-78892452D01*
X183592452Y-78892455D01*
X183506206Y-79007664D01*
X183506202Y-79007671D01*
X183455908Y-79142517D01*
X183449501Y-79202116D01*
X183449501Y-79202123D01*
X183449500Y-79202135D01*
X183449500Y-80997870D01*
X183449501Y-80997876D01*
X183455908Y-81057483D01*
X183506202Y-81192328D01*
X183506206Y-81192335D01*
X183592452Y-81307544D01*
X183592455Y-81307547D01*
X183707664Y-81393793D01*
X183707671Y-81393797D01*
X183842517Y-81444091D01*
X183842516Y-81444091D01*
X183849444Y-81444835D01*
X183902127Y-81450500D01*
X185697872Y-81450499D01*
X185757483Y-81444091D01*
X185892331Y-81393796D01*
X185901186Y-81387166D01*
X185966649Y-81362747D01*
X186034923Y-81377596D01*
X186084330Y-81427000D01*
X186099500Y-81486431D01*
X186099500Y-85013330D01*
X186099499Y-85013348D01*
X186099499Y-85179054D01*
X186099498Y-85179054D01*
X186140423Y-85331785D01*
X186169358Y-85381900D01*
X186169359Y-85381904D01*
X186169360Y-85381904D01*
X186191896Y-85420939D01*
X186219479Y-85468714D01*
X186219481Y-85468717D01*
X186338349Y-85587585D01*
X186338355Y-85587590D01*
X187638584Y-86887819D01*
X187672069Y-86949142D01*
X187667085Y-87018834D01*
X187625213Y-87074767D01*
X187559749Y-87099184D01*
X187550903Y-87099500D01*
X185400098Y-87099500D01*
X185333059Y-87079815D01*
X185312417Y-87063181D01*
X181636819Y-83387583D01*
X181603334Y-83326260D01*
X181600500Y-83299902D01*
X181600500Y-76565783D01*
X181620185Y-76498744D01*
X181636819Y-76478102D01*
X183478102Y-74636819D01*
X183539425Y-74603334D01*
X183565783Y-74600500D01*
X187713331Y-74600500D01*
X187713347Y-74600501D01*
X187720943Y-74600501D01*
X187879054Y-74600501D01*
X187879057Y-74600501D01*
X188031785Y-74559577D01*
X188081904Y-74530639D01*
X188168716Y-74480520D01*
X188280520Y-74368716D01*
X188280520Y-74368714D01*
X188290728Y-74358507D01*
X188290730Y-74358504D01*
X189658506Y-72990728D01*
X189658511Y-72990724D01*
X189668714Y-72980520D01*
X189668716Y-72980520D01*
X189780520Y-72868716D01*
X189788656Y-72854623D01*
X191211439Y-72854623D01*
X191211439Y-73145376D01*
X191243988Y-73434268D01*
X191243991Y-73434286D01*
X191308685Y-73717730D01*
X191308690Y-73717746D01*
X191404710Y-73992153D01*
X191404716Y-73992167D01*
X191530859Y-74254106D01*
X191533021Y-74257547D01*
X191685544Y-74500286D01*
X191866818Y-74727597D01*
X192072403Y-74933182D01*
X192299714Y-75114456D01*
X192545891Y-75269139D01*
X192807840Y-75395287D01*
X192899315Y-75427295D01*
X193082253Y-75491309D01*
X193082258Y-75491310D01*
X193082265Y-75491313D01*
X193365717Y-75556009D01*
X193365723Y-75556009D01*
X193365731Y-75556011D01*
X193558325Y-75577710D01*
X193654624Y-75588560D01*
X193654627Y-75588561D01*
X193654630Y-75588561D01*
X193945373Y-75588561D01*
X193945374Y-75588560D01*
X194093020Y-75571925D01*
X194234268Y-75556011D01*
X194234273Y-75556010D01*
X194234283Y-75556009D01*
X194517735Y-75491313D01*
X194792160Y-75395287D01*
X195054109Y-75269139D01*
X195300286Y-75114456D01*
X195527597Y-74933182D01*
X195733182Y-74727597D01*
X195914456Y-74500286D01*
X196069139Y-74254109D01*
X196195287Y-73992160D01*
X196291313Y-73717735D01*
X196356009Y-73434283D01*
X196359022Y-73407547D01*
X196388560Y-73145376D01*
X196388561Y-73145372D01*
X196388561Y-72854627D01*
X196388560Y-72854623D01*
X196356011Y-72565731D01*
X196356008Y-72565713D01*
X196346829Y-72525499D01*
X196310627Y-72366886D01*
X196291314Y-72282269D01*
X196291309Y-72282253D01*
X196195289Y-72007846D01*
X196195287Y-72007840D01*
X196074106Y-71756206D01*
X196069140Y-71745893D01*
X196069139Y-71745891D01*
X195914456Y-71499714D01*
X195733182Y-71272403D01*
X195527597Y-71066818D01*
X195300286Y-70885544D01*
X195054109Y-70730861D01*
X195054106Y-70730859D01*
X194792167Y-70604716D01*
X194792153Y-70604710D01*
X194517746Y-70508690D01*
X194517730Y-70508685D01*
X194234286Y-70443991D01*
X194234268Y-70443988D01*
X193945376Y-70411439D01*
X193945370Y-70411439D01*
X193654630Y-70411439D01*
X193654623Y-70411439D01*
X193365731Y-70443988D01*
X193365713Y-70443991D01*
X193082269Y-70508685D01*
X193082253Y-70508690D01*
X192807846Y-70604710D01*
X192807832Y-70604716D01*
X192545893Y-70730859D01*
X192299715Y-70885543D01*
X192072403Y-71066817D01*
X191866817Y-71272403D01*
X191685543Y-71499715D01*
X191530859Y-71745893D01*
X191404716Y-72007832D01*
X191404710Y-72007846D01*
X191308690Y-72282253D01*
X191308685Y-72282269D01*
X191243991Y-72565713D01*
X191243988Y-72565731D01*
X191211439Y-72854623D01*
X189788656Y-72854623D01*
X189797091Y-72840012D01*
X189826457Y-72789151D01*
X189848642Y-72750724D01*
X189859577Y-72731784D01*
X189900500Y-72579057D01*
X189900500Y-72450527D01*
X189920185Y-72383488D01*
X189968206Y-72340042D01*
X189987816Y-72330051D01*
X190159792Y-72205104D01*
X190310104Y-72054792D01*
X190310106Y-72054788D01*
X190310109Y-72054786D01*
X190435048Y-71882820D01*
X190435047Y-71882820D01*
X190435051Y-71882816D01*
X190531557Y-71693412D01*
X190597246Y-71491243D01*
X190630500Y-71281287D01*
X190630500Y-71068713D01*
X190597246Y-70858757D01*
X190531557Y-70656588D01*
X190435051Y-70467184D01*
X190435049Y-70467181D01*
X190435048Y-70467179D01*
X190310109Y-70295213D01*
X190159786Y-70144890D01*
X189987820Y-70019951D01*
X189798414Y-69923444D01*
X189798413Y-69923443D01*
X189798412Y-69923443D01*
X189596243Y-69857754D01*
X189596241Y-69857753D01*
X189596240Y-69857753D01*
X189434957Y-69832208D01*
X189386287Y-69824500D01*
X189173713Y-69824500D01*
X189125042Y-69832208D01*
X188963760Y-69857753D01*
X188761585Y-69923444D01*
X188572179Y-70019951D01*
X188400213Y-70144890D01*
X188249890Y-70295213D01*
X188124949Y-70467182D01*
X188120484Y-70475946D01*
X188072509Y-70526742D01*
X188004688Y-70543536D01*
X187938553Y-70520998D01*
X187899516Y-70475946D01*
X187895050Y-70467182D01*
X187770109Y-70295213D01*
X187619786Y-70144890D01*
X187447820Y-70019951D01*
X187258414Y-69923444D01*
X187258413Y-69923443D01*
X187258412Y-69923443D01*
X187056243Y-69857754D01*
X187056241Y-69857753D01*
X187056240Y-69857753D01*
X186894957Y-69832208D01*
X186846287Y-69824500D01*
X186633713Y-69824500D01*
X186585042Y-69832208D01*
X186423760Y-69857753D01*
X186221585Y-69923444D01*
X186032179Y-70019951D01*
X185860213Y-70144890D01*
X185709890Y-70295213D01*
X185584951Y-70467179D01*
X185488444Y-70656585D01*
X185422753Y-70858760D01*
X185401578Y-70992454D01*
X185389500Y-71068713D01*
X185389500Y-71281287D01*
X185422754Y-71491243D01*
X185436414Y-71533285D01*
X185488444Y-71693414D01*
X185584951Y-71882820D01*
X185709890Y-72054786D01*
X185815253Y-72160149D01*
X185848738Y-72221472D01*
X185843754Y-72291164D01*
X185815253Y-72335511D01*
X185187584Y-72963181D01*
X185126261Y-72996666D01*
X185099903Y-72999500D01*
X183186671Y-72999500D01*
X183186655Y-72999499D01*
X183179059Y-72999499D01*
X183020944Y-72999499D01*
X182944580Y-73019961D01*
X182868215Y-73040423D01*
X182868210Y-73040426D01*
X182731291Y-73119475D01*
X182731283Y-73119481D01*
X180587681Y-75263083D01*
X180526358Y-75296568D01*
X180456666Y-75291584D01*
X180412319Y-75263083D01*
X178003859Y-72854623D01*
X175426370Y-70277135D01*
X180309500Y-70277135D01*
X180309500Y-72072870D01*
X180309501Y-72072876D01*
X180315908Y-72132483D01*
X180366202Y-72267328D01*
X180366206Y-72267335D01*
X180452452Y-72382544D01*
X180452455Y-72382547D01*
X180567664Y-72468793D01*
X180567671Y-72468797D01*
X180702517Y-72519091D01*
X180702516Y-72519091D01*
X180709444Y-72519835D01*
X180762127Y-72525500D01*
X182557872Y-72525499D01*
X182617483Y-72519091D01*
X182752331Y-72468796D01*
X182867546Y-72382546D01*
X182953796Y-72267331D01*
X183004091Y-72132483D01*
X183010500Y-72072873D01*
X183010499Y-70277128D01*
X183004091Y-70217517D01*
X182953796Y-70082669D01*
X182953795Y-70082668D01*
X182953793Y-70082664D01*
X182867547Y-69967455D01*
X182867544Y-69967452D01*
X182752335Y-69881206D01*
X182752328Y-69881202D01*
X182617482Y-69830908D01*
X182617483Y-69830908D01*
X182557883Y-69824501D01*
X182557881Y-69824500D01*
X182557873Y-69824500D01*
X182557864Y-69824500D01*
X180762129Y-69824500D01*
X180762123Y-69824501D01*
X180702516Y-69830908D01*
X180567671Y-69881202D01*
X180567664Y-69881206D01*
X180452455Y-69967452D01*
X180452452Y-69967455D01*
X180366206Y-70082664D01*
X180366202Y-70082671D01*
X180315908Y-70217517D01*
X180309501Y-70277116D01*
X180309501Y-70277123D01*
X180309500Y-70277135D01*
X175426370Y-70277135D01*
X174887589Y-69738354D01*
X174887588Y-69738352D01*
X174768717Y-69619481D01*
X174768716Y-69619480D01*
X174750083Y-69608722D01*
X174682965Y-69569972D01*
X174682943Y-69569960D01*
X174681904Y-69569360D01*
X174631785Y-69540423D01*
X174627106Y-69539169D01*
X174616073Y-69533085D01*
X174596138Y-69512983D01*
X174574095Y-69495220D01*
X174571859Y-69488501D01*
X174566874Y-69483475D01*
X174560971Y-69455788D01*
X174552031Y-69428925D01*
X174553782Y-69422064D01*
X174552306Y-69415141D01*
X174562308Y-69388660D01*
X174569311Y-69361226D01*
X174574493Y-69356400D01*
X174576995Y-69349779D01*
X174599724Y-69332910D01*
X174620449Y-69313616D01*
X174628187Y-69311787D01*
X174633102Y-69308140D01*
X174647817Y-69307148D01*
X174675952Y-69300501D01*
X196624786Y-69300501D01*
X196691825Y-69320186D01*
G37*
%TD.AperFunction*%
%TD*%
M02*
