M48
; DRILL file {KiCad 9.0.8-9.0.8~ubuntu24.04.1} date 2026-05-10T20:52:29+0700
; FORMAT={-:-/ absolute / metric / decimal}
; #@! TF.CreationDate,2026-05-10T20:52:29+07:00
; #@! TF.GenerationSoftware,Kicad,Pcbnew,9.0.8-9.0.8~ubuntu24.04.1
; #@! TF.FileFunction,Plated,1,2,PTH
FMAT,2
METRIC
; #@! TA.AperFunction,Plated,PTH,ViaDrill
T1C0.300
; #@! TA.AperFunction,Plated,PTH,ViaDrill
T2C0.500
; #@! TA.AperFunction,Plated,PTH,ViaDrill
T3C0.900
; #@! TA.AperFunction,Plated,PTH,ComponentDrill
T4C1.000
; #@! TA.AperFunction,Plated,PTH,ComponentDrill
T5C1.100
%
G90
G05
T1
X175.4Y-90.8
X186.3Y-89.7
X188.4Y-80.3
X191.9Y-81.8
T2
X191.6Y-98.6
T3
X184.745Y-92.39
X187.3Y-92.4
T4
X158.025Y-78.3
X158.025Y-80.8
X158.025Y-83.3
X167.46Y-72.2
X170.0Y-72.2
X173.399Y-73.05
X173.399Y-75.59
X173.399Y-78.13
X173.399Y-80.67
X173.399Y-83.21
X173.399Y-85.75
X181.66Y-71.175
X184.2Y-71.175
X184.8Y-80.1
X184.8Y-82.64
X186.74Y-71.175
X188.72Y-85.1
X189.28Y-71.175
X191.26Y-85.1
X193.8Y-85.1
T5
X157.7Y-99.15
X157.7Y-103.65
X162.4Y-91.5
X162.4Y-96.0
X164.2Y-99.15
X164.2Y-103.65
X167.25Y-99.15
X167.25Y-103.65
X168.9Y-91.5
X168.9Y-96.0
X173.75Y-99.15
X173.75Y-103.65
T5
G00X165.175Y-76.0
M15
G01X165.875Y-76.0
M16
G05
G00X165.175Y-85.6
M15
G01X165.875Y-85.6
M16
G05
M30
